<svg xmlns="http://www.w3.org/2000/svg" width="527.38" height="470.29" viewBox="0 0 527.38 470.29">
  <g id="Grupo_1064874" data-name="Grupo 1064874" transform="translate(-537.78 -3492.568)">
    <path id="Trazado_799336" data-name="Trazado 799336" d="M131.072,25.7A193.194,193.194,0,0,0,13.013,203.817c0,2.463.06,4.916.151,7.365H55.113q-.176-3.662-.181-7.365a151.4,151.4,0,0,1,151.4-151.4V10.495A192.157,192.157,0,0,0,131.072,25.7" transform="translate(593 3533.5)" fill="#94e435"/>
    <path id="Trazado_799337" data-name="Trazado 799337" d="M206.335,52.414a151.4,151.4,0,0,1,151.4,151.4h41.92A193.2,193.2,0,0,0,206.335,10.495Z" transform="translate(593 3533.5)" fill="#ffc401"/>
    <path id="Trazado_799338" data-name="Trazado 799338" d="M13.164,196.533c-.091,2.449-.151,4.9-.151,7.365A193.194,193.194,0,0,0,206.335,397.22V355.3a151.4,151.4,0,0,1-151.4-151.4q0-3.7.181-7.365Z" transform="translate(593 3533.5)" fill="#0050db"/>
    <path id="Trazado_799339" data-name="Trazado 799339" d="M357.737,203.9a151.4,151.4,0,0,1-151.4,151.4V397.22A193.194,193.194,0,0,0,399.657,203.9Z" transform="translate(593 3533.5)" fill="#00a9ff"/>
    <path id="Trazado_799340" data-name="Trazado 799340" d="M206.335,4V59.144l31.432-27.572Z" transform="translate(593 3533.5)" fill="#94e435"/>
    <path id="Trazado_799341" data-name="Trazado 799341" d="M406.6,202.925H351.453l27.572,31.432Z" transform="translate(593 3533.5)" fill="#ffc401"/>
    <path id="Trazado_799342" data-name="Trazado 799342" d="M206.335,404.874V349.73L174.9,377.3Z" transform="translate(593 3533.5)" fill="#00a9ff"/>
    <path id="Trazado_799343" data-name="Trazado 799343" d="M6.518,197.168H61.662L34.09,165.736Z" transform="translate(593 3533.5)" fill="#0050db"/>
    <path id="Trazado_799344" data-name="Trazado 799344" d="M104.114,55.792A52.057,52.057,0,1,1,52.057,3.735a52.056,52.056,0,0,1,52.057,52.057" transform="translate(537.78 3503.302)" fill="#94e435"/>
    <path id="Trazado_799345" data-name="Trazado 799345" d="M341.747,57.851A52.057,52.057,0,1,0,393.805,5.793a52.056,52.056,0,0,0-52.058,52.058" transform="translate(619.299 3501.244)" fill="#ffc401"/>
    <path id="Trazado_799346" data-name="Trazado 799346" d="M341.747,385.677a52.057,52.057,0,1,0,52.058-52.055,52.058,52.058,0,0,0-52.058,52.055" transform="translate(619.299 3525.122)" fill="#00a9ff"/>
    <path id="Trazado_799347" data-name="Trazado 799347" d="M0,383.62a52.057,52.057,0,1,0,52.057-52.057A52.056,52.056,0,0,0,0,383.62" transform="translate(537.78 3527.182)" fill="#0050db"/>
    <text id="_4P" data-name="4P" transform="translate(800 3741)" fill="#12263f" font-size="89" font-family="Roboto-Black, Roboto" font-weight="800"><tspan x="-54.734" y="0">4P</tspan></text>
    <text id="Marketing_mix" data-name="Marketing mix" transform="translate(800 3775)" fill="#12263f" font-size="32" font-family="Roboto-BlackItalic, Roboto" font-weight="800" font-style="italic"><tspan x="-102.43" y="0">Marketing mix</tspan></text>
    <g id="compra-local" transform="translate(549 3503.73)">
      <g id="Grupo_1064844" data-name="Grupo 1064844">
        <path id="Trazado_799374" data-name="Trazado 799374" d="M32.47,116.32h68.092v59.069H32.47Z" transform="translate(-25.68 -91.996)" fill="#393e7a"/>
        <path id="Trazado_799375" data-name="Trazado 799375" d="M32.47,380.85h68.092V384.6H32.47Z" transform="translate(-25.68 -301.211)" fill="#3a3b6b"/>
        <path id="Trazado_799376" data-name="Trazado 799376" d="M59.72,187.07H88.23V213.2H59.72Z" transform="translate(-47.232 -147.952)" fill="#cbd0e8"/>
        <path id="Trazado_799377" data-name="Trazado 799377" d="M226.02,220.97h19.257v37.186H226.02Z" transform="translate(-178.757 -174.763)" fill="#f6b971"/>
        <path id="Trazado_799378" data-name="Trazado 799378" d="M233.43,229.95h16.162v35.308H233.43Z" transform="translate(-184.618 -181.865)" fill="#fee27c"/>
        <path id="Trazado_799379" data-name="Trazado 799379" d="M0,396.96H81.674v5.905H0Z" transform="translate(0 -313.952)" fill="#cbd0e8"/>
        <path id="Trazado_799380" data-name="Trazado 799380" d="M56,0h58.254V17.379H56Z" transform="translate(-44.29)" fill="#cbd0e8"/>
        <circle id="Elipse_4791" data-name="Elipse 4791" cx="1.46" cy="1.46" r="1.46" transform="translate(59.954 64.14)" fill="#fff"/>
        <path id="Trazado_799381" data-name="Trazado 799381" d="M244.33,241.25h11.781v11.781H244.33Z" transform="translate(-193.238 -190.802)" fill="#f6b971"/>
        <path id="Trazado_799382" data-name="Trazado 799382" d="M244.33,329.83h11.781v11.781H244.33Z" transform="translate(-193.238 -260.86)" fill="#f6b971"/>
        <g id="Grupo_1064843" data-name="Grupo 1064843" transform="translate(14.688 41.134)">
          <path id="Trazado_799383" data-name="Trazado 799383" d="M70.24,196.71H81.2v9.954H70.24Z" transform="translate(-70.24 -196.71)" fill="#97a7c3"/>
          <path id="Trazado_799384" data-name="Trazado 799384" d="M133.14,196.71H144.1v9.954H133.14Z" transform="translate(-119.987 -196.71)" fill="#97a7c3"/>
          <path id="Trazado_799385" data-name="Trazado 799385" d="M70.24,254.81H81.2v9.954H70.24Z" transform="translate(-70.24 -242.661)" fill="#97a7c3"/>
          <path id="Trazado_799386" data-name="Trazado 799386" d="M133.14,254.81H144.1v9.954H133.14Z" transform="translate(-119.987 -242.661)" fill="#97a7c3"/>
        </g>
      </g>
      <g id="Grupo_1064845" data-name="Grupo 1064845" transform="translate(19.14 3.793)">
        <path id="Trazado_799387" data-name="Trazado 799387" d="M91.555,25.582h2.329V25.9a2.72,2.72,0,0,0,.211,1.263.754.754,0,0,0,.713.366.786.786,0,0,0,.636-.278,1.151,1.151,0,0,0,.232-.759q0-.79-1.135-1.516c-.121-.084-.215-.148-.282-.19l-.121-.077a8.455,8.455,0,0,1-1.9-1.552,3.115,3.115,0,0,1-.41-.889,3.917,3.917,0,0,1-.14-1.079,3,3,0,0,1,.826-2.237,3.1,3.1,0,0,1,2.273-.811,3.332,3.332,0,0,1,2.4.8,3.054,3.054,0,0,1,.828,2.306q0,.063-.006.176T98,21.594H95.721v-.134a2.11,2.11,0,0,0-.222-1.079.711.711,0,0,0-.646-.366.723.723,0,0,0-.579.257,1.015,1.015,0,0,0-.22.682q0,.69,1.242,1.468l.345.226q.1.056.276.176a5.868,5.868,0,0,1,1.708,1.426,3.028,3.028,0,0,1,.355.851,4.151,4.151,0,0,1,.123,1.033,3.479,3.479,0,0,1-.847,2.511,3.2,3.2,0,0,1-2.419.882,3.331,3.331,0,0,1-2.48-.843,3.445,3.445,0,0,1-.828-2.509c0-.071,0-.144,0-.222S91.543,25.752,91.555,25.582Z" transform="translate(-91.53 -18.14)" fill="#97a7c3"/>
        <path id="Trazado_799388" data-name="Trazado 799388" d="M148.81,30.247V19.38h2.541v4.107h2.039V19.38h2.484V30.247h-2.484V25.739h-2.039v4.508Z" transform="translate(-136.832 -19.121)" fill="#97a7c3"/>
        <path id="Trazado_799389" data-name="Trazado 799389" d="M206.74,23.834a20.669,20.669,0,0,1,.14-2.865,3.683,3.683,0,0,1,.466-1.411,2.856,2.856,0,0,1,1.221-1.069,4.307,4.307,0,0,1,1.813-.349,4.257,4.257,0,0,1,1.811.349,2.891,2.891,0,0,1,1.211,1.069,3.6,3.6,0,0,1,.479,1.418,20.586,20.586,0,0,1,.14,2.859,20.6,20.6,0,0,1-.14,2.854,3.605,3.605,0,0,1-.479,1.422,2.868,2.868,0,0,1-1.211,1.066,4.822,4.822,0,0,1-3.624,0,2.891,2.891,0,0,1-1.221-1.066,3.72,3.72,0,0,1-.466-1.411A21.007,21.007,0,0,1,206.74,23.834Zm4.686.981V22.853a6.266,6.266,0,0,0-.23-2.233.856.856,0,0,0-.828-.427.832.832,0,0,0-.811.437,6.364,6.364,0,0,0-.226,2.223v1.961a6.381,6.381,0,0,0,.226,2.212.985.985,0,0,0,1.644.01A6.373,6.373,0,0,0,211.426,24.815Z" transform="translate(-182.649 -18.14)" fill="#97a7c3"/>
        <path id="Trazado_799390" data-name="Trazado 799390" d="M266.16,30.247V19.38h2.5a12.615,12.615,0,0,1,2.043.119,3.132,3.132,0,0,1,1.11.4,2.318,2.318,0,0,1,.914,1.089,4.316,4.316,0,0,1,.314,1.725,3.371,3.371,0,0,1-.872,2.509,3.5,3.5,0,0,1-2.557.857h-.9v4.163H266.16Zm2.555-6.19.13.015c.05,0,.119.006.209.006a1.466,1.466,0,0,0,1.1-.355,1.625,1.625,0,0,0,.339-1.146,1.141,1.141,0,0,0-.36-.945,1.941,1.941,0,0,0-1.2-.289h-.22v2.714Z" transform="translate(-229.643 -19.121)" fill="#97a7c3"/>
      </g>
      <g id="Grupo_1064846" data-name="Grupo 1064846" transform="translate(1.307 24.324)">
        <path id="Trazado_799391" data-name="Trazado 799391" d="M6.25,116.32v6.292a5.661,5.661,0,0,0,11.321,0V116.32Z" transform="translate(-6.25 -116.32)" fill="#e34859"/>
        <path id="Trazado_799392" data-name="Trazado 799392" d="M60.39,116.32v6.292a5.661,5.661,0,0,0,11.321,0V116.32Z" transform="translate(-49.069 -116.32)" fill="#fee27c"/>
        <path id="Trazado_799393" data-name="Trazado 799393" d="M114.23,116.32v6.292a5.661,5.661,0,1,0,11.321,0V116.32Z" transform="translate(-91.65 -116.32)" fill="#e34859"/>
        <path id="Trazado_799394" data-name="Trazado 799394" d="M168.37,116.32v6.292a5.661,5.661,0,1,0,11.321,0V116.32Z" transform="translate(-134.469 -116.32)" fill="#fee27c"/>
        <path id="Trazado_799395" data-name="Trazado 799395" d="M222.21,116.32v6.292a5.661,5.661,0,1,0,11.321,0V116.32Z" transform="translate(-177.051 -116.32)" fill="#e34859"/>
        <path id="Trazado_799396" data-name="Trazado 799396" d="M330.19,116.32v6.292a5.661,5.661,0,0,0,11.321,0V116.32Z" transform="translate(-262.451 -116.32)" fill="#e34859"/>
        <path id="Trazado_799397" data-name="Trazado 799397" d="M276.35,116.32v6.292a5.661,5.661,0,1,0,11.321,0V116.32Z" transform="translate(-219.87 -116.32)" fill="#fee27c"/>
      </g>
      <g id="Grupo_1064847" data-name="Grupo 1064847" transform="translate(23.901 16.994)">
        <path id="Trazado_799398" data-name="Trazado 799398" d="M118.79,81.27,114.3,88.6h11.323l1.5-7.329Z" transform="translate(-114.3 -81.27)" fill="#a0343d"/>
        <path id="Trazado_799399" data-name="Trazado 799399" d="M215.16,81.27l1.457,7.329h11.323l-4.452-7.329Z" transform="translate(-194.069 -81.27)" fill="#a0343d"/>
        <path id="Trazado_799400" data-name="Trazado 799400" d="M303.071,81.27H294.74l7.413,7.329h11.321Z" transform="translate(-257.008 -81.27)" fill="#a0343d"/>
      </g>
      <path id="Trazado_799401" data-name="Trazado 799401" d="M169.945,81.27l-1.5,7.329h11.323l-1.5-7.329Z" transform="translate(-133.226 -64.276)" fill="#f6b971"/>
      <path id="Trazado_799402" data-name="Trazado 799402" d="M16.7,81.27,6.25,88.6H17.571l7.463-7.329Z" transform="translate(-4.943 -64.276)" fill="#a0343d"/>
      <path id="Trazado_799403" data-name="Trazado 799403" d="M67.853,81.27,60.39,88.6H71.713l4.469-7.329Z" transform="translate(-47.762 -64.276)" fill="#f6b971"/>
      <path id="Trazado_799404" data-name="Trazado 799404" d="M255.04,81.27,259.5,88.6h11.323l-7.451-7.329Z" transform="translate(-201.709 -64.276)" fill="#f6b971"/>
      <g id="Grupo_1064848" data-name="Grupo 1064848" transform="translate(19.14 2.612)">
        <path id="Trazado_799405" data-name="Trazado 799405" d="M91.555,19.934h2.329v.318a2.72,2.72,0,0,0,.211,1.263.754.754,0,0,0,.713.366.786.786,0,0,0,.636-.278,1.151,1.151,0,0,0,.232-.759q0-.79-1.135-1.516c-.121-.084-.215-.148-.282-.19l-.121-.079a8.455,8.455,0,0,1-1.9-1.552,3.115,3.115,0,0,1-.41-.889,3.917,3.917,0,0,1-.14-1.079,3,3,0,0,1,.826-2.237,3.1,3.1,0,0,1,2.273-.811,3.332,3.332,0,0,1,2.4.8,3.054,3.054,0,0,1,.828,2.306q0,.063-.006.176T98,15.944H95.721v-.134a2.11,2.11,0,0,0-.222-1.079.711.711,0,0,0-.646-.366.723.723,0,0,0-.579.257,1.015,1.015,0,0,0-.22.682q0,.69,1.242,1.468l.345.226q.1.056.276.176A5.868,5.868,0,0,1,97.626,18.6a3.028,3.028,0,0,1,.355.851,4.151,4.151,0,0,1,.123,1.033A3.479,3.479,0,0,1,97.257,23a3.2,3.2,0,0,1-2.419.882,3.331,3.331,0,0,1-2.48-.843,3.445,3.445,0,0,1-.828-2.509c0-.071,0-.144,0-.222S91.543,20.1,91.555,19.934Z" transform="translate(-91.53 -12.49)" fill="#393e7a"/>
        <path id="Trazado_799406" data-name="Trazado 799406" d="M148.81,24.6V13.73h2.541v4.107h2.039V13.73h2.484V24.6h-2.484V20.089h-2.039V24.6Z" transform="translate(-136.832 -13.471)" fill="#393e7a"/>
        <path id="Trazado_799407" data-name="Trazado 799407" d="M206.74,18.184a20.669,20.669,0,0,1,.14-2.865,3.683,3.683,0,0,1,.466-1.411,2.856,2.856,0,0,1,1.221-1.069,4.307,4.307,0,0,1,1.813-.349,4.257,4.257,0,0,1,1.811.349,2.878,2.878,0,0,1,1.211,1.069,3.6,3.6,0,0,1,.479,1.418,20.586,20.586,0,0,1,.14,2.859,20.6,20.6,0,0,1-.14,2.854,3.605,3.605,0,0,1-.479,1.422,2.868,2.868,0,0,1-1.211,1.066,4.822,4.822,0,0,1-3.624,0,2.891,2.891,0,0,1-1.221-1.066,3.72,3.72,0,0,1-.466-1.411,21.007,21.007,0,0,1-.14-2.865Zm4.686.981V17.2a6.266,6.266,0,0,0-.23-2.233.856.856,0,0,0-.828-.427.832.832,0,0,0-.811.437,6.365,6.365,0,0,0-.226,2.223v1.961a6.381,6.381,0,0,0,.226,2.212.985.985,0,0,0,1.644.01A6.373,6.373,0,0,0,211.426,19.165Z" transform="translate(-182.649 -12.49)" fill="#393e7a"/>
        <path id="Trazado_799408" data-name="Trazado 799408" d="M266.16,24.6V13.73h2.5a12.614,12.614,0,0,1,2.043.119,3.132,3.132,0,0,1,1.11.4,2.318,2.318,0,0,1,.914,1.089,4.317,4.317,0,0,1,.314,1.725,3.371,3.371,0,0,1-.872,2.509,3.5,3.5,0,0,1-2.557.857h-.9V24.6Zm2.555-6.188.13.015a1.9,1.9,0,0,0,.209.006,1.466,1.466,0,0,0,1.1-.355,1.625,1.625,0,0,0,.339-1.146,1.141,1.141,0,0,0-.36-.945,1.941,1.941,0,0,0-1.2-.289h-.22V18.41Z" transform="translate(-229.643 -13.471)" fill="#393e7a"/>
      </g>
    </g>
    <g id="compra-en-linea" transform="translate(968.296 3492.568)">
      <path id="Trazado_799409" data-name="Trazado 799409" d="M101.68,112H30.473A6.474,6.474,0,0,0,24,118.473v61.5h84.154v-61.5A6.474,6.474,0,0,0,101.68,112Zm0,0" transform="translate(-19.145 -89.343)" fill="#00a9ff"/>
      <path id="Trazado_799410" data-name="Trazado 799410" d="M123.97,144H57.618A1.618,1.618,0,0,0,56,145.618V202.26h71.207V147.237A3.237,3.237,0,0,0,123.97,144Zm0,0" transform="translate(-44.672 -114.87)" fill="#87ced9"/>
      <path id="Trazado_799411" data-name="Trazado 799411" d="M222.932,200,176,246.932h46.932Zm0,0" transform="translate(-140.397 -159.542)" fill="#71c4d1"/>
      <path id="Trazado_799412" data-name="Trazado 799412" d="M248.275,0,253.3,5.517l7.111-2.265,1.594,7.291,7.291,1.594-2.265,7.111,5.517,5.027L267.033,29.3l2.265,7.111-7.291,1.594L260.413,45.3,253.3,43.033l-5.026,5.517-5.026-5.517L236.138,45.3l-1.594-7.291-7.291-1.594,2.265-7.111L224,24.275l5.517-5.027-2.265-7.111,7.291-1.594,1.594-7.291,7.111,2.265Zm0,0" transform="translate(-178.687)" fill="#94e435"/>
      <g id="Grupo_1064849" data-name="Grupo 1064849" transform="translate(56.642 14.565)">
        <path id="Trazado_799413" data-name="Trazado 799413" d="M298.344,90.527l16.183-16.183,2.289,2.288L300.632,92.816Zm0,0" transform="translate(-294.633 -73.87)" fill="#fd6d2f"/>
        <path id="Trazado_799414" data-name="Trazado 799414" d="M284.855,81.71a4.855,4.855,0,1,1,4.855-4.855A4.855,4.855,0,0,1,284.855,81.71Zm0-6.473a1.618,1.618,0,1,0,1.618,1.618A1.618,1.618,0,0,0,284.855,75.237Zm0,0" transform="translate(-280 -72)" fill="#fd6d2f"/>
        <path id="Trazado_799415" data-name="Trazado 799415" d="M364.855,129.71a4.855,4.855,0,1,1,4.855-4.855A4.855,4.855,0,0,1,364.855,129.71Zm0-6.473a1.618,1.618,0,1,0,1.618,1.618A1.618,1.618,0,0,0,364.855,123.237Zm0,0" transform="translate(-343.817 -110.29)" fill="#fd6d2f"/>
      </g>
      <path id="Trazado_799416" data-name="Trazado 799416" d="M117.677,334.391l-5.814,2.358,3.794,7.678h6.367Zm0,0" transform="translate(-89.235 -266.746)" fill="#e0e3e6"/>
      <path id="Trazado_799417" data-name="Trazado 799417" d="M143.574,238.617l-20.108-.326-4.345-8.6,15.934-15.769Zm0,0" transform="translate(-95.024 -170.647)" fill="#e0e3e6"/>
      <path id="Trazado_799418" data-name="Trazado 799418" d="M88.246,299.7a4.693,4.693,0,0,0,6.541,2.682l3.859-1.91-4.345-8.6-4.021,2.387a4.614,4.614,0,0,0-2.034,5.442Zm0,0" transform="translate(-70.203 -232.828)" fill="#e3584b"/>
      <path id="Trazado_799419" data-name="Trazado 799419" d="M241.281,258.7l5.352-1.86,1.061,3.056-5.351,1.86Zm0,0" transform="translate(-192.472 -204.886)" fill="#5eb3d1"/>
      <path id="Trazado_799420" data-name="Trazado 799420" d="M220.492,198.185l3.569-3.72,2.336,2.241-3.57,3.72Zm0,0" transform="translate(-175.888 -155.126)" fill="#5eb3d1"/>
      <path id="Trazado_799421" data-name="Trazado 799421" d="M264,320h4.855v3.237H264Zm0,0" transform="translate(-210.595 -255.266)" fill="#5eb3d1"/>
      <path id="Trazado_799422" data-name="Trazado 799422" d="M312,272h30.748v19.42H312Zm0,0" transform="translate(-248.885 -216.976)" fill="#e3584b"/>
      <path id="Trazado_799423" data-name="Trazado 799423" d="M336,296h6.473v3.237H336Zm0,0" transform="translate(-268.03 -236.121)" fill="#c9433c"/>
      <path id="Trazado_799424" data-name="Trazado 799424" d="M384,296h11.328v3.237H384Zm0,0" transform="translate(-306.32 -236.121)" fill="#c9433c"/>
      <path id="Trazado_799425" data-name="Trazado 799425" d="M336,328h21.038v3.237H336Zm0,0" transform="translate(-268.03 -261.648)" fill="#c9433c"/>
      <path id="Trazado_799426" data-name="Trazado 799426" d="M0,176H24.275v12.947H0Zm0,0" transform="translate(0 -140.397)" fill="#fd6d2f"/>
      <path id="Trazado_799427" data-name="Trazado 799427" d="M24,200h3.237v3.237H24Zm0,0" transform="translate(-19.145 -159.542)" fill="#e3584b"/>
      <path id="Trazado_799428" data-name="Trazado 799428" d="M56,200h8.092v3.237H56Zm0,0" transform="translate(-44.672 -159.542)" fill="#e3584b"/>
      <path id="Trazado_799429" data-name="Trazado 799429" d="M89.009,425.71H4.855A4.855,4.855,0,0,1,0,420.855V416H37.031a2.927,2.927,0,0,1,2.619,1.618,2.927,2.927,0,0,0,2.619,1.618H51.6a2.927,2.927,0,0,0,2.619-1.618A2.927,2.927,0,0,1,56.833,416H93.864v4.855a4.855,4.855,0,0,1-4.855,4.855Zm0,0" transform="translate(0 -331.846)" fill="#d6d9db"/>
      <path id="Trazado_799430" data-name="Trazado 799430" d="M68.947,192v9.71H56v3.237H72.183V192Zm0,0" transform="translate(-44.672 -153.16)" fill="#71c4d1"/>
      <path id="Trazado_799431" data-name="Trazado 799431" d="M24,240h6.473v3.237H24Zm0,0" transform="translate(-19.145 -191.45)" fill="#3e8cc7"/>
      <path id="Trazado_799432" data-name="Trazado 799432" d="M408,368h6.473v3.237H408Zm0,0" transform="translate(-325.465 -293.556)" fill="#3e8cc7"/>
    </g>
    <g id="etiquetas-de-precio" transform="translate(957.053 3837)">
      <g id="Grupo_1064850" data-name="Grupo 1064850" transform="translate(32.8 23.75)">
        <path id="Trazado_799433" data-name="Trazado 799433" d="M137.55,71.5a1.55,1.55,0,1,1,0-3.1,3.1,3.1,0,0,0,3.1-3.1V62.2a3.1,3.1,0,0,0-3.1-3.1,1.55,1.55,0,1,1,0-3.1,6.207,6.207,0,0,1,6.2,6.2v3.1A6.207,6.207,0,0,1,137.55,71.5Z" transform="translate(-136 -56)" fill="#463c4b"/>
      </g>
      <g id="Grupo_1064854" data-name="Grupo 1064854" transform="translate(18.85 29.95)">
        <g id="Grupo_1064851" data-name="Grupo 1064851" transform="translate(0 0)">
          <path id="Trazado_799434" data-name="Trazado 799434" d="M97.193,101.041,85.059,88.907A3.1,3.1,0,0,0,82.867,88H79.235a3.1,3.1,0,0,0-2.192.908L64.909,101.041A3.1,3.1,0,0,0,64,103.233V134.5a3.1,3.1,0,0,0,3.1,3.1H95a3.1,3.1,0,0,0,3.1-3.1V103.233A3.1,3.1,0,0,0,97.193,101.041Z" transform="translate(-64.001 -87.999)" fill="#a5c3dc"/>
        </g>
        <g id="Grupo_1064852" data-name="Grupo 1064852" transform="translate(0 0)">
          <path id="Trazado_799435" data-name="Trazado 799435" d="M64,103.234V134.5a3.1,3.1,0,0,0,3.1,3.1H91.9a3.1,3.1,0,0,0,3.1-3.1V103.234a3.1,3.1,0,0,0-.908-2.192L81.958,88.908A3.1,3.1,0,0,0,79.766,88h-.532a3.1,3.1,0,0,0-2.192.908L64.908,101.042A3.1,3.1,0,0,0,64,103.234Z" transform="translate(-64 -88)" fill="#e6e6eb"/>
        </g>
        <g id="Grupo_1064853" data-name="Grupo 1064853" transform="translate(10.85 3.1)">
          <circle id="Elipse_4792" data-name="Elipse 4792" cx="4.5" cy="4.5" r="4.5" transform="translate(0.3 -0.05)" fill="#a5c3dc"/>
        </g>
      </g>
      <path id="Trazado_799436" data-name="Trazado 799436" d="M117.95,180.4a1.55,1.55,0,0,0,1.55-1.55v-.3a5.909,5.909,0,0,0-5.9-5.9h-.3v-3.1a1.55,1.55,0,0,0-3.1,0v3.1h-.3a5.9,5.9,0,0,0-1.431,11.628l5.807,1.452a2.8,2.8,0,0,1-.679,5.521h-3.7a2.805,2.805,0,0,1-2.8-2.8v-.3a1.55,1.55,0,1,0-3.1,0v.3a5.909,5.909,0,0,0,5.9,5.9h.3v3.1a1.55,1.55,0,1,0,3.1,0v-3.1h.3a5.9,5.9,0,0,0,1.431-11.628l-5.807-1.452a2.8,2.8,0,0,1,.679-5.521h3.7a2.805,2.805,0,0,1,2.8,2.8v.3A1.55,1.55,0,0,0,117.95,180.4Z" transform="translate(-77.4 -122.55)" fill="#ff4646"/>
      <g id="Grupo_1064866" data-name="Grupo 1064866" transform="translate(8 71.8)">
        <g id="Grupo_1064855" data-name="Grupo 1064855" transform="translate(49.6 23.25)">
          <path id="Trazado_799437" data-name="Trazado 799437" d="M285.7,424H267.1a3.1,3.1,0,0,0-3.1,3.1v10.85h24.8V427.1A3.1,3.1,0,0,0,285.7,424Z" transform="translate(-264 -424)" fill="#463c4b"/>
        </g>
        <g id="Grupo_1064856" data-name="Grupo 1064856" transform="translate(62 26.35)">
          <path id="Trazado_799438" data-name="Trazado 799438" d="M340.4,440h-9.3a3.1,3.1,0,0,0-3.1,3.1v7.75h12.4Z" transform="translate(-328 -440)" fill="#32283c"/>
        </g>
        <g id="Grupo_1064857" data-name="Grupo 1064857" transform="translate(52.7 3.1)">
          <path id="Trazado_799439" data-name="Trazado 799439" d="M300.15,320H289.3a9.3,9.3,0,0,0-9.3,9.3v10.85h9.3V332.4a3.1,3.1,0,0,1,3.1-3.1h7.75a4.65,4.65,0,1,0,0-9.3Z" transform="translate(-280 -320)" fill="#fab991"/>
        </g>
        <g id="Grupo_1064858" data-name="Grupo 1064858" transform="translate(62 0)">
          <path id="Trazado_799440" data-name="Trazado 799440" d="M361.192,304.909a3.1,3.1,0,0,0-4.384,0L345.316,316.4H331.1a3.1,3.1,0,0,0-3.1,3.1v7.75h9.3V325.7a3.1,3.1,0,0,1,3.1-3.1h5.558a4.619,4.619,0,0,0,3.288-1.362l11.946-11.946A3.1,3.1,0,0,0,361.192,304.909Z" transform="translate(-328 -304.001)" fill="#f0915a"/>
        </g>
        <g id="Grupo_1064859" data-name="Grupo 1064859" transform="translate(70.267 5.166)">
          <path id="Trazado_799441" data-name="Trazado 799441" d="M373.25,335.833h-1.033a1.55,1.55,0,0,1-1.55-1.55v-2.067a1.55,1.55,0,0,1,1.55-1.55h1.033a2.583,2.583,0,0,1,0,5.167Z" transform="translate(-370.667 -330.666)" fill="#f0915a"/>
        </g>
        <g id="Grupo_1064860" data-name="Grupo 1064860" transform="translate(21.7 31)">
          <path id="Trazado_799442" data-name="Trazado 799442" d="M141.7,464H123.1a3.1,3.1,0,0,0-3.1,3.1v3.1h24.8v-3.1A3.1,3.1,0,0,0,141.7,464Z" transform="translate(-120 -464)" fill="#463c4b"/>
        </g>
        <g id="Grupo_1064861" data-name="Grupo 1064861" transform="translate(34.1 34.1)">
          <path id="Trazado_799443" data-name="Trazado 799443" d="M196.4,480h-9.3a3.1,3.1,0,0,0-3.1,3.1h12.4Z" transform="translate(-184 -480)" fill="#32283c"/>
        </g>
        <g id="Grupo_1064862" data-name="Grupo 1064862" transform="translate(18.6 10.85)">
          <path id="Trazado_799444" data-name="Trazado 799444" d="M108.65,360H119.5a9.3,9.3,0,0,1,9.3,9.3H108.65a4.65,4.65,0,0,1,0-9.3Z" transform="translate(-104 -360)" fill="#fab991"/>
        </g>
        <g id="Grupo_1064863" data-name="Grupo 1064863" transform="translate(20.667 12.916)">
          <path id="Trazado_799445" data-name="Trazado 799445" d="M117.25,375.833h1.033a1.55,1.55,0,0,0,1.55-1.55v-2.067a1.55,1.55,0,0,0-1.55-1.55H117.25a2.583,2.583,0,0,0,0,5.167Z" transform="translate(-114.667 -370.666)" fill="#f0915a"/>
        </g>
        <g id="Grupo_1064864" data-name="Grupo 1064864" transform="translate(0 7.75)">
          <path id="Trazado_799446" data-name="Trazado 799446" d="M24.784,356.4,13.292,344.909a3.1,3.1,0,1,0-4.384,4.384l11.946,11.946a4.619,4.619,0,0,0,3.288,1.362H29.7a3.1,3.1,0,0,1,3.1,3.1v1.55H51.4V356.4Z" transform="translate(-8 -344.001)" fill="#f0915a"/>
        </g>
        <g id="Grupo_1064865" data-name="Grupo 1064865" transform="translate(21.7 26.35)">
          <path id="Trazado_799447" data-name="Trazado 799447" d="M120,440a3.1,3.1,0,0,1,3.1,3.1v1.55h9.3V443.1a3.1,3.1,0,0,0-3.1-3.1Z" transform="translate(-120 -440)" fill="#fab991"/>
        </g>
      </g>
      <g id="Grupo_1064867" data-name="Grupo 1064867" transform="translate(28.15 23.75)">
        <path id="Trazado_799448" data-name="Trazado 799448" d="M118.2,71.5a6.207,6.207,0,0,1-6.2-6.2V62.2a6.207,6.207,0,0,1,6.2-6.2,1.55,1.55,0,0,1,0,3.1,3.1,3.1,0,0,0-3.1,3.1v3.1a3.1,3.1,0,0,0,3.1,3.1,1.55,1.55,0,0,1,0,3.1Z" transform="translate(-112 -56)" fill="#463c4b"/>
      </g>
      <g id="Grupo_1064868" data-name="Grupo 1064868" transform="translate(73.1 16)">
        <path id="Trazado_799449" data-name="Trazado 799449" d="M345.55,31.5a1.55,1.55,0,0,1,0-3.1,3.1,3.1,0,0,0,3.1-3.1V22.2a3.1,3.1,0,0,0-3.1-3.1,1.55,1.55,0,0,1,0-3.1,6.207,6.207,0,0,1,6.2,6.2v3.1A6.207,6.207,0,0,1,345.55,31.5Z" transform="translate(-344 -16)" fill="#463c4b"/>
      </g>
      <g id="Grupo_1064872" data-name="Grupo 1064872" transform="translate(59.15 22.2)">
        <g id="Grupo_1064869" data-name="Grupo 1064869" transform="translate(0)">
          <path id="Trazado_799450" data-name="Trazado 799450" d="M305.193,61.041,293.059,48.907A3.1,3.1,0,0,0,290.867,48h-3.632a3.1,3.1,0,0,0-2.192.908L272.909,61.041A3.1,3.1,0,0,0,272,63.233V94.5a3.1,3.1,0,0,0,3.1,3.1H303a3.1,3.1,0,0,0,3.1-3.1V63.233a3.1,3.1,0,0,0-.908-2.192Z" transform="translate(-272.001 -47.999)" fill="#cd3232"/>
        </g>
        <g id="Grupo_1064870" data-name="Grupo 1064870" transform="translate(0 0)">
          <path id="Trazado_799451" data-name="Trazado 799451" d="M272,63.234V94.5a3.1,3.1,0,0,0,3.1,3.1h24.8a3.1,3.1,0,0,0,3.1-3.1V63.234a3.1,3.1,0,0,0-.908-2.192L289.958,48.908A3.1,3.1,0,0,0,287.766,48h-.532a3.1,3.1,0,0,0-2.192.908L272.908,61.042A3.1,3.1,0,0,0,272,63.234Z" transform="translate(-272 -48)" fill="#ff4646"/>
        </g>
        <g id="Grupo_1064871" data-name="Grupo 1064871" transform="translate(10.85 3.1)">
          <ellipse id="Elipse_4793" data-name="Elipse 4793" cx="4.5" cy="5" rx="4.5" ry="5" transform="translate(0 -0.3)" fill="#cd3232"/>
        </g>
      </g>
      <path id="Trazado_799452" data-name="Trazado 799452" d="M325.95,140.4a1.55,1.55,0,0,0,1.55-1.55v-.3a5.909,5.909,0,0,0-5.9-5.9h-.3v-3.1a1.55,1.55,0,1,0-3.1,0v3.1h-.3a5.9,5.9,0,0,0-1.431,11.628l5.807,1.452a2.8,2.8,0,0,1-.679,5.521h-3.7a2.805,2.805,0,0,1-2.8-2.8v-.3a1.55,1.55,0,0,0-3.1,0v.3a5.909,5.909,0,0,0,5.9,5.9h.3v3.1a1.55,1.55,0,1,0,3.1,0v-3.1h.3a5.9,5.9,0,0,0,1.431-11.628l-5.807-1.452a2.8,2.8,0,0,1,.679-5.521h3.7a2.805,2.805,0,0,1,2.8,2.8v.3A1.55,1.55,0,0,0,325.95,140.4Z" transform="translate(-245.1 -90.3)" fill="#e6e6eb"/>
      <g id="Grupo_1064873" data-name="Grupo 1064873" transform="translate(68.45 16)">
        <path id="Trazado_799453" data-name="Trazado 799453" d="M326.2,31.5a6.207,6.207,0,0,1-6.2-6.2V22.2a6.207,6.207,0,0,1,6.2-6.2,1.55,1.55,0,0,1,0,3.1,3.1,3.1,0,0,0-3.1,3.1v3.1a3.1,3.1,0,0,0,3.1,3.1,1.55,1.55,0,0,1,0,3.1Z" transform="translate(-320 -16)" fill="#463c4b"/>
      </g>
    </g>
    <g id="carrito-de-supermercado" transform="translate(537.78 3853.599)">
      <path id="Trazado_799454" data-name="Trazado 799454" d="M291.062,114.268H276.317l5.9-16.22h8.847Z" transform="translate(-226.184 -74.036)" fill="#d6bdef"/>
      <path id="Trazado_799455" data-name="Trazado 799455" d="M450.91,50.161a1.5,1.5,0,0,1-1.41-2l4.552-12.693a1.5,1.5,0,1,1,2.821,1.011L452.32,49.168a1.5,1.5,0,0,1-1.411.994Z" transform="translate(-367.873 -21.993)" fill="#95d6a4"/>
      <path id="Trazado_799456" data-name="Trazado 799456" d="M441.824,68.259a1.5,1.5,0,0,1-1.5-1.444l-.291-8.064A1.5,1.5,0,0,1,441.48,57.2a1.477,1.477,0,0,1,1.551,1.443l.291,8.064a1.5,1.5,0,0,1-1.443,1.552Z" transform="translate(-360.199 -40.597)" fill="#95d6a4"/>
      <path id="Trazado_799457" data-name="Trazado 799457" d="M458.685,82.97a1.5,1.5,0,0,1-1.122-2.492l5.349-6.041a1.5,1.5,0,0,1,2.245,1.987l-5.349,6.041A1.5,1.5,0,0,1,458.685,82.97Z" transform="translate(-374.238 -54.297)" fill="#b3e59f"/>
      <path id="Trazado_799458" data-name="Trazado 799458" d="M409.932,106.614a5.993,5.993,0,0,0-7.664,3.618l-3.521,9.688h12.781l2.023-5.641A5.993,5.993,0,0,0,409.932,106.614Z" transform="translate(-326.4 -80.758)" fill="#ffa95f"/>
      <path id="Trazado_799459" data-name="Trazado 799459" d="M375.945,50.769,374.7,49.528a3,3,0,0,1-.878-2.119V42.657a1.5,1.5,0,0,0-1.5-1.5h-1.5l-.7.876V66.63h6.69V52.888A3,3,0,0,0,375.945,50.769Z" transform="translate(-302.979 -27.468)" fill="#dbeaff"/>
      <path id="Trazado_799460" data-name="Trazado 799460" d="M346.932,74.191h-3v.257a3,3,0,0,1-.878,2.119l-1.241,1.241a3,3,0,0,0-.878,2.119v4.752l5.993,8.99V74.191Z" transform="translate(-279.081 -54.507)" fill="#c3ddff"/>
      <path id="Trazado_799461" data-name="Trazado 799461" d="M360.453,47.152h-3V42.657a1.5,1.5,0,0,1,1.5-1.5h1.5a1.5,1.5,0,0,1,1.5,1.5Z" transform="translate(-292.602 -27.468)" fill="#b6b1b7"/>
      <path id="Trazado_799462" data-name="Trazado 799462" d="M340.94,132h3a3,3,0,0,1,3,3v5.993H340.94Z" transform="translate(-279.082 -101.826)" fill="#b6b1b7"/>
      <path id="Trazado_799463" data-name="Trazado 799463" d="M375.47,41.159h-1.5v5.993h3V42.657A1.5,1.5,0,0,0,375.47,41.159Z" transform="translate(-306.121 -27.468)" fill="#c8c5c9"/>
      <path id="Trazado_799464" data-name="Trazado 799464" d="M458.538,136.7a1.5,1.5,0,0,0-1.013,2.821l2.821,1.012h0l.506-1.411a5.935,5.935,0,0,0,.328-1.475Z" transform="translate(-373.703 -105.604)" fill="#ff8b5a"/>
      <path id="Trazado_799465" data-name="Trazado 799465" d="M412.526,130.972l2.821,1.012a1.5,1.5,0,0,0,1.012-2.821l-2.821-1.012h0l-1.023,2.814S412.522,130.97,412.526,130.972Z" transform="translate(-337.671 -98.677)" fill="#ff8b5a"/>
      <path id="Trazado_799466" data-name="Trazado 799466" d="M276.317,98.048h5.9v16.22h-5.9Z" transform="translate(-226.184 -74.036)" fill="#c3aff0"/>
      <path id="Trazado_799467" data-name="Trazado 799467" d="M165.211,37.046a47.807,47.807,0,0,1-.794,7.212c-.912,2.488-4.217,6.793-3.081,11.847l2.643,10.06,11.986,5.993-7.394-34.9Z" transform="translate(-131.872 -24.101)" fill="#ffe07d"/>
      <path id="Trazado_799468" data-name="Trazado 799468" d="M165.357,37.7l-1.479-.782-1.213,1.324.13,1.64a5.946,5.946,0,0,1-.343,2.523C161.54,44.9,159.661,50.948,160.8,56l8.636,10.06Z" transform="translate(-131.333 -23.999)" fill="#ffd064"/>
      <path id="Trazado_799469" data-name="Trazado 799469" d="M175.927,9.62a2.515,2.515,0,0,0-3.42-1.832,2.56,2.56,0,0,0-1.535,2.606l.305,3.852,5.367-1.085Z" transform="translate(-139.945)" fill="#c38c66"/>
      <path id="Trazado_799470" data-name="Trazado 799470" d="M130.287,73.628l-4.242-1.165,5.322,21.194h8.41Z" transform="translate(-103.176 -53.093)" fill="#ffe07d"/>
      <path id="Trazado_799471" data-name="Trazado 799471" d="M123.1,83.046l-.949,1.588.52,1.561a5.947,5.947,0,0,1,.273,2.532c-.287,2.634-.657,8.961,1.66,13.594h7.764l-7.719-18.869Z" transform="translate(-99.986 -61.755)" fill="#ffd064"/>
      <path id="Trazado_799472" data-name="Trazado 799472" d="M119.4,54.391a2.516,2.516,0,0,0-3.76-.957,2.56,2.56,0,0,0-.864,2.9L116,60l4.949-2.343Z" transform="translate(-93.84 -37.12)" fill="#c38c66"/>
      <path id="Trazado_799473" data-name="Trazado 799473" d="M217.863,123.216h-6.374a1.5,1.5,0,0,0-1.5,1.5v8.99h14.983v-3Z" transform="translate(-171.892 -94.637)" fill="#b3e59f"/>
      <path id="Trazado_799474" data-name="Trazado 799474" d="M238.493,133.365H229.5a3,3,0,0,1-3-3v-3l1.972-.909H236.7l1.789.909Z" transform="translate(-185.411 -97.295)" fill="#ccf49f"/>
      <path id="Trazado_799475" data-name="Trazado 799475" d="M219.747,65.409h10.488a1.5,1.5,0,0,1,1.5,1.5V77.4H219.747l-1.5-10.488a1.5,1.5,0,0,1,1.5-1.5Z" transform="translate(-178.651 -47.318)" fill="#dad8db"/>
      <path id="Trazado_799476" data-name="Trazado 799476" d="M211.489,65.409a1.5,1.5,0,0,0-1.5,1.5V77.4h3V65.409Z" transform="translate(-171.892 -47.318)" fill="#c8c5c9"/>
      <path id="Trazado_799477" data-name="Trazado 799477" d="M239.26,93.18h-3a1.5,1.5,0,0,1,0-3h3a1.5,1.5,0,0,1,0,3Z" transform="translate(-192.171 -67.598)" fill="#ccf49f"/>
      <path id="Trazado_799478" data-name="Trazado 799478" d="M46.307,120.42l-3.626-9.482A7.415,7.415,0,0,0,35.8,106.2H32.508v2.949H35.8a4.45,4.45,0,0,1,4.131,2.844l3.624,9.482a1.475,1.475,0,0,0,1.378.947,1.509,1.509,0,0,0,.527-.1A1.477,1.477,0,0,0,46.307,120.42Z" transform="translate(-26.61 -80.708)" fill="#dad8db"/>
      <path id="Trazado_799479" data-name="Trazado 799479" d="M186.781,373.346h-61.2l7.795-18.929a6.7,6.7,0,0,1-2.732-1.111l-8.628,20.953a1.474,1.474,0,0,0,1.364,2.036h63.4a1.475,1.475,0,0,0,0-2.949Z" transform="translate(-99.786 -282.981)" fill="#dad8db"/>
      <circle id="Elipse_4794" data-name="Elipse 4794" cx="5.898" cy="5.898" r="5.898" transform="translate(17.694 85.941)" fill="#5d5360"/>
      <circle id="Elipse_4795" data-name="Elipse 4795" cx="2.949" cy="2.949" r="2.949" transform="translate(20.643 88.891)" fill="#c8c5c9"/>
      <path id="Trazado_799480" data-name="Trazado 799480" d="M170.82,179.343H97.39L97,181.19l9.8,27.723c1.962,5.132,5.948,6.662,11.39,5.9l47.754-6.663s5.431-2.091,5.435-2.169c.05-1.212.919-2.279.919-3.566v-21.6A1.475,1.475,0,0,0,170.82,179.343Z" transform="translate(-79.401 -140.581)" fill="#ff8086"/>
      <circle id="Elipse_4796" data-name="Elipse 4796" cx="5.898" cy="5.898" r="5.898" transform="translate(81.098 85.941)" fill="#5d5360"/>
      <circle id="Elipse_4797" data-name="Elipse 4797" cx="2.949" cy="2.949" r="2.949" transform="translate(84.047 88.891)" fill="#c8c5c9"/>
      <path id="Trazado_799481" data-name="Trazado 799481" d="M5.9,109.124H1.475a1.475,1.475,0,1,1,0-2.949H5.9a1.475,1.475,0,1,1,0,2.949Z" transform="translate(0 -80.688)" fill="#5d5360"/>
      <path id="Trazado_799482" data-name="Trazado 799482" d="M161.9,205.983l-53.6,7.479a8.84,8.84,0,0,1-9.486-5.6l-10.9-28.517H86.9a1.475,1.475,0,0,0-1.377,2l10.541,27.569a11.8,11.8,0,0,0,12.648,7.47l47.754-6.663A7.393,7.393,0,0,0,161.9,205.983Z" transform="translate(-69.923 -140.581)" fill="#e5646e"/>
      <path id="Trazado_799483" data-name="Trazado 799483" d="M164.02,231.931a1.471,1.471,0,0,1-1.811-1.031l-6.948-25.314a1.474,1.474,0,0,1,2.842-.78l6.948,25.314A1.473,1.473,0,0,1,164.02,231.931Z" transform="translate(-127.048 -160.536)" fill="#ffe07d"/>
      <path id="Trazado_799484" data-name="Trazado 799484" d="M230.552,230.788a1.407,1.407,0,0,1-.243.02,1.474,1.474,0,0,1-1.453-1.233l-4.01-24.142a1.474,1.474,0,1,1,2.909-.484l4.01,24.142A1.474,1.474,0,0,1,230.552,230.788Z" transform="translate(-184.034 -160.531)" fill="#b3e59f"/>
      <path id="Trazado_799485" data-name="Trazado 799485" d="M297.329,229.428l-.086,0a1.474,1.474,0,0,1-1.47-1.39l-1.315-22.756a1.474,1.474,0,0,1,2.943-.17l1.315,22.756a1.472,1.472,0,0,1-1.387,1.557Z" transform="translate(-241.031 -160.541)" fill="#d6bdef"/>
      <path id="Trazado_799486" data-name="Trazado 799486" d="M356.473,226.537a1.475,1.475,0,0,1-2.949,0V205.2a1.475,1.475,0,0,1,2.949,0Z" transform="translate(-289.383 -160.538)" fill="#a4ccff"/>
      <path id="Trazado_799487" data-name="Trazado 799487" d="M408.282,225.3a1.475,1.475,0,1,1-2.949,0V205.2a1.475,1.475,0,0,1,2.949,0Z" transform="translate(-331.792 -160.538)" fill="#ffd064"/>
      <path id="Trazado_799488" data-name="Trazado 799488" d="M458.06,223.657a1.474,1.474,0,1,1-2.949,0V205.174a1.474,1.474,0,1,1,2.949,0Z" transform="translate(-372.539 -160.518)" fill="#ffa95f"/>
    </g>
    <text id="Plaza" transform="translate(691.872 3615.539) rotate(-43)" fill="#12263f" font-size="20" font-family="Roboto-Black, Roboto" font-weight="800"><tspan x="-25.02" y="0">Plaza</tspan></text>
    <text id="Promoción" transform="translate(920.982 3632.387) rotate(47)" fill="#12263f" font-size="20" font-family="Roboto-Black, Roboto" font-weight="800"><tspan x="-49.165" y="0">Promoción</tspan></text>
    <text id="Precio" transform="translate(907.216 3858.699) rotate(137)" fill="#12263f" font-size="20" font-family="Roboto-Black, Roboto" font-weight="800"><tspan x="-29.209" y="0">Precio</tspan></text>
    <text id="Producto" transform="translate(679.219 3845.07) rotate(-137)" fill="#fff" font-size="20" font-family="Roboto-Black, Roboto" font-weight="800"><tspan x="-41.099" y="0">Producto</tspan></text>
  </g>
</svg>
