<svg xmlns="http://www.w3.org/2000/svg" xmlns:xlink="http://www.w3.org/1999/xlink" width="79" height="79" viewBox="0 0 79 79">
  <defs>
    <clipPath id="clip-path">
      <rect id="Rectángulo_373632" data-name="Rectángulo 373632" width="79" height="79" transform="translate(445 1545)" fill="#0050db"/>
    </clipPath>
  </defs>
  <g id="Enmascarar_grupo_1059033" data-name="Enmascarar grupo 1059033" transform="translate(-445 -1545)" clip-path="url(#clip-path)">
    <g id="Page-1" transform="translate(445 1545.002)">
      <g id="_084---Social-Media-Engagement" data-name="084---Social-Media-Engagement">
        <path id="Rectangle" d="M9.217,17.117H69.783v27.65H9.217Z" fill="#f5f5f5" fill-rule="evenodd"/>
        <path id="Rectangle-2" data-name="Rectangle" d="M65.833,17.117h3.95v27.65h-3.95Z" fill="#cfd8dc" fill-rule="evenodd"/>
        <path id="Path" d="M51.35,44.767v23.7A2.641,2.641,0,0,1,48.717,71.1H39.5l-9.44,6.32a1.552,1.552,0,0,1-2.409-1.3V71.1H25.017a2.641,2.641,0,0,1-2.633-2.633v-23.7a2.641,2.641,0,0,1,2.633-2.633h23.7a2.641,2.641,0,0,1,2.633,2.633Z" fill="#02a9f4" fill-rule="evenodd"/>
        <path id="Path-2" data-name="Path" d="M48.717,42.133h-3.95A2.641,2.641,0,0,1,47.4,44.767v23.7A2.641,2.641,0,0,1,44.767,71.1h3.95a2.641,2.641,0,0,0,2.633-2.633v-23.7A2.641,2.641,0,0,0,48.717,42.133Z" fill="#0377bc" fill-rule="evenodd"/>
        <path id="Path-3" data-name="Path" d="M22.383,44.767H3.95A2.641,2.641,0,0,0,1.317,47.4V65.833A2.641,2.641,0,0,0,3.95,68.467H5.267v5.068a1.514,1.514,0,0,0,2.354,1.259l9.5-6.327h5.267Z" fill="#ffdc00" fill-rule="evenodd"/>
        <path id="Path-4" data-name="Path" d="M51.35,68.467H55.3v5.067a1.514,1.514,0,0,0,2.354,1.26l9.5-6.327h7.9a2.633,2.633,0,0,0,2.633-2.633V47.4a2.633,2.633,0,0,0-2.633-2.633H51.35Z" fill="#ffdc00" fill-rule="evenodd"/>
        <path id="Path-5" data-name="Path" d="M75.05,44.767H71.1A2.633,2.633,0,0,1,73.733,47.4V65.833A2.633,2.633,0,0,1,71.1,68.467h3.95a2.633,2.633,0,0,0,2.633-2.633V47.4A2.633,2.633,0,0,0,75.05,44.767Z" fill="#fec108" fill-rule="evenodd"/>
        <path id="Path-6" data-name="Path" d="M15.8,53.559a3.9,3.9,0,0,1,3.292-2.209,3.537,3.537,0,0,1,3.292,3.843c0,2.682-2.317,4.52-5.783,7.693a1.185,1.185,0,0,1-1.6,0c-3.465-3.173-5.783-5.011-5.783-7.693a3.537,3.537,0,0,1,3.292-3.843A3.9,3.9,0,0,1,15.8,53.559Z" fill="#e91e63" fill-rule="evenodd"/>
        <path id="Path-7" data-name="Path" d="M46.064,56.938l-.658,5.275a2.62,2.62,0,0,1-2.614,2.3h-6.62a2.633,2.633,0,0,1-1.177-.278L32.917,63.2V55.3l1.905-.953a1.317,1.317,0,0,0,.728-1.177V50.181a2.732,2.732,0,0,1,2.4-2.765,2.649,2.649,0,0,1,2.866,2.618v2.633a1.317,1.317,0,0,0,1.317,1.317H43.45a2.633,2.633,0,0,1,2.614,2.955Z" fill="#ffe0b2" fill-rule="evenodd"/>
        <rect id="Rectangle-3" data-name="Rectangle" width="5.267" height="10.533" rx="1.317" transform="translate(27.65 53.983)" fill="#f5f5f5"/>
        <path id="Path-8" data-name="Path" d="M69.783,7.9v9.217H9.217V7.9A6.583,6.583,0,0,1,15.8,1.317H63.2A6.583,6.583,0,0,1,69.783,7.9Z" fill="#02a9f4" fill-rule="evenodd"/>
        <path id="Path-9" data-name="Path" d="M63.2,1.317H59.25A6.583,6.583,0,0,1,65.833,7.9v9.217h3.95V7.9A6.583,6.583,0,0,0,63.2,1.317Z" fill="#0377bc" fill-rule="evenodd"/>
        <circle id="Oval" cx="2.633" cy="2.633" r="2.633" transform="translate(14.483 6.583)" fill="#f44335"/>
        <circle id="Oval-2" data-name="Oval" cx="2.633" cy="2.633" r="2.633" transform="translate(25.017 6.583)" fill="#a4c400"/>
        <path id="Path-10" data-name="Path" d="M61.883,11.85a2.633,2.633,0,1,0,0-5.267H48.717a2.633,2.633,0,0,0,0,5.267Z" fill="#0377bc" fill-rule="evenodd"/>
        <g id="Grupo_1064218" data-name="Grupo 1064218">
          <path id="Shape" d="M75.05,43.45H71.1V7.9A7.908,7.908,0,0,0,63.2,0H15.8A7.908,7.908,0,0,0,7.9,7.9V43.45H3.95A3.95,3.95,0,0,0,0,47.4V65.833a3.95,3.95,0,0,0,3.95,3.95v3.751a2.83,2.83,0,0,0,4.4,2.354l9.16-6.105H21.3a3.95,3.95,0,0,0,3.712,2.633h1.317v3.7a2.868,2.868,0,0,0,4.458,2.4l9.1-6.1h8.822a3.95,3.95,0,0,0,3.708-2.633h1.559v3.75a2.83,2.83,0,0,0,4.4,2.356l9.16-6.105H75.05A3.95,3.95,0,0,0,79,65.833V47.4a3.95,3.95,0,0,0-3.95-3.95ZM15.8,2.633H63.2A5.267,5.267,0,0,1,68.467,7.9v7.9H10.533V7.9A5.267,5.267,0,0,1,15.8,2.633Zm-5.267,15.8H68.467V43.45H52.424a3.95,3.95,0,0,0-3.708-2.633h-23.7a3.95,3.95,0,0,0-3.708,2.633H10.533ZM6.89,73.7a.184.184,0,0,1-.2.009.182.182,0,0,1-.1-.172V69.783a1.317,1.317,0,1,0,0-2.633H3.95a1.317,1.317,0,0,1-1.317-1.317V47.4A1.317,1.317,0,0,1,3.95,46.083H21.067v4.449a4.241,4.241,0,0,0-1.975-.5A4.747,4.747,0,0,0,15.8,51.379a4.747,4.747,0,0,0-3.292-1.346A4.856,4.856,0,0,0,7.9,55.193c0,3.028,2.226,5.044,5.307,7.842l.9.822a2.486,2.486,0,0,0,3.379,0l.9-.822c1-.91,1.9-1.735,2.674-2.542V67.15H11.85a1.317,1.317,0,1,0,0,2.633h.922Zm14.177-18.5c0,1.779-1.448,3.167-4.444,5.893l-.823.748-.823-.748c-3-2.727-4.444-4.115-4.444-5.893,0-1.226.693-2.527,1.975-2.527a2.562,2.562,0,0,1,2.1,1.448,1.317,1.317,0,0,0,1.185.753H15.8a1.325,1.325,0,0,0,1.185-.75,2.569,2.569,0,0,1,2.107-1.451c1.282,0,1.975,1.3,1.975,2.527ZM50.033,68.467a1.317,1.317,0,0,1-1.317,1.317H34.233a1.317,1.317,0,0,0,0,2.633h.932l-5.837,3.908a.216.216,0,0,1-.234.011.232.232,0,0,1-.132-.217v-3.7a1.317,1.317,0,1,0,0-2.633H25.017A1.317,1.317,0,0,1,23.7,68.467v-23.7a1.317,1.317,0,0,1,1.317-1.317h23.7a1.317,1.317,0,0,1,1.317,1.317Zm26.333-2.633A1.317,1.317,0,0,1,75.05,67.15H61.883a1.317,1.317,0,0,0,0,2.633h.922L56.929,73.7a.2.2,0,0,1-.312-.165v-3.75a1.317,1.317,0,0,0,0-2.633h-3.95V46.083H75.05A1.317,1.317,0,0,1,76.367,47.4Z"/>
          <path id="Path-11" data-name="Path" d="M68.467,55.3h-3.95V51.35a1.317,1.317,0,0,0-2.633,0V55.3h-3.95a1.317,1.317,0,1,0,0,2.633h3.95v3.95a1.317,1.317,0,1,0,2.633,0v-3.95h3.95a1.317,1.317,0,0,0,0-2.633Z" fill-rule="evenodd"/>
          <path id="Shape-2" data-name="Shape" d="M43.45,52.667H42.133V50.033a3.846,3.846,0,0,0-1.151-2.774A3.893,3.893,0,0,0,37.84,46.1a4.05,4.05,0,0,0-3.606,4.082V53.17l-.7.352a2.616,2.616,0,0,0-1.929-.855H28.967A2.633,2.633,0,0,0,26.333,55.3v7.9a2.633,2.633,0,0,0,2.633,2.633H31.6a2.616,2.616,0,0,0,1.929-.855l.877.438a3.969,3.969,0,0,0,1.766.416h6.62A3.938,3.938,0,0,0,46.7,62.376l.658-5.275a3.95,3.95,0,0,0-3.913-4.435ZM28.967,63.2V55.3H31.6v7.9ZM44.1,62.056a1.3,1.3,0,0,1-1.3,1.144h-6.62a1.317,1.317,0,0,1-.589-.132l-1.35-.682V56.114l1.177-.589a2.616,2.616,0,0,0,1.456-2.356V50.181a1.426,1.426,0,0,1,1.2-1.464,1.317,1.317,0,0,1,1.053.4,1.253,1.253,0,0,1,.384.922v2.633A2.633,2.633,0,0,0,42.133,55.3H43.45a1.317,1.317,0,0,1,1.3,1.475Z"/>
          <path id="Shape-3" data-name="Shape" d="M17.117,13.167a3.95,3.95,0,1,0-3.95-3.95A3.95,3.95,0,0,0,17.117,13.167Zm0-5.267A1.317,1.317,0,1,1,15.8,9.217,1.317,1.317,0,0,1,17.117,7.9Z"/>
          <path id="Shape-4" data-name="Shape" d="M27.65,13.167a3.95,3.95,0,1,0-3.95-3.95A3.95,3.95,0,0,0,27.65,13.167Zm0-5.267a1.317,1.317,0,1,1-1.317,1.317A1.317,1.317,0,0,1,27.65,7.9Z"/>
          <path id="Shape-5" data-name="Shape" d="M48.717,13.167H61.883a3.95,3.95,0,1,0,0-7.9H48.717a3.95,3.95,0,0,0,0,7.9Zm0-5.267H61.883a1.317,1.317,0,1,1,0,2.633H48.717a1.317,1.317,0,0,1,0-2.633Z"/>
        </g>
      </g>
    </g>
  </g>
</svg>
