<svg xmlns="http://www.w3.org/2000/svg" xmlns:xlink="http://www.w3.org/1999/xlink" width="79" height="79" viewBox="0 0 79 79">
  <defs>
    <clipPath id="clip-path">
      <rect id="Rectángulo_373633" data-name="Rectángulo 373633" width="79" height="79" transform="translate(655 1545)" fill="#0050db"/>
    </clipPath>
  </defs>
  <g id="Enmascarar_grupo_1059034" data-name="Enmascarar grupo 1059034" transform="translate(-655 -1545)" clip-path="url(#clip-path)">
    <g id="Layer_x0020_1" transform="translate(654.995 1544.994)">
      <path id="Trazado_797844" data-name="Trazado 797844" d="M50.49,73.951H10.055a4.693,4.693,0,0,1-4.688-4.687V65.5a.926.926,0,0,1,.926-.926H47.96a.926.926,0,0,1,0,1.852H7.22v2.835A2.838,2.838,0,0,0,10.056,72.1H50.491a.926.926,0,0,1,0,1.853Z" fill-rule="evenodd"/>
      <path id="Trazado_797845" data-name="Trazado 797845" d="M39.467,70.026H25.673a.926.926,0,0,1-.926-.926V65.5a.926.926,0,0,1,.926-.926H39.468a.927.927,0,0,1,.926.926v3.6a.927.927,0,0,1-.927.926ZM26.6,68.174H38.542V66.428H26.6Z" fill-rule="evenodd"/>
      <path id="Trazado_797846" data-name="Trazado 797846" d="M13.554,30.359A8.449,8.449,0,1,1,22,21.91,8.458,8.458,0,0,1,13.554,30.359Zm0-15.046a6.6,6.6,0,1,0,6.6,6.6A6.606,6.606,0,0,0,13.554,15.313Z" fill-rule="evenodd"/>
      <path id="Trazado_797847" data-name="Trazado 797847" d="M13.554,30.359a8.41,8.41,0,0,1-6.623-3.2A.926.926,0,0,1,6.9,26.051a8.125,8.125,0,0,1,13.311,0,.925.925,0,0,1-.033,1.107,8.411,8.411,0,0,1-6.622,3.2ZM8.861,26.548a6.6,6.6,0,0,0,9.385,0,6.272,6.272,0,0,0-9.385,0Z" fill-rule="evenodd"/>
      <path id="Trazado_797848" data-name="Trazado 797848" d="M13.554,24.437a3.774,3.774,0,1,1,3.774-3.774A3.779,3.779,0,0,1,13.554,24.437Zm0-5.7a1.923,1.923,0,1,0,1.923,1.923A1.925,1.925,0,0,0,13.554,18.74Z" fill-rule="evenodd"/>
      <path id="Trazado_797849" data-name="Trazado 797849" d="M66.155,50.064a7.751,7.751,0,1,1,7.751-7.752,7.761,7.761,0,0,1-7.751,7.752Zm0-13.65a5.9,5.9,0,1,0,5.9,5.9A5.905,5.905,0,0,0,66.155,36.413Z" fill-rule="evenodd"/>
      <path id="Trazado_797850" data-name="Trazado 797850" d="M64.91,46.642A2.043,2.043,0,0,1,62.853,44.6V40.037a2.055,2.055,0,0,1,3.08-1.78l3.942,2.276a2.057,2.057,0,0,1,0,3.56l-3.942,2.275a2.052,2.052,0,0,1-1.023.274Zm0-6.808a.2.2,0,0,0-.2.211v4.541a.2.2,0,0,0,.206.2.19.19,0,0,0,.1-.027l3.941-2.275a.205.205,0,0,0,0-.352l-3.94-2.274A.2.2,0,0,0,64.907,39.835Z" fill-rule="evenodd"/>
      <path id="Trazado_797851" data-name="Trazado 797851" d="M70.783,28.532a.923.923,0,0,1-.446-.115l-4.506-2.48A9,9,0,1,1,73.4,17.054a8.923,8.923,0,0,1-1.584,5.1l-.11,5.474a.927.927,0,0,1-.925.907ZM65.99,24.041a.922.922,0,0,1,.446.115l3.452,1.9.085-4.23a.928.928,0,0,1,.181-.532,7.143,7.143,0,1,0-5.748,2.9,7.218,7.218,0,0,0,1.4-.138.886.886,0,0,1,.181-.019Z" fill-rule="evenodd"/>
      <path id="Trazado_797852" data-name="Trazado 797852" d="M68.272,17.445H60.543a.926.926,0,0,1,0-1.851h7.729a.926.926,0,0,1,0,1.851Z" fill-rule="evenodd"/>
      <path id="Trazado_797853" data-name="Trazado 797853" d="M68.272,21.168h-7.73a.926.926,0,0,1,0-1.851h7.73a.926.926,0,0,1,0,1.851Z" fill-rule="evenodd"/>
      <path id="Trazado_797854" data-name="Trazado 797854" d="M67.274,14.283H62.122a.926.926,0,1,1,0-1.852h5.153a.926.926,0,0,1,0,1.852Z" fill-rule="evenodd"/>
      <path id="Trazado_797855" data-name="Trazado 797855" d="M65.027,67.468,57.364,54.2a.914.914,0,0,0-1.583.915l2.671,4.626a.926.926,0,1,1-1.6.926l-2.68-4.642a.915.915,0,0,0-1.574.93l2.671,4.627a.926.926,0,0,1-1.6.925l-2.682-4.646a.915.915,0,0,0-1.572.934l2.671,4.627a.926.926,0,0,1-1.6.926L44.566,54.113a.915.915,0,0,0-1.584.916c1.28,2.22,5.44,9.671,6.635,11.272a.927.927,0,0,1-1.056,1.446c-2.707-.968-4.412-1.539-4.916-1.208.007.008-.149.956,1.6,2.009l5.664,3.641a12.119,12.119,0,0,0,5.964,1.621.925.925,0,0,1,.772.463l1.929,3.342a.926.926,0,0,1-1.6.927l-1.677-2.9a13.5,13.5,0,0,1-6.411-1.905l-5.593-3.6c-.183-.1-2.238-1.3-2.468-3.148a1.944,1.944,0,0,1,.673-1.9c.935-.734,2.48-.508,4.171.017l-5.285-9.154a2.766,2.766,0,0,1,4.791-2.766L48.1,56.53a2.762,2.762,0,0,1,2.66-.9,2.762,2.762,0,0,1,3.187-1.84,2.768,2.768,0,0,1,5.02-.518l7.642,13.237a3.721,3.721,0,0,1,.371,2.9l1.571,2.72a.926.926,0,0,1-1.6.926l-1.8-3.111c-.453-.784.581-1.285-.124-2.469Z" fill-rule="evenodd"/>
      <path id="Trazado_797856" data-name="Trazado 797856" d="M14.7,28.408a6.59,6.59,0,0,0,3.541-1.862,6.272,6.272,0,0,0-9.381,0,6.591,6.591,0,0,0,3.546,1.863,6.692,6.692,0,0,0,2.242.008l.053-.009Z" fill="#8dbd57" fill-rule="evenodd"/>
      <path id="Trazado_797857" data-name="Trazado 797857" d="M13.554,22.586a1.923,1.923,0,1,0-1.923-1.923A1.925,1.925,0,0,0,13.554,22.586Z" fill="#ffe5c1" fill-rule="evenodd"/>
      <path id="Trazado_797858" data-name="Trazado 797858" d="M13.554,16.889a3.773,3.773,0,0,1,2.871,6.223,8.146,8.146,0,0,1,2.94,1.922,6.6,6.6,0,1,0-11.622,0,8.145,8.145,0,0,1,2.94-1.922,3.773,3.773,0,0,1,2.871-6.223Z" fill="#ffe5c1" fill-rule="evenodd"/>
      <path id="Trazado_797859" data-name="Trazado 797859" d="M39.468,64.577h0ZM19,36.374a3.6,3.6,0,0,1,.174-2.335H13.6a2.949,2.949,0,0,0-2.945,2.945V64.577h35.7l-1.348-2.335H13.915a.926.926,0,0,1-.926-.926V37.3a.926.926,0,0,1,.926-.926H19Z" fill="#7a7a7a" fill-rule="evenodd"/>
      <path id="Trazado_797860" data-name="Trazado 797860" d="M25.673,70.026a.926.926,0,0,1-.926-.926V66.429H7.22v2.835A2.838,2.838,0,0,0,10.056,72.1H47.341l-3.054-1.964c-.183-.1-2.238-1.3-2.468-3.148a2.788,2.788,0,0,1-.016-.558H40.394V69.1a.927.927,0,0,1-.927.926H25.673Z" fill="#5e5d5d" fill-rule="evenodd"/>
      <path id="Trazado_797861" data-name="Trazado 797861" d="M26.6,68.174H38.542V66.429H26.6Z" fill="#545353" fill-rule="evenodd"/>
      <path id="Trazado_797862" data-name="Trazado 797862" d="M64.7,40.046v4.541a.2.2,0,0,0,.206.2.19.19,0,0,0,.1-.027l3.941-2.275a.205.205,0,0,0,0-.353l-3.94-2.274a.2.2,0,0,0-.1-.026.2.2,0,0,0-.2.211Z" fill="#ffe470" fill-rule="evenodd"/>
      <path id="Trazado_797863" data-name="Trazado 797863" d="M65.933,38.256l3.942,2.276a2.057,2.057,0,0,1,0,3.56l-3.942,2.275a2.054,2.054,0,0,1-3.08-1.772V40.037a2.055,2.055,0,0,1,3.08-1.78Zm-5.676,4.055a5.9,5.9,0,1,0,5.9-5.9,5.906,5.906,0,0,0-5.9,5.9Z" fill="#eb5468" fill-rule="evenodd"/>
      <path id="Trazado_797864" data-name="Trazado 797864" d="M59.637,77.747l7.592-4.383a.972.972,0,0,1-.281-.315l-1.8-3.111c-.453-.784.581-1.285-.124-2.469L57.364,54.2a.914.914,0,0,0-1.583.915l2.671,4.626a.926.926,0,1,1-1.6.926l-2.68-4.642a.915.915,0,0,0-1.574.93l2.671,4.627a.926.926,0,0,1-1.6.925l-2.682-4.646a.973.973,0,0,0-.183-.228.925.925,0,0,1-.181-.125.928.928,0,0,0-1.208,1.287l2.671,4.627a.926.926,0,0,1-1.6.926L44.566,54.113a.915.915,0,0,0-1.584.916c.618,1.072,1.909,3.366,3.212,5.63a.926.926,0,0,1,.245.425c1.312,2.273,2.6,4.438,3.178,5.217a.927.927,0,0,1-1.056,1.446c-2.707-.968-4.412-1.539-4.916-1.208.007.008-.149.956,1.6,2.009l5.664,3.641a12.119,12.119,0,0,0,5.964,1.621.925.925,0,0,1,.772.463l1.929,3.342a1.111,1.111,0,0,1,.066.133Z" fill="#ffc6b9" fill-rule="evenodd"/>
      <path id="Trazado_797865" data-name="Trazado 797865" d="M60.542,19.316h7.73a.926.926,0,0,1,0,1.851h-7.73a.926.926,0,0,1,0-1.851Zm-3.279-2.262a7.15,7.15,0,0,0,8.546,7.006.886.886,0,0,1,.181-.019.922.922,0,0,1,.446.115l3.452,1.9.085-4.23a.928.928,0,0,1,.181-.532,7.143,7.143,0,1,0-12.891-4.242Zm11.009.391H60.543a.926.926,0,0,1,0-1.851h7.729a.926.926,0,0,1,0,1.851Zm-1-3.162H61.54a.926.926,0,1,1,0-1.852h5.735a.926.926,0,0,1,0,1.852Z" fill="#1ab193" fill-rule="evenodd"/>
      <path id="Trazado_797866" data-name="Trazado 797866" d="M47.96,66.429H9.728A.927.927,0,0,1,8.8,65.5V36.984a4.8,4.8,0,0,1,4.8-4.8h7.594a.926.926,0,0,1,.461,1.729A1.767,1.767,0,0,0,20.8,35a1.738,1.738,0,0,0,.172,1.326l1.911,3.312a1.788,1.788,0,0,0,2.432.651L31,37.008l-.744-1.29a.926.926,0,0,1,1.6-.926l.91,1.577,12.858-1.223-.907-1.569a.926.926,0,0,1,.8-1.389h5.982a4.839,4.839,0,0,1,4.834,4.833V53.211a.926.926,0,0,1-1.851,0V37.021a2.985,2.985,0,0,0-2.982-2.982H47.128l.825,1.429a.925.925,0,0,1-.714,1.384l-14.684,1.4-6.314,3.645a3.639,3.639,0,0,1-4.961-1.329l-1.911-3.311a3.571,3.571,0,0,1-.357-2.73,3.68,3.68,0,0,1,.166-.485H13.6a2.949,2.949,0,0,0-2.945,2.945V64.577H47.961a.926.926,0,0,1,0,1.852Z" fill-rule="evenodd"/>
      <path id="Trazado_797867" data-name="Trazado 797867" d="M45.543,62.242H13.915a.926.926,0,0,1-.926-.926V37.3a.926.926,0,0,1,.926-.926h6.548a.924.924,0,0,1,.8.463l1.618,2.8a1.788,1.788,0,0,0,2.432.652L31.6,36.665a.887.887,0,0,1,.643-.291H51.225a.926.926,0,0,1,.926.926V56.809a.926.926,0,0,1-1.852,0V38.225H32.6L26.24,41.894a3.639,3.639,0,0,1-4.961-1.329l-1.351-2.339H14.84V60.39h30.7a.926.926,0,0,1,0,1.851Z" fill-rule="evenodd"/>
      <path id="Trazado_797868" data-name="Trazado 797868" d="M51.226,36.375a.926.926,0,0,1,.926.926V54.019a2.756,2.756,0,0,1,1.8-.231,2.77,2.77,0,0,1,.542-.96V37.021a2.985,2.985,0,0,0-2.982-2.982H47.128l.825,1.429a.924.924,0,0,1,.021.887l-.01.019h3.261Z" fill="#7a7a7a" fill-rule="evenodd"/>
      <path id="Trazado_797869" data-name="Trazado 797869" d="M24.432,42.38a3.648,3.648,0,0,1-3.153-1.814l-1.912-3.311a3.6,3.6,0,0,1,1.318-4.917L27.2,28.576a.926.926,0,0,1,1.265.339l4.6,7.97a.926.926,0,0,1-.339,1.265L26.24,41.9a3.628,3.628,0,0,1-1.808.484Zm2.894-11.738-5.715,3.3a1.75,1.75,0,0,0-.64,2.388l1.912,3.311a1.791,1.791,0,0,0,1.549.888,1.765,1.765,0,0,0,.883-.237L31,37.008l-3.676-6.366Z" fill-rule="evenodd"/>
      <path id="Trazado_797870" data-name="Trazado 797870" d="M32.266,38.273a.925.925,0,0,1-.8-.463l-4.6-7.97a.925.925,0,0,1,.048-1l8.668-12.182a.926.926,0,0,1,1.556.073L47.952,35.468a.925.925,0,0,1-.714,1.384L32.353,38.268a.7.7,0,0,1-.088,0Zm-3.5-8.844,4.007,6.94,12.857-1.224-9.376-16.24L28.764,29.429Z" fill-rule="evenodd"/>
      <path id="Trazado_797871" data-name="Trazado 797871" d="M44,31.394a.924.924,0,0,1-.8-.463l-4.509-7.809a.926.926,0,0,1,.351-1.271,5.435,5.435,0,0,1,5.434,9.412.929.929,0,0,1-.475.132Zm-3.173-8.275,3.442,5.962a3.582,3.582,0,0,0-3.442-5.962Z" fill-rule="evenodd"/>
      <path id="Trazado_797872" data-name="Trazado 797872" d="M33.913,50.781a.927.927,0,0,1-.679-.3L25.1,41.722a.925.925,0,0,1,.215-1.431l4.926-2.844a.926.926,0,0,1,1.141.172l8.135,8.762a.925.925,0,0,1-.215,1.431l-4.926,2.844a.913.913,0,0,1-.462.125Zm-6.667-9.467,6.843,7.37L37.37,46.79l-6.843-7.37-3.28,1.893Z" fill-rule="evenodd"/>
      <path id="Trazado_797873" data-name="Trazado 797873" d="M48.584,23.708a.926.926,0,0,1-.464-1.728L52.9,19.22a.926.926,0,0,1,.926,1.6l-4.782,2.76a.918.918,0,0,1-.462.124Z" fill-rule="evenodd"/>
      <path id="Trazado_797874" data-name="Trazado 797874" d="M46.809,20.634a.94.94,0,0,1-.241-.032.926.926,0,0,1-.654-1.134l1.43-5.333a.926.926,0,1,1,1.788.479L47.7,19.948a.925.925,0,0,1-.893.687Z" fill-rule="evenodd"/>
      <path id="Trazado_797875" data-name="Trazado 797875" d="M55.694,28.212a.941.941,0,0,1-.241-.032l-5.334-1.429a.926.926,0,0,1,.48-1.789l5.334,1.429a.926.926,0,0,1-.239,1.821Z" fill-rule="evenodd"/>
      <path id="Trazado_797876" data-name="Trazado 797876" d="M62.122,14.283H61.54a.926.926,0,1,1,0-1.852h.582a.926.926,0,0,1,0,1.852Z" fill-rule="evenodd"/>
      <path id="Trazado_797877" data-name="Trazado 797877" d="M26.426,16.41a.926.926,0,0,1-.8-.455L24,13.2h-.737a2.8,2.8,0,0,1-2.8-2.8V2.8a2.8,2.8,0,0,1,2.8-2.8H49.917a2.8,2.8,0,0,1,2.8,2.8V10.4a2.8,2.8,0,0,1-2.8,2.8H28.853l-1.63,2.759a.926.926,0,0,1-.8.454ZM23.263,1.857a.947.947,0,0,0-.946.946V10.4a.947.947,0,0,0,.946.947h1.264a.926.926,0,0,1,.8.455l1.1,1.865,1.1-1.865a.926.926,0,0,1,.8-.455H49.918a.947.947,0,0,0,.946-.947V2.8a.947.947,0,0,0-.946-.946H23.263Z" fill-rule="evenodd"/>
      <path id="Trazado_797878" data-name="Trazado 797878" d="M29.119,10.569a.924.924,0,0,1-.435-.109l-1.542-.822-1.542.822a.925.925,0,0,1-1.347-.978l.305-1.721L23.3,6.548a.925.925,0,0,1,.514-1.584l1.731-.241.764-1.572a.926.926,0,0,1,1.665,0l.764,1.572,1.731.241a.925.925,0,0,1,.514,1.584L29.725,7.761l.305,1.721a.924.924,0,0,1-.911,1.087ZM27.141,7.664a.923.923,0,0,1,.435.109l.3.159L27.816,7.6a.926.926,0,0,1,.269-.829l.243-.235-.335-.046a.926.926,0,0,1-.7-.512l-.148-.3-.148.3a.925.925,0,0,1-.7.512l-.335.046.243.235a.928.928,0,0,1,.27.829l-.059.333.3-.159a.929.929,0,0,1,.436-.109Z" fill-rule="evenodd"/>
      <path id="Trazado_797879" data-name="Trazado 797879" d="M38.568,10.569a.925.925,0,0,1-.435-.109L36.59,9.639l-1.542.822A.925.925,0,0,1,33.7,9.482l.305-1.721L32.748,6.548a.925.925,0,0,1,.514-1.584l1.731-.241.764-1.572a.926.926,0,0,1,1.665,0l.764,1.572,1.731.241a.926.926,0,0,1,.515,1.584L39.174,7.761l.305,1.721a.924.924,0,0,1-.912,1.087ZM36.59,7.664a.923.923,0,0,1,.435.109l.3.159L37.265,7.6a.927.927,0,0,1,.269-.828l.244-.235-.335-.046a.927.927,0,0,1-.7-.512l-.148-.3-.148.3a.926.926,0,0,1-.7.512l-.334.046.243.235a.927.927,0,0,1,.27.829l-.059.333.3-.159a.919.919,0,0,1,.436-.109Z" fill-rule="evenodd"/>
      <path id="Trazado_797880" data-name="Trazado 797880" d="M48.016,10.569a.929.929,0,0,1-.436-.109l-1.542-.822-1.542.822a.925.925,0,0,1-1.347-.978l.305-1.721L42.2,6.549a.926.926,0,0,1,.515-1.584l1.731-.241.764-1.572a.926.926,0,0,1,1.665,0l.764,1.572,1.731.241a.926.926,0,0,1,.515,1.584L48.622,7.761l.306,1.721a.924.924,0,0,1-.912,1.087ZM44.851,6.536l.243.234a.925.925,0,0,1,.27.829l-.059.333.3-.159a.921.921,0,0,1,.871,0l.3.159L46.713,7.6a.925.925,0,0,1,.27-.829l.243-.234-.335-.047a.926.926,0,0,1-.7-.512l-.147-.3-.148.3a.924.924,0,0,1-.7.512l-.335.047Z" fill-rule="evenodd"/>
      <path id="Trazado_797881" data-name="Trazado 797881" d="M39.031,54.91h-2.1a.926.926,0,0,1,0-1.852h2.1a.926.926,0,0,1,0,1.852Zm-6.066,0H20.476a.926.926,0,0,1,0-1.852H32.965a.926.926,0,0,1,0,1.852Z" fill-rule="evenodd"/>
      <path id="Trazado_797882" data-name="Trazado 797882" d="M39.031,58.256H26.542a.926.926,0,1,1,0-1.851H39.031a.926.926,0,0,1,0,1.851Zm-16.458,0h-2.1a.926.926,0,1,1,0-1.851h2.1a.926.926,0,1,1,0,1.851Z" fill-rule="evenodd"/>
      <g id="Grupo_1064219" data-name="Grupo 1064219">
        <path id="Trazado_797883" data-name="Trazado 797883" d="M26.2,6.769a.928.928,0,0,1,.27.829l-.059.333.3-.159a.928.928,0,0,1,.871,0l.3.159L27.816,7.6a.926.926,0,0,1,.269-.829l.243-.235-.335-.046a.926.926,0,0,1-.7-.512l-.148-.3-.148.3a.925.925,0,0,1-.7.512l-.335.046.243.235Z" fill="#ffe8b2" fill-rule="evenodd"/>
        <path id="Trazado_797884" data-name="Trazado 797884" d="M35.4,6.535l.243.235a.927.927,0,0,1,.27.829l-.059.333.3-.159a.925.925,0,0,1,.871,0l.3.159L37.265,7.6a.927.927,0,0,1,.269-.828l.244-.235-.335-.046a.927.927,0,0,1-.7-.512l-.148-.3-.148.3a.926.926,0,0,1-.7.512l-.334.046Z" fill="#ffe8b2" fill-rule="evenodd"/>
        <path id="Trazado_797885" data-name="Trazado 797885" d="M44.852,6.536l.243.234a.925.925,0,0,1,.27.829l-.059.333.3-.159a.921.921,0,0,1,.871,0l.3.159L46.713,7.6a.925.925,0,0,1,.27-.829l.243-.234-.335-.047a.926.926,0,0,1-.7-.512l-.147-.3-.148.3a.924.924,0,0,1-.7.512l-.335.047Z" fill="#ffe8b2" fill-rule="evenodd"/>
      </g>
      <path id="Trazado_797886" data-name="Trazado 797886" d="M43.456,7.761,42.2,6.549a.926.926,0,0,1,.515-1.584l1.731-.241.764-1.572a.926.926,0,0,1,1.665,0l.764,1.572,1.731.241a.926.926,0,0,1,.515,1.584L48.622,7.761l.306,1.721a.926.926,0,0,1-1.347.978l-1.542-.822-1.542.822a.925.925,0,0,1-1.347-.978l.305-1.721Zm-4.282,0,.305,1.721a.926.926,0,0,1-1.347.978L36.59,9.639l-1.542.822A.925.925,0,0,1,33.7,9.482l.305-1.721L32.748,6.548a.925.925,0,0,1,.514-1.584l1.731-.241.764-1.572a.926.926,0,0,1,1.665,0l.764,1.572,1.731.241a.926.926,0,0,1,.515,1.584L39.174,7.761Zm-10.85,3.582H49.918a.947.947,0,0,0,.946-.947V2.8a.947.947,0,0,0-.946-.946H23.263a.947.947,0,0,0-.946.946V10.4a.947.947,0,0,0,.946.947h1.264a.926.926,0,0,1,.8.455l1.1,1.865,1.1-1.865a.926.926,0,0,1,.8-.455Zm1.339-.95a.927.927,0,0,1-.979.067l-1.542-.822-1.542.822a.925.925,0,0,1-1.347-.978l.305-1.721L23.3,6.548a.925.925,0,0,1,.514-1.584l1.731-.241.764-1.572a.926.926,0,0,1,1.665,0l.764,1.572,1.731.241a.925.925,0,0,1,.514,1.584L29.725,7.761l.305,1.721a.927.927,0,0,1-.367.911Z" fill="#ffbe61" fill-rule="evenodd"/>
      <path id="Trazado_797887" data-name="Trazado 797887" d="M25.306,40.3l.008,0ZM30.248,35.7l-2.922-5.061L21.678,33.9l-.024.014-.042.025a1.756,1.756,0,0,0-.641,2.387l.294.509,1.618,2.8a1.77,1.77,0,0,0,1.082.827,1.788,1.788,0,0,0,.468.061,1.763,1.763,0,0,0,.874-.232l.009,0,4.926-2.844.761-.44-.745-1.29-.009-.016Z" fill="#ff4974" fill-rule="evenodd"/>
      <path id="Trazado_797888" data-name="Trazado 797888" d="M30.526,39.42l-3.28,1.893,6.843,7.37L37.37,46.79Z" fill="#fe6a8d" fill-rule="evenodd"/>
      <path id="Trazado_797889" data-name="Trazado 797889" d="M32.771,36.369l12.857-1.224-2.42-4.192-.014-.023-4.509-7.809-.01-.018-2.424-4.2L28.764,29.429l4.007,6.94Z" fill="#ececff" fill-rule="evenodd"/>
      <path id="Trazado_797890" data-name="Trazado 797890" d="M40.822,23.119l3.442,5.962a3.582,3.582,0,0,0-3.442-5.962Z" fill="#ff4974" fill-rule="evenodd"/>
      <path id="Trazado_797891" data-name="Trazado 797891" d="M50.3,38.226H32.8l-.242.023h0l-.383.221,7.344,7.911a.925.925,0,0,1-.215,1.431l-4.926,2.844a.913.913,0,0,1-.462.125.927.927,0,0,1-.679-.3L25.547,42.2a3.647,3.647,0,0,1-4.232-1.578l-.036-.061-1.351-2.339H14.84V60.39h29.1l-2.562-4.437a2.766,2.766,0,0,1,4.791-2.766L48.1,56.53a2.761,2.761,0,0,1,2.2-.959V38.226ZM39.032,53.058a.926.926,0,0,1,0,1.852h-2.1a.926.926,0,0,1,0-1.852ZM26.542,56.4H39.031a.926.926,0,0,1,0,1.851H26.542a.926.926,0,1,1,0-1.851Zm-6.066-3.346H32.965a.926.926,0,0,1,0,1.852H20.476a.926.926,0,0,1,0-1.852ZM23.5,57.33a.926.926,0,0,1-.926.926h-2.1a.926.926,0,1,1,0-1.851h2.1A.926.926,0,0,1,23.5,57.33Z" fill="#ffffe6" fill-rule="evenodd"/>
    </g>
  </g>
</svg>
