<svg xmlns="http://www.w3.org/2000/svg" xmlns:xlink="http://www.w3.org/1999/xlink" width="79" height="79" viewBox="0 0 79 79">
  <defs>
    <clipPath id="clip-path">
      <rect id="Rectángulo_373635" data-name="Rectángulo 373635" width="79" height="79" transform="translate(1075 1545)" fill="#0050db"/>
    </clipPath>
  </defs>
  <g id="Enmascarar_grupo_1059036" data-name="Enmascarar grupo 1059036" transform="translate(-1075 -1545)" clip-path="url(#clip-path)">
    <g id="redes-sociales" transform="translate(1075 1545)">
      <g id="Grupo_1064237" data-name="Grupo 1064237">
        <g id="Grupo_1064225" data-name="Grupo 1064225">
          <g id="Grupo_1064224" data-name="Grupo 1064224">
            <g id="Grupo_1064223" data-name="Grupo 1064223">
              <g id="Grupo_1064222" data-name="Grupo 1064222">
                <g id="Grupo_1064221" data-name="Grupo 1064221">
                  <path id="Trazado_797908" data-name="Trazado 797908" d="M57.318,77.443H22.505A6.108,6.108,0,0,1,16.4,71.335V7.664a6.108,6.108,0,0,1,6.108-6.108H57.318a6.108,6.108,0,0,1,6.108,6.108V71.335A6.107,6.107,0,0,1,57.318,77.443Z" fill="#3d6d93"/>
                  <path id="Trazado_797909" data-name="Trazado 797909" d="M57.318,1.557H52.738a6.108,6.108,0,0,1,6.108,6.108V71.335a6.108,6.108,0,0,1-6.108,6.108h4.581a6.108,6.108,0,0,0,6.108-6.108V7.664a6.108,6.108,0,0,0-6.108-6.108Z" fill="#335e80"/>
                  <path id="Trazado_797910" data-name="Trazado 797910" d="M51.127,7.359a2.064,2.064,0,0,1-2.064,2.064h-18.3A2.064,2.064,0,0,1,28.7,7.359a1.222,1.222,0,0,0-1.222-1.222H23.269a2.29,2.29,0,0,0-2.29,2.29V70.572a2.29,2.29,0,0,0,2.29,2.29H56.555a2.29,2.29,0,0,0,2.29-2.29V8.428a2.29,2.29,0,0,0-2.29-2.29H52.349a1.222,1.222,0,0,0-1.222,1.222Z" fill="#f9f7f8"/>
                </g>
              </g>
            </g>
          </g>
        </g>
        <g id="Grupo_1064228" data-name="Grupo 1064228">
          <g id="Grupo_1064226" data-name="Grupo 1064226">
            <circle id="Elipse_4783" data-name="Elipse 4783" cx="13.203" cy="13.203" r="13.203" transform="translate(1.969 9.894)" fill="#ffe179"/>
            <path id="Trazado_797911" data-name="Trazado 797911" d="M15.172,9.894a13.272,13.272,0,0,0-2.29.2,13.2,13.2,0,0,1,0,26,13.2,13.2,0,1,0,2.29-26.2Z" fill="#fbd268"/>
          </g>
          <g id="Grupo_1064227" data-name="Grupo 1064227">
            <path id="Trazado_797912" data-name="Trazado 797912" d="M19.752,29.968H10.591a2.29,2.29,0,0,1-2.29-2.29V18.516a2.29,2.29,0,0,1,2.29-2.29h9.161a2.29,2.29,0,0,1,2.29,2.29v9.161A2.29,2.29,0,0,1,19.752,29.968Z" fill="#f58a97"/>
            <path id="Trazado_797913" data-name="Trazado 797913" d="M19.752,16.226H15.172a2.29,2.29,0,0,1,2.29,2.29v9.161a2.29,2.29,0,0,1-2.29,2.29h4.581a2.29,2.29,0,0,0,2.29-2.29V18.516A2.29,2.29,0,0,0,19.752,16.226Z" fill="#f07281"/>
            <circle id="Elipse_4784" data-name="Elipse 4784" cx="2.29" cy="2.29" r="2.29" transform="translate(12.881 20.807)" fill="#fff"/>
          </g>
        </g>
        <g id="Grupo_1064230" data-name="Grupo 1064230">
          <g id="Grupo_1064229" data-name="Grupo 1064229">
            <circle id="Elipse_4785" data-name="Elipse 4785" cx="13.203" cy="13.203" r="13.203" transform="translate(1.145 41.053)" fill="#8fd8fa"/>
            <path id="Trazado_797914" data-name="Trazado 797914" d="M14.348,41.053a13.26,13.26,0,0,0-2.443.229,13.2,13.2,0,0,1,0,25.947,13.2,13.2,0,1,0,2.443-26.176Z" fill="#6bcdfe"/>
          </g>
          <g id="Shape_2_">
            <path id="Trazado_797915" data-name="Trazado 797915" d="M18.552,49.192a2.917,2.917,0,0,0-5.119,1.953V51.8A6.942,6.942,0,0,1,8,49.4a.39.39,0,0,0-.671.139c-.479,1.626-1.133,5.718,3.5,7.776a7.58,7.58,0,0,1-3.048,1.211c-.282.046-.143.566-.071.753.492,1.283,6.035,1.815,9.43-.978a8.9,8.9,0,0,0,2.935-5.462,6,6,0,0,0,1.614-3.174.7.7,0,0,0-1-.74,3.342,3.342,0,0,1-.732.255,3.41,3.41,0,0,1-1.406.014Z" fill="#fff"/>
          </g>
        </g>
        <g id="Grupo_1064233" data-name="Grupo 1064233">
          <g id="Grupo_1064231" data-name="Grupo 1064231">
            <circle id="Elipse_4786" data-name="Elipse 4786" cx="13.203" cy="13.203" r="13.203" transform="translate(51.45 41.053)" fill="#f58a97"/>
            <path id="Trazado_797916" data-name="Trazado 797916" d="M64.652,41.053a13.272,13.272,0,0,0-2.29.2,13.2,13.2,0,0,1,0,26,13.2,13.2,0,1,0,2.29-26.2Z" fill="#f07281"/>
          </g>
          <g id="Grupo_1064232" data-name="Grupo 1064232">
            <path id="Trazado_797917" data-name="Trazado 797917" d="M61.41,49.765a.443.443,0,0,1,.665-.384l8.03,4.638a.444.444,0,0,1,0,.768l-8.03,4.638a.443.443,0,0,1-.665-.384Z" fill="#fff"/>
          </g>
        </g>
        <g id="Grupo_1064235" data-name="Grupo 1064235">
          <g id="Grupo_1064234" data-name="Grupo 1064234">
            <circle id="Elipse_4787" data-name="Elipse 4787" cx="13.203" cy="13.203" r="13.203" transform="translate(51.45 9.894)" fill="#8fd8fa"/>
            <path id="Trazado_797918" data-name="Trazado 797918" d="M64.652,9.894a13.272,13.272,0,0,0-2.29.2,13.2,13.2,0,0,1,0,26,13.2,13.2,0,1,0,2.29-26.2Z" fill="#6bcdfe"/>
          </g>
        </g>
        <path id="Trazado_797919" data-name="Trazado 797919" d="M39.664,30.275a9.228,9.228,0,0,0-8.488,12.2,1.054,1.054,0,0,1-.006.689l-1.229,3.5a.611.611,0,0,0,.779.779l2.459-.864a1.079,1.079,0,0,1,1.026.178,9.228,9.228,0,1,0,5.459-16.476Z" fill="#aee69c"/>
        <g id="Grupo_1064236" data-name="Grupo 1064236">
          <path id="Trazado_797920" data-name="Trazado 797920" d="M39.664,30.275a9.116,9.116,0,0,0-2.038.287,9.226,9.226,0,0,1-.011,17.876,9.228,9.228,0,1,0,2.049-18.163Z" fill="#89daa4"/>
        </g>
      </g>
      <g id="Grupo_1064238" data-name="Grupo 1064238">
        <path id="Trazado_797921" data-name="Trazado 797921" d="M60.648,23.881h1.844v7.279a1.145,1.145,0,0,0,2.29,0V23.881h1.844a1.145,1.145,0,1,0,0-2.29H64.783V18.264a1.161,1.161,0,0,1,1.16-1.16h2.714a1.145,1.145,0,1,0,0-2.29H65.942a3.454,3.454,0,0,0-3.45,3.45v3.327H60.648a1.145,1.145,0,0,0,0,2.29ZM39.912,6.635A1.145,1.145,0,1,0,38.767,5.49,1.145,1.145,0,0,0,39.912,6.635Zm-24.74,19.9A3.435,3.435,0,1,0,11.736,23.1,3.439,3.439,0,0,0,15.171,26.533Zm0-4.581A1.145,1.145,0,1,1,14.026,23.1,1.146,1.146,0,0,1,15.171,21.952Zm4.581,9.161a3.439,3.439,0,0,0,3.435-3.435V18.517a3.439,3.439,0,0,0-3.435-3.435H10.591a3.439,3.439,0,0,0-3.435,3.435v9.161a3.439,3.439,0,0,0,3.435,3.435ZM9.446,27.678V18.517a1.146,1.146,0,0,1,1.145-1.145h9.161A1.146,1.146,0,0,1,20.9,18.517v9.161a1.146,1.146,0,0,1-1.145,1.145H10.591A1.147,1.147,0,0,1,9.446,27.678Zm12.666,20.4a1.844,1.844,0,0,0-1.921-.184,2.223,2.223,0,0,1-.482.168,2.2,2.2,0,0,1-.614.049,4.063,4.063,0,0,0-6.772,2.47,5.77,5.77,0,0,1-3.453-1.931,1.535,1.535,0,0,0-2.636.565c-.385,1.309-1.2,5.318,2.186,7.991-.646.2-1.382.182-1.759.836a1.97,1.97,0,0,0-.02,1.646,2.8,2.8,0,0,0,2.1,1.511,9.292,9.292,0,0,0,2.314.266,10.838,10.838,0,0,0,6.815-2.281,9.84,9.84,0,0,0,3.276-5.816,7.148,7.148,0,0,0,1.675-3.511,1.831,1.831,0,0,0-.706-1.78Zm-2.86,3.964a1.145,1.145,0,0,0-.308.61,7.722,7.722,0,0,1-2.532,4.764A9,9,0,0,1,9.918,59.1a8.724,8.724,0,0,0,1.554-.837,1.145,1.145,0,0,0-.178-1.994,4.719,4.719,0,0,1-3.124-5.117,8.034,8.034,0,0,0,5.293,1.792A1.145,1.145,0,0,0,14.579,51.8v-.651c0-.005,0-.01,0-.015a1.772,1.772,0,0,1,3.109-1.187,1.145,1.145,0,0,0,.641.372,4.52,4.52,0,0,0,2.026-.054,4.873,4.873,0,0,1-1.1,1.779Zm45.4-12.133h-.081V37.444h.081a14.347,14.347,0,1,0-.081-28.695V7.665A7.261,7.261,0,0,0,57.318.412H22.505a7.261,7.261,0,0,0-7.253,7.253V8.751a14.286,14.286,0,0,0-7.872,2.3,1.145,1.145,0,0,0,1.245,1.922,12.055,12.055,0,1,1-3.463,3.4,1.145,1.145,0,1,0-1.9-1.279A14.35,14.35,0,0,0,15.171,37.445h.081v2.493c-.3-.019-.6-.029-.9-.029a14.348,14.348,0,0,0,0,28.7c.3,0,.606-.011.9-.029v2.762a7.261,7.261,0,0,0,7.253,7.253H57.318a7.261,7.261,0,0,0,7.253-7.253V68.6h.081a14.348,14.348,0,0,0,0-28.7Zm0-28.868A12.057,12.057,0,1,1,52.595,23.1,12.071,12.071,0,0,1,64.652,11.04ZM62.281,37.248V40.1a14.28,14.28,0,0,0-2.29.576V36.667a14.2,14.2,0,0,0,2.29.581ZM19.833,8.428v1.1a14.222,14.222,0,0,0-2.29-.581V7.664A4.968,4.968,0,0,1,22.505,2.7H57.318a4.968,4.968,0,0,1,4.962,4.962V8.946a14.222,14.222,0,0,0-2.29.581v-1.1a3.439,3.439,0,0,0-3.435-3.435H52.348a2.369,2.369,0,0,0-2.367,2.367.92.92,0,0,1-.919.919h-18.3a.92.92,0,0,1-.919-.919,2.365,2.365,0,0,0-2.367-2.367H23.269A3.439,3.439,0,0,0,19.833,8.428Zm-2.29,28.82a14.222,14.222,0,0,0,2.29-.581V41a14.215,14.215,0,0,0-2.29-.732Zm-3.2,29.065A12.058,12.058,0,1,1,26.405,54.255,11.918,11.918,0,0,1,14.348,66.313Zm47.933,5.023A4.968,4.968,0,0,1,57.318,76.3H22.505a4.968,4.968,0,0,1-4.962-4.962V68.244a14.216,14.216,0,0,0,2.29-.732v3.06a3.439,3.439,0,0,0,3.435,3.435H56.555a3.439,3.439,0,0,0,3.435-3.435V67.825a14.222,14.222,0,0,0,2.29.581Zm2.372-5.023A12.069,12.069,0,0,1,52.983,51.207a1.145,1.145,0,1,0-2.216-.577A14.36,14.36,0,0,0,57.7,66.8v3.77a1.146,1.146,0,0,1-1.145,1.145H23.269a1.146,1.146,0,0,1-1.145-1.145V66.308a14.338,14.338,0,0,0,0-24.105V35.644a14.341,14.341,0,0,0,0-25.094V8.428a1.146,1.146,0,0,1,1.145-1.145h4.207a.076.076,0,0,1,.054.022.072.072,0,0,1,.022.054,3.213,3.213,0,0,0,3.21,3.21h18.3a3.213,3.213,0,0,0,3.21-3.21.077.077,0,0,1,.076-.076h4.207A1.146,1.146,0,0,1,57.7,8.428V10.55a14.341,14.341,0,0,0,.008,25.1,1.168,1.168,0,0,0-.008.132v5.913A14.377,14.377,0,0,0,53.284,45.5,1.145,1.145,0,0,0,55.1,46.9a11.91,11.91,0,0,1,9.555-4.7,12.058,12.058,0,1,1,0,24.115ZM44.108,39.121a1.146,1.146,0,0,0-1.573.385,2.75,2.75,0,0,1-.855.871,1.04,1.04,0,0,1-1.1.016l-1.714-1.04a1.061,1.061,0,0,1-.49-1.01,2.688,2.688,0,0,1,.376-1.132A1.145,1.145,0,1,0,36.8,36.021a5,5,0,0,0-.7,2.107l0,.023a3.343,3.343,0,0,0,1.584,3.158l1.714,1.04a3.341,3.341,0,0,0,3.532-.051,5.052,5.052,0,0,0,1.567-1.6A1.145,1.145,0,0,0,44.108,39.121Zm26.57,13.906-8.03-4.638a1.6,1.6,0,0,0-2.383,1.376v9.277a1.6,1.6,0,0,0,2.383,1.376l8.03-4.638A1.606,1.606,0,0,0,70.678,53.027Zm-8.122,4.8V50.981L68.481,54.4ZM39.634,29.13A10.374,10.374,0,0,0,30.08,42.81l-1.219,3.469A1.756,1.756,0,0,0,31.1,48.518l2.418-.85A10.373,10.373,0,1,0,39.634,29.13Zm.5,18.45a8.111,8.111,0,0,1-5.223-1.728,2.231,2.231,0,0,0-1.383-.484,2.2,2.2,0,0,0-.732.125l-1.408.495.859-2.444a2.207,2.207,0,0,0,.009-1.438,8.083,8.083,0,1,1,7.877,5.475Z"/>
      </g>
    </g>
  </g>
</svg>
