<svg xmlns="http://www.w3.org/2000/svg" xmlns:xlink="http://www.w3.org/1999/xlink" width="398.75" height="398.75" viewBox="0 0 398.75 398.75">
  <defs>
    <clipPath id="clip-path">
      <rect id="Rectángulo_373597" data-name="Rectángulo 373597" width="65" height="65" transform="translate(771 896)" fill="#94e435"/>
    </clipPath>
    <clipPath id="clip-path-2">
      <rect id="Rectángulo_373600" data-name="Rectángulo 373600" width="65" height="65" transform="translate(905 1034)" fill="#94e435"/>
    </clipPath>
    <clipPath id="clip-path-3">
      <rect id="Rectángulo_373598" data-name="Rectángulo 373598" width="65" height="65" transform="translate(771 1173)" fill="#94e435"/>
    </clipPath>
    <clipPath id="clip-path-4">
      <rect id="Rectángulo_373599" data-name="Rectángulo 373599" width="65" height="65" transform="translate(630 1031)" fill="#94e435"/>
    </clipPath>
  </defs>
  <g id="Grupo_1064839" data-name="Grupo 1064839" transform="translate(-601 -818)">
    <path id="Trazado_797583" data-name="Trazado 797583" d="M336.311,271.863A75.569,75.569,0,0,1,267.978,228.4a74.3,74.3,0,0,1-66.459,45.411v.06a62.431,62.431,0,0,0-.867,124.857c.29,0,.576.022.867.022,1.14,0,2.271-.035,3.4-.1A199.089,199.089,0,0,0,393.321,245.766a75.309,75.309,0,0,1-57.01,26.1" transform="translate(601 818)" fill="#ffc401"/>
    <path id="Trazado_797584" data-name="Trazado 797584" d="M244.888,339.047A45.952,45.952,0,1,1,198.936,293.1a45.951,45.951,0,0,1,45.952,45.951" transform="translate(601 818)" fill="#fefefe"/>
    <path id="Trazado_797587" data-name="Trazado 797587" d="M126.039,336.311A75.563,75.563,0,0,1,169.9,267.8a74.384,74.384,0,0,1-45.026-68.422A62.439,62.439,0,0,0,0,199.375,199.16,199.16,0,0,0,151.793,393.024a75.3,75.3,0,0,1-25.754-56.713" transform="translate(601 818)" fill="#94e435"/>
    <path id="Trazado_797588" data-name="Trazado 797588" d="M107.906,196.383a45.952,45.952,0,1,1-45.952-45.952,45.951,45.951,0,0,1,45.952,45.952" transform="translate(601 818)" fill="#fefefe"/>
    <path id="Trazado_797590" data-name="Trazado 797590" d="M398.633,192.7A199.226,199.226,0,0,0,251.168,6.808a75.412,75.412,0,0,1-20.819,124.816c1.186.544,2.362,1.106,3.514,1.708a74.3,74.3,0,0,1,39.924,63.051h.085a62.429,62.429,0,0,0,124.847,1.227c.008-.41.031-.816.031-1.227,0-1.239-.046-2.467-.117-3.688" transform="translate(601 818)" fill="#00a9ff"/>
    <path id="Trazado_797591" data-name="Trazado 797591" d="M383.221,199.375a45.952,45.952,0,1,1-45.952-45.952,45.953,45.953,0,0,1,45.952,45.952" transform="translate(601 818)" fill="#fefefe"/>
    <path id="Trazado_797594" data-name="Trazado 797594" d="M201.813.04,201.52.033c-.436-.009-.867-.033-1.3-.033-.112,0-.222.008-.333.008-.17,0-.338-.008-.508-.008A199.105,199.105,0,0,0,6.487,148.77a75.411,75.411,0,0,1,124.944,20.043,74.433,74.433,0,0,1,67.944-43.935c.72,0,1.43.038,2.145.059v-.092A62.419,62.419,0,0,0,201.813.04" transform="translate(601 818)" fill="#0050db"/>
    <path id="Trazado_797595" data-name="Trazado 797595" d="M249.159,61.42a45.952,45.952,0,1,1-45.952-45.952A45.951,45.951,0,0,1,249.159,61.42" transform="translate(601.12 817.907)" fill="#fefefe"/>
    <path id="Trazado_799335" data-name="Trazado 799335" d="M-20.153-3.48-17.6-12.8h3.445L-18.466,0h-3.375l-4.271-12.8h3.419Zm6.012-1.362a5.613,5.613,0,0,1,.554-2.536A3.96,3.96,0,0,1-12-9.088a4.791,4.791,0,0,1,2.435-.6A4.373,4.373,0,0,1-6.2-8.363a5.076,5.076,0,0,1,1.23,3.6v.105A4.925,4.925,0,0,1-6.2-1.129,4.384,4.384,0,0,1-9.545.176a4.434,4.434,0,0,1-3.261-1.217,4.761,4.761,0,0,1-1.327-3.3Zm2.962.185a3.538,3.538,0,0,0,.413,1.934,1.376,1.376,0,0,0,1.222.615q1.582,0,1.617-2.435v-.3q0-2.558-1.635-2.558-1.485,0-1.608,2.206ZM-.536,0H-3.507V-13.5H-.536ZM6.645,0a3.344,3.344,0,0,1-.281-.853A2.754,2.754,0,0,1,4.078.176,3.374,3.374,0,0,1,1.793-.637a2.588,2.588,0,0,1-.94-2.043A2.66,2.66,0,0,1,2-5.019,5.821,5.821,0,0,1,5.317-5.81h.914v-.5q0-1.316-1.134-1.316A.927.927,0,0,0,4.043-6.587H1.081A2.655,2.655,0,0,1,2.254-8.825a4.931,4.931,0,0,1,2.993-.86A4.323,4.323,0,0,1,8.121-8.8,3.086,3.086,0,0,1,9.2-6.363v4.21a4.311,4.311,0,0,0,.4,2V0ZM4.79-1.934a1.652,1.652,0,0,0,.918-.237,1.487,1.487,0,0,0,.523-.536V-4.228H5.37q-1.547,0-1.547,1.389a.848.848,0,0,0,.272.655A.986.986,0,0,0,4.79-1.934ZM5.528-13.5H8.657L6.214-10.74l-2.417,0Zm8.763,1.626V-9.51h1.564v2.057H14.291V-3.1a1.111,1.111,0,0,0,.193.747,1.037,1.037,0,0,0,.765.211,4.345,4.345,0,0,0,.738-.053V-.079a5.466,5.466,0,0,1-1.67.255,3.1,3.1,0,0,1-2.259-.721,2.954,2.954,0,0,1-.729-2.188v-4.72H10.116V-9.51h1.213v-2.364ZM20.145,0H17.174V-9.51h2.971ZM17-11.971a1.334,1.334,0,0,1,.457-1.043,1.718,1.718,0,0,1,1.187-.407,1.718,1.718,0,0,1,1.187.407,1.334,1.334,0,0,1,.457,1.043,1.334,1.334,0,0,1-.457,1.043,1.718,1.718,0,0,1-1.187.407,1.718,1.718,0,0,1-1.187-.407A1.334,1.334,0,0,1,17-11.971ZM25.093,0H22.122V-13.5h2.971Z" transform="translate(715.375 913.375)" fill="#fff"/>
    <path id="Trazado_799336" data-name="Trazado 799336" d="M-28.283-2.391h-4.228L-33.249,0h-3.3l4.693-12.8h2.9L-24.223,0h-3.313Zm-3.489-2.382h2.751L-30.4-9.211ZM-21.05-9.51l.1,1.116a3.27,3.27,0,0,1,2.716-1.292A2.407,2.407,0,0,1-15.8-8.253a3.165,3.165,0,0,1,2.795-1.433q2.892,0,2.971,3.5V0h-2.971V-6a1.813,1.813,0,0,0-.246-1.063,1.048,1.048,0,0,0-.9-.334,1.4,1.4,0,0,0-1.31.782l.009.123V0h-2.971V-5.985a1.906,1.906,0,0,0-.237-1.081,1.045,1.045,0,0,0-.905-.334,1.42,1.42,0,0,0-1.3.782V0h-2.962V-9.51ZM.483-4.676A5.8,5.8,0,0,1-.483-1.081,3.238,3.238,0,0,1-3.208.176,2.81,2.81,0,0,1-5.546-.976L-5.669,0H-8.323V-13.5h2.962v4.755a2.711,2.711,0,0,1,2.136-.94A3.239,3.239,0,0,1-.483-8.411,5.826,5.826,0,0,1,.483-4.825Zm-2.971-.189a3.866,3.866,0,0,0-.365-1.952A1.229,1.229,0,0,0-3.973-7.4a1.418,1.418,0,0,0-1.389.763v3.773a1.426,1.426,0,0,0,1.406.755A1.258,1.258,0,0,0-2.628-3.127,7.309,7.309,0,0,0-2.487-4.865ZM4.913,0H1.942V-9.51H4.913ZM1.767-11.971a1.334,1.334,0,0,1,.457-1.043,1.718,1.718,0,0,1,1.187-.407,1.718,1.718,0,0,1,1.187.407,1.334,1.334,0,0,1,.457,1.043A1.334,1.334,0,0,1,4.6-10.927a1.718,1.718,0,0,1-1.187.407,1.718,1.718,0,0,1-1.187-.407A1.334,1.334,0,0,1,1.767-11.971ZM6.39-4.825a6.421,6.421,0,0,1,.475-2.549A3.821,3.821,0,0,1,8.227-9.083a3.591,3.591,0,0,1,2.065-.6,2.855,2.855,0,0,1,2.32,1l.105-.826h2.689V-.36a4.009,4.009,0,0,1-.584,2.184,3.75,3.75,0,0,1-1.692,1.424,6.219,6.219,0,0,1-2.566.5,5.365,5.365,0,0,1-2.026-.4A3.657,3.657,0,0,1,7.04,2.32L8.279.58a2.716,2.716,0,0,0,2.18.976A1.764,1.764,0,0,0,12.428-.466v-.3a2.781,2.781,0,0,1-2.153.94A3.437,3.437,0,0,1,7.462-1.156,5.517,5.517,0,0,1,6.39-4.72Zm2.971.185A3.383,3.383,0,0,0,9.8-2.791a1.386,1.386,0,0,0,1.23.681,1.573,1.573,0,0,0,1.4-.642v-4a1.534,1.534,0,0,0-1.38-.65,1.4,1.4,0,0,0-1.239.708A3.858,3.858,0,0,0,9.36-4.641ZM22.755-1.028a3.054,3.054,0,0,1-2.54,1.2,3,3,0,0,1-2.369-.91,3.826,3.826,0,0,1-.8-2.615V-9.51H20v6.179A1.065,1.065,0,0,0,21.19-2.109a1.548,1.548,0,0,0,1.45-.729V-9.51H25.62V0H22.843Zm4.113-3.814a5.613,5.613,0,0,1,.554-2.536,3.96,3.96,0,0,1,1.591-1.709,4.791,4.791,0,0,1,2.435-.6,4.373,4.373,0,0,1,3.366,1.323,5.076,5.076,0,0,1,1.23,3.6v.105a4.925,4.925,0,0,1-1.235,3.529A4.384,4.384,0,0,1,31.465.176,4.434,4.434,0,0,1,28.2-1.042a4.761,4.761,0,0,1-1.327-3.3Zm2.962.185a3.538,3.538,0,0,0,.413,1.934,1.376,1.376,0,0,0,1.222.615q1.582,0,1.617-2.435v-.3q0-2.558-1.635-2.558-1.485,0-1.608,2.206Z" transform="translate(679.375 1101.375)" fill="#12263f"/>
    <path id="Trazado_799337" data-name="Trazado 799337" d="M-27.229,0H-30.3V-12.8h3.076ZM-22.5-9.51l.1,1.116a3.225,3.225,0,0,1,2.716-1.292,2.713,2.713,0,0,1,2.219.888,4.226,4.226,0,0,1,.76,2.672V0h-2.971V-6a1.6,1.6,0,0,0-.29-1.059A1.342,1.342,0,0,0-21.023-7.4a1.413,1.413,0,0,0-1.292.686V0h-2.962V-9.51Zm11.452,7.4a1.317,1.317,0,0,0,.967-.338,1.241,1.241,0,0,0,.334-.945H-6.97A3.288,3.288,0,0,1-8.09-.826a4.168,4.168,0,0,1-2.887,1,4.22,4.22,0,0,1-3.27-1.3,5.125,5.125,0,0,1-1.2-3.6v-.123A5.792,5.792,0,0,1-14.911-7.4a3.872,3.872,0,0,1,1.534-1.7A4.573,4.573,0,0,1-11-9.686,4.116,4.116,0,0,1-8.06-8.657,3.647,3.647,0,0,1-6.97-5.871H-9.747A1.626,1.626,0,0,0-10.107-7a1.244,1.244,0,0,0-.967-.4q-1.151,0-1.345,1.468a10.357,10.357,0,0,0-.062,1.283,4.068,4.068,0,0,0,.343,1.986A1.187,1.187,0,0,0-11.048-2.109ZM-2.593,0H-5.563V-9.51h2.971ZM-5.739-11.971a1.334,1.334,0,0,1,.457-1.043A1.718,1.718,0,0,1-4.1-13.421a1.718,1.718,0,0,1,1.187.407,1.334,1.334,0,0,1,.457,1.043,1.334,1.334,0,0,1-.457,1.043,1.718,1.718,0,0,1-1.187.407,1.718,1.718,0,0,1-1.187-.407A1.334,1.334,0,0,1-5.739-11.971ZM3.832.176A4.889,4.889,0,0,1,.29-1.129a4.507,4.507,0,0,1-1.354-3.4v-.246A5.84,5.84,0,0,1-.523-7.348,3.955,3.955,0,0,1,1.055-9.075a4.763,4.763,0,0,1,2.461-.611A4.117,4.117,0,0,1,6.68-8.442,4.887,4.887,0,0,1,7.84-4.975v1.151H1.951a2.135,2.135,0,0,0,.694,1.257,2.066,2.066,0,0,0,1.389.457,2.662,2.662,0,0,0,2.2-.984l1.354,1.6A3.784,3.784,0,0,1,6.016-.277,5.3,5.3,0,0,1,3.832.176ZM3.5-7.4q-1.3,0-1.547,1.723H4.939v-.229a1.467,1.467,0,0,0-.36-1.1A1.434,1.434,0,0,0,3.5-7.4Zm11.285.571-.976-.07a1.752,1.752,0,0,0-1.793.879V0H9.053V-9.51H11.83l.1,1.222a2.294,2.294,0,0,1,2.083-1.4,2.888,2.888,0,0,1,.826.105Zm4.957-5.045V-9.51H21.3v2.057H19.74V-3.1a1.111,1.111,0,0,0,.193.747,1.037,1.037,0,0,0,.765.211,4.345,4.345,0,0,0,.738-.053V-.079a5.466,5.466,0,0,1-1.67.255,3.1,3.1,0,0,1-2.259-.721,2.954,2.954,0,0,1-.729-2.188v-4.72H15.565V-9.51h1.213v-2.364Zm2.092,7.031a5.613,5.613,0,0,1,.554-2.536,3.96,3.96,0,0,1,1.591-1.709,4.791,4.791,0,0,1,2.435-.6,4.373,4.373,0,0,1,3.366,1.323,5.076,5.076,0,0,1,1.23,3.6v.105a4.925,4.925,0,0,1-1.235,3.529A4.384,4.384,0,0,1,26.429.176a4.434,4.434,0,0,1-3.261-1.217,4.761,4.761,0,0,1-1.327-3.3Zm2.962.185a3.538,3.538,0,0,0,.413,1.934,1.376,1.376,0,0,0,1.222.615q1.582,0,1.617-2.435v-.3q0-2.558-1.635-2.558-1.485,0-1.608,2.206Z" transform="translate(913.375 943.375)" fill="#12263f"/>
    <path id="Trazado_799338" data-name="Trazado 799338" d="M-27.316-4.333a4.673,4.673,0,0,1-.721,2.36,4.35,4.35,0,0,1-1.85,1.586,6.3,6.3,0,0,1-2.72.563A5.025,5.025,0,0,1-36.58-1.468a6.786,6.786,0,0,1-1.45-4.641v-.633a7.746,7.746,0,0,1,.655-3.292,4.961,4.961,0,0,1,1.885-2.18,5.26,5.26,0,0,1,2.848-.769A5.516,5.516,0,0,1-28.9-11.755,4.844,4.844,0,0,1-27.29-8.376h-3.076a2.292,2.292,0,0,0-.589-1.679,2.422,2.422,0,0,0-1.687-.51A1.843,1.843,0,0,0-34.33-9.7a5.536,5.536,0,0,0-.562,2.751v.905a6.126,6.126,0,0,0,.514,2.927,1.882,1.882,0,0,0,1.771.879,2.369,2.369,0,0,0,1.626-.5,2.126,2.126,0,0,0,.6-1.591Zm.949-.51a5.613,5.613,0,0,1,.554-2.536,3.96,3.96,0,0,1,1.591-1.709,4.791,4.791,0,0,1,2.435-.6,4.373,4.373,0,0,1,3.366,1.323,5.076,5.076,0,0,1,1.23,3.6v.105a4.925,4.925,0,0,1-1.235,3.529A4.384,4.384,0,0,1-21.771.176a4.434,4.434,0,0,1-3.261-1.217,4.761,4.761,0,0,1-1.327-3.3Zm2.962.185a3.538,3.538,0,0,0,.413,1.934,1.376,1.376,0,0,0,1.222.615q1.582,0,1.617-2.435v-.3q0-2.558-1.635-2.558-1.485,0-1.608,2.206ZM-13.087-9.51l.1,1.116a3.27,3.27,0,0,1,2.716-1.292A2.407,2.407,0,0,1-7.84-8.253,3.165,3.165,0,0,1-5.045-9.686q2.892,0,2.971,3.5V0H-5.045V-6a1.813,1.813,0,0,0-.246-1.063,1.048,1.048,0,0,0-.9-.334,1.4,1.4,0,0,0-1.31.782l.009.123V0h-2.971V-5.985A1.906,1.906,0,0,0-10.7-7.066,1.045,1.045,0,0,0-11.6-7.4a1.42,1.42,0,0,0-1.3.782V0h-2.962V-9.51ZM8.446-4.685a5.735,5.735,0,0,1-1,3.538A3.2,3.2,0,0,1,4.755.176,2.742,2.742,0,0,1,2.6-.782V3.656H-.36V-9.51H2.408l.088.879A2.742,2.742,0,0,1,4.737-9.686a3.224,3.224,0,0,1,2.733,1.3,5.805,5.805,0,0,1,.976,3.564ZM5.484-4.869Q5.484-7.4,4.008-7.4A1.394,1.394,0,0,0,2.6-6.645V-2.9a1.439,1.439,0,0,0,1.424.791q1.415,0,1.459-2.443ZM12.876,0H9.905V-13.5h2.971ZM19.3.176a4.889,4.889,0,0,1-3.542-1.305,4.507,4.507,0,0,1-1.354-3.4v-.246a5.84,5.84,0,0,1,.541-2.575,3.955,3.955,0,0,1,1.578-1.727,4.763,4.763,0,0,1,2.461-.611,4.117,4.117,0,0,1,3.164,1.244,4.887,4.887,0,0,1,1.16,3.467v1.151H17.42a2.135,2.135,0,0,0,.694,1.257,2.066,2.066,0,0,0,1.389.457,2.662,2.662,0,0,0,2.2-.984l1.354,1.6A3.784,3.784,0,0,1,21.485-.277,5.3,5.3,0,0,1,19.3.176ZM18.967-7.4q-1.3,0-1.547,1.723h2.988v-.229a1.467,1.467,0,0,0-.36-1.1A1.434,1.434,0,0,0,18.967-7.4ZM27.686-9.51V.325a3.452,3.452,0,0,1-.967,2.6,3.714,3.714,0,0,1-2.672.914,6.308,6.308,0,0,1-1.4-.149V1.45a5.667,5.667,0,0,0,.835.079A1.084,1.084,0,0,0,24.715.308V-9.51ZM24.5-11.971a1.334,1.334,0,0,1,.457-1.043,1.718,1.718,0,0,1,1.187-.407,1.718,1.718,0,0,1,1.187.407,1.334,1.334,0,0,1,.457,1.043,1.334,1.334,0,0,1-.457,1.043,1.718,1.718,0,0,1-1.187.407,1.718,1.718,0,0,1-1.187-.407A1.334,1.334,0,0,1,24.5-11.971Zm4.491,7.128a5.613,5.613,0,0,1,.554-2.536,3.96,3.96,0,0,1,1.591-1.709,4.791,4.791,0,0,1,2.435-.6,4.373,4.373,0,0,1,3.366,1.323,5.076,5.076,0,0,1,1.23,3.6v.105a4.925,4.925,0,0,1-1.235,3.529A4.384,4.384,0,0,1,33.583.176a4.434,4.434,0,0,1-3.261-1.217A4.761,4.761,0,0,1,29-4.342Zm2.962.185a3.538,3.538,0,0,0,.413,1.934,1.376,1.376,0,0,0,1.222.615q1.582,0,1.617-2.435v-.3Q35.2-7.4,33.565-7.4q-1.485,0-1.608,2.206Z" transform="translate(892.375 1136.375)" fill="#12263f"/>
    <g id="Enmascarar_grupo_1059013" data-name="Enmascarar grupo 1059013" transform="translate(0.375 -48.625)" clip-path="url(#clip-path)">
      <g id="volatilidad" transform="translate(768.833 893.833)">
        <g id="Grupo_1064157" data-name="Grupo 1064157">
          <path id="Trazado_797602" data-name="Trazado 797602" d="M13.388,57.645H24.534l3.009-5.167-21.238,0A4.139,4.139,0,0,1,2.17,48.346l0-39.735A4.144,4.144,0,0,1,6.3,4.474H63.03a4.144,4.144,0,0,1,4.137,4.137v39.73a4.139,4.139,0,0,1-4.137,4.134l-21.24,0L44.8,57.645H55.945a3.616,3.616,0,0,1,3.607,3.607v2.863a.745.745,0,0,1-.745.745H10.526a.745.745,0,0,1-.745-.745V61.252a3.616,3.616,0,0,1,3.607-3.607Z" fill-rule="evenodd"/>
          <path id="Trazado_797603" data-name="Trazado 797603" d="M3.656,42.778H65.68V8.611a2.655,2.655,0,0,0-2.649-2.649H6.305A2.655,2.655,0,0,0,3.656,8.611Zm3.92-26.442a.745.745,0,1,1,0-1.488H22.885a.745.745,0,1,1,0,1.488Zm0-4.8a.745.745,0,0,1,0-1.489H25.154a.745.745,0,0,1,0,1.489Zm44.071,3.928a.742.742,0,1,1,.076-1.483l3.355.18a.744.744,0,0,1,.744.827l-.18,3.352a.742.742,0,1,1-1.483-.076l.087-1.632L48.99,21.264a.744.744,0,0,1-.366.174l-5.406.935-2.98,4.189a.742.742,0,1,1-1.209-.861l3.158-4.439a.739.739,0,0,1,.48-.3l5.5-.952,5.063-4.462-1.58-.085Zm-25,19.654V26.075H24.734a.745.745,0,0,1-.644-1.117l5.3-9.768A.745.745,0,0,1,30.7,15.2l5.307,9.78a.745.745,0,0,1-.654,1.1H33.443v9.041a.745.745,0,0,1-.745.745h-5.31a.745.745,0,0,1-.745-.745ZM14.821,23.01A9.177,9.177,0,1,1,8.332,25.7a9.177,9.177,0,0,1,6.488-2.688ZM53.83,37.866V20.8a.745.745,0,0,1,.745-.745h5.138a.745.745,0,0,1,.745.745V37.866h1.09a.745.745,0,0,1,0,1.489H35.994a.745.745,0,0,1,0-1.489h.955v-9.05a.745.745,0,0,1,.745-.745h5.138a.745.745,0,0,1,.745.745v9.049H45.3V25.289a.745.745,0,0,1,.745-.745h5.138a.745.745,0,0,1,.745.745V37.866Z" fill="#fff" fill-rule="evenodd"/>
          <path id="Trazado_797604" data-name="Trazado 797604" d="M20.257,26.75a7.688,7.688,0,1,0,2.252,5.436,7.688,7.688,0,0,0-2.252-5.436Zm-6.18-.121a.745.745,0,1,1,1.489,0v.628a2.887,2.887,0,0,1,2.14,2.788.745.745,0,1,1-1.489,0,1.4,1.4,0,1,0-1.4,1.4,2.885,2.885,0,0,1,.745,5.672v.628a.745.745,0,1,1-1.489,0v-.628a2.886,2.886,0,0,1-2.141-2.788.745.745,0,1,1,1.489,0,1.4,1.4,0,1,0,1.4-1.4,2.885,2.885,0,0,1-.745-5.672Z" fill="#fdd46f" fill-rule="evenodd"/>
          <path id="Trazado_797605" data-name="Trazado 797605" d="M28.133,25.33v9.042h3.821V25.33a.745.745,0,0,1,.745-.745h1.4L30.044,17.1l-4.059,7.481h1.4A.745.745,0,0,1,28.133,25.33Z" fill="#a0d468" fill-rule="evenodd"/>
        </g>
        <path id="Trazado_797606" data-name="Trazado 797606" d="M55.318,21.543h3.649V37.866H55.318Z" fill="#12b7ee"/>
        <path id="Trazado_797607" data-name="Trazado 797607" d="M46.786,26.033h3.649V37.866H46.786Z" fill="#30c3f0"/>
        <path id="Trazado_797608" data-name="Trazado 797608" d="M38.437,29.561h3.649v8.3H38.437Z" fill="#69d6f4"/>
        <path id="Trazado_797609" data-name="Trazado 797609" d="M65.68,44.268H3.656l0,4.079A2.66,2.66,0,0,0,6.305,51l56.726,0a2.66,2.66,0,0,0,2.648-2.652Zm-31.43,3.909a.745.745,0,0,1,0-1.489h.419a.745.745,0,0,1,0,1.489Z" fill="#ccc" fill-rule="evenodd"/>
        <path id="Trazado_797610" data-name="Trazado 797610" d="M26.254,57.645H43.082l-3.009-5.168H29.263Z" fill="#999" fill-rule="evenodd"/>
        <path id="Trazado_797611" data-name="Trazado 797611" d="M55.947,59.134H13.39a2.126,2.126,0,0,0-2.118,2.118v2.118H58.065V61.252a2.126,2.126,0,0,0-2.118-2.118Z" fill="gray" fill-rule="evenodd"/>
      </g>
    </g>
    <g id="Enmascarar_grupo_1059014" data-name="Enmascarar grupo 1059014" transform="translate(0.375 -48.625)" clip-path="url(#clip-path-2)">
      <g id="Layer_31" data-name="Layer 31" transform="translate(904.985 1034.002)">
        <path id="Trazado_797612" data-name="Trazado 797612" d="M25.39,19.3A12.187,12.187,0,1,0,12.626,31.47a2.067,2.067,0,0,1,1.055.332L19.3,35.546v-4.6a1.977,1.977,0,0,1,.828-1.633A12.16,12.16,0,0,0,25.39,19.3Z" fill="#f8c460"/>
        <path id="Trazado_797613" data-name="Trazado 797613" d="M16.728,29.771a2.067,2.067,0,0,0-1.055-.332,12.137,12.137,0,0,1-7.54-21.2A12.169,12.169,0,0,0,12.626,31.47a2.067,2.067,0,0,1,1.055.332L19.3,35.546V31.483Z" fill="#faaf42"/>
        <path id="Trazado_797614" data-name="Trazado 797614" d="M51.318,7.118a12.3,12.3,0,0,0-11.71,11.893,12.158,12.158,0,0,0,5.253,10.3,1.985,1.985,0,0,1,.841,1.638v4.6L51.315,31.8a2.064,2.064,0,0,1,1.059-.334A12.187,12.187,0,0,0,51.318,7.118Z" fill="#f8c460"/>
        <path id="Trazado_797615" data-name="Trazado 797615" d="M48.748,31.715v1.8L45.7,35.546v-4.6a2,2,0,0,0-.848-1.645,12.187,12.187,0,0,1-5.246-10.288A12.315,12.315,0,0,1,46.737,8.236a12.074,12.074,0,0,0-.528,17.618A8.328,8.328,0,0,1,48.748,31.715Z" fill="#faaf42"/>
        <path id="Trazado_797616" data-name="Trazado 797616" d="M25.39,35.546H39.608v9.14A7.109,7.109,0,0,1,32.5,51.8h0a7.109,7.109,0,0,1-7.109-7.109Z" fill="#ffd3b6"/>
        <path id="Trazado_797617" data-name="Trazado 797617" d="M34.53,49.764a7.109,7.109,0,0,1-7.109-7.109V35.546H25.39v9.14a7.109,7.109,0,0,0,13.046,3.906A7.072,7.072,0,0,1,34.53,49.764Z" fill="#f9b995"/>
        <path id="Trazado_797618" data-name="Trazado 797618" d="M37.577,31.483h0a2.031,2.031,0,0,0-2.031-2.031H29.452a6.094,6.094,0,0,0-6.094,6.094h0a4.062,4.062,0,0,0,4.062,4.062h2.728a8.125,8.125,0,0,0,5.745-2.38l.667-.667h0a3.047,3.047,0,0,0,3.047,3.047h0V33.514A2.031,2.031,0,0,0,37.577,31.483Z" fill="#8e969b"/>
        <path id="Trazado_797619" data-name="Trazado 797619" d="M37.955,35.168l-.029.029a8.125,8.125,0,0,1-5.745,2.38H29.562a4.154,4.154,0,0,1-4.172-4.24,6.056,6.056,0,0,1,.892-2.99,6.085,6.085,0,0,0-2.923,5.222,4.092,4.092,0,0,0,4.109,4.039h2.681a8.125,8.125,0,0,0,5.745-2.38l.667-.667a3.047,3.047,0,0,0,3.047,3.047V36.786a3.073,3.073,0,0,1-.89-1.4.459.459,0,0,0-.764-.222Z" fill="#778084"/>
        <path id="Trazado_797620" data-name="Trazado 797620" d="M39.608,39.608h1.016a2.031,2.031,0,0,1,2.031,2.031h0a2.031,2.031,0,0,1-2.031,2.031H39.608Z" fill="#ffd3b6"/>
        <path id="Trazado_797621" data-name="Trazado 797621" d="M22.343,39.608h1.016a2.031,2.031,0,0,1,2.031,2.031h0a2.031,2.031,0,0,1-2.031,2.031H22.343Z" transform="translate(47.733 83.278) rotate(180)" fill="#ffd3b6"/>
        <path id="Trazado_797622" data-name="Trazado 797622" d="M26.405,51.8H38.592a8.125,8.125,0,0,1,8.125,8.125v4.062H18.281V59.92A8.125,8.125,0,0,1,26.405,51.8Z" fill="#f8c460"/>
        <path id="Trazado_797623" data-name="Trazado 797623" d="M25.39,60.935a4.062,4.062,0,0,1-4.062-4.062h0a8.085,8.085,0,0,1,1.066-4.014,8.118,8.118,0,0,0-4.113,7.061v4.062H46.717V60.935Z" fill="#faaf42"/>
        <path id="Trazado_797624" data-name="Trazado 797624" d="M19.545,8.9a11.924,11.924,0,0,0-1.262,5.078,12.158,12.158,0,0,0,5.86,10.642A12.117,12.117,0,0,0,19.545,8.9Z" fill="#faaf42"/>
        <path id="Trazado_797625" data-name="Trazado 797625" d="M45.453,8.9a11.924,11.924,0,0,1,1.262,5.078,12.158,12.158,0,0,1-5.86,10.642A12.117,12.117,0,0,1,45.453,8.9Z" fill="#faaf42"/>
        <path id="Trazado_797626" data-name="Trazado 797626" d="M44.686,13.2a12.187,12.187,0,1,0-15.7,11.662,2.1,2.1,0,0,1,1.2.883l2.316,3.7,2.315-3.7a2.112,2.112,0,0,1,1.2-.886A12.187,12.187,0,0,0,44.686,13.2Z" fill="#f8c460"/>
        <path id="Trazado_797627" data-name="Trazado 797627" d="M41.639,9.286A.508.508,0,0,1,41.183,9a9.659,9.659,0,0,0-1.93-2.68.508.508,0,1,1,.711-.725A10.637,10.637,0,0,1,42.1,8.555a.508.508,0,0,1-.234.679A.515.515,0,0,1,41.639,9.286Z" fill="#fff"/>
        <path id="Trazado_797628" data-name="Trazado 797628" d="M34.963,25.473a12.116,12.116,0,0,0-4.86-4.421A12.172,12.172,0,0,1,23.359,9.916a12.034,12.034,0,0,1,2.234-6.707,12.144,12.144,0,0,0,3.4,21.655,2.1,2.1,0,0,1,1.2.883l2.311,3.7,2.315-3.7a1.879,1.879,0,0,1,.178-.231Z" fill="#faaf42"/>
        <path id="Trazado_797629" data-name="Trazado 797629" d="M19.3,36.561a1.016,1.016,0,0,0,1.016-1.016v-4.6a.96.96,0,0,1,.391-.8A13.283,13.283,0,0,0,23.917,27a1.016,1.016,0,1,0-1.646-1.188,11.289,11.289,0,0,1-2.724,2.668,2.989,2.989,0,0,0-1.266,2.467v2.7l-4.036-2.691a3.085,3.085,0,0,0-1.571-.5,11.206,11.206,0,0,1-10.634-11.6A11.347,11.347,0,0,1,12.766,8.133a11.07,11.07,0,0,1,4.164.628,1.016,1.016,0,1,0,.676-1.915,13.2,13.2,0,1,0-5.024,25.64,1.062,1.062,0,0,1,.539.162l5.614,3.743A1.016,1.016,0,0,0,19.3,36.561Z"/>
        <path id="Trazado_797630" data-name="Trazado 797630" d="M52.309,6.1a13.2,13.2,0,0,0-4.914.742,1.016,1.016,0,1,0,.676,1.915,11.187,11.187,0,0,1,4.164-.628A11.347,11.347,0,0,1,62.958,18.86a11.206,11.206,0,0,1-10.633,11.6,3.085,3.085,0,0,0-1.572.5l-4.036,2.691v-2.7a2.991,2.991,0,0,0-1.265-2.469,11.273,11.273,0,0,1-2.725-2.668A1.016,1.016,0,1,0,41.081,27,13.269,13.269,0,0,0,44.3,30.148a.961.961,0,0,1,.39.8v4.6a1.016,1.016,0,0,0,1.579.845l5.614-3.743a1.062,1.062,0,0,1,.54-.162A13.2,13.2,0,0,0,52.309,6.1Z"/>
        <path id="Trazado_797631" data-name="Trazado 797631" d="M33.34,6.094a2.208,2.208,0,0,1,2.206,2.2,1.016,1.016,0,0,1-.3.719L34.16,10.105a9.079,9.079,0,0,0-2.677,6.462v.7a1.016,1.016,0,0,0,2.031,0v-.7A7.066,7.066,0,0,1,35.6,11.541l1.088-1.088A3.03,3.03,0,0,0,37.577,8.3,4.241,4.241,0,0,0,33.34,4.062H31.658A4.241,4.241,0,0,0,27.421,8.3V9.14a1.016,1.016,0,0,0,2.031,0V8.3a2.208,2.208,0,0,1,2.206-2.2Z"/>
        <circle id="Elipse_4760" data-name="Elipse 4760" cx="1.016" cy="1.016" r="1.016" transform="translate(31.483 20.312)"/>
        <path id="Trazado_797632" data-name="Trazado 797632" d="M14.218,22.661A7.066,7.066,0,0,1,16.3,17.635l1.088-1.088a3.029,3.029,0,0,0,.893-2.155,4.241,4.241,0,0,0-4.237-4.236H12.362a4.241,4.241,0,0,0-4.237,4.236v.842a1.016,1.016,0,1,0,2.031,0v-.842a2.208,2.208,0,0,1,2.206-2.2h1.682a2.208,2.208,0,0,1,2.206,2.2,1.016,1.016,0,0,1-.3.719L14.864,16.2a9.079,9.079,0,0,0-2.677,6.462v.7a1.016,1.016,0,1,0,2.031,0Z"/>
        <circle id="Elipse_4761" data-name="Elipse 4761" cx="1.016" cy="1.016" r="1.016" transform="translate(12.187 26.405)"/>
        <path id="Trazado_797633" data-name="Trazado 797633" d="M47.733,16.249a1.016,1.016,0,0,0,1.016-1.016v-.842a2.208,2.208,0,0,1,2.206-2.2h1.682a2.208,2.208,0,0,1,2.206,2.2,1.016,1.016,0,0,1-.3.719L53.457,16.2a9.079,9.079,0,0,0-2.677,6.462v.7a1.016,1.016,0,1,0,2.031,0v-.7a7.066,7.066,0,0,1,2.082-5.026l1.088-1.088a3.03,3.03,0,0,0,.893-2.155,4.241,4.241,0,0,0-4.237-4.236H50.954a4.241,4.241,0,0,0-4.237,4.236v.842A1.016,1.016,0,0,0,47.733,16.249Z"/>
        <circle id="Elipse_4762" data-name="Elipse 4762" cx="1.016" cy="1.016" r="1.016" transform="translate(50.779 26.405)"/>
        <circle id="Elipse_4763" data-name="Elipse 4763" cx="1.016" cy="1.016" r="1.016" transform="translate(28.437 41.639)"/>
        <circle id="Elipse_4764" data-name="Elipse 4764" cx="1.016" cy="1.016" r="1.016" transform="translate(34.53 41.639)"/>
        <path id="Trazado_797634" data-name="Trazado 797634" d="M38.592,50.779h-.737a8.1,8.1,0,0,0,2.768-6.094,3.047,3.047,0,1,0,0-6.094V33.514A3.047,3.047,0,0,0,38.461,30.6a3.047,3.047,0,0,0-2.916-2.162H34.327l1.343-2.148a1.107,1.107,0,0,1,.632-.452A13.2,13.2,0,0,0,31.979.01,13.367,13.367,0,0,0,19.3,12.945a13.242,13.242,0,0,0,9.4,12.892,1.1,1.1,0,0,1,.628.449l1.349,2.151H29.452a7.117,7.117,0,0,0-7.109,7.109A5.029,5.029,0,0,0,23.5,38.735a3.039,3.039,0,0,0,.872,5.951,8.1,8.1,0,0,0,2.768,6.094h-.737a9.15,9.15,0,0,0-9.14,9.14v4.062A1.016,1.016,0,0,0,18.281,65H46.717a1.016,1.016,0,0,0,1.016-1.016V59.92A9.15,9.15,0,0,0,38.592,50.779ZM29.279,23.892a11.2,11.2,0,0,1-7.952-10.908A11.309,11.309,0,0,1,32.056,2.039c.15-.008.3-.008.443-.008A11.167,11.167,0,0,1,35.72,23.892a3.134,3.134,0,0,0-1.768,1.32L32.5,27.536,31.045,25.21a3.124,3.124,0,0,0-1.765-1.318Zm12.36,17.747a1.016,1.016,0,0,1-1.016,1.016V40.624A1.016,1.016,0,0,1,41.639,41.639ZM29.452,30.468h6.094a1.016,1.016,0,0,1,1.016,1.016A1.016,1.016,0,0,0,37.577,32.5a1.016,1.016,0,0,1,1.016,1.016v4.8a2.031,2.031,0,0,1-1.016-1.758,1.016,1.016,0,0,0-1.734-.718l-.667.667a7.064,7.064,0,0,1-5.026,2.082H27.421a3.047,3.047,0,0,1-3.047-3.047,5.084,5.084,0,0,1,5.078-5.078ZM23.359,41.639a1.016,1.016,0,0,1,1.016-1.016v2.031A1.016,1.016,0,0,1,23.359,41.639Zm3.047,3.047V40.522a5.078,5.078,0,0,0,1.016.1H30.15a9.074,9.074,0,0,0,5.88-2.141,4.078,4.078,0,0,0,2.562,2.007v4.2a6.094,6.094,0,1,1-12.187,0ZM45.7,62.967H43.67V59.92a1.016,1.016,0,0,0-2.031,0v3.047H23.359V59.92a1.016,1.016,0,0,0-2.031,0v3.047H19.3V59.92a7.118,7.118,0,0,1,7.109-7.109H38.592A7.118,7.118,0,0,1,45.7,59.92Z"/>
      </g>
    </g>
    <g id="Enmascarar_grupo_1059015" data-name="Enmascarar grupo 1059015" transform="translate(0.375 -48.625)" clip-path="url(#clip-path-3)">
      <g id="laberinto" transform="translate(771 1173)">
        <g id="Grupo_1064158" data-name="Grupo 1064158">
          <path id="Trazado_797635" data-name="Trazado 797635" d="M32.5,63.73A31.23,31.23,0,1,0,1.27,32.5,31.291,31.291,0,0,0,32.5,63.73Z" fill="#f1dfc4"/>
          <path id="Trazado_797636" data-name="Trazado 797636" d="M32.5,38.34a5.84,5.84,0,1,0-5.84-5.84A5.851,5.851,0,0,0,32.5,38.34Z" fill="#ee4a4d"/>
        </g>
        <path id="Trazado_797637" data-name="Trazado 797637" d="M60.557,48.882a1.281,1.281,0,0,0,.089-.132,32.5,32.5,0,1,0-5.165,6.731,1.27,1.27,0,1,0-1.8-1.8,29.941,29.941,0,0,1-35.05,5.368l2.522-4.368v0a1.269,1.269,0,0,0-.465-1.734l0,0A23.683,23.683,0,0,1,8.924,33.77h5.04a1.27,1.27,0,0,0,0-2.539H8.924a23.59,23.59,0,0,1,.768-4.842,1.27,1.27,0,0,0-2.452-.657,26.15,26.15,0,0,0,11.1,28.755l-1.9,3.295A29.931,29.931,0,0,1,5.947,18.635l4.369,2.523a1.269,1.269,0,0,0,1.734-.465v0A23.62,23.62,0,0,1,15.8,15.8a1.27,1.27,0,1,0-1.8-1.8,26.151,26.151,0,0,0-3.492,4.334l-3.3-1.9A29.932,29.932,0,0,1,46.365,5.947l-2.523,4.369a1.269,1.269,0,1,0,2.2,1.27l2.521-4.367a30.2,30.2,0,0,1,9.219,9.219l-3.3,1.9a26.147,26.147,0,0,0-3.49-4.335,1.27,1.27,0,1,0-1.8,1.8,23.644,23.644,0,0,1,6.111,10.586,1.27,1.27,0,1,0,2.452-.657,26.146,26.146,0,0,0-2.009-5.19l3.3-1.906a29.93,29.93,0,0,1,0,27.732l-3.3-1.908a25.991,25.991,0,0,0,2.9-11.959,1.269,1.269,0,0,0-1.27-1.27H52.264c-.026-.4-.063-.8-.114-1.2a1.27,1.27,0,1,0-2.519.317,17.25,17.25,0,0,1-1.586,9.664L44.736,38.1a13.478,13.478,0,0,0,1.221-5.6,1.27,1.27,0,0,0-1.27-1.27H38.34a1.27,1.27,0,0,0-1.27,1.27A4.57,4.57,0,1,1,32.5,27.929a1.27,1.27,0,1,0,0-2.539,7.12,7.12,0,0,0-6.994,5.84H21.658a10.917,10.917,0,0,1,20.3-4.19,1.269,1.269,0,0,0,2.2-1.27,13.433,13.433,0,0,0-3.859-4.234l1.914-3.315a17.255,17.255,0,0,1,5.243,5.645,1.27,1.27,0,0,0,2.2-1.269A19.789,19.789,0,0,0,42.4,15.349h0a19.826,19.826,0,0,0-3.6-1.622A1.27,1.27,0,1,0,38,16.133a17.293,17.293,0,0,1,2.012.821L38.1,20.268A13.43,13.43,0,0,0,21.537,24.7l-3.313-1.913a17.27,17.27,0,0,1,8.794-6.664,1.27,1.27,0,0,0-.806-2.408,19.8,19.8,0,0,0-2.494,1.03l-1.906-3.3A23.656,23.656,0,0,1,31.23,8.924v5.041a1.27,1.27,0,0,0,2.539,0V8.924a23.61,23.61,0,0,1,4.842.767,1.27,1.27,0,0,0,.657-2.452A26.153,26.153,0,0,0,19.424,9.852a1.269,1.269,0,0,0-.465,1.734l0,0,2.558,4.431a19.812,19.812,0,0,0-6.158,6.559l-.012.019c0,.008-.008.017-.013.025a19.754,19.754,0,0,0-1.095,2.207,1.269,1.269,0,1,0,2.341.984q.175-.417.372-.823L20.264,26.9a13.443,13.443,0,0,0,0,11.2l-3.31,1.911c-.17-.353-.331-.712-.478-1.079a1.27,1.27,0,0,0-2.356.946A19.764,19.764,0,0,0,26.282,51.3a1.269,1.269,0,1,0,.8-2.411,17.228,17.228,0,0,1-8.858-6.683L21.537,40.3a13.45,13.45,0,0,0,17.692,3.858,1.27,1.27,0,0,0-1.27-2.2,10.929,10.929,0,0,1-4.189,1.387V39.493a7.126,7.126,0,0,0,5.724-5.724h3.848a10.935,10.935,0,0,1-1.385,4.186l0,0a1.269,1.269,0,0,0,.465,1.734l4.356,2.515a17.149,17.149,0,0,1-1.05,1.39,1.27,1.27,0,0,0,1.945,1.632,19.754,19.754,0,0,0,1.969-2.811l.011-.016.011-.021a19.848,19.848,0,0,0,2.6-8.612h3.816A23.622,23.622,0,0,1,45.385,52.278l-2.518-4.361a1.269,1.269,0,0,0-2.2,1.27l2.52,4.365a23.442,23.442,0,0,1-9.419,2.527V52.263a19.809,19.809,0,0,0,2.48-.316,1.269,1.269,0,1,0-.481-2.493,17.294,17.294,0,0,1-3.268.312,1.269,1.269,0,0,0-1.27,1.27v5.041a23.62,23.62,0,0,1-4.842-.768,1.27,1.27,0,1,0-.657,2.452,26.125,26.125,0,0,0,19.776-2.579c.023-.011.046-.021.068-.034a1.3,1.3,0,0,0,.113-.074,26.353,26.353,0,0,0,8.791-8.419l4.426,2.556,0,0a1.273,1.273,0,0,0,.142.069l.033.013q.058.023.117.039l.034.009a1.259,1.259,0,0,0,.3.039h.028a1.253,1.253,0,0,0,.126-.008l.033,0a1.266,1.266,0,0,0,.292-.077l.027-.011a1.246,1.246,0,0,0,.113-.054l.029-.016a1.261,1.261,0,0,0,.244-.184L60.451,49c.029-.029.056-.061.083-.093Zm-38.9-15.112h3.848a7.126,7.126,0,0,0,5.724,5.724v3.848A10.936,10.936,0,0,1,21.658,33.769Z" fill="#000001"/>
      </g>
    </g>
    <g id="Enmascarar_grupo_1059016" data-name="Enmascarar grupo 1059016" transform="translate(0.375 -48.625)" clip-path="url(#clip-path-4)">
      <g id="rompecabezas" transform="translate(630 1031)">
        <g id="Grupo_1064159" data-name="Grupo 1064159">
          <path id="Trazado_797638" data-name="Trazado 797638" d="M25.954,24.945a3.972,3.972,0,0,1-4.384-.736,3.212,3.212,0,0,1-1.015-1.739,3.907,3.907,0,0,1,4.771-4.765,3.85,3.85,0,0,1,2.163,1.513l1.65-6.156a2.539,2.539,0,0,0-1.8-3.11L21.187,8.3a3.98,3.98,0,0,0,1.54-4.233,3.156,3.156,0,0,0-.984-1.68,3.907,3.907,0,0,0-6.512,1.749,3.849,3.849,0,0,0,.229,2.63L9.3,5.12a2.539,2.539,0,0,0-3.11,1.8l-1.65,6.156a3.972,3.972,0,0,1,4.384.736,3.211,3.211,0,0,1,1.016,1.739,3.907,3.907,0,0,1-4.77,4.765A3.85,3.85,0,0,1,3.011,18.8l-1.65,6.156a2.539,2.539,0,0,0,1.8,3.11l6.156,1.65a3.981,3.981,0,0,0-1.54,4.233,3.155,3.155,0,0,0,.984,1.68,3.907,3.907,0,0,0,6.512-1.749,3.849,3.849,0,0,0-.229-2.63l6.156,1.65a2.539,2.539,0,0,0,3.11-1.8Z" fill="#33d7f6"/>
        </g>
        <path id="Trazado_797639" data-name="Trazado 797639" d="M19.57,61.191V54.818a3.866,3.866,0,0,0,6.337-3.24,4,4,0,0,0-3.715-3.587,3.851,3.851,0,0,0-2.622.9V42.517a2.539,2.539,0,0,1,2.539-2.539h6.373a3.866,3.866,0,0,1,3.24-6.337,4,4,0,0,1,3.588,3.715,3.851,3.851,0,0,1-.9,2.622h6.373a2.539,2.539,0,0,1,2.539,2.539V48.89a3.866,3.866,0,0,1,6.337,3.24,4,4,0,0,1-3.715,3.587,3.851,3.851,0,0,1-2.622-.9v6.373a2.539,2.539,0,0,1-2.539,2.539H22.109a2.539,2.539,0,0,1-2.539-2.539Z" fill="#6ae6a3"/>
        <path id="Trazado_797640" data-name="Trazado 797640" d="M48.886,31.372a3.866,3.866,0,0,1,3.24-6.337,4,4,0,0,1,3.587,3.715,3.851,3.851,0,0,1-.9,2.622h6.373a2.539,2.539,0,0,0,2.539-2.539V10.159A2.539,2.539,0,0,0,61.188,7.62H54.815A3.852,3.852,0,0,0,55.714,5a4,4,0,0,0-3.587-3.715,3.866,3.866,0,0,0-3.24,6.337H42.513a2.539,2.539,0,0,0-2.539,2.539v6.373a3.852,3.852,0,0,0-2.623-.9,4,4,0,0,0-3.715,3.588,3.866,3.866,0,0,0,6.337,3.24v6.373a2.539,2.539,0,0,0,2.539,2.539Z" fill="#ffcf5c"/>
        <g id="Grupo_1064160" data-name="Grupo 1064160">
          <path id="Trazado_797641" data-name="Trazado 797641" d="M62.059,35.207a4.843,4.843,0,0,0-6.293,2.371,1.269,1.269,0,1,0,2.293,1.09,2.312,2.312,0,1,1,2.111,3.309,2.87,2.87,0,0,0-2.716,2.008l-.428,1.36a1.269,1.269,0,1,0,2.422.763l.428-1.36a.337.337,0,0,1,.322-.232,4.851,4.851,0,0,0,1.862-9.309Z"/>
          <path id="Trazado_797642" data-name="Trazado 797642" d="M5.389,43.556a4.843,4.843,0,0,0-4.265,5.2,1.27,1.27,0,0,0,2.531-.2,2.312,2.312,0,1,1,3.483,1.81,2.87,2.87,0,0,0-1.348,3.1L6.1,54.852a1.269,1.269,0,1,0,2.478-.55L8.268,52.91a.337.337,0,0,1,.163-.362,4.851,4.851,0,0,0-3.042-8.992Z"/>
          <path id="Trazado_797643" data-name="Trazado 797643" d="M23.756,33.742a3.784,3.784,0,0,0,1.774-2.312l1.65-6.156a1.27,1.27,0,0,0-1.762-1.48,2.721,2.721,0,0,1-3.007-.535A1.947,1.947,0,0,1,21.8,22.21a2.72,2.72,0,0,1,.74-2.654,2.6,2.6,0,0,1,3.912.391,1.269,1.269,0,0,0,2.266-.4l1.65-6.156a3.808,3.808,0,0,0-2.693-4.664L23.473,7.6a5.473,5.473,0,0,0,.494-3.8A4.406,4.406,0,0,0,22.59,1.445,5.259,5.259,0,0,0,17.5.216a5.134,5.134,0,0,0-3.672,4.8l-4.2-1.125A3.813,3.813,0,0,0,4.968,6.586l-1.65,6.156a1.27,1.27,0,0,0,1.762,1.48,2.721,2.721,0,0,1,3.007.535A1.947,1.947,0,0,1,8.7,15.806a2.719,2.719,0,0,1-.74,2.654,2.6,2.6,0,0,1-3.912-.391,1.269,1.269,0,0,0-2.266.4L.135,24.625a3.808,3.808,0,0,0,2.693,4.664l4.2,1.125a5.475,5.475,0,0,0-.494,3.8,4.405,4.405,0,0,0,1.377,2.355,5.4,5.4,0,0,0,3.617,1.445A5.138,5.138,0,0,0,16.667,33l4.2,1.125A3.784,3.784,0,0,0,23.756,33.742Zm-8.389-3.721a1.27,1.27,0,0,0-1.48,1.762,2.6,2.6,0,0,1-1.617,3.584A2.72,2.72,0,0,1,9.6,34.68a1.882,1.882,0,0,1-.59-1.005,2.728,2.728,0,0,1,1.029-2.923,1.269,1.269,0,0,0-.4-2.265L3.485,26.837a1.269,1.269,0,0,1-.9-1.555l1.125-4.2A5.134,5.134,0,0,0,9.707,20.3a5.261,5.261,0,0,0,1.479-5.019A4.5,4.5,0,0,0,9.77,12.856,5.463,5.463,0,0,0,6.3,11.443l1.125-4.2a1.269,1.269,0,0,1,1.555-.9L15.131,8a1.27,1.27,0,0,0,1.48-1.762A2.6,2.6,0,0,1,18.228,2.65a2.719,2.719,0,0,1,2.668.686,1.883,1.883,0,0,1,.59,1.005,2.727,2.727,0,0,1-1.029,2.923,1.269,1.269,0,0,0,.4,2.266l6.156,1.65a1.271,1.271,0,0,1,.9,1.555l-1.125,4.2a5.133,5.133,0,0,0-5.995.779,5.26,5.26,0,0,0-1.479,5.019,4.5,4.5,0,0,0,1.416,2.428A5.462,5.462,0,0,0,24.2,26.573l-1.125,4.2a1.269,1.269,0,0,1-1.555.9Z"/>
          <path id="Trazado_797644" data-name="Trazado 797644" d="M45.8,46.719a5.129,5.129,0,0,0-1.211.145V42.517a3.813,3.813,0,0,0-3.808-3.808H36.437a5.148,5.148,0,0,0,.141-1.4,5.248,5.248,0,0,0-4.768-4.936,5.1,5.1,0,0,0-3.867,1.367,5.132,5.132,0,0,0-1.487,4.967H22.109A3.813,3.813,0,0,0,18.3,42.517V48.89a1.27,1.27,0,0,0,2.085.973,2.592,2.592,0,0,1,1.761-.6,2.721,2.721,0,0,1,2.494,2.407,2.6,2.6,0,0,1-4.256,2.179,1.269,1.269,0,0,0-2.085.973v6.373A3.813,3.813,0,0,0,22.109,65H40.783a3.813,3.813,0,0,0,3.808-3.808V56.845a5.152,5.152,0,0,0,1.4.141,5.247,5.247,0,0,0,4.936-4.768,5.092,5.092,0,0,0-1.367-3.867A5.153,5.153,0,0,0,45.8,46.719Zm2.59,5.323A2.721,2.721,0,0,1,45.9,54.449a2.6,2.6,0,0,1-1.762-.6,1.269,1.269,0,0,0-2.085.973v6.373a1.271,1.271,0,0,1-1.269,1.269H22.109a1.271,1.271,0,0,1-1.269-1.269V56.844a5.135,5.135,0,0,0,6.334-5.354,5.248,5.248,0,0,0-4.937-4.768,5.17,5.17,0,0,0-1.4.141V42.517a1.271,1.271,0,0,1,1.269-1.269h6.373a1.269,1.269,0,0,0,.973-2.085A2.6,2.6,0,0,1,28.85,37.5a2.6,2.6,0,0,1,2.784-2.59A2.721,2.721,0,0,1,34.041,37.4a2.594,2.594,0,0,1-.6,1.762,1.269,1.269,0,0,0,.973,2.085h6.373a1.271,1.271,0,0,1,1.269,1.269V48.89a1.27,1.27,0,0,0,2.085.973,2.6,2.6,0,0,1,4.255,2.179Z"/>
          <path id="Trazado_797645" data-name="Trazado 797645" d="M63.727,23.451a1.27,1.27,0,0,0-1.269,1.269v4.113A1.271,1.271,0,0,1,61.188,30.1H56.841a5.154,5.154,0,0,0,.141-1.4,5.248,5.248,0,0,0-4.768-4.937,5.09,5.09,0,0,0-3.867,1.367A5.131,5.131,0,0,0,46.86,30.1H42.513a1.271,1.271,0,0,1-1.269-1.269V22.46a1.27,1.27,0,0,0-2.085-.973A2.6,2.6,0,0,1,34.9,19.308,2.721,2.721,0,0,1,37.4,16.9a2.6,2.6,0,0,1,1.762.6,1.269,1.269,0,0,0,2.085-.973V10.159a1.271,1.271,0,0,1,1.269-1.269h6.373A1.269,1.269,0,0,0,49.859,6.8a2.6,2.6,0,0,1-.605-1.666,2.6,2.6,0,0,1,2.785-2.59,2.721,2.721,0,0,1,2.407,2.494,2.594,2.594,0,0,1-.6,1.761,1.269,1.269,0,0,0,.973,2.085h6.373a1.271,1.271,0,0,1,1.269,1.269V13.3A1.269,1.269,0,1,0,65,13.3V10.159A3.813,3.813,0,0,0,61.188,6.35H56.841a5.149,5.149,0,0,0,.142-1.4A5.248,5.248,0,0,0,52.214.016a5.091,5.091,0,0,0-3.867,1.367A5.131,5.131,0,0,0,46.861,6.35H42.513A3.813,3.813,0,0,0,38.7,10.159v4.347a5.14,5.14,0,0,0-1.4-.141,5.248,5.248,0,0,0-4.936,4.768A5.093,5.093,0,0,0,33.738,23,5.131,5.131,0,0,0,38.7,24.486v4.347a3.813,3.813,0,0,0,3.808,3.808h6.373a1.269,1.269,0,0,0,.973-2.085,2.6,2.6,0,0,1-.605-1.666,2.6,2.6,0,0,1,2.785-2.59A2.721,2.721,0,0,1,54.445,28.8a2.594,2.594,0,0,1-.6,1.761,1.27,1.27,0,0,0,.973,2.085h6.373A3.813,3.813,0,0,0,65,28.834V24.72a1.269,1.269,0,0,0-1.269-1.269Z"/>
          <circle id="Elipse_4765" data-name="Elipse 4765" cx="1.269" cy="1.269" r="1.269" transform="translate(62.457 17.739)"/>
          <circle id="Elipse_4766" data-name="Elipse 4766" cx="1.269" cy="1.269" r="1.269" transform="translate(55.455 49.26)"/>
          <circle id="Elipse_4767" data-name="Elipse 4767" cx="1.269" cy="1.269" r="1.269" transform="translate(7.161 58.224)"/>
        </g>
      </g>
    </g>
  </g>
</svg>
