<svg xmlns="http://www.w3.org/2000/svg" xmlns:xlink="http://www.w3.org/1999/xlink" width="611.453" height="229.149" viewBox="0 0 611.453 229.149">
  <defs>
    <clipPath id="clip-path">
      <rect id="Rectángulo_373656" data-name="Rectángulo 373656" width="85" height="85" transform="translate(495 2951)" fill="#0050db"/>
    </clipPath>
    <clipPath id="clip-path-2">
      <rect id="Rectángulo_373657" data-name="Rectángulo 373657" width="85" height="85" transform="translate(654 2951)" fill="#0050db"/>
    </clipPath>
    <clipPath id="clip-path-3">
      <rect id="Rectángulo_373658" data-name="Rectángulo 373658" width="85" height="85" transform="translate(863 2951)" fill="#0050db"/>
    </clipPath>
    <clipPath id="clip-path-4">
      <rect id="Rectángulo_373659" data-name="Rectángulo 373659" width="85" height="85" transform="translate(1020 2951)" fill="#0050db"/>
    </clipPath>
  </defs>
  <g id="Grupo_1064839" data-name="Grupo 1064839" transform="translate(-494.242 -2900.007)">
    <path id="Trazado_799335" data-name="Trazado 799335" d="M20.1-11.795l8.638-31.572H40.418L25.824,0H14.386L-.089-43.367H11.5ZM77.59-43.367v28.385a16.314,16.314,0,0,1-2.055,8.355,13.314,13.314,0,0,1-5.9,5.376A20.776,20.776,0,0,1,60.553.6q-7.923,0-12.48-4.11T43.427-14.773V-43.367H53.941v28.8q.179,7.119,6.612,7.119a6.4,6.4,0,0,0,4.915-1.787q1.668-1.787,1.668-5.808V-43.367ZM119.2-14.684a15.838,15.838,0,0,1-2.442,8,14.74,14.74,0,0,1-6.27,5.376A21.34,21.34,0,0,1,101.27.6q-8.548,0-13.463-5.57T82.892-20.7v-2.145A26.25,26.25,0,0,1,85.111-34,16.813,16.813,0,0,1,91.5-41.386a17.826,17.826,0,0,1,9.65-2.606q7.893,0,12.688,4.155t5.451,11.452H108.865q-.119-3.961-2-5.689T101.15-35.8a6.245,6.245,0,0,0-5.719,2.919q-1.817,2.919-1.906,9.323v3.068q0,6.94,1.742,9.918t6,2.979a8.028,8.028,0,0,0,5.51-1.7q1.906-1.7,2.025-5.391ZM148.777-8.1H134.45l-2.5,8.1H120.779l15.905-43.367h9.829L162.538,0H151.309Zm-11.825-8.072h9.323L141.6-31.215Z" transform="translate(721 2944)" fill="#12263f"/>
    <path id="Trazado_797601" data-name="Trazado 797601" d="M-1823.333-8663.5H-1940v65.5" transform="translate(2520 11586)" fill="none" stroke="#0050db" stroke-linecap="round" stroke-width="2" stroke-dasharray="6 8"/>
    <path id="Trazado_797692" data-name="Trazado 797692" d="M-1940-8640.5v-23h63.667v-14" transform="translate(2633.333 11628.5)" fill="none" stroke="#0050db" stroke-linecap="round" stroke-width="2" stroke-dasharray="6 8"/>
    <path id="Trazado_797693" data-name="Trazado 797693" d="M-1876.333-8640.5v-23H-1940v-14" transform="translate(2763 11632.5)" fill="none" stroke="#0050db" stroke-linecap="round" stroke-width="2" stroke-dasharray="6 8"/>
    <path id="Trazado_797691" data-name="Trazado 797691" d="M-1940-8663.5h116.666v65.5" transform="translate(2850.333 11586)" fill="none" stroke="#0050db" stroke-linecap="round" stroke-width="2" stroke-dasharray="6 8"/>
    <g id="Trazado_797694" data-name="Trazado 797694" transform="translate(572 2983)" fill="#fff">
      <path d="M 8.5 16 C 4.364490032196045 16 1 12.63551044464111 1 8.5 C 1 4.364490032196045 4.364490032196045 1 8.5 1 C 12.63551044464111 1 16 4.364490032196045 16 8.5 C 16 12.63551044464111 12.63551044464111 16 8.5 16 Z" stroke="none"/>
      <path d="M 8.5 2 C 4.915889739990234 2 2 4.915889739990234 2 8.5 C 2 12.08411026000977 4.915889739990234 15 8.5 15 C 12.08411026000977 15 15 12.08411026000977 15 8.5 C 15 4.915889739990234 12.08411026000977 2 8.5 2 M 8.5 0 C 13.19441986083984 0 17 3.805580139160156 17 8.5 C 17 13.19441986083984 13.19441986083984 17 8.5 17 C 3.805580139160156 17 0 13.19441986083984 0 8.5 C 0 3.805580139160156 3.805580139160156 0 8.5 0 Z" stroke="none" fill="#0050db"/>
    </g>
    <g id="Trazado_799336" data-name="Trazado 799336" transform="translate(685.333 2983)" fill="#fff">
      <path d="M 8.5 16 C 4.364490032196045 16 1 12.63551044464111 1 8.5 C 1 4.364490032196045 4.364490032196045 1 8.5 1 C 12.63551044464111 1 16 4.364490032196045 16 8.5 C 16 12.63551044464111 12.63551044464111 16 8.5 16 Z" stroke="none"/>
      <path d="M 8.5 2 C 4.915889739990234 2 2 4.915889739990234 2 8.5 C 2 12.08411026000977 4.915889739990234 15 8.5 15 C 12.08411026000977 15 15 12.08411026000977 15 8.5 C 15 4.915889739990234 12.08411026000977 2 8.5 2 M 8.5 0 C 13.19441986083984 0 17 3.805580139160156 17 8.5 C 17 13.19441986083984 13.19441986083984 17 8.5 17 C 3.805580139160156 17 0 13.19441986083984 0 8.5 C 0 3.805580139160156 3.805580139160156 0 8.5 0 Z" stroke="none" fill="#0050db"/>
    </g>
    <g id="Trazado_799337" data-name="Trazado 799337" transform="translate(878 2987)" fill="#fff">
      <path d="M 8.5 16 C 4.364490032196045 16 1 12.63551044464111 1 8.5 C 1 4.364490032196045 4.364490032196045 1 8.5 1 C 12.63551044464111 1 16 4.364490032196045 16 8.5 C 16 12.63551044464111 12.63551044464111 16 8.5 16 Z" stroke="none"/>
      <path d="M 8.5 2 C 4.915889739990234 2 2 4.915889739990234 2 8.5 C 2 12.08411026000977 4.915889739990234 15 8.5 15 C 12.08411026000977 15 15 12.08411026000977 15 8.5 C 15 4.915889739990234 12.08411026000977 2 8.5 2 M 8.5 0 C 13.19441986083984 0 17 3.805580139160156 17 8.5 C 17 13.19441986083984 13.19441986083984 17 8.5 17 C 3.805580139160156 17 0 13.19441986083984 0 8.5 C 0 3.805580139160156 3.805580139160156 0 8.5 0 Z" stroke="none" fill="#0050db"/>
    </g>
    <g id="Trazado_799338" data-name="Trazado 799338" transform="translate(1018 2983)" fill="#fff">
      <path d="M 8.499983787536621 16 C 4.364483833312988 16 1.000003814697266 12.63551044464111 1.000003814697266 8.5 C 1.000003814697266 4.364490032196045 4.364483833312988 1 8.499983787536621 1 C 12.63548374176025 1 15.99996376037598 4.364490032196045 15.99996376037598 8.5 C 15.99996376037598 12.63551044464111 12.63548374176025 16 8.499983787536621 16 Z" stroke="none"/>
      <path d="M 8.499983787536621 2 C 4.915884017944336 2 2.000003814697266 4.915889739990234 2.000003814697266 8.5 C 2.000003814697266 12.08411026000977 4.915884017944336 15 8.499983787536621 15 C 12.08408355712891 15 14.99996376037598 12.08411026000977 14.99996376037598 8.5 C 14.99996376037598 4.915889739990234 12.08408355712891 2 8.499983787536621 2 M 8.499983787536621 0 C 13.1943941116333 0 16.99996376037598 3.805580139160156 16.99996376037598 8.5 C 16.99996376037598 13.19441986083984 13.1943941116333 17 8.499983787536621 17 C 3.805573463439941 17 3.814697265625e-06 13.19441986083984 3.814697265625e-06 8.5 C 3.814697265625e-06 3.805580139160156 3.805573463439941 0 8.499983787536621 0 Z" stroke="none" fill="#0050db"/>
    </g>
    <path id="Trazado_799339" data-name="Trazado 799339" d="M-38.594-2.82l2.578-8.555h2.609L-37.367,0h-2.445l-3.945-11.375h2.6Zm15.5-2.609a6.867,6.867,0,0,1-.594,2.945,4.472,4.472,0,0,1-1.7,1.953,4.7,4.7,0,0,1-2.535.688,4.732,4.732,0,0,1-2.523-.68,4.515,4.515,0,0,1-1.719-1.941,6.67,6.67,0,0,1-.617-2.9V-5.93a6.831,6.831,0,0,1,.605-2.957,4.508,4.508,0,0,1,1.711-1.961,4.706,4.706,0,0,1,2.527-.684,4.706,4.706,0,0,1,2.527.684A4.508,4.508,0,0,1-23.7-8.887a6.811,6.811,0,0,1,.605,2.949Zm-2.375-.516a4.787,4.787,0,0,0-.641-2.719,2.088,2.088,0,0,0-1.828-.93,2.088,2.088,0,0,0-1.82.918,4.732,4.732,0,0,0-.648,2.691v.555a4.847,4.847,0,0,0,.641,2.7,2.082,2.082,0,0,0,1.844.961,2.064,2.064,0,0,0,1.813-.926,4.819,4.819,0,0,0,.641-2.7Zm6.422,4.063h4.977V0h-7.32V-11.375h2.344Zm12.891-.461h-4.109L-11.047,0h-2.492L-9.3-11.375h2.172L-2.875,0H-5.367Zm-3.477-1.9h2.844L-8.219-8.5ZM5.813-9.477H2.328V0H-.016V-9.477H-3.453v-1.9H5.813ZM9.641,0H7.3V-11.375H9.641Zm4.516-1.883h4.977V0h-7.32V-11.375h2.344ZM22.969,0H20.625V-11.375h2.344ZM33.477-9.477H29.992V0H27.648V-9.477H24.211v-1.9h9.266ZM38.859-6.25l2.367-5.125h2.563l-3.734,7.25V0H37.672V-4.125l-3.734-7.25h2.57Z" transform="translate(538 3129)" fill="#12263f"/>
    <path id="Trazado_799340" data-name="Trazado 799340" d="M-43.621-11.375v7.492A3.836,3.836,0,0,1-44.789-.93,4.5,4.5,0,0,1-47.98.156,4.553,4.553,0,0,1-51.145-.9a3.77,3.77,0,0,1-1.2-2.9v-7.578H-50v7.508a2.167,2.167,0,0,0,.535,1.629,2.054,2.054,0,0,0,1.48.512q1.977,0,2.008-2.078v-7.57ZM-32.449,0h-2.344l-4.562-7.484V0H-41.7V-11.375h2.344l4.57,7.5v-7.5h2.336Zm10.977-3.789A4.025,4.025,0,0,1-22.828-.9,4.76,4.76,0,0,1-26.051.156a4.28,4.28,0,0,1-3.441-1.473,6.038,6.038,0,0,1-1.254-4.043v-.7a6.819,6.819,0,0,1,.578-2.891,4.332,4.332,0,0,1,1.652-1.918,4.629,4.629,0,0,1,2.5-.668,4.637,4.637,0,0,1,3.172,1.055,4.326,4.326,0,0,1,1.391,2.961H-23.8a2.376,2.376,0,0,0-.613-1.6,2.271,2.271,0,0,0-1.605-.5,1.991,1.991,0,0,0-1.754.84,4.707,4.707,0,0,0-.6,2.605V-5.3a5.038,5.038,0,0,0,.559,2.7,1.954,1.954,0,0,0,1.762.852,2.314,2.314,0,0,0,1.621-.5,2.241,2.241,0,0,0,.613-1.535Zm8.383-1.156h-4.5v3.063h5.281V0h-7.625V-11.375h7.609v1.9H-17.59v2.711h4.5Zm6.367.781H-8.59V0h-2.344V-11.375h4.227a4.778,4.778,0,0,1,3.109.9A3.1,3.1,0,0,1-2.5-7.937,3.5,3.5,0,0,1-3.008-6,3.437,3.437,0,0,1-4.535-4.758L-2.074-.109V0H-4.59Zm-1.867-1.9H-6.7a1.936,1.936,0,0,0,1.367-.449A1.606,1.606,0,0,0-4.848-7.75,1.719,1.719,0,0,0-5.3-9.016a1.9,1.9,0,0,0-1.4-.461H-8.59ZM7.449-9.477H3.965V0H1.621V-9.477H-1.816v-1.9H7.449Zm6.82,7.133H10.16L9.379,0H6.887l4.234-11.375h2.172L17.551,0H15.059Zm-3.477-1.9h2.844L12.207-8.5ZM21.105,0H18.762V-11.375h2.344ZM32.527,0H30.184L25.621-7.484V0H23.277V-11.375h2.344l4.57,7.5v-7.5h2.336ZM42.91-9.477H39.426V0H37.082V-9.477H33.645v-1.9H42.91ZM48.293-6.25l2.367-5.125h2.563l-3.734,7.25V0H47.105V-4.125l-3.734-7.25h2.57Z" transform="translate(697 3129)" fill="#12263f"/>
    <path id="Trazado_799341" data-name="Trazado 799341" d="M-39.07-3.789A4.025,4.025,0,0,1-40.426-.9,4.76,4.76,0,0,1-43.648.156,4.28,4.28,0,0,1-47.09-1.316a6.038,6.038,0,0,1-1.254-4.043v-.7a6.819,6.819,0,0,1,.578-2.891,4.332,4.332,0,0,1,1.652-1.918,4.629,4.629,0,0,1,2.5-.668,4.637,4.637,0,0,1,3.172,1.055,4.326,4.326,0,0,1,1.391,2.961H-41.4a2.376,2.376,0,0,0-.613-1.6,2.271,2.271,0,0,0-1.605-.5,1.991,1.991,0,0,0-1.754.84,4.707,4.707,0,0,0-.6,2.605V-5.3a5.038,5.038,0,0,0,.559,2.7,1.954,1.954,0,0,0,1.762.852,2.314,2.314,0,0,0,1.621-.5,2.241,2.241,0,0,0,.613-1.535ZM-28.187-5.43a6.867,6.867,0,0,1-.594,2.945,4.472,4.472,0,0,1-1.7,1.953,4.7,4.7,0,0,1-2.535.688,4.732,4.732,0,0,1-2.523-.68,4.515,4.515,0,0,1-1.719-1.941,6.67,6.67,0,0,1-.617-2.9V-5.93a6.831,6.831,0,0,1,.605-2.957,4.508,4.508,0,0,1,1.711-1.961,4.706,4.706,0,0,1,2.527-.684,4.706,4.706,0,0,1,2.527.684,4.508,4.508,0,0,1,1.711,1.961,6.811,6.811,0,0,1,.605,2.949Zm-2.375-.516A4.787,4.787,0,0,0-31.2-8.664a2.088,2.088,0,0,0-1.828-.93,2.088,2.088,0,0,0-1.82.918A4.732,4.732,0,0,0-35.5-5.984v.555a4.847,4.847,0,0,0,.641,2.7,2.082,2.082,0,0,0,1.844.961A2.064,2.064,0,0,0-31.2-2.691a4.819,4.819,0,0,0,.641-2.7Zm7.141-5.43,2.922,8.25,2.906-8.25h3.078V0h-2.352V-3.109l.234-5.367L-19.7,0h-1.609l-3.062-8.469.234,5.359V0h-2.344V-11.375Zm13.3,7.367V0h-2.344V-11.375h4.438a5.134,5.134,0,0,1,2.254.469,3.454,3.454,0,0,1,1.5,1.332,3.714,3.714,0,0,1,.523,1.965A3.266,3.266,0,0,1-4.9-4.973a4.767,4.767,0,0,1-3.168.965Zm0-1.9h2.094a2.059,2.059,0,0,0,1.418-.437,1.591,1.591,0,0,0,.488-1.25,1.876,1.876,0,0,0-.492-1.352,1.839,1.839,0,0,0-1.359-.531h-2.148ZM.2-1.883H5.172V0h-7.32V-11.375H.2ZM13.359-4.945h-4.5v3.063h5.281V0H6.516V-11.375h7.609v1.9H8.859v2.711h4.5Zm6.227-2.508,2.133-3.922h2.7L21.1-5.734,24.5,0H21.773L19.586-3.984,17.4,0H14.672l3.4-5.734-3.312-5.641h2.7ZM28.172,0H25.828V-11.375h2.344ZM38.68-9.477H35.2V0H32.852V-9.477H29.414v-1.9H38.68ZM44.063-6.25l2.367-5.125h2.563l-3.734,7.25V0H42.875V-4.125l-3.734-7.25h2.57Z" transform="translate(906 3129)" fill="#12263f"/>
    <path id="Trazado_799342" data-name="Trazado 799342" d="M-35.281-2.344h-4.109L-40.172,0h-2.492l4.234-11.375h2.172L-32,0h-2.492Zm-3.477-1.9h2.844L-37.344-8.5Zm10.883-7.133,2.922,8.25,2.906-8.25h3.078V0H-21.32V-3.109l.234-5.367L-24.156,0h-1.609l-3.062-8.469.234,5.359V0h-2.344V-11.375ZM-16.922,0V-11.375h3.984a5.232,5.232,0,0,1,3.141.793,2.712,2.712,0,0,1,1.07,2.324,2.57,2.57,0,0,1-.43,1.473,2.482,2.482,0,0,1-1.2.934,2.4,2.4,0,0,1,1.379.883,2.61,2.61,0,0,1,.5,1.625A3,3,0,0,1-9.516-.859,4.713,4.713,0,0,1-12.5,0Zm2.344-4.953v3.07h2.008a1.938,1.938,0,0,0,1.293-.395,1.353,1.353,0,0,0,.465-1.09A1.428,1.428,0,0,0-12.43-4.953Zm0-1.656h1.734q1.773-.031,1.773-1.414a1.307,1.307,0,0,0-.449-1.113,2.363,2.363,0,0,0-1.418-.34h-1.641ZM-4.219,0H-6.562V-11.375h2.344ZM6.953-1.437A4.068,4.068,0,0,1,5.164-.262,7.492,7.492,0,0,1,2.6.156,5.076,5.076,0,0,1,.012-.488,4.3,4.3,0,0,1-1.707-2.359a6.585,6.585,0,0,1-.621-2.883v-.773a6.994,6.994,0,0,1,.574-2.949A4.248,4.248,0,0,1-.1-10.871a4.771,4.771,0,0,1,2.535-.66,4.751,4.751,0,0,1,3.164.965A4.123,4.123,0,0,1,6.953-7.758H4.672a2.268,2.268,0,0,0-.691-1.43,2.208,2.208,0,0,0-1.473-.453,2.078,2.078,0,0,0-1.82.9A4.724,4.724,0,0,0,.055-6.07v.727a4.5,4.5,0,0,0,.68,2.7,2.327,2.327,0,0,0,1.992.914,2.6,2.6,0,0,0,1.883-.562V-4.25H2.477V-5.977H6.953Zm10.508-9.937v7.492A3.836,3.836,0,0,1,16.293-.93,4.5,4.5,0,0,1,13.1.156,4.553,4.553,0,0,1,9.938-.9a3.77,3.77,0,0,1-1.2-2.9v-7.578h2.344v7.508a2.167,2.167,0,0,0,.535,1.629,2.054,2.054,0,0,0,1.48.512q1.977,0,2.008-2.078v-7.57ZM21.875,0H19.531V-11.375h2.344ZM32.383-9.477H28.9V0H26.555V-9.477H23.117v-1.9h9.266ZM37.766-6.25l2.367-5.125H42.7l-3.734,7.25V0H36.578V-4.125l-3.734-7.25h2.57Z" transform="translate(1063 3129)" fill="#12263f"/>
    <g id="Enmascarar_grupo_1059021" data-name="Enmascarar grupo 1059021" transform="translate(0 57)" clip-path="url(#clip-path)">
      <g id="XMLID_2341_" transform="translate(495 2951)">
        <g id="XMLID_1325_">
          <g id="XMLID_2619_">
            <circle id="XMLID_2783_" cx="20.382" cy="20.382" r="20.382" transform="translate(3.913 4.317)" fill="#72f2eb"/>
            <g id="XMLID_1353_">
              <g id="XMLID_1385_">
                <g id="XMLID_1419_">
                  <circle id="XMLID_1420_" cx="2.668" cy="2.668" r="2.668" transform="translate(1.245 27.202)" fill="#f9b767"/>
                </g>
              </g>
            </g>
            <g id="XMLID_1387_">
              <g id="XMLID_1391_">
                <g id="XMLID_2785_">
                  <circle id="XMLID_2786_" cx="2.668" cy="2.668" r="2.668" transform="translate(14.1 14.348)" fill="#f9b767"/>
                </g>
              </g>
            </g>
            <g id="XMLID_1393_">
              <g id="XMLID_1397_">
                <g id="XMLID_2798_">
                  <circle id="XMLID_2799_" cx="2.668" cy="2.668" r="2.668" transform="translate(27.732 27.981)" fill="#f9b767"/>
                </g>
              </g>
            </g>
            <g id="XMLID_1399_">
              <g id="XMLID_1403_">
                <g id="XMLID_2801_">
                  <circle id="XMLID_2802_" cx="2.668" cy="2.668" r="2.668" transform="translate(45.436 10.277)" fill="#f9b767"/>
                </g>
              </g>
            </g>
            <g id="XMLID_1405_">
              <g id="XMLID_1409_">
                <g id="XMLID_2803_">
                  <circle id="XMLID_2804_" cx="2.668" cy="2.668" r="2.668" transform="translate(57.191 22.032)" fill="#f9b767"/>
                </g>
              </g>
            </g>
          </g>
          <g id="XMLID_1352_">
            <rect id="XMLID_2771_" width="7.298" height="20.529" transform="translate(13.194 60.153)" fill="#ff6a66"/>
            <rect id="XMLID_2770_" width="7.298" height="20.529" transform="translate(25.488 60.153)" fill="#ff6a66"/>
            <rect id="XMLID_2769_" width="7.298" height="26.603" transform="translate(37.782 54.08)" fill="#f9b767"/>
            <rect id="XMLID_2768_" width="7.298" height="35.655" transform="translate(50.077 45.027)" fill="#72f2eb"/>
            <rect id="XMLID_2767_" width="7.298" height="45.018" transform="translate(62.371 35.665)" fill="#72f2eb"/>
            <rect id="XMLID_2766_" width="7.298" height="55.983" transform="translate(74.665 24.7)" fill="#72f2eb"/>
          </g>
        </g>
        <g id="XMLID_1496_">
          <path id="XMLID_1515_" d="M4.633,33.715a21.541,21.541,0,0,0,4.538,6.442,1.245,1.245,0,0,0,1.742-1.78,19.07,19.07,0,0,1-4.1-5.883,3.9,3.9,0,0,0,.6-4.37l7.608-7.608a3.9,3.9,0,0,0,3.393.047l8.367,8.367c.023.023.048.044.072.065a3.913,3.913,0,1,0,7.187.223l8.887-8.887A19.142,19.142,0,0,1,14.751,41.29a1.245,1.245,0,0,0-1.244,2.157A21.632,21.632,0,0,0,44.957,18.3l1.718-1.718a3.9,3.9,0,0,0,3.3-.2l6.45,6.45a3.919,3.919,0,1,0,1.825-1.7l-6.578-6.578a3.913,3.913,0,1,0-6.906.418l-.777.777A21.626,21.626,0,0,0,2.668,24.7c0,.481.018.964.049,1.445a3.912,3.912,0,0,0,1.916,7.571ZM59.859,23.277A1.423,1.423,0,1,1,58.437,24.7,1.424,1.424,0,0,1,59.859,23.277ZM48.1,11.522a1.423,1.423,0,1,1-1.423,1.423A1.424,1.424,0,0,1,48.1,11.522Zm-32.76,5.494a1.423,1.423,0,1,1,1.423,1.423A1.424,1.424,0,0,1,15.345,17.016ZM30.4,32.071a1.423,1.423,0,1,1,1.423-1.423A1.424,1.424,0,0,1,30.4,32.071ZM24.3,5.563A19.168,19.168,0,0,1,42.087,17.651l-9.655,9.654a3.9,3.9,0,0,0-3.867-.112l-.022-.024-8.321-8.321a3.913,3.913,0,1,0-6.96-.1L5.651,26.365a3.892,3.892,0,0,0-.436-.185c-.038-.491-.057-.987-.057-1.481A19.159,19.159,0,0,1,24.3,5.563ZM2.49,29.87a1.423,1.423,0,1,1,1.423,1.423A1.424,1.424,0,0,1,2.49,29.87Z"/>
          <path id="XMLID_1506_" d="M83.755,81.928a1.245,1.245,0,0,0,0-2.49h-.547V52.18a1.245,1.245,0,0,0-2.49,0V79.437H75.91V25.945h4.808V47.1a1.245,1.245,0,0,0,2.49,0V24.7a1.245,1.245,0,0,0-1.245-1.245h-7.3A1.245,1.245,0,0,0,73.42,24.7V79.437H70.914V35.665a1.245,1.245,0,0,0-1.245-1.245h-7.3a1.245,1.245,0,0,0-1.245,1.245V79.437H58.619V45.027a1.245,1.245,0,0,0-1.245-1.245h-7.3a1.245,1.245,0,0,0-1.245,1.245v34.41H46.325V54.08a1.245,1.245,0,0,0-1.245-1.245h-7.3a1.245,1.245,0,0,0-1.245,1.245V79.437H34.031V60.153a1.245,1.245,0,0,0-1.245-1.245h-7.3a1.245,1.245,0,0,0-1.245,1.245v7.2a1.245,1.245,0,0,0,2.49,0V61.4h4.808V79.437H26.733v-7a1.245,1.245,0,0,0-2.49,0v7H21.737V60.153a1.245,1.245,0,0,0-1.245-1.245h-7.3a1.245,1.245,0,0,0-1.245,1.245V79.437H2.409a1.245,1.245,0,0,0,0,2.49H83.755ZM63.616,36.91h4.807V79.437H63.616ZM51.322,46.273h4.808V79.437H51.322ZM39.027,55.325h4.808V79.437H39.027ZM14.439,61.4h4.807V79.437H14.439Z"/>
          <path id="XMLID_1505_" d="M81.963,7.873a1.245,1.245,0,0,0,1.245-1.245V6.354a1.245,1.245,0,0,0-2.49,0v.274A1.245,1.245,0,0,0,81.963,7.873Z"/>
          <path id="XMLID_1501_" d="M77.723,7.873a1.245,1.245,0,0,0,1.245-1.245V6.354a1.245,1.245,0,0,0-2.49,0v.274A1.245,1.245,0,0,0,77.723,7.873Z"/>
          <path id="XMLID_1500_" d="M77.723,12.839h4.209a1.245,1.245,0,0,0,0-2.49H77.723a1.245,1.245,0,0,0,0,2.49Z"/>
          <path id="XMLID_1497_" d="M70.709,16.858H81.932a1.245,1.245,0,0,0,0-2.49H70.709a1.245,1.245,0,0,0,0,2.49Z"/>
        </g>
      </g>
    </g>
    <g id="Enmascarar_grupo_1059022" data-name="Enmascarar grupo 1059022" transform="translate(0 57)" clip-path="url(#clip-path-2)">
      <g id="pregunta_1_" data-name="pregunta (1)" transform="translate(654 2951)">
        <path id="Trazado_797695" data-name="Trazado 797695" d="M50.725,53.468l15.444,2.575a13.71,13.71,0,0,1,11.162,10.7l3.555,16.888H4.112L7.667,66.74a13.711,13.711,0,0,1,11.162-10.7l15.444-2.573Z" fill="#ececec"/>
        <g id="Grupo_1064206" data-name="Grupo 1064206">
          <path id="Trazado_797696" data-name="Trazado 797696" d="M58.951,54.839,53.467,71.29,42.5,61.694l8.226-8.226Z" fill="#b6c1ce"/>
          <path id="Trazado_797697" data-name="Trazado 797697" d="M74.032,83.629h6.855L77.332,66.74a13.711,13.711,0,0,0-11.161-10.7L50.725,53.468H49.354l17.193,9.169a8.228,8.228,0,0,1,4.172,5.535Z" fill="#b6c1ce"/>
          <path id="Trazado_797698" data-name="Trazado 797698" d="M26.048,54.839,31.532,71.29l10.968-9.6-8.226-8.226Z" fill="#b6c1ce"/>
        </g>
        <path id="Trazado_797699" data-name="Trazado 797699" d="M50.725,47.984v5.484L42.5,61.694l-8.226-8.226V47.984Z" fill="#f9e0a6"/>
        <path id="Trazado_797700" data-name="Trazado 797700" d="M34.666,68.548l5.092,5.484-2.742,9.6H47.983l-2.742-9.6,5.092-5.484L42.5,61.694Z" fill="#fb5968"/>
        <circle id="Elipse_4776" data-name="Elipse 4776" cx="24.677" cy="24.677" r="24.677" transform="translate(17.822 1.371)" fill="#92e0c0"/>
        <path id="Trazado_797701" data-name="Trazado 797701" d="M42.5,1.371c-.694,0-1.376.048-2.056.1a24.657,24.657,0,0,1,0,49.146c.68.056,1.363.1,2.056.1a24.677,24.677,0,1,0,0-49.355Z" fill="#48c397"/>
        <circle id="Elipse_4777" data-name="Elipse 4777" cx="2.742" cy="2.742" r="2.742" transform="translate(39.757 37.016)" fill="#ececec"/>
        <path id="Trazado_797702" data-name="Trazado 797702" d="M78.672,66.459A14.991,14.991,0,0,0,66.394,54.691L52.1,52.307V50.242a26.048,26.048,0,1,0-19.194,0v2.065L18.6,54.691A14.993,14.993,0,0,0,6.325,66.459L2.423,85H82.577Zm-2.683.565L79.2,82.258H71.146L69.91,71.14l-2.724.3,1.2,10.816H49.017l-2.27-7.948,3.2-4.275,4.165,3.644,5.765-17.3,6.062,1.01A12.264,12.264,0,0,1,75.989,67.024Zm-35.5-5.4L32.18,68.9,27.856,55.927l5.947-.991Zm10.7-6.69,5.947.991L52.819,68.9l-8.314-7.274ZM42.438,63.57l.062.062.062-.062,5.321,4.656-4.147,5.528,2.431,8.5H38.832l2.431-8.5-4.147-5.528ZM19.193,26.048A23.306,23.306,0,1,1,42.5,49.355,23.333,23.333,0,0,1,19.193,26.048ZM42.5,52.1a25.891,25.891,0,0,0,6.855-.946V52.9L42.5,59.755,35.644,52.9V51.151A25.891,25.891,0,0,0,42.5,52.1ZM9.009,67.024A12.266,12.266,0,0,1,19.056,57.4l6.062-1.01,5.765,17.3,4.165-3.644,3.2,4.275-2.27,7.946H16.611l1.2-10.817-2.724-.3-1.237,11.12H5.8Z"/>
        <path id="Trazado_797703" data-name="Trazado 797703" d="M41.814,10.968a4.8,4.8,0,0,1,4.8,4.8v.872a4.775,4.775,0,0,1-1.405,3.395L41.128,24.11v7.422H43.87V25.245l3.277-3.275a7.5,7.5,0,0,0,2.207-5.333v-.871a7.54,7.54,0,1,0-15.081,0v.685h2.742v-.685A4.8,4.8,0,0,1,41.814,10.968Z"/>
        <path id="Trazado_797704" data-name="Trazado 797704" d="M46.612,39.758A4.113,4.113,0,1,0,42.5,43.871,4.118,4.118,0,0,0,46.612,39.758Zm-5.484,0A1.371,1.371,0,1,1,42.5,41.129,1.372,1.372,0,0,1,41.128,39.758Z"/>
      </g>
    </g>
    <g id="Enmascarar_grupo_1059023" data-name="Enmascarar grupo 1059023" transform="translate(0 57)" clip-path="url(#clip-path-3)">
      <g id="conexion" transform="translate(863 2951)">
        <path id="Trazado_797705" data-name="Trazado 797705" d="M61.694,23.306A19.194,19.194,0,1,1,42.5,4.113,19.194,19.194,0,0,1,61.694,23.306Zm0,0" fill="#e6e9ed"/>
        <path id="Trazado_797706" data-name="Trazado 797706" d="M83.629,61.694A19.194,19.194,0,1,1,64.435,42.5,19.194,19.194,0,0,1,83.629,61.694Zm0,0" fill="#e6e9ed"/>
        <path id="Trazado_797707" data-name="Trazado 797707" d="M39.758,61.694A19.194,19.194,0,1,1,20.565,42.5,19.194,19.194,0,0,1,39.758,61.694Zm0,0" fill="#e6e9ed"/>
        <g id="Grupo_1064207" data-name="Grupo 1064207">
          <path id="Trazado_797708" data-name="Trazado 797708" d="M15.081,1.371a2.75,2.75,0,0,1,2.742,2.742,2.082,2.082,0,0,1-.041.411A2.682,2.682,0,0,1,16.1,6.649a2.535,2.535,0,0,1-1.015.206,2.706,2.706,0,0,1-1.6-.521,2.74,2.74,0,0,1,1.6-4.963Zm0,0" fill="#fcd770"/>
          <path id="Trazado_797709" data-name="Trazado 797709" d="M5.717,16.972a2.752,2.752,0,0,1,1.138,2.221,2.692,2.692,0,0,1-.11.754A2.745,2.745,0,0,1,4.812,21.84a2.333,2.333,0,0,1-.7.1,2.742,2.742,0,0,1,0-5.484,2.706,2.706,0,0,1,1.6.521Zm0,0" fill="#fcd770"/>
          <path id="Trazado_797710" data-name="Trazado 797710" d="M13.367,43.912a2.738,2.738,0,0,1-4.73,2.756,2.668,2.668,0,0,1-.411-1.426A2.748,2.748,0,0,1,10.269,42.6a2.333,2.333,0,0,1,.7-.1,2.609,2.609,0,0,1,1.412.4,2.7,2.7,0,0,1,.987,1.014Zm0,0" fill="#fcd770"/>
          <path id="Trazado_797711" data-name="Trazado 797711" d="M23.375,21.935a2.739,2.739,0,0,1,.37,5.443,2.262,2.262,0,0,1-.438.041,2.756,2.756,0,0,1-2.742-2.742,2.749,2.749,0,0,1,1.727-2.536,2.535,2.535,0,0,1,1.015-.206Zm0,0" fill="#fcd770"/>
          <path id="Trazado_797712" data-name="Trazado 797712" d="M35.3,5.525a2.738,2.738,0,0,1-4.73,2.756,2.668,2.668,0,0,1-.411-1.426,2.082,2.082,0,0,1,.041-.411,2.733,2.733,0,0,1,2.7-2.331,2.773,2.773,0,0,1,2.4,1.412Zm0,0" fill="#fcd770"/>
          <path id="Trazado_797713" data-name="Trazado 797713" d="M57.841,11.8a2.706,2.706,0,0,1-1.631.535A2.75,2.75,0,0,1,53.468,9.6,2.706,2.706,0,0,1,54,7.965a2.745,2.745,0,0,1,4.908,1.151,2.715,2.715,0,0,1,.041.48,2.756,2.756,0,0,1-.22,1.069,2.887,2.887,0,0,1-.891,1.138Zm0,0" fill="#fcd770"/>
          <path id="Trazado_797714" data-name="Trazado 797714" d="M78.213,4.716a2.926,2.926,0,0,1-.068-.6,2.742,2.742,0,1,1,2.742,2.742h-.055a2.755,2.755,0,0,1-2.619-2.139Zm0,0" fill="#fcd770"/>
          <path id="Trazado_797715" data-name="Trazado 797715" d="M80.627,16.465a1.613,1.613,0,0,1,.26-.013,2.742,2.742,0,1,1-2.166,4.415,2.661,2.661,0,0,1-.576-1.673,2.749,2.749,0,0,1,2.482-2.729Zm0,0" fill="#fcd770"/>
          <path id="Trazado_797716" data-name="Trazado 797716" d="M70.7,27.1a2.71,2.71,0,0,1,.59,1.686,2.742,2.742,0,1,1-2.742-2.742A2.7,2.7,0,0,1,70.7,27.1Zm0,0" fill="#fcd770"/>
          <path id="Trazado_797717" data-name="Trazado 797717" d="M78.543,48.71a2.744,2.744,0,0,1-4.511-2.1,2.647,2.647,0,0,1,.343-1.316,2.766,2.766,0,0,1,2.4-1.426,2.743,2.743,0,0,1,1.769,4.839Zm0,0" fill="#fcd770"/>
          <path id="Trazado_797718" data-name="Trazado 797718" d="M67.177,80.887a2.742,2.742,0,1,1-5.484,0,1.138,1.138,0,0,1,.013-.22,2.737,2.737,0,0,1,5.457,0,1.138,1.138,0,0,1,.013.22Zm0,0" fill="#fcd770"/>
          <path id="Trazado_797719" data-name="Trazado 797719" d="M41.636,78.3a2.6,2.6,0,0,1,.864-.151,2.783,2.783,0,1,1-.864.151Zm0,0" fill="#fcd770"/>
          <path id="Trazado_797720" data-name="Trazado 797720" d="M39.265,65.957a2.74,2.74,0,0,1,1.864,2.591,2.77,2.77,0,0,1-1.878,2.6,2.988,2.988,0,0,1-.864.137,2.829,2.829,0,0,1-1.083-.22,2.744,2.744,0,0,1,1.083-5.264,2.688,2.688,0,0,1,.878.151Zm0,0" fill="#fcd770"/>
        </g>
        <path id="Trazado_797721" data-name="Trazado 797721" d="M76.774,70.275v6.1a19.121,19.121,0,0,1-9.61,4.291,2.737,2.737,0,0,0-5.457,0,19.121,19.121,0,0,1-9.61-4.291v-6.1a4.109,4.109,0,0,1,2.989-3.948l6.608-1.892,2.742,2.742,2.742-2.742,6.608,1.892A4.109,4.109,0,0,1,76.774,70.275Zm0,0" fill="#b4dd7f"/>
        <path id="Trazado_797722" data-name="Trazado 797722" d="M67.177,60.953v3.482l-2.742,2.742-2.742-2.742V60.953a5.447,5.447,0,0,0,5.484,0Zm0,0" fill="#f0d0b4"/>
        <path id="Trazado_797723" data-name="Trazado 797723" d="M67.177,60.953a5.484,5.484,0,0,1-8.226-4.743V53.468a5.484,5.484,0,1,1,10.968,0V56.21a5.456,5.456,0,0,1-2.742,4.743Zm0,0" fill="#f0d0b4"/>
        <path id="Trazado_797724" data-name="Trazado 797724" d="M32.9,70.275v6.088a19.11,19.11,0,0,1-24.677.013v-6.1a4.109,4.109,0,0,1,2.989-3.948l6.608-1.892,2.742,2.742,2.742-2.742,6.608,1.892A4.109,4.109,0,0,1,32.9,70.275Zm0,0" fill="#69d6f4"/>
        <path id="Trazado_797725" data-name="Trazado 797725" d="M23.306,60.953v3.482l-2.742,2.742-2.742-2.742V60.953a5.447,5.447,0,0,0,5.484,0Zm0,0" fill="#f0d0b4"/>
        <path id="Trazado_797726" data-name="Trazado 797726" d="M23.306,60.953a5.484,5.484,0,0,1-8.226-4.743V53.468a5.484,5.484,0,1,1,10.968,0V56.21a5.456,5.456,0,0,1-2.742,4.743Zm0,0" fill="#f0d0b4"/>
        <path id="Trazado_797727" data-name="Trazado 797727" d="M54.839,31.888v6.1A19.155,19.155,0,0,1,30.161,38V31.888A4.109,4.109,0,0,1,33.15,27.94l6.608-1.892L42.5,28.79l2.742-2.742L51.85,27.94A4.109,4.109,0,0,1,54.839,31.888Zm0,0" fill="#ff826e"/>
        <path id="Trazado_797728" data-name="Trazado 797728" d="M45.242,22.566v3.482L42.5,28.79l-2.742-2.742V22.566a5.447,5.447,0,0,0,5.484,0Zm0,0" fill="#f0d0b4"/>
        <path id="Trazado_797729" data-name="Trazado 797729" d="M39.758,22.566a5.456,5.456,0,0,1-2.742-4.743V15.081a5.484,5.484,0,1,1,10.968,0v2.742a5.476,5.476,0,0,1-8.226,4.743Zm0,0" fill="#f0d0b4"/>
        <path id="Trazado_797730" data-name="Trazado 797730" d="M80.887,23.306a4.1,4.1,0,0,0,1.137-8.046L82.177,8a4.1,4.1,0,1,0-5.355-4.365L59.744,7.527a4.081,4.081,0,0,0-5.868-1.311A20.289,20.289,0,0,0,35.756,3.9,4.079,4.079,0,0,0,29.3,4.914L19.117,3.346a4.11,4.11,0,1,0-7.423,3.093l-6.42,8.83a4.028,4.028,0,0,0-1.161-.188,4.1,4.1,0,0,0-.345,8.192L8.655,41.845a4.018,4.018,0,0,0-1.648,4.446A20.537,20.537,0,1,0,37.966,72.619c.115.012.226.033.344.034l1.67,5.008a4.1,4.1,0,1,0,6.38,4.6H60.576a4.1,4.1,0,0,0,7.856-.433A20.475,20.475,0,0,0,80.307,48.683a4.065,4.065,0,0,0,.58-2.07A4.118,4.118,0,0,0,76.774,42.5c-.127,0-.247.026-.372.037L71.415,31.73a4.094,4.094,0,0,0,1.246-2.939,4.044,4.044,0,0,0-.226-1.287l6.241-4.853a4.075,4.075,0,0,0,2.211.657ZM79.435,7.947l-.157,7.463a4.1,4.1,0,0,0-1.489,1.109L61.1,10.029,77.422,6.308a4.116,4.116,0,0,0,2.014,1.639Zm1.452,12.617a1.371,1.371,0,1,1,1.371-1.371A1.373,1.373,0,0,1,80.887,20.565Zm0-17.823a1.371,1.371,0,1,1-1.371,1.371A1.373,1.373,0,0,1,80.887,2.742ZM56.21,8.226A1.371,1.371,0,1,1,54.839,9.6,1.373,1.373,0,0,1,56.21,8.226Zm-3.928.218A4.072,4.072,0,0,0,52.1,9.6,4.118,4.118,0,0,0,56.21,13.71a4.072,4.072,0,0,0,1.153-.185A17.716,17.716,0,0,1,56.21,34.679V31.893a5.51,5.51,0,0,0-3.977-5.274l-5.62-1.6V23.271a6.827,6.827,0,0,0,2.742-5.448V15.081a6.855,6.855,0,1,0-13.71,0v2.742a6.823,6.823,0,0,0,2.742,5.448v1.744l-5.62,1.6a5.507,5.507,0,0,0-3.977,5.274v2.745a17.683,17.683,0,0,1-3.408-6.43,4.095,4.095,0,0,0-.5-7.325,17.871,17.871,0,0,1,5.616-10.7,4.1,4.1,0,0,0,6.515-3.324,4.122,4.122,0,0,0-.048-.476A17.607,17.607,0,0,1,52.281,8.444ZM42.5,21.935a4.118,4.118,0,0,1-4.113-4.113V15.081a4.113,4.113,0,0,1,8.226,0v2.742A4.118,4.118,0,0,1,42.5,21.935Zm0,2.742a6.861,6.861,0,0,0,1.371-.139v.942L42.5,26.852l-1.371-1.371v-.942A6.861,6.861,0,0,0,42.5,24.677Zm-3.141,2.911L42.5,30.729l3.141-3.141,5.837,1.668a2.754,2.754,0,0,1,1.99,2.637v5.433a17.686,17.686,0,0,1-21.935-.017V31.893a2.754,2.754,0,0,1,1.988-2.637ZM10.968,43.871A1.371,1.371,0,1,1,9.6,45.242,1.373,1.373,0,0,1,10.968,43.871Zm.345-2.708L6.426,22.591a4.148,4.148,0,0,0,1.028-1.018L19.22,24.935a4.073,4.073,0,0,0,.926,2.342l-8.36,13.935a4.567,4.567,0,0,0-.473-.048ZM15.081,8.226c.056,0,.107-.013.162-.017L20.6,21.6a4.189,4.189,0,0,0-.636.693L8.2,18.935a4.08,4.08,0,0,0-.7-2.067l6.421-8.83a4.012,4.012,0,0,0,1.16.188Zm3.6-2.172L28.867,7.621c.017.1.049.187.075.282a20.621,20.621,0,0,0-6.477,10.98l-4.679-11.7a4.088,4.088,0,0,0,.9-1.133Zm4.623,17.252a1.371,1.371,0,1,1-1.371,1.371A1.373,1.373,0,0,1,23.306,23.307ZM32.9,5.484a1.371,1.371,0,1,1-1.371,1.371A1.373,1.373,0,0,1,32.9,5.484ZM15.081,2.742A1.371,1.371,0,1,1,13.71,4.113,1.373,1.373,0,0,1,15.081,2.742ZM2.742,19.194a1.371,1.371,0,1,1,1.371,1.371A1.373,1.373,0,0,1,2.742,19.194ZM9.6,75.713V70.28a2.754,2.754,0,0,1,1.988-2.637l5.839-1.668,3.141,3.141,3.141-3.141,5.837,1.668a2.754,2.754,0,0,1,1.99,2.637v5.446A17.741,17.741,0,0,1,9.6,75.713ZM20.565,60.323a4.118,4.118,0,0,1-4.113-4.113V53.468a4.113,4.113,0,1,1,8.226,0V56.21A4.118,4.118,0,0,1,20.565,60.323Zm0,2.742a6.861,6.861,0,0,0,1.371-.139v.942l-1.371,1.371-1.371-1.371v-.942A6.861,6.861,0,0,0,20.565,63.065Zm13.71,9.989V70.279A5.51,5.51,0,0,0,30.3,65l-5.62-1.6V61.658a6.827,6.827,0,0,0,2.742-5.448V53.468a6.855,6.855,0,1,0-13.71,0V56.21a6.823,6.823,0,0,0,2.742,5.448V63.4l-5.62,1.6A5.507,5.507,0,0,0,6.855,70.28v2.785a17.736,17.736,0,0,1,1.712-24.5,4.1,4.1,0,0,0,6.513-3.326,3.958,3.958,0,0,0-.047-.467,17.633,17.633,0,0,1,5.531-.9A17.843,17.843,0,0,1,38.387,61.694a17.488,17.488,0,0,1-.254,2.768,4.1,4.1,0,0,0-2.661,6.983,17.846,17.846,0,0,1-1.2,1.609Zm4.113-5.876a1.371,1.371,0,1,1-1.371,1.371A1.373,1.373,0,0,1,38.387,67.178ZM42.5,82.258a1.371,1.371,0,1,1,1.371-1.371A1.373,1.373,0,0,1,42.5,82.258ZM64.435,60.323a4.118,4.118,0,0,1-4.113-4.113V53.468a4.113,4.113,0,1,1,8.226,0V56.21A4.118,4.118,0,0,1,64.435,60.323Zm0,2.742a6.861,6.861,0,0,0,1.371-.139v.942l-1.371,1.371-1.371-1.371v-.942A6.861,6.861,0,0,0,64.435,63.065Zm-3.141,2.911,3.141,3.141,3.141-3.141,5.837,1.668A2.754,2.754,0,0,1,75.4,70.28v5.407A17.667,17.667,0,0,1,68.121,79.1a4.086,4.086,0,0,0-7.37,0,17.667,17.667,0,0,1-7.283-3.408V70.28a2.754,2.754,0,0,1,1.988-2.637Zm3.141,16.283a1.371,1.371,0,1,1,1.371-1.371A1.373,1.373,0,0,1,64.435,82.258Zm13.71-9.251V70.279A5.51,5.51,0,0,0,74.168,65l-5.62-1.6V61.658A6.827,6.827,0,0,0,71.29,56.21V53.468a6.855,6.855,0,1,0-13.71,0V56.21a6.823,6.823,0,0,0,2.742,5.448V63.4l-5.62,1.6a5.507,5.507,0,0,0-3.977,5.274v2.728a17.775,17.775,0,0,1,22-27.063,4.045,4.045,0,0,0,4.046,4.78,4.056,4.056,0,0,0,1.441-.274,17.633,17.633,0,0,1-.07,22.555Zm0-26.394a1.371,1.371,0,1,1-1.371-1.371A1.373,1.373,0,0,1,78.145,46.613ZM73.78,43.4A20.533,20.533,0,0,0,54.256,79.516h-7.9a4.1,4.1,0,0,0-3.784-2.734l-1.67-5.008a4.075,4.075,0,0,0-.125-6.556A20.492,20.492,0,0,0,14.471,42.07l8.017-13.362c.065.014.135.009.2.021a20.551,20.551,0,0,0,40.378-5.422,20.321,20.321,0,0,0-3.074-10.769l16.8,6.533c0,.041-.012.081-.012.123A4.044,4.044,0,0,0,77,20.481l-6.241,4.853a4.075,4.075,0,0,0-2.211-.657,4.113,4.113,0,0,0,0,8.226c.127,0,.247-.026.37-.037ZM68.548,30.161a1.371,1.371,0,1,1,1.371-1.371A1.373,1.373,0,0,1,68.548,30.161Zm0,0"/>
      </g>
    </g>
    <g id="Enmascarar_grupo_1059024" data-name="Enmascarar grupo 1059024" transform="translate(0 57)" clip-path="url(#clip-path-4)">
      <g id="poste-indicador" transform="translate(1027.296 2951)">
        <path id="Trazado_797731" data-name="Trazado 797731" d="M45,83.755H25.41v-4.4A3.155,3.155,0,0,1,28.564,76.2H41.845A3.155,3.155,0,0,1,45,79.355Zm0,0" fill="#544f56"/>
        <path id="Trazado_797732" data-name="Trazado 797732" d="M41.845,76.2H37.2a3.155,3.155,0,0,1,3.154,3.154v4.4H45v-4.4A3.155,3.155,0,0,0,41.845,76.2Zm0,0" fill="#444145"/>
        <path id="Trazado_797733" data-name="Trazado 797733" d="M31.275,58.825h7.858V76.2H31.275Zm0,0" fill="#828282"/>
        <path id="Trazado_797734" data-name="Trazado 797734" d="M35.672,58.825h3.462V76.2H35.672Zm0,0" fill="#5a5a5a"/>
        <path id="Trazado_797735" data-name="Trazado 797735" d="M31.275,28.917h7.858v7.958H31.275Zm0,0" fill="#828282"/>
        <path id="Trazado_797736" data-name="Trazado 797736" d="M35.672,28.917h3.462v7.958H35.672Zm0,0" fill="#5a5a5a"/>
        <path id="Trazado_797737" data-name="Trazado 797737" d="M39.134,6.983H31.275V4.707a3.462,3.462,0,0,1,3.462-3.462h.935a3.462,3.462,0,0,1,3.462,3.462Zm0,0" fill="#828282"/>
        <path id="Trazado_797738" data-name="Trazado 797738" d="M35.672,1.245V6.983h3.462V4.707A3.462,3.462,0,0,0,35.672,1.245Zm0,0" fill="#5a5a5a"/>
        <path id="Trazado_797739" data-name="Trazado 797739" d="M58.506,28.917H5.408c-2.3,0-4.163-1.563-4.163-3.491V10.474c0-1.928,1.864-3.491,4.163-3.491H58.5a4.465,4.465,0,0,1,3.366,1.436l6.495,7.476a3.045,3.045,0,0,1,0,4.11l-6.495,7.477a4.461,4.461,0,0,1-3.365,1.436Zm0,0" fill="#e5646e"/>
        <path id="Trazado_797740" data-name="Trazado 797740" d="M68.365,15.9,61.871,8.419a4.464,4.464,0,0,0-3.365-1.436h-7.3a4.465,4.465,0,0,1,3.365,1.436L61.07,15.9a3.045,3.045,0,0,1,0,4.11l-6.495,7.476a4.465,4.465,0,0,1-3.365,1.436h7.3a4.464,4.464,0,0,0,3.365-1.436l6.495-7.476a3.045,3.045,0,0,0,0-4.11Zm0,0" fill="#e04955"/>
        <path id="Trazado_797741" data-name="Trazado 797741" d="M11.9,58.825H65c2.3,0,4.163-1.563,4.163-3.49V40.381c0-1.927-1.864-3.49-4.163-3.49H11.9a4.466,4.466,0,0,0-3.365,1.435L2.043,45.8a3.045,3.045,0,0,0,0,4.11l6.495,7.477A4.462,4.462,0,0,0,11.9,58.825Zm0,0" fill="#69b482"/>
        <path id="Trazado_797742" data-name="Trazado 797742" d="M65,36.89H59.024c2.3,0,4.163,1.563,4.163,3.491V55.334c0,1.928-1.864,3.491-4.163,3.491H65c2.3,0,4.163-1.563,4.163-3.491V40.381C69.164,38.453,67.3,36.89,65,36.89Zm0,0" fill="#489160"/>
        <path id="Trazado_797743" data-name="Trazado 797743" d="M65,35.645H40.379V30.162H58.506A5.738,5.738,0,0,0,62.811,28.3l6.495-7.476a4.294,4.294,0,0,0,0-5.744L62.811,7.6a5.738,5.738,0,0,0-4.305-1.864H40.379V4.707A4.712,4.712,0,0,0,35.672,0h-.935A4.712,4.712,0,0,0,30.03,4.707V5.738H18.52a1.245,1.245,0,1,0,0,2.49H58.5A3.219,3.219,0,0,1,60.93,9.235l6.495,7.477a1.809,1.809,0,0,1,0,2.477L60.93,26.665A3.222,3.222,0,0,1,58.5,27.672H5.408c-1.609,0-2.918-1.007-2.918-2.246V10.474c0-1.239,1.309-2.246,2.918-2.246h8.463a1.245,1.245,0,1,0,0-2.49H5.408C2.426,5.738,0,7.862,0,10.474V25.427c0,2.611,2.426,4.735,5.408,4.735H30.03v5.483H11.9A5.738,5.738,0,0,0,7.6,37.51L1.1,44.986a4.293,4.293,0,0,0,0,5.743L7.6,58.206A5.738,5.738,0,0,0,11.9,60.07H30.03V74.956H28.564a4.4,4.4,0,0,0-4.4,4.4v4.4A1.245,1.245,0,0,0,25.41,85H32.88a1.245,1.245,0,1,0,0-2.49H26.655V79.355a1.912,1.912,0,0,1,1.909-1.909H41.845a1.912,1.912,0,0,1,1.909,1.909V82.51H37.529a1.245,1.245,0,1,0,0,2.49H45a1.245,1.245,0,0,0,1.245-1.245v-4.4a4.4,4.4,0,0,0-4.4-4.4H40.379V60.07H65c2.982,0,5.408-2.124,5.408-4.735V40.381c0-2.611-2.427-4.735-5.408-4.735ZM32.52,4.707A2.219,2.219,0,0,1,34.737,2.49h.935a2.219,2.219,0,0,1,2.217,2.217V5.738H32.52Zm5.368,25.455V35.63H32.52V30.162Zm0,44.794H32.52V60.07h5.368Zm30.03-19.622c0,1.238-1.309,2.246-2.918,2.246H11.9a3.221,3.221,0,0,1-2.425-1.007L2.983,49.1a1.81,1.81,0,0,1,0-2.477l6.5-7.477A3.22,3.22,0,0,1,11.9,38.136H65c1.609,0,2.918,1.007,2.918,2.245Zm0,0"/>
      </g>
    </g>
  </g>
</svg>
