<svg xmlns="http://www.w3.org/2000/svg" xmlns:xlink="http://www.w3.org/1999/xlink" width="610" height="232.407" viewBox="0 0 610 232.407">
  <defs>
    <clipPath id="clip-path">
      <rect id="Rectángulo_373656" data-name="Rectángulo 373656" width="85" height="85" transform="translate(495 2951)" fill="#0050db"/>
    </clipPath>
    <clipPath id="clip-path-2">
      <rect id="Rectángulo_373657" data-name="Rectángulo 373657" width="85" height="85" transform="translate(654 2951)" fill="#0050db"/>
    </clipPath>
    <clipPath id="clip-path-3">
      <rect id="Rectángulo_373658" data-name="Rectángulo 373658" width="85" height="85" transform="translate(863 2951)" fill="#0050db"/>
    </clipPath>
    <clipPath id="clip-path-4">
      <rect id="Rectángulo_373659" data-name="Rectángulo 373659" width="85" height="85" transform="translate(1020 2951)" fill="#0050db"/>
    </clipPath>
  </defs>
  <g id="Grupo_1064839" data-name="Grupo 1064839" transform="translate(-495 -2900.007)">
    <path id="Trazado_799335" data-name="Trazado 799335" d="M20.1-11.795l8.638-31.572H40.418L25.824,0H14.386L-.089-43.367H11.5ZM77.59-43.367v28.385a16.314,16.314,0,0,1-2.055,8.355,13.314,13.314,0,0,1-5.9,5.376A20.776,20.776,0,0,1,60.553.6q-7.923,0-12.48-4.11T43.427-14.773V-43.367H53.941v28.8q.179,7.119,6.612,7.119a6.4,6.4,0,0,0,4.915-1.787q1.668-1.787,1.668-5.808V-43.367ZM119.2-14.684a15.838,15.838,0,0,1-2.442,8,14.74,14.74,0,0,1-6.27,5.376A21.34,21.34,0,0,1,101.27.6q-8.548,0-13.463-5.57T82.892-20.7v-2.145A26.25,26.25,0,0,1,85.111-34,16.813,16.813,0,0,1,91.5-41.386a17.826,17.826,0,0,1,9.65-2.606q7.893,0,12.688,4.155t5.451,11.452H108.865q-.119-3.961-2-5.689T101.15-35.8a6.245,6.245,0,0,0-5.719,2.919q-1.817,2.919-1.906,9.323v3.068q0,6.94,1.742,9.918t6,2.979a8.028,8.028,0,0,0,5.51-1.7q1.906-1.7,2.025-5.391ZM148.777-8.1H134.45l-2.5,8.1H120.779l15.905-43.367h9.829L162.538,0H151.309Zm-11.825-8.072h9.323L141.6-31.215Z" transform="translate(721 2944)" fill="#12263f"/>
    <path id="Trazado_797601" data-name="Trazado 797601" d="M-1823.333-8663.5H-1940v65.5" transform="translate(2520 11586)" fill="none" stroke="#0050db" stroke-linecap="round" stroke-width="2" stroke-dasharray="6 8"/>
    <path id="Trazado_797692" data-name="Trazado 797692" d="M-1940-8640.5v-23h63.667v-14" transform="translate(2633.333 11628.5)" fill="none" stroke="#0050db" stroke-linecap="round" stroke-width="2" stroke-dasharray="6 8"/>
    <path id="Trazado_797693" data-name="Trazado 797693" d="M-1876.333-8640.5v-23H-1940v-14" transform="translate(2763 11632.5)" fill="none" stroke="#0050db" stroke-linecap="round" stroke-width="2" stroke-dasharray="6 8"/>
    <path id="Trazado_797691" data-name="Trazado 797691" d="M-1940-8663.5h116.666v65.5" transform="translate(2850.333 11586)" fill="none" stroke="#0050db" stroke-linecap="round" stroke-width="2" stroke-dasharray="6 8"/>
    <g id="Trazado_797694" data-name="Trazado 797694" transform="translate(572 2983)" fill="#fff">
      <path d="M 8.5 16 C 4.364490032196045 16 1 12.63551044464111 1 8.5 C 1 4.364490032196045 4.364490032196045 1 8.5 1 C 12.63551044464111 1 16 4.364490032196045 16 8.5 C 16 12.63551044464111 12.63551044464111 16 8.5 16 Z" stroke="none"/>
      <path d="M 8.5 2 C 4.915889739990234 2 2 4.915889739990234 2 8.5 C 2 12.08411026000977 4.915889739990234 15 8.5 15 C 12.08411026000977 15 15 12.08411026000977 15 8.5 C 15 4.915889739990234 12.08411026000977 2 8.5 2 M 8.5 0 C 13.19441986083984 0 17 3.805580139160156 17 8.5 C 17 13.19441986083984 13.19441986083984 17 8.5 17 C 3.805580139160156 17 0 13.19441986083984 0 8.5 C 0 3.805580139160156 3.805580139160156 0 8.5 0 Z" stroke="none" fill="#0050db"/>
    </g>
    <g id="Trazado_799336" data-name="Trazado 799336" transform="translate(685.333 2983)" fill="#fff">
      <path d="M 8.5 16 C 4.364490032196045 16 1 12.63551044464111 1 8.5 C 1 4.364490032196045 4.364490032196045 1 8.5 1 C 12.63551044464111 1 16 4.364490032196045 16 8.5 C 16 12.63551044464111 12.63551044464111 16 8.5 16 Z" stroke="none"/>
      <path d="M 8.5 2 C 4.915889739990234 2 2 4.915889739990234 2 8.5 C 2 12.08411026000977 4.915889739990234 15 8.5 15 C 12.08411026000977 15 15 12.08411026000977 15 8.5 C 15 4.915889739990234 12.08411026000977 2 8.5 2 M 8.5 0 C 13.19441986083984 0 17 3.805580139160156 17 8.5 C 17 13.19441986083984 13.19441986083984 17 8.5 17 C 3.805580139160156 17 0 13.19441986083984 0 8.5 C 0 3.805580139160156 3.805580139160156 0 8.5 0 Z" stroke="none" fill="#0050db"/>
    </g>
    <g id="Trazado_799337" data-name="Trazado 799337" transform="translate(878 2987)" fill="#fff">
      <path d="M 8.5 16 C 4.364490032196045 16 1 12.63551044464111 1 8.5 C 1 4.364490032196045 4.364490032196045 1 8.5 1 C 12.63551044464111 1 16 4.364490032196045 16 8.5 C 16 12.63551044464111 12.63551044464111 16 8.5 16 Z" stroke="none"/>
      <path d="M 8.5 2 C 4.915889739990234 2 2 4.915889739990234 2 8.5 C 2 12.08411026000977 4.915889739990234 15 8.5 15 C 12.08411026000977 15 15 12.08411026000977 15 8.5 C 15 4.915889739990234 12.08411026000977 2 8.5 2 M 8.5 0 C 13.19441986083984 0 17 3.805580139160156 17 8.5 C 17 13.19441986083984 13.19441986083984 17 8.5 17 C 3.805580139160156 17 0 13.19441986083984 0 8.5 C 0 3.805580139160156 3.805580139160156 0 8.5 0 Z" stroke="none" fill="#0050db"/>
    </g>
    <g id="Trazado_799338" data-name="Trazado 799338" transform="translate(1018 2983)" fill="#fff">
      <path d="M 8.499983787536621 16 C 4.364483833312988 16 1.000003814697266 12.63551044464111 1.000003814697266 8.5 C 1.000003814697266 4.364490032196045 4.364483833312988 1 8.499983787536621 1 C 12.63548374176025 1 15.99996376037598 4.364490032196045 15.99996376037598 8.5 C 15.99996376037598 12.63551044464111 12.63548374176025 16 8.499983787536621 16 Z" stroke="none"/>
      <path d="M 8.499983787536621 2 C 4.915884017944336 2 2.000003814697266 4.915889739990234 2.000003814697266 8.5 C 2.000003814697266 12.08411026000977 4.915884017944336 15 8.499983787536621 15 C 12.08408355712891 15 14.99996376037598 12.08411026000977 14.99996376037598 8.5 C 14.99996376037598 4.915889739990234 12.08408355712891 2 8.499983787536621 2 M 8.499983787536621 0 C 13.1943941116333 0 16.99996376037598 3.805580139160156 16.99996376037598 8.5 C 16.99996376037598 13.19441986083984 13.1943941116333 17 8.499983787536621 17 C 3.805573463439941 17 3.814697265625e-06 13.19441986083984 3.814697265625e-06 8.5 C 3.814697265625e-06 3.805580139160156 3.805573463439941 0 8.499983787536621 0 Z" stroke="none" fill="#0050db"/>
    </g>
    <path id="Trazado_799339" data-name="Trazado 799339" d="M-26.551-2.82l2.578-8.555h2.609L-25.324,0H-27.77l-3.945-11.375h2.6Zm5.4-1.484a5.013,5.013,0,0,1,.484-2.242A3.546,3.546,0,0,1-19.273-8.07a4.069,4.069,0,0,1,2.113-.539,3.849,3.849,0,0,1,2.793,1.047A4.2,4.2,0,0,1-13.16-4.719l.016.578A4.418,4.418,0,0,1-14.23-1.02,3.775,3.775,0,0,1-17.145.156a3.793,3.793,0,0,1-2.918-1.172A4.5,4.5,0,0,1-21.152-4.2Zm2.258.16A3.16,3.16,0,0,0-18.441-2.3a1.5,1.5,0,0,0,1.3.638,1.5,1.5,0,0,0,1.281-.63A3.457,3.457,0,0,0-15.4-4.309a3.128,3.128,0,0,0-.461-1.831,1.5,1.5,0,0,0-1.3-.649,1.474,1.474,0,0,0-1.281.646A3.516,3.516,0,0,0-18.895-4.144ZM-9.371,0h-2.266V-12h2.266Zm6.758,0A2.507,2.507,0,0,1-2.84-.758,2.732,2.732,0,0,1-4.973.156,3,3,0,0,1-7.031-.562a2.312,2.312,0,0,1-.816-1.812,2.389,2.389,0,0,1,1-2.062,4.915,4.915,0,0,1,2.879-.727h1.039v-.484a1.393,1.393,0,0,0-.3-.937,1.183,1.183,0,0,0-.949-.352,1.345,1.345,0,0,0-.895.273.929.929,0,0,0-.324.75H-7.66a2.268,2.268,0,0,1,.453-1.359,3,3,0,0,1,1.281-.98,4.669,4.669,0,0,1,1.859-.355,3.689,3.689,0,0,1,2.48.785A2.747,2.747,0,0,1-.668-5.617v3.664A4.041,4.041,0,0,0-.332-.133V0ZM-4.48-1.57a1.945,1.945,0,0,0,.922-.223,1.462,1.462,0,0,0,.625-.6V-3.844h-.844q-1.7,0-1.8,1.172l-.008.133a.9.9,0,0,0,.3.7A1.153,1.153,0,0,0-4.48-1.57Zm8.25-8.961v2.078H5.215V-6.8H3.77v4.219a1.007,1.007,0,0,0,.18.672.9.9,0,0,0,.688.2A3.6,3.6,0,0,0,5.3-1.758V-.047a4.648,4.648,0,0,1-1.367.2,2.156,2.156,0,0,1-2.422-2.4V-6.8H.277V-8.453H1.512v-2.078ZM8.855,0H6.59V-8.453H8.855Zm-2.4-10.641a1.112,1.112,0,0,1,.34-.836,1.277,1.277,0,0,1,.926-.328,1.28,1.28,0,0,1,.922.328,1.105,1.105,0,0,1,.344.836,1.108,1.108,0,0,1-.348.844,1.283,1.283,0,0,1-.918.328A1.283,1.283,0,0,1,6.8-9.8,1.108,1.108,0,0,1,6.457-10.641ZM13.1,0H10.832V-12H13.1ZM17.34,0H15.074V-8.453H17.34Zm-2.4-10.641a1.112,1.112,0,0,1,.34-.836,1.277,1.277,0,0,1,.926-.328,1.28,1.28,0,0,1,.922.328,1.105,1.105,0,0,1,.344.836,1.108,1.108,0,0,1-.348.844,1.283,1.283,0,0,1-.918.328,1.283,1.283,0,0,1-.918-.328A1.108,1.108,0,0,1,14.941-10.641Zm6.961.109v2.078h1.445V-6.8H21.9v4.219a1.007,1.007,0,0,0,.18.672.9.9,0,0,0,.688.2,3.6,3.6,0,0,0,.664-.055V-.047a4.648,4.648,0,0,1-1.367.2,2.156,2.156,0,0,1-2.422-2.4V-6.8H18.41V-8.453h1.234v-2.078ZM27.762-3.2l1.563-5.258h2.422l-3.4,9.766-.187.445a2.577,2.577,0,0,1-2.5,1.656,3.552,3.552,0,0,1-1-.148V1.555L25,1.563a1.857,1.857,0,0,0,.957-.2,1.283,1.283,0,0,0,.5-.648l.266-.7L23.762-8.453h2.43Z" transform="translate(538 3129)" fill="#12263f"/>
    <path id="Trazado_799340" data-name="Trazado 799340" d="M-32.043-11.375v7.492A3.836,3.836,0,0,1-33.211-.93,4.5,4.5,0,0,1-36.4.156,4.553,4.553,0,0,1-39.566-.9a3.77,3.77,0,0,1-1.2-2.9v-7.578h2.344v7.508a2.167,2.167,0,0,0,.535,1.629,2.054,2.054,0,0,0,1.48.512q1.977,0,2.008-2.078v-7.57Zm3.852,2.922.07.977a2.951,2.951,0,0,1,2.43-1.133,2.453,2.453,0,0,1,2,.789,3.682,3.682,0,0,1,.672,2.359V0h-2.258V-5.419a1.47,1.47,0,0,0-.312-1.045,1.4,1.4,0,0,0-1.039-.325,1.553,1.553,0,0,0-1.43.814V0h-2.258V-8.453Zm10.4,6.789a1.481,1.481,0,0,0,1.016-.344,1.2,1.2,0,0,0,.406-.914h2.117a2.9,2.9,0,0,1-.469,1.574A3.093,3.093,0,0,1-15.984-.238a3.949,3.949,0,0,1-1.77.395A3.67,3.67,0,0,1-20.613-1,4.56,4.56,0,0,1-21.66-4.18v-.148a4.508,4.508,0,0,1,1.039-3.117A3.627,3.627,0,0,1-17.77-8.609a3.555,3.555,0,0,1,2.543.9,3.2,3.2,0,0,1,.973,2.4h-2.117a1.551,1.551,0,0,0-.406-1.072,1.354,1.354,0,0,0-1.031-.412A1.36,1.36,0,0,0-19-6.214a3.333,3.333,0,0,0-.4,1.866v.235A3.375,3.375,0,0,0-19-2.235,1.377,1.377,0,0,0-17.793-1.664ZM-9.074.156A4.15,4.15,0,0,1-12.1-.984,4.054,4.054,0,0,1-13.27-4.023v-.219a5.106,5.106,0,0,1,.492-2.277,3.612,3.612,0,0,1,1.395-1.547,3.914,3.914,0,0,1,2.059-.543,3.508,3.508,0,0,1,2.73,1.094,4.444,4.444,0,0,1,1,3.1v.922H-10.98a2.1,2.1,0,0,0,.66,1.328,2,2,0,0,0,1.395.5,2.437,2.437,0,0,0,2.039-.945l1.109,1.242A3.389,3.389,0,0,1-7.152-.246,4.511,4.511,0,0,1-9.074.156Zm-.258-6.945a1.411,1.411,0,0,0-1.09.455,2.357,2.357,0,0,0-.535,1.3h3.141v-.181a1.681,1.681,0,0,0-.406-1.165A1.456,1.456,0,0,0-9.332-6.789Zm9.766.453A6.134,6.134,0,0,0-.379-6.4a1.654,1.654,0,0,0-1.68.867V0H-4.316V-8.453h2.133l.063,1.008A2.092,2.092,0,0,1-.238-8.609a2.366,2.366,0,0,1,.7.1Zm4.18-4.2v2.078H6.059V-6.8H4.613v4.219a1.007,1.007,0,0,0,.18.672.9.9,0,0,0,.688.2,3.6,3.6,0,0,0,.664-.055V-.047a4.648,4.648,0,0,1-1.367.2,2.156,2.156,0,0,1-2.422-2.4V-6.8H1.121V-8.453H2.355v-2.078ZM12.215,0a2.507,2.507,0,0,1-.227-.758A2.732,2.732,0,0,1,9.855.156,3,3,0,0,1,7.8-.562,2.312,2.312,0,0,1,6.98-2.375a2.389,2.389,0,0,1,1-2.062,4.915,4.915,0,0,1,2.879-.727h1.039v-.484a1.393,1.393,0,0,0-.3-.937,1.183,1.183,0,0,0-.949-.352,1.345,1.345,0,0,0-.895.273.929.929,0,0,0-.324.75H7.168a2.268,2.268,0,0,1,.453-1.359A3,3,0,0,1,8.9-8.254a4.669,4.669,0,0,1,1.859-.355,3.689,3.689,0,0,1,2.48.785,2.747,2.747,0,0,1,.918,2.207v3.664A4.041,4.041,0,0,0,14.5-.133V0ZM10.348-1.57a1.945,1.945,0,0,0,.922-.223,1.462,1.462,0,0,0,.625-.6V-3.844h-.844q-1.7,0-1.8,1.172l-.008.133a.9.9,0,0,0,.3.7A1.153,1.153,0,0,0,10.348-1.57ZM18.277,0H16.012V-8.453h2.266Zm-2.4-10.641a1.112,1.112,0,0,1,.34-.836,1.277,1.277,0,0,1,.926-.328,1.28,1.28,0,0,1,.922.328,1.105,1.105,0,0,1,.344.836,1.108,1.108,0,0,1-.348.844,1.283,1.283,0,0,1-.918.328,1.283,1.283,0,0,1-.918-.328A1.108,1.108,0,0,1,15.879-10.641Zm6.336,2.188.07.977a2.951,2.951,0,0,1,2.43-1.133,2.453,2.453,0,0,1,2,.789,3.682,3.682,0,0,1,.672,2.359V0H25.129V-5.419a1.47,1.47,0,0,0-.312-1.045,1.4,1.4,0,0,0-1.039-.325,1.553,1.553,0,0,0-1.43.814V0H20.09V-8.453ZM31.8-10.531v2.078h1.445V-6.8H31.8v4.219a1.007,1.007,0,0,0,.18.672.9.9,0,0,0,.688.2,3.6,3.6,0,0,0,.664-.055V-.047a4.648,4.648,0,0,1-1.367.2,2.156,2.156,0,0,1-2.422-2.4V-6.8H28.309V-8.453h1.234v-2.078ZM37.66-3.2l1.563-5.258h2.422l-3.4,9.766-.187.445a2.577,2.577,0,0,1-2.5,1.656,3.552,3.552,0,0,1-1-.148V1.555l.344.008a1.857,1.857,0,0,0,.957-.2,1.283,1.283,0,0,0,.5-.648l.266-.7L33.66-8.453h2.43Z" transform="translate(697 3129)" fill="#12263f"/>
    <path id="Trazado_799341" data-name="Trazado 799341" d="M-30.6-3.789A4.025,4.025,0,0,1-31.953-.9,4.76,4.76,0,0,1-35.176.156a4.28,4.28,0,0,1-3.441-1.473,6.038,6.038,0,0,1-1.254-4.043v-.7a6.819,6.819,0,0,1,.578-2.891,4.332,4.332,0,0,1,1.652-1.918,4.629,4.629,0,0,1,2.5-.668,4.637,4.637,0,0,1,3.172,1.055,4.326,4.326,0,0,1,1.391,2.961h-2.344a2.376,2.376,0,0,0-.613-1.6,2.271,2.271,0,0,0-1.605-.5,1.991,1.991,0,0,0-1.754.84,4.707,4.707,0,0,0-.6,2.605V-5.3a5.038,5.038,0,0,0,.559,2.7,1.954,1.954,0,0,0,1.762.852,2.314,2.314,0,0,0,1.621-.5,2.241,2.241,0,0,0,.613-1.535Zm1.039-.516a5.013,5.013,0,0,1,.484-2.242A3.546,3.546,0,0,1-27.68-8.07a4.069,4.069,0,0,1,2.113-.539,3.849,3.849,0,0,1,2.793,1.047,4.2,4.2,0,0,1,1.207,2.844l.016.578A4.418,4.418,0,0,1-22.637-1.02,3.775,3.775,0,0,1-25.551.156a3.793,3.793,0,0,1-2.918-1.172A4.5,4.5,0,0,1-29.559-4.2Zm2.258.16A3.16,3.16,0,0,0-26.848-2.3a1.5,1.5,0,0,0,1.3.638,1.5,1.5,0,0,0,1.281-.63,3.457,3.457,0,0,0,.461-2.015A3.128,3.128,0,0,0-24.27-6.14a1.5,1.5,0,0,0-1.3-.649,1.474,1.474,0,0,0-1.281.646A3.516,3.516,0,0,0-27.3-4.144Zm9.258-4.309.07.945a2.971,2.971,0,0,1,2.43-1.1A2.255,2.255,0,0,1-13.3-7.32a2.9,2.9,0,0,1,2.539-1.289,2.521,2.521,0,0,1,2.047.8A3.681,3.681,0,0,1-8.043-5.4V0h-2.266V-5.4a1.616,1.616,0,0,0-.281-1.053,1.245,1.245,0,0,0-.992-.333,1.409,1.409,0,0,0-1.406.971L-12.98,0h-2.258V-5.4a1.6,1.6,0,0,0-.289-1.065,1.257,1.257,0,0,0-.984-.329,1.463,1.463,0,0,0-1.391.8V0H-20.16V-8.453ZM1.3-4.148A5.07,5.07,0,0,1,.414-1.02,2.843,2.843,0,0,1-1.98.156a2.633,2.633,0,0,1-2.07-.891V3.25H-6.309v-11.7h2.094l.078.828A2.654,2.654,0,0,1-2-8.609,2.862,2.862,0,0,1,.434-7.453,5.207,5.207,0,0,1,1.3-4.266ZM-.957-4.321a3.345,3.345,0,0,0-.418-1.826A1.36,1.36,0,0,0-2.59-6.789a1.478,1.478,0,0,0-1.461.815V-2.5a1.5,1.5,0,0,0,1.477.839Q-.957-1.664-.957-4.321ZM5.082,0H2.816V-12H5.082Zm5.75.156A4.15,4.15,0,0,1,7.8-.984,4.054,4.054,0,0,1,6.637-4.023v-.219A5.106,5.106,0,0,1,7.129-6.52,3.612,3.612,0,0,1,8.523-8.066a3.914,3.914,0,0,1,2.059-.543,3.508,3.508,0,0,1,2.73,1.094,4.444,4.444,0,0,1,1,3.1v.922H8.926a2.1,2.1,0,0,0,.66,1.328,2,2,0,0,0,1.395.5,2.437,2.437,0,0,0,2.039-.945l1.109,1.242A3.389,3.389,0,0,1,12.754-.246,4.511,4.511,0,0,1,10.832.156Zm-.258-6.945a1.411,1.411,0,0,0-1.09.455,2.357,2.357,0,0,0-.535,1.3H12.09v-.181a1.681,1.681,0,0,0-.406-1.165A1.456,1.456,0,0,0,10.574-6.789Zm8.234.859L20.23-8.453h2.414L20.238-4.312,22.746,0H20.324L18.816-2.656,17.316,0h-2.43l2.508-4.312L15-8.453h2.422ZM26.113,0H23.848V-8.453h2.266Zm-2.4-10.641a1.112,1.112,0,0,1,.34-.836,1.277,1.277,0,0,1,.926-.328,1.28,1.28,0,0,1,.922.328,1.105,1.105,0,0,1,.344.836A1.108,1.108,0,0,1,25.9-9.8a1.283,1.283,0,0,1-.918.328,1.283,1.283,0,0,1-.918-.328A1.108,1.108,0,0,1,23.715-10.641Zm6.961.109v2.078h1.445V-6.8H30.676v4.219a1.007,1.007,0,0,0,.18.672.9.9,0,0,0,.688.2,3.6,3.6,0,0,0,.664-.055V-.047a4.648,4.648,0,0,1-1.367.2,2.156,2.156,0,0,1-2.422-2.4V-6.8H27.184V-8.453h1.234v-2.078ZM36.535-3.2,38.1-8.453H40.52l-3.4,9.766-.187.445a2.577,2.577,0,0,1-2.5,1.656,3.552,3.552,0,0,1-1-.148V1.555l.344.008a1.857,1.857,0,0,0,.957-.2,1.283,1.283,0,0,0,.5-.648l.266-.7L32.535-8.453h2.43Z" transform="translate(906 3129)" fill="#12263f"/>
    <path id="Trazado_799342" data-name="Trazado 799342" d="M-29.191-2.344H-33.3L-34.082,0h-2.492l4.234-11.375h2.172L-25.91,0H-28.4Zm-3.477-1.9h2.844L-31.254-8.5Zm9.414-4.211.07.945a2.971,2.971,0,0,1,2.43-1.1A2.255,2.255,0,0,1-18.512-7.32a2.9,2.9,0,0,1,2.539-1.289,2.521,2.521,0,0,1,2.047.8,3.681,3.681,0,0,1,.672,2.41V0H-15.52V-5.4A1.616,1.616,0,0,0-15.8-6.456a1.245,1.245,0,0,0-.992-.333,1.409,1.409,0,0,0-1.406.971L-18.191,0h-2.258V-5.4a1.6,1.6,0,0,0-.289-1.065,1.257,1.257,0,0,0-.984-.329,1.463,1.463,0,0,0-1.391.8V0h-2.258V-8.453ZM-3.9-4.148A5.119,5.119,0,0,1-4.77-.98,2.872,2.872,0,0,1-7.191.156,2.639,2.639,0,0,1-9.387-.9l-.1.9H-11.52V-12h2.258v4.3a2.571,2.571,0,0,1,2.055-.914A2.9,2.9,0,0,1-4.781-7.473a5.126,5.126,0,0,1,.879,3.2ZM-6.16-4.321A3.381,3.381,0,0,0-6.566-6.2a1.372,1.372,0,0,0-1.211-.592A1.489,1.489,0,0,0-9.262-5.9v3.346a1.509,1.509,0,0,0,1.5.893A1.4,1.4,0,0,0-6.324-2.745,5.6,5.6,0,0,0-6.16-4.321ZM-.129,0H-2.395V-8.453H-.129Zm-2.4-10.641a1.112,1.112,0,0,1,.34-.836,1.277,1.277,0,0,1,.926-.328,1.28,1.28,0,0,1,.922.328A1.105,1.105,0,0,1,0-10.641,1.108,1.108,0,0,1-.344-9.8a1.283,1.283,0,0,1-.918.328A1.283,1.283,0,0,1-2.18-9.8,1.108,1.108,0,0,1-2.527-10.641ZM1.4-4.289a4.954,4.954,0,0,1,.926-3.133,3,3,0,0,1,2.5-1.187,2.631,2.631,0,0,1,2.164.953l.094-.8H9.129V-.281a3.613,3.613,0,0,1-.5,1.93A3.236,3.236,0,0,1,7.207,2.9a4.985,4.985,0,0,1-2.141.43,4.635,4.635,0,0,1-1.812-.371A3.217,3.217,0,0,1,1.918,2l1-1.375a2.645,2.645,0,0,0,2.047.945,1.936,1.936,0,0,0,1.4-.48,1.8,1.8,0,0,0,.5-1.363V-.727A2.612,2.612,0,0,1,4.809.156,2.992,2.992,0,0,1,2.344-1.035,4.953,4.953,0,0,1,1.4-4.2Zm2.258.161a3.1,3.1,0,0,0,.461,1.809,1.465,1.465,0,0,0,1.266.655,1.567,1.567,0,0,0,1.477-.777V-6.012A1.563,1.563,0,0,0,5.4-6.789a1.474,1.474,0,0,0-1.277.667A3.5,3.5,0,0,0,3.66-4.128ZM15.926-.859A2.831,2.831,0,0,1,13.613.156a2.67,2.67,0,0,1-2.074-.781,3.335,3.335,0,0,1-.73-2.289V-8.453h2.258v5.467q0,1.322,1.2,1.322a1.63,1.63,0,0,0,1.578-.8V-8.453h2.266V0H15.988ZM22.2,0H19.934V-8.453H22.2ZM19.8-10.641a1.112,1.112,0,0,1,.34-.836,1.277,1.277,0,0,1,.926-.328,1.28,1.28,0,0,1,.922.328,1.105,1.105,0,0,1,.344.836,1.108,1.108,0,0,1-.348.844,1.283,1.283,0,0,1-.918.328,1.283,1.283,0,0,1-.918-.328A1.108,1.108,0,0,1,19.8-10.641Zm6.961.109v2.078h1.445V-6.8H26.762v4.219a1.007,1.007,0,0,0,.18.672.9.9,0,0,0,.688.2,3.6,3.6,0,0,0,.664-.055V-.047a4.648,4.648,0,0,1-1.367.2,2.156,2.156,0,0,1-2.422-2.4V-6.8H23.27V-8.453H24.5v-2.078ZM32.621-3.2l1.563-5.258h2.422l-3.4,9.766-.187.445a2.577,2.577,0,0,1-2.5,1.656,3.552,3.552,0,0,1-1-.148V1.555l.344.008a1.857,1.857,0,0,0,.957-.2,1.283,1.283,0,0,0,.5-.648l.266-.7L28.621-8.453h2.43Z" transform="translate(1063 3129)" fill="#12263f"/>
    <g id="Enmascarar_grupo_1059021" data-name="Enmascarar grupo 1059021" transform="translate(0 57)" clip-path="url(#clip-path)">
      <g id="XMLID_2341_" transform="translate(495 2951)">
        <g id="XMLID_1325_">
          <g id="XMLID_2619_">
            <circle id="XMLID_2783_" cx="20.382" cy="20.382" r="20.382" transform="translate(3.913 4.317)" fill="#72f2eb"/>
            <g id="XMLID_1353_">
              <g id="XMLID_1385_">
                <g id="XMLID_1419_">
                  <circle id="XMLID_1420_" cx="2.668" cy="2.668" r="2.668" transform="translate(1.245 27.202)" fill="#f9b767"/>
                </g>
              </g>
            </g>
            <g id="XMLID_1387_">
              <g id="XMLID_1391_">
                <g id="XMLID_2785_">
                  <circle id="XMLID_2786_" cx="2.668" cy="2.668" r="2.668" transform="translate(14.1 14.348)" fill="#f9b767"/>
                </g>
              </g>
            </g>
            <g id="XMLID_1393_">
              <g id="XMLID_1397_">
                <g id="XMLID_2798_">
                  <circle id="XMLID_2799_" cx="2.668" cy="2.668" r="2.668" transform="translate(27.732 27.981)" fill="#f9b767"/>
                </g>
              </g>
            </g>
            <g id="XMLID_1399_">
              <g id="XMLID_1403_">
                <g id="XMLID_2801_">
                  <circle id="XMLID_2802_" cx="2.668" cy="2.668" r="2.668" transform="translate(45.436 10.277)" fill="#f9b767"/>
                </g>
              </g>
            </g>
            <g id="XMLID_1405_">
              <g id="XMLID_1409_">
                <g id="XMLID_2803_">
                  <circle id="XMLID_2804_" cx="2.668" cy="2.668" r="2.668" transform="translate(57.191 22.032)" fill="#f9b767"/>
                </g>
              </g>
            </g>
          </g>
          <g id="XMLID_1352_">
            <rect id="XMLID_2771_" width="7.298" height="20.529" transform="translate(13.194 60.153)" fill="#ff6a66"/>
            <rect id="XMLID_2770_" width="7.298" height="20.529" transform="translate(25.488 60.153)" fill="#ff6a66"/>
            <rect id="XMLID_2769_" width="7.298" height="26.603" transform="translate(37.782 54.08)" fill="#f9b767"/>
            <rect id="XMLID_2768_" width="7.298" height="35.655" transform="translate(50.077 45.027)" fill="#72f2eb"/>
            <rect id="XMLID_2767_" width="7.298" height="45.018" transform="translate(62.371 35.665)" fill="#72f2eb"/>
            <rect id="XMLID_2766_" width="7.298" height="55.983" transform="translate(74.665 24.7)" fill="#72f2eb"/>
          </g>
        </g>
        <g id="XMLID_1496_">
          <path id="XMLID_1515_" d="M4.633,33.715a21.541,21.541,0,0,0,4.538,6.442,1.245,1.245,0,0,0,1.742-1.78,19.07,19.07,0,0,1-4.1-5.883,3.9,3.9,0,0,0,.6-4.37l7.608-7.608a3.9,3.9,0,0,0,3.393.047l8.367,8.367c.023.023.048.044.072.065a3.913,3.913,0,1,0,7.187.223l8.887-8.887A19.142,19.142,0,0,1,14.751,41.29a1.245,1.245,0,0,0-1.244,2.157A21.632,21.632,0,0,0,44.957,18.3l1.718-1.718a3.9,3.9,0,0,0,3.3-.2l6.45,6.45a3.919,3.919,0,1,0,1.825-1.7l-6.578-6.578a3.913,3.913,0,1,0-6.906.418l-.777.777A21.626,21.626,0,0,0,2.668,24.7c0,.481.018.964.049,1.445a3.912,3.912,0,0,0,1.916,7.571ZM59.859,23.277A1.423,1.423,0,1,1,58.437,24.7,1.424,1.424,0,0,1,59.859,23.277ZM48.1,11.522a1.423,1.423,0,1,1-1.423,1.423A1.424,1.424,0,0,1,48.1,11.522Zm-32.76,5.494a1.423,1.423,0,1,1,1.423,1.423A1.424,1.424,0,0,1,15.345,17.016ZM30.4,32.071a1.423,1.423,0,1,1,1.423-1.423A1.424,1.424,0,0,1,30.4,32.071ZM24.3,5.563A19.168,19.168,0,0,1,42.087,17.651l-9.655,9.654a3.9,3.9,0,0,0-3.867-.112l-.022-.024-8.321-8.321a3.913,3.913,0,1,0-6.96-.1L5.651,26.365a3.892,3.892,0,0,0-.436-.185c-.038-.491-.057-.987-.057-1.481A19.159,19.159,0,0,1,24.3,5.563ZM2.49,29.87a1.423,1.423,0,1,1,1.423,1.423A1.424,1.424,0,0,1,2.49,29.87Z"/>
          <path id="XMLID_1506_" d="M83.755,81.928a1.245,1.245,0,0,0,0-2.49h-.547V52.18a1.245,1.245,0,0,0-2.49,0V79.437H75.91V25.945h4.808V47.1a1.245,1.245,0,0,0,2.49,0V24.7a1.245,1.245,0,0,0-1.245-1.245h-7.3A1.245,1.245,0,0,0,73.42,24.7V79.437H70.914V35.665a1.245,1.245,0,0,0-1.245-1.245h-7.3a1.245,1.245,0,0,0-1.245,1.245V79.437H58.619V45.027a1.245,1.245,0,0,0-1.245-1.245h-7.3a1.245,1.245,0,0,0-1.245,1.245v34.41H46.325V54.08a1.245,1.245,0,0,0-1.245-1.245h-7.3a1.245,1.245,0,0,0-1.245,1.245V79.437H34.031V60.153a1.245,1.245,0,0,0-1.245-1.245h-7.3a1.245,1.245,0,0,0-1.245,1.245v7.2a1.245,1.245,0,0,0,2.49,0V61.4h4.808V79.437H26.733v-7a1.245,1.245,0,0,0-2.49,0v7H21.737V60.153a1.245,1.245,0,0,0-1.245-1.245h-7.3a1.245,1.245,0,0,0-1.245,1.245V79.437H2.409a1.245,1.245,0,0,0,0,2.49H83.755ZM63.616,36.91h4.807V79.437H63.616ZM51.322,46.273h4.808V79.437H51.322ZM39.027,55.325h4.808V79.437H39.027ZM14.439,61.4h4.807V79.437H14.439Z"/>
          <path id="XMLID_1505_" d="M81.963,7.873a1.245,1.245,0,0,0,1.245-1.245V6.354a1.245,1.245,0,0,0-2.49,0v.274A1.245,1.245,0,0,0,81.963,7.873Z"/>
          <path id="XMLID_1501_" d="M77.723,7.873a1.245,1.245,0,0,0,1.245-1.245V6.354a1.245,1.245,0,0,0-2.49,0v.274A1.245,1.245,0,0,0,77.723,7.873Z"/>
          <path id="XMLID_1500_" d="M77.723,12.839h4.209a1.245,1.245,0,0,0,0-2.49H77.723a1.245,1.245,0,0,0,0,2.49Z"/>
          <path id="XMLID_1497_" d="M70.709,16.858H81.932a1.245,1.245,0,0,0,0-2.49H70.709a1.245,1.245,0,0,0,0,2.49Z"/>
        </g>
      </g>
    </g>
    <g id="Enmascarar_grupo_1059022" data-name="Enmascarar grupo 1059022" transform="translate(0 57)" clip-path="url(#clip-path-2)">
      <g id="pregunta_1_" data-name="pregunta (1)" transform="translate(654 2951)">
        <path id="Trazado_797695" data-name="Trazado 797695" d="M50.725,53.468l15.444,2.575a13.71,13.71,0,0,1,11.162,10.7l3.555,16.888H4.112L7.667,66.74a13.711,13.711,0,0,1,11.162-10.7l15.444-2.573Z" fill="#ececec"/>
        <g id="Grupo_1064206" data-name="Grupo 1064206">
          <path id="Trazado_797696" data-name="Trazado 797696" d="M58.951,54.839,53.467,71.29,42.5,61.694l8.226-8.226Z" fill="#b6c1ce"/>
          <path id="Trazado_797697" data-name="Trazado 797697" d="M74.032,83.629h6.855L77.332,66.74a13.711,13.711,0,0,0-11.161-10.7L50.725,53.468H49.354l17.193,9.169a8.228,8.228,0,0,1,4.172,5.535Z" fill="#b6c1ce"/>
          <path id="Trazado_797698" data-name="Trazado 797698" d="M26.048,54.839,31.532,71.29l10.968-9.6-8.226-8.226Z" fill="#b6c1ce"/>
        </g>
        <path id="Trazado_797699" data-name="Trazado 797699" d="M50.725,47.984v5.484L42.5,61.694l-8.226-8.226V47.984Z" fill="#f9e0a6"/>
        <path id="Trazado_797700" data-name="Trazado 797700" d="M34.666,68.548l5.092,5.484-2.742,9.6H47.983l-2.742-9.6,5.092-5.484L42.5,61.694Z" fill="#fb5968"/>
        <circle id="Elipse_4776" data-name="Elipse 4776" cx="24.677" cy="24.677" r="24.677" transform="translate(17.822 1.371)" fill="#92e0c0"/>
        <path id="Trazado_797701" data-name="Trazado 797701" d="M42.5,1.371c-.694,0-1.376.048-2.056.1a24.657,24.657,0,0,1,0,49.146c.68.056,1.363.1,2.056.1a24.677,24.677,0,1,0,0-49.355Z" fill="#48c397"/>
        <circle id="Elipse_4777" data-name="Elipse 4777" cx="2.742" cy="2.742" r="2.742" transform="translate(39.757 37.016)" fill="#ececec"/>
        <path id="Trazado_797702" data-name="Trazado 797702" d="M78.672,66.459A14.991,14.991,0,0,0,66.394,54.691L52.1,52.307V50.242a26.048,26.048,0,1,0-19.194,0v2.065L18.6,54.691A14.993,14.993,0,0,0,6.325,66.459L2.423,85H82.577Zm-2.683.565L79.2,82.258H71.146L69.91,71.14l-2.724.3,1.2,10.816H49.017l-2.27-7.948,3.2-4.275,4.165,3.644,5.765-17.3,6.062,1.01A12.264,12.264,0,0,1,75.989,67.024Zm-35.5-5.4L32.18,68.9,27.856,55.927l5.947-.991Zm10.7-6.69,5.947.991L52.819,68.9l-8.314-7.274ZM42.438,63.57l.062.062.062-.062,5.321,4.656-4.147,5.528,2.431,8.5H38.832l2.431-8.5-4.147-5.528ZM19.193,26.048A23.306,23.306,0,1,1,42.5,49.355,23.333,23.333,0,0,1,19.193,26.048ZM42.5,52.1a25.891,25.891,0,0,0,6.855-.946V52.9L42.5,59.755,35.644,52.9V51.151A25.891,25.891,0,0,0,42.5,52.1ZM9.009,67.024A12.266,12.266,0,0,1,19.056,57.4l6.062-1.01,5.765,17.3,4.165-3.644,3.2,4.275-2.27,7.946H16.611l1.2-10.817-2.724-.3-1.237,11.12H5.8Z"/>
        <path id="Trazado_797703" data-name="Trazado 797703" d="M41.814,10.968a4.8,4.8,0,0,1,4.8,4.8v.872a4.775,4.775,0,0,1-1.405,3.395L41.128,24.11v7.422H43.87V25.245l3.277-3.275a7.5,7.5,0,0,0,2.207-5.333v-.871a7.54,7.54,0,1,0-15.081,0v.685h2.742v-.685A4.8,4.8,0,0,1,41.814,10.968Z"/>
        <path id="Trazado_797704" data-name="Trazado 797704" d="M46.612,39.758A4.113,4.113,0,1,0,42.5,43.871,4.118,4.118,0,0,0,46.612,39.758Zm-5.484,0A1.371,1.371,0,1,1,42.5,41.129,1.372,1.372,0,0,1,41.128,39.758Z"/>
      </g>
    </g>
    <g id="Enmascarar_grupo_1059023" data-name="Enmascarar grupo 1059023" transform="translate(0 57)" clip-path="url(#clip-path-3)">
      <g id="conexion" transform="translate(863 2951)">
        <path id="Trazado_797705" data-name="Trazado 797705" d="M61.694,23.306A19.194,19.194,0,1,1,42.5,4.113,19.194,19.194,0,0,1,61.694,23.306Zm0,0" fill="#e6e9ed"/>
        <path id="Trazado_797706" data-name="Trazado 797706" d="M83.629,61.694A19.194,19.194,0,1,1,64.435,42.5,19.194,19.194,0,0,1,83.629,61.694Zm0,0" fill="#e6e9ed"/>
        <path id="Trazado_797707" data-name="Trazado 797707" d="M39.758,61.694A19.194,19.194,0,1,1,20.565,42.5,19.194,19.194,0,0,1,39.758,61.694Zm0,0" fill="#e6e9ed"/>
        <g id="Grupo_1064207" data-name="Grupo 1064207">
          <path id="Trazado_797708" data-name="Trazado 797708" d="M15.081,1.371a2.75,2.75,0,0,1,2.742,2.742,2.082,2.082,0,0,1-.041.411A2.682,2.682,0,0,1,16.1,6.649a2.535,2.535,0,0,1-1.015.206,2.706,2.706,0,0,1-1.6-.521,2.74,2.74,0,0,1,1.6-4.963Zm0,0" fill="#fcd770"/>
          <path id="Trazado_797709" data-name="Trazado 797709" d="M5.717,16.972a2.752,2.752,0,0,1,1.138,2.221,2.692,2.692,0,0,1-.11.754A2.745,2.745,0,0,1,4.812,21.84a2.333,2.333,0,0,1-.7.1,2.742,2.742,0,0,1,0-5.484,2.706,2.706,0,0,1,1.6.521Zm0,0" fill="#fcd770"/>
          <path id="Trazado_797710" data-name="Trazado 797710" d="M13.367,43.912a2.738,2.738,0,0,1-4.73,2.756,2.668,2.668,0,0,1-.411-1.426A2.748,2.748,0,0,1,10.269,42.6a2.333,2.333,0,0,1,.7-.1,2.609,2.609,0,0,1,1.412.4,2.7,2.7,0,0,1,.987,1.014Zm0,0" fill="#fcd770"/>
          <path id="Trazado_797711" data-name="Trazado 797711" d="M23.375,21.935a2.739,2.739,0,0,1,.37,5.443,2.262,2.262,0,0,1-.438.041,2.756,2.756,0,0,1-2.742-2.742,2.749,2.749,0,0,1,1.727-2.536,2.535,2.535,0,0,1,1.015-.206Zm0,0" fill="#fcd770"/>
          <path id="Trazado_797712" data-name="Trazado 797712" d="M35.3,5.525a2.738,2.738,0,0,1-4.73,2.756,2.668,2.668,0,0,1-.411-1.426,2.082,2.082,0,0,1,.041-.411,2.733,2.733,0,0,1,2.7-2.331,2.773,2.773,0,0,1,2.4,1.412Zm0,0" fill="#fcd770"/>
          <path id="Trazado_797713" data-name="Trazado 797713" d="M57.841,11.8a2.706,2.706,0,0,1-1.631.535A2.75,2.75,0,0,1,53.468,9.6,2.706,2.706,0,0,1,54,7.965a2.745,2.745,0,0,1,4.908,1.151,2.715,2.715,0,0,1,.041.48,2.756,2.756,0,0,1-.22,1.069,2.887,2.887,0,0,1-.891,1.138Zm0,0" fill="#fcd770"/>
          <path id="Trazado_797714" data-name="Trazado 797714" d="M78.213,4.716a2.926,2.926,0,0,1-.068-.6,2.742,2.742,0,1,1,2.742,2.742h-.055a2.755,2.755,0,0,1-2.619-2.139Zm0,0" fill="#fcd770"/>
          <path id="Trazado_797715" data-name="Trazado 797715" d="M80.627,16.465a1.613,1.613,0,0,1,.26-.013,2.742,2.742,0,1,1-2.166,4.415,2.661,2.661,0,0,1-.576-1.673,2.749,2.749,0,0,1,2.482-2.729Zm0,0" fill="#fcd770"/>
          <path id="Trazado_797716" data-name="Trazado 797716" d="M70.7,27.1a2.71,2.71,0,0,1,.59,1.686,2.742,2.742,0,1,1-2.742-2.742A2.7,2.7,0,0,1,70.7,27.1Zm0,0" fill="#fcd770"/>
          <path id="Trazado_797717" data-name="Trazado 797717" d="M78.543,48.71a2.744,2.744,0,0,1-4.511-2.1,2.647,2.647,0,0,1,.343-1.316,2.766,2.766,0,0,1,2.4-1.426,2.743,2.743,0,0,1,1.769,4.839Zm0,0" fill="#fcd770"/>
          <path id="Trazado_797718" data-name="Trazado 797718" d="M67.177,80.887a2.742,2.742,0,1,1-5.484,0,1.138,1.138,0,0,1,.013-.22,2.737,2.737,0,0,1,5.457,0,1.138,1.138,0,0,1,.013.22Zm0,0" fill="#fcd770"/>
          <path id="Trazado_797719" data-name="Trazado 797719" d="M41.636,78.3a2.6,2.6,0,0,1,.864-.151,2.783,2.783,0,1,1-.864.151Zm0,0" fill="#fcd770"/>
          <path id="Trazado_797720" data-name="Trazado 797720" d="M39.265,65.957a2.74,2.74,0,0,1,1.864,2.591,2.77,2.77,0,0,1-1.878,2.6,2.988,2.988,0,0,1-.864.137,2.829,2.829,0,0,1-1.083-.22,2.744,2.744,0,0,1,1.083-5.264,2.688,2.688,0,0,1,.878.151Zm0,0" fill="#fcd770"/>
        </g>
        <path id="Trazado_797721" data-name="Trazado 797721" d="M76.774,70.275v6.1a19.121,19.121,0,0,1-9.61,4.291,2.737,2.737,0,0,0-5.457,0,19.121,19.121,0,0,1-9.61-4.291v-6.1a4.109,4.109,0,0,1,2.989-3.948l6.608-1.892,2.742,2.742,2.742-2.742,6.608,1.892A4.109,4.109,0,0,1,76.774,70.275Zm0,0" fill="#b4dd7f"/>
        <path id="Trazado_797722" data-name="Trazado 797722" d="M67.177,60.953v3.482l-2.742,2.742-2.742-2.742V60.953a5.447,5.447,0,0,0,5.484,0Zm0,0" fill="#f0d0b4"/>
        <path id="Trazado_797723" data-name="Trazado 797723" d="M67.177,60.953a5.484,5.484,0,0,1-8.226-4.743V53.468a5.484,5.484,0,1,1,10.968,0V56.21a5.456,5.456,0,0,1-2.742,4.743Zm0,0" fill="#f0d0b4"/>
        <path id="Trazado_797724" data-name="Trazado 797724" d="M32.9,70.275v6.088a19.11,19.11,0,0,1-24.677.013v-6.1a4.109,4.109,0,0,1,2.989-3.948l6.608-1.892,2.742,2.742,2.742-2.742,6.608,1.892A4.109,4.109,0,0,1,32.9,70.275Zm0,0" fill="#69d6f4"/>
        <path id="Trazado_797725" data-name="Trazado 797725" d="M23.306,60.953v3.482l-2.742,2.742-2.742-2.742V60.953a5.447,5.447,0,0,0,5.484,0Zm0,0" fill="#f0d0b4"/>
        <path id="Trazado_797726" data-name="Trazado 797726" d="M23.306,60.953a5.484,5.484,0,0,1-8.226-4.743V53.468a5.484,5.484,0,1,1,10.968,0V56.21a5.456,5.456,0,0,1-2.742,4.743Zm0,0" fill="#f0d0b4"/>
        <path id="Trazado_797727" data-name="Trazado 797727" d="M54.839,31.888v6.1A19.155,19.155,0,0,1,30.161,38V31.888A4.109,4.109,0,0,1,33.15,27.94l6.608-1.892L42.5,28.79l2.742-2.742L51.85,27.94A4.109,4.109,0,0,1,54.839,31.888Zm0,0" fill="#ff826e"/>
        <path id="Trazado_797728" data-name="Trazado 797728" d="M45.242,22.566v3.482L42.5,28.79l-2.742-2.742V22.566a5.447,5.447,0,0,0,5.484,0Zm0,0" fill="#f0d0b4"/>
        <path id="Trazado_797729" data-name="Trazado 797729" d="M39.758,22.566a5.456,5.456,0,0,1-2.742-4.743V15.081a5.484,5.484,0,1,1,10.968,0v2.742a5.476,5.476,0,0,1-8.226,4.743Zm0,0" fill="#f0d0b4"/>
        <path id="Trazado_797730" data-name="Trazado 797730" d="M80.887,23.306a4.1,4.1,0,0,0,1.137-8.046L82.177,8a4.1,4.1,0,1,0-5.355-4.365L59.744,7.527a4.081,4.081,0,0,0-5.868-1.311A20.289,20.289,0,0,0,35.756,3.9,4.079,4.079,0,0,0,29.3,4.914L19.117,3.346a4.11,4.11,0,1,0-7.423,3.093l-6.42,8.83a4.028,4.028,0,0,0-1.161-.188,4.1,4.1,0,0,0-.345,8.192L8.655,41.845a4.018,4.018,0,0,0-1.648,4.446A20.537,20.537,0,1,0,37.966,72.619c.115.012.226.033.344.034l1.67,5.008a4.1,4.1,0,1,0,6.38,4.6H60.576a4.1,4.1,0,0,0,7.856-.433A20.475,20.475,0,0,0,80.307,48.683a4.065,4.065,0,0,0,.58-2.07A4.118,4.118,0,0,0,76.774,42.5c-.127,0-.247.026-.372.037L71.415,31.73a4.094,4.094,0,0,0,1.246-2.939,4.044,4.044,0,0,0-.226-1.287l6.241-4.853a4.075,4.075,0,0,0,2.211.657ZM79.435,7.947l-.157,7.463a4.1,4.1,0,0,0-1.489,1.109L61.1,10.029,77.422,6.308a4.116,4.116,0,0,0,2.014,1.639Zm1.452,12.617a1.371,1.371,0,1,1,1.371-1.371A1.373,1.373,0,0,1,80.887,20.565Zm0-17.823a1.371,1.371,0,1,1-1.371,1.371A1.373,1.373,0,0,1,80.887,2.742ZM56.21,8.226A1.371,1.371,0,1,1,54.839,9.6,1.373,1.373,0,0,1,56.21,8.226Zm-3.928.218A4.072,4.072,0,0,0,52.1,9.6,4.118,4.118,0,0,0,56.21,13.71a4.072,4.072,0,0,0,1.153-.185A17.716,17.716,0,0,1,56.21,34.679V31.893a5.51,5.51,0,0,0-3.977-5.274l-5.62-1.6V23.271a6.827,6.827,0,0,0,2.742-5.448V15.081a6.855,6.855,0,1,0-13.71,0v2.742a6.823,6.823,0,0,0,2.742,5.448v1.744l-5.62,1.6a5.507,5.507,0,0,0-3.977,5.274v2.745a17.683,17.683,0,0,1-3.408-6.43,4.095,4.095,0,0,0-.5-7.325,17.871,17.871,0,0,1,5.616-10.7,4.1,4.1,0,0,0,6.515-3.324,4.122,4.122,0,0,0-.048-.476A17.607,17.607,0,0,1,52.281,8.444ZM42.5,21.935a4.118,4.118,0,0,1-4.113-4.113V15.081a4.113,4.113,0,0,1,8.226,0v2.742A4.118,4.118,0,0,1,42.5,21.935Zm0,2.742a6.861,6.861,0,0,0,1.371-.139v.942L42.5,26.852l-1.371-1.371v-.942A6.861,6.861,0,0,0,42.5,24.677Zm-3.141,2.911L42.5,30.729l3.141-3.141,5.837,1.668a2.754,2.754,0,0,1,1.99,2.637v5.433a17.686,17.686,0,0,1-21.935-.017V31.893a2.754,2.754,0,0,1,1.988-2.637ZM10.968,43.871A1.371,1.371,0,1,1,9.6,45.242,1.373,1.373,0,0,1,10.968,43.871Zm.345-2.708L6.426,22.591a4.148,4.148,0,0,0,1.028-1.018L19.22,24.935a4.073,4.073,0,0,0,.926,2.342l-8.36,13.935a4.567,4.567,0,0,0-.473-.048ZM15.081,8.226c.056,0,.107-.013.162-.017L20.6,21.6a4.189,4.189,0,0,0-.636.693L8.2,18.935a4.08,4.08,0,0,0-.7-2.067l6.421-8.83a4.012,4.012,0,0,0,1.16.188Zm3.6-2.172L28.867,7.621c.017.1.049.187.075.282a20.621,20.621,0,0,0-6.477,10.98l-4.679-11.7a4.088,4.088,0,0,0,.9-1.133Zm4.623,17.252a1.371,1.371,0,1,1-1.371,1.371A1.373,1.373,0,0,1,23.306,23.307ZM32.9,5.484a1.371,1.371,0,1,1-1.371,1.371A1.373,1.373,0,0,1,32.9,5.484ZM15.081,2.742A1.371,1.371,0,1,1,13.71,4.113,1.373,1.373,0,0,1,15.081,2.742ZM2.742,19.194a1.371,1.371,0,1,1,1.371,1.371A1.373,1.373,0,0,1,2.742,19.194ZM9.6,75.713V70.28a2.754,2.754,0,0,1,1.988-2.637l5.839-1.668,3.141,3.141,3.141-3.141,5.837,1.668a2.754,2.754,0,0,1,1.99,2.637v5.446A17.741,17.741,0,0,1,9.6,75.713ZM20.565,60.323a4.118,4.118,0,0,1-4.113-4.113V53.468a4.113,4.113,0,1,1,8.226,0V56.21A4.118,4.118,0,0,1,20.565,60.323Zm0,2.742a6.861,6.861,0,0,0,1.371-.139v.942l-1.371,1.371-1.371-1.371v-.942A6.861,6.861,0,0,0,20.565,63.065Zm13.71,9.989V70.279A5.51,5.51,0,0,0,30.3,65l-5.62-1.6V61.658a6.827,6.827,0,0,0,2.742-5.448V53.468a6.855,6.855,0,1,0-13.71,0V56.21a6.823,6.823,0,0,0,2.742,5.448V63.4l-5.62,1.6A5.507,5.507,0,0,0,6.855,70.28v2.785a17.736,17.736,0,0,1,1.712-24.5,4.1,4.1,0,0,0,6.513-3.326,3.958,3.958,0,0,0-.047-.467,17.633,17.633,0,0,1,5.531-.9A17.843,17.843,0,0,1,38.387,61.694a17.488,17.488,0,0,1-.254,2.768,4.1,4.1,0,0,0-2.661,6.983,17.846,17.846,0,0,1-1.2,1.609Zm4.113-5.876a1.371,1.371,0,1,1-1.371,1.371A1.373,1.373,0,0,1,38.387,67.178ZM42.5,82.258a1.371,1.371,0,1,1,1.371-1.371A1.373,1.373,0,0,1,42.5,82.258ZM64.435,60.323a4.118,4.118,0,0,1-4.113-4.113V53.468a4.113,4.113,0,1,1,8.226,0V56.21A4.118,4.118,0,0,1,64.435,60.323Zm0,2.742a6.861,6.861,0,0,0,1.371-.139v.942l-1.371,1.371-1.371-1.371v-.942A6.861,6.861,0,0,0,64.435,63.065Zm-3.141,2.911,3.141,3.141,3.141-3.141,5.837,1.668A2.754,2.754,0,0,1,75.4,70.28v5.407A17.667,17.667,0,0,1,68.121,79.1a4.086,4.086,0,0,0-7.37,0,17.667,17.667,0,0,1-7.283-3.408V70.28a2.754,2.754,0,0,1,1.988-2.637Zm3.141,16.283a1.371,1.371,0,1,1,1.371-1.371A1.373,1.373,0,0,1,64.435,82.258Zm13.71-9.251V70.279A5.51,5.51,0,0,0,74.168,65l-5.62-1.6V61.658A6.827,6.827,0,0,0,71.29,56.21V53.468a6.855,6.855,0,1,0-13.71,0V56.21a6.823,6.823,0,0,0,2.742,5.448V63.4l-5.62,1.6a5.507,5.507,0,0,0-3.977,5.274v2.728a17.775,17.775,0,0,1,22-27.063,4.045,4.045,0,0,0,4.046,4.78,4.056,4.056,0,0,0,1.441-.274,17.633,17.633,0,0,1-.07,22.555Zm0-26.394a1.371,1.371,0,1,1-1.371-1.371A1.373,1.373,0,0,1,78.145,46.613ZM73.78,43.4A20.533,20.533,0,0,0,54.256,79.516h-7.9a4.1,4.1,0,0,0-3.784-2.734l-1.67-5.008a4.075,4.075,0,0,0-.125-6.556A20.492,20.492,0,0,0,14.471,42.07l8.017-13.362c.065.014.135.009.2.021a20.551,20.551,0,0,0,40.378-5.422,20.321,20.321,0,0,0-3.074-10.769l16.8,6.533c0,.041-.012.081-.012.123A4.044,4.044,0,0,0,77,20.481l-6.241,4.853a4.075,4.075,0,0,0-2.211-.657,4.113,4.113,0,0,0,0,8.226c.127,0,.247-.026.37-.037ZM68.548,30.161a1.371,1.371,0,1,1,1.371-1.371A1.373,1.373,0,0,1,68.548,30.161Zm0,0"/>
      </g>
    </g>
    <g id="Enmascarar_grupo_1059024" data-name="Enmascarar grupo 1059024" transform="translate(0 57)" clip-path="url(#clip-path-4)">
      <g id="poste-indicador" transform="translate(1027.296 2951)">
        <path id="Trazado_797731" data-name="Trazado 797731" d="M45,83.755H25.41v-4.4A3.155,3.155,0,0,1,28.564,76.2H41.845A3.155,3.155,0,0,1,45,79.355Zm0,0" fill="#544f56"/>
        <path id="Trazado_797732" data-name="Trazado 797732" d="M41.845,76.2H37.2a3.155,3.155,0,0,1,3.154,3.154v4.4H45v-4.4A3.155,3.155,0,0,0,41.845,76.2Zm0,0" fill="#444145"/>
        <path id="Trazado_797733" data-name="Trazado 797733" d="M31.275,58.825h7.858V76.2H31.275Zm0,0" fill="#828282"/>
        <path id="Trazado_797734" data-name="Trazado 797734" d="M35.672,58.825h3.462V76.2H35.672Zm0,0" fill="#5a5a5a"/>
        <path id="Trazado_797735" data-name="Trazado 797735" d="M31.275,28.917h7.858v7.958H31.275Zm0,0" fill="#828282"/>
        <path id="Trazado_797736" data-name="Trazado 797736" d="M35.672,28.917h3.462v7.958H35.672Zm0,0" fill="#5a5a5a"/>
        <path id="Trazado_797737" data-name="Trazado 797737" d="M39.134,6.983H31.275V4.707a3.462,3.462,0,0,1,3.462-3.462h.935a3.462,3.462,0,0,1,3.462,3.462Zm0,0" fill="#828282"/>
        <path id="Trazado_797738" data-name="Trazado 797738" d="M35.672,1.245V6.983h3.462V4.707A3.462,3.462,0,0,0,35.672,1.245Zm0,0" fill="#5a5a5a"/>
        <path id="Trazado_797739" data-name="Trazado 797739" d="M58.506,28.917H5.408c-2.3,0-4.163-1.563-4.163-3.491V10.474c0-1.928,1.864-3.491,4.163-3.491H58.5a4.465,4.465,0,0,1,3.366,1.436l6.495,7.476a3.045,3.045,0,0,1,0,4.11l-6.495,7.477a4.461,4.461,0,0,1-3.365,1.436Zm0,0" fill="#e5646e"/>
        <path id="Trazado_797740" data-name="Trazado 797740" d="M68.365,15.9,61.871,8.419a4.464,4.464,0,0,0-3.365-1.436h-7.3a4.465,4.465,0,0,1,3.365,1.436L61.07,15.9a3.045,3.045,0,0,1,0,4.11l-6.495,7.476a4.465,4.465,0,0,1-3.365,1.436h7.3a4.464,4.464,0,0,0,3.365-1.436l6.495-7.476a3.045,3.045,0,0,0,0-4.11Zm0,0" fill="#e04955"/>
        <path id="Trazado_797741" data-name="Trazado 797741" d="M11.9,58.825H65c2.3,0,4.163-1.563,4.163-3.49V40.381c0-1.927-1.864-3.49-4.163-3.49H11.9a4.466,4.466,0,0,0-3.365,1.435L2.043,45.8a3.045,3.045,0,0,0,0,4.11l6.495,7.477A4.462,4.462,0,0,0,11.9,58.825Zm0,0" fill="#69b482"/>
        <path id="Trazado_797742" data-name="Trazado 797742" d="M65,36.89H59.024c2.3,0,4.163,1.563,4.163,3.491V55.334c0,1.928-1.864,3.491-4.163,3.491H65c2.3,0,4.163-1.563,4.163-3.491V40.381C69.164,38.453,67.3,36.89,65,36.89Zm0,0" fill="#489160"/>
        <path id="Trazado_797743" data-name="Trazado 797743" d="M65,35.645H40.379V30.162H58.506A5.738,5.738,0,0,0,62.811,28.3l6.495-7.476a4.294,4.294,0,0,0,0-5.744L62.811,7.6a5.738,5.738,0,0,0-4.305-1.864H40.379V4.707A4.712,4.712,0,0,0,35.672,0h-.935A4.712,4.712,0,0,0,30.03,4.707V5.738H18.52a1.245,1.245,0,1,0,0,2.49H58.5A3.219,3.219,0,0,1,60.93,9.235l6.495,7.477a1.809,1.809,0,0,1,0,2.477L60.93,26.665A3.222,3.222,0,0,1,58.5,27.672H5.408c-1.609,0-2.918-1.007-2.918-2.246V10.474c0-1.239,1.309-2.246,2.918-2.246h8.463a1.245,1.245,0,1,0,0-2.49H5.408C2.426,5.738,0,7.862,0,10.474V25.427c0,2.611,2.426,4.735,5.408,4.735H30.03v5.483H11.9A5.738,5.738,0,0,0,7.6,37.51L1.1,44.986a4.293,4.293,0,0,0,0,5.743L7.6,58.206A5.738,5.738,0,0,0,11.9,60.07H30.03V74.956H28.564a4.4,4.4,0,0,0-4.4,4.4v4.4A1.245,1.245,0,0,0,25.41,85H32.88a1.245,1.245,0,1,0,0-2.49H26.655V79.355a1.912,1.912,0,0,1,1.909-1.909H41.845a1.912,1.912,0,0,1,1.909,1.909V82.51H37.529a1.245,1.245,0,1,0,0,2.49H45a1.245,1.245,0,0,0,1.245-1.245v-4.4a4.4,4.4,0,0,0-4.4-4.4H40.379V60.07H65c2.982,0,5.408-2.124,5.408-4.735V40.381c0-2.611-2.427-4.735-5.408-4.735ZM32.52,4.707A2.219,2.219,0,0,1,34.737,2.49h.935a2.219,2.219,0,0,1,2.217,2.217V5.738H32.52Zm5.368,25.455V35.63H32.52V30.162Zm0,44.794H32.52V60.07h5.368Zm30.03-19.622c0,1.238-1.309,2.246-2.918,2.246H11.9a3.221,3.221,0,0,1-2.425-1.007L2.983,49.1a1.81,1.81,0,0,1,0-2.477l6.5-7.477A3.22,3.22,0,0,1,11.9,38.136H65c1.609,0,2.918,1.007,2.918,2.245Zm0,0"/>
      </g>
    </g>
  </g>
</svg>
