<svg xmlns="http://www.w3.org/2000/svg" xmlns:xlink="http://www.w3.org/1999/xlink" width="70" height="70" viewBox="0 0 70 70">
  <defs>
    <clipPath id="clip-path">
      <rect id="Rectángulo_373615" data-name="Rectángulo 373615" width="56" height="56" transform="translate(202 2280)" fill="#fff"/>
    </clipPath>
  </defs>
  <g id="Grupo_1064839" data-name="Grupo 1064839" transform="translate(-195 -2273)">
    <circle id="Elipse_4768" data-name="Elipse 4768" cx="35" cy="35" r="35" transform="translate(195 2273)" fill="#94e435"/>
    <g id="Enmascarar_grupo_1059025" data-name="Enmascarar grupo 1059025" clip-path="url(#clip-path)">
      <g id="sem" transform="translate(202 2279.95)">
        <path id="Trazado_797744" data-name="Trazado 797744" d="M55.18,3.505v49.09a2.63,2.63,0,0,1-2.631,2.63H3.451a2.63,2.63,0,0,1-2.63-2.63V3.505A2.629,2.629,0,0,1,3.451.875h49.1a2.63,2.63,0,0,1,2.631,2.63Zm0,0" fill="#e5f4ff"/>
        <g id="Grupo_1064210" data-name="Grupo 1064210">
          <path id="Trazado_797745" data-name="Trazado 797745" d="M40.972,13.366H28.321a16.436,16.436,0,0,1,12.651,0Zm0,0" fill="#c4daec"/>
          <path id="Trazado_797746" data-name="Trazado 797746" d="M55.18,39.853V51.294a6.1,6.1,0,0,1-7.575-.836l-4.911-4.909A3.945,3.945,0,0,1,41.556,43.2a16.416,16.416,0,0,1-14.127-.15h9.014a.531.531,0,0,0,.531-.531V35.836a.531.531,0,0,0-.531-.53H19.85a16.051,16.051,0,0,1-1.165-3.489H36.368a.607.607,0,0,0,.606-.606V22.34a.607.607,0,0,0-.606-.606H19.752a16.186,16.186,0,0,1,2.581-4.025H46.959a16.369,16.369,0,0,1,2.47,17.611,3.943,3.943,0,0,1,2.357,1.139Zm0,0" fill="#c4daec"/>
          <path id="Trazado_797747" data-name="Trazado 797747" d="M55.18,3.505V9.342H.82V3.505A2.63,2.63,0,0,1,3.451.875h49.1a2.63,2.63,0,0,1,2.631,2.63Zm0,0" fill="#c4daec"/>
        </g>
        <path id="Trazado_797748" data-name="Trazado 797748" d="M3.451.875H14.038A2.218,2.218,0,0,0,11.822,3.1a2.218,2.218,0,0,1-2.216,2.22H.82V3.505A2.63,2.63,0,0,1,3.451.875Zm0,0" fill="#83a7c5"/>
        <path id="Trazado_797749" data-name="Trazado 797749" d="M55.18,3.505V5.316h-28.5A2.218,2.218,0,0,1,24.462,3.1,2.218,2.218,0,0,0,22.246.875h30.3a2.63,2.63,0,0,1,2.631,2.63Zm0,0" fill="#83a7c5"/>
        <path id="Trazado_797750" data-name="Trazado 797750" d="M41.988,17.709H22.333q.373-.427.777-.831a16.283,16.283,0,0,1,5.212-3.511H40.972q.406.17.8.363V17.5a.214.214,0,0,0,.214.214Zm0,0" fill="#e5f4ff"/>
        <path id="Trazado_797751" data-name="Trazado 797751" d="M28.321,13.366a16.291,16.291,0,0,0-5.212,3.511q-.4.4-.777.832H5.184a.476.476,0,0,1-.475-.476v-3.39a.476.476,0,0,1,.475-.476Zm0,0" fill="#fff"/>
        <path id="Trazado_797752" data-name="Trazado 797752" d="M50.941,13.843v3.39a.476.476,0,0,1-.476.476H46.959q-.372-.427-.776-.831a16.264,16.264,0,0,0-5.212-3.511h9.493a.476.476,0,0,1,.476.476Zm0,0" fill="#fff"/>
        <path id="Trazado_797753" data-name="Trazado 797753" d="M36.974,22.34v8.87a.607.607,0,0,1-.606.606H18.685A16.578,16.578,0,0,1,18.5,26.07l.362-1.8a16.047,16.047,0,0,1,.893-2.537H36.368a.607.607,0,0,1,.606.606Zm0,0" fill="#83a7c5"/>
        <path id="Trazado_797754" data-name="Trazado 797754" d="M18.332,28.413a16.491,16.491,0,0,0,.353,3.4H5.314a.605.605,0,0,1-.6-.606V22.34a.606.606,0,0,1,.6-.606H19.752a16.268,16.268,0,0,0-1.42,6.679Zm0,0" fill="#a3c0d9"/>
        <path id="Trazado_797755" data-name="Trazado 797755" d="M36.974,35.836V42.52a.531.531,0,0,1-.531.531H27.429a16.362,16.362,0,0,1-4.186-2.973l-1.593-1.8a16.166,16.166,0,0,1-1.8-2.973H36.443a.531.531,0,0,1,.531.53Zm0,0" fill="#83a7c5"/>
        <path id="Trazado_797756" data-name="Trazado 797756" d="M27.429,43.051H5.239a.531.531,0,0,1-.53-.531V35.836a.53.53,0,0,1,.53-.53H19.85a16.462,16.462,0,0,0,7.579,7.746Zm0,0" fill="#a3c0d9"/>
        <path id="Trazado_797757" data-name="Trazado 797757" d="M36.412,55.225H5.27a.562.562,0,0,1-.562-.562V47.1a.562.562,0,0,1,.562-.562H36.412a.562.562,0,0,1,.562.562v7.56A.562.562,0,0,1,36.412,55.225Zm0,0" fill="#a3c0d9"/>
        <path id="Trazado_797758" data-name="Trazado 797758" d="M46.959,17.709H41.988a.214.214,0,0,1-.214-.214V13.73a16.307,16.307,0,0,1,4.41,3.148q.4.4.775.831Zm0,0" fill="#407bff"/>
        <path id="Trazado_797759" data-name="Trazado 797759" d="M51.116,13.581V17.5a.214.214,0,0,1-.214.214H46.959q-.371-.427-.775-.832a16.315,16.315,0,0,0-4.41-3.148v-.149a.214.214,0,0,1,.214-.214H50.9a.214.214,0,0,1,.214.214Zm0,0" fill="#6193ff"/>
        <path id="Trazado_797760" data-name="Trazado 797760" d="M54.362,47.649l-.476.476a2.791,2.791,0,0,1-3.947,0l-4.911-4.91a.676.676,0,0,1,0-.956L48.5,38.792a.676.676,0,0,1,.956,0l4.91,4.909A2.791,2.791,0,0,1,54.362,47.649Zm0,0" fill="#ff6969"/>
        <path id="Trazado_797761" data-name="Trazado 797761" d="M39.333,35.465,41.7,33.1l6.245,6.247-2.365,2.364Zm0,0" fill="#628db2"/>
        <path id="Trazado_797762" data-name="Trazado 797762" d="M46.762,28.413A12.115,12.115,0,1,0,34.647,40.526,12.114,12.114,0,0,0,46.762,28.413Zm0,0" fill="#e5f4ff"/>
        <path id="Trazado_797763" data-name="Trazado 797763" d="M52.55.055H3.45A3.454,3.454,0,0,0,0,3.505v49.09a3.454,3.454,0,0,0,3.45,3.45h49.1A3.454,3.454,0,0,0,56,52.595V3.505A3.454,3.454,0,0,0,52.55.055Zm-30.3,1.64a1.4,1.4,0,0,1,1.4,1.4,3.042,3.042,0,0,0,3.036,3.041H45.447a.82.82,0,1,0,0-1.64H26.678a1.4,1.4,0,0,1-1.4-1.4,3.027,3.027,0,0,0-.343-1.4H52.55a1.812,1.812,0,0,1,1.81,1.81V4.5h-4.9a.82.82,0,1,0,0,1.64h4.9V8.521H1.64V6.137H9.606A3.042,3.042,0,0,0,12.642,3.1a1.4,1.4,0,0,1,1.4-1.4Zm-18.8,0h7.894A3.021,3.021,0,0,0,11,3.1a1.4,1.4,0,0,1-1.4,1.4H1.64V3.505a1.812,1.812,0,0,1,1.81-1.81Zm49.1,52.71H5.528V47.361H36.151l-.035,4.415a.82.82,0,0,0,.813.827h.007a.82.82,0,0,0,.82-.813l.038-4.686a1.384,1.384,0,0,0-1.383-1.383H5.27A1.384,1.384,0,0,0,3.888,47.1v7.3H3.45a1.812,1.812,0,0,1-1.81-1.81V10.162H54.359V42.539l-4.328-4.327a1.494,1.494,0,0,0-2.086-.027l-2.559-2.559a12.939,12.939,0,0,0-1.594-16.359q-.39-.39-.8-.738H50.9A1.035,1.035,0,0,0,51.936,17.5V13.58A1.035,1.035,0,0,0,50.9,12.546H5.184a1.3,1.3,0,0,0-1.3,1.3v3.39a1.3,1.3,0,0,0,1.3,1.3H26.3q-.413.349-.8.738a13.1,13.1,0,0,0-1.4,1.646H5.314A1.427,1.427,0,0,0,3.888,22.34v8.87a1.428,1.428,0,0,0,1.425,1.426h17.1a12.752,12.752,0,0,0,.8,1.849H5.239a1.352,1.352,0,0,0-1.351,1.351V42.52a1.353,1.353,0,0,0,1.351,1.351h31.2a1.353,1.353,0,0,0,1.351-1.351V40.953a12.851,12.851,0,0,0,4.066-1.8l2.561,2.56a1.493,1.493,0,0,0,.027,2.086L49.359,48.7a3.615,3.615,0,0,0,5,.1v3.789a1.812,1.812,0,0,1-1.81,1.81ZM22.359,24.35H8.2a.82.82,0,1,0,0,1.641H21.937A13.109,13.109,0,0,0,21.968,31H5.529V22.554h17.58a12.711,12.711,0,0,0-.749,1.8ZM25.5,37.558q.424.424.878.8H8.2A.82.82,0,0,0,8.2,40H28.9a12.987,12.987,0,0,0,7.257,1.253v.979H5.528V36.125H24.261A13.107,13.107,0,0,0,25.5,37.558Zm1.16-1.16a11.479,11.479,0,0,1-1.292-1.542l-.015-.021a11.148,11.148,0,0,1-1.533-3.187.821.821,0,0,0-.031-.108,11.4,11.4,0,0,1-.042-6.1.812.812,0,0,0,.028-.1,11.156,11.156,0,0,1,1.44-3.139l0,0a11.42,11.42,0,0,1,1.442-1.762A11.295,11.295,0,0,1,43.682,35.192c-.007.008-.013.017-.02.026a11.493,11.493,0,0,1-1.029,1.18,11.31,11.31,0,0,1-15.974,0ZM42.594,14.187h7.527v2.7H42.594Zm-1.64,2.7H40.52a13,13,0,0,0-11.746,0H5.529v-2.7H40.954Zm2.839,20.669q.3-.3.583-.623l2.408,2.408-.266.265-.94.94L43.17,38.14Q43.489,37.861,43.793,37.558ZM46.152,42.3l.008-.007,1.451-1.451,1.363-1.362,4.809,4.807a1.971,1.971,0,0,1,0,2.787l-.477.476a1.973,1.973,0,0,1-2.787,0L45.71,42.737Zm0,0"/>
        <path id="Trazado_797764" data-name="Trazado 797764" d="M8.2,29.2h3.635a.82.82,0,0,0,0-1.64H8.2a.82.82,0,1,0,0,1.64Zm0,0"/>
        <path id="Trazado_797765" data-name="Trazado 797765" d="M33.485,50.063H8.2a.82.82,0,1,0,0,1.64H33.485a.82.82,0,1,0,0-1.64Zm0,0"/>
        <path id="Trazado_797766" data-name="Trazado 797766" d="M29.985,28.106a6.325,6.325,0,0,0-.809-.5,8.157,8.157,0,0,0-.809-.37,2.275,2.275,0,0,1-.619-.344.571.571,0,0,1-.249-.444.54.54,0,0,1,.264-.45,1.389,1.389,0,0,1,.793-.185,2.045,2.045,0,0,1,.91.2,1.728,1.728,0,0,0,.54.2.536.536,0,0,0,.482-.3,1.157,1.157,0,0,0,.174-.581.642.642,0,0,0-.238-.5,1.447,1.447,0,0,0-.614-.3,5.231,5.231,0,0,0-.677-.125,5.353,5.353,0,0,0-.576-.033,3.255,3.255,0,0,0-1.914.555,1.911,1.911,0,0,0-.793,1.677,2.031,2.031,0,0,0,.344,1.185,2.418,2.418,0,0,0,.841.767q.5.27.989.487a4.058,4.058,0,0,1,.836.481.766.766,0,0,1,.344.614.566.566,0,0,1-.307.524,1.428,1.428,0,0,1-.719.175,1.555,1.555,0,0,1-.624-.128,1.575,1.575,0,0,1-.46-.285,2.538,2.538,0,0,0-.36-.284.664.664,0,0,0-.354-.129.62.62,0,0,0-.5.3,1,1,0,0,0-.217.592q0,.529.762.952a3.625,3.625,0,0,0,1.788.423,2.9,2.9,0,0,0,1.914-.608,2.088,2.088,0,0,0,.73-1.7,2.413,2.413,0,0,0-.249-1.111,2.1,2.1,0,0,0-.62-.756Zm0,0"/>
        <path id="Trazado_797767" data-name="Trazado 797767" d="M36.152,25.88a.41.41,0,0,0,.365-.212,1.059,1.059,0,0,0,.006-1.016.407.407,0,0,0-.37-.211H32.386a.939.939,0,0,0-.508.132.419.419,0,0,0-.212.376v6.718a.418.418,0,0,0,.212.376.936.936,0,0,0,.508.132h3.766a.407.407,0,0,0,.37-.211,1.059,1.059,0,0,0-.006-1.016.41.41,0,0,0-.365-.212H33.317v-1.8H34.9a.417.417,0,0,0,.37-.191.763.763,0,0,0,.127-.434.778.778,0,0,0-.132-.455.421.421,0,0,0-.365-.191H33.317V25.88Zm0,0"/>
        <path id="Trazado_797768" data-name="Trazado 797768" d="M43.515,32.042a.411.411,0,0,0,.243-.376v-6.4a.772.772,0,0,0-.238-.624.878.878,0,0,0-.587-.2,1.483,1.483,0,0,0-.725.143,1.84,1.84,0,0,0-.555.683l-1.089,1.9-1.09-1.9a1.844,1.844,0,0,0-.555-.683,1.483,1.483,0,0,0-.725-.143.879.879,0,0,0-.587.2.772.772,0,0,0-.238.624v6.4a.41.41,0,0,0,.244.376,1.348,1.348,0,0,0,1.163,0,.412.412,0,0,0,.244-.376V27.593l1,1.841a.54.54,0,0,0,.518.307.594.594,0,0,0,.55-.307L42.108,27.7v3.967a.411.411,0,0,0,.244.376,1.347,1.347,0,0,0,1.164,0Zm0,0"/>
      </g>
    </g>
  </g>
</svg>
