<svg xmlns="http://www.w3.org/2000/svg" xmlns:xlink="http://www.w3.org/1999/xlink" width="70" height="70" viewBox="0 0 70 70">
  <defs>
    <clipPath id="clip-path">
      <rect id="Rectángulo_373666" data-name="Rectángulo 373666" width="56" height="56" transform="translate(520 2280)" fill="#fff"/>
    </clipPath>
    <clipPath id="clip-path-2">
      <path id="path7857" d="M0-56H56V0H0Z"/>
    </clipPath>
  </defs>
  <g id="Grupo_1064840" data-name="Grupo 1064840" transform="translate(-1199 9427)">
    <circle id="Elipse_4782" data-name="Elipse 4782" cx="35" cy="35" r="35" transform="translate(1199 -9427)" fill="#94e435"/>
    <g id="Enmascarar_grupo_1059031" data-name="Enmascarar grupo 1059031" transform="translate(686 -11700)" clip-path="url(#clip-path)">
      <g id="g7851" transform="translate(520 2336)">
        <g id="g7853">
          <g id="g7855" clip-path="url(#clip-path-2)">
            <g id="g7861" transform="translate(10.875 -17.835)">
              <path id="path7863" d="M0,0H-2.21V-5.745H1.1V-1.1A1.1,1.1,0,0,1,0,0" fill="#528fd8"/>
            </g>
            <g id="g7865" transform="translate(7.781 -14.742)">
              <path id="path7867" d="M0,0H-1.65a.884.884,0,0,1-.877-.774L-3.536-8.839H.884V-.884A.884.884,0,0,1,0,0" fill="#7bacdf"/>
            </g>
            <g id="g7869" transform="translate(22.918 -16.951)">
              <path id="path7871" d="M0,0-14.588-5.21a1.326,1.326,0,0,1-.88-1.249v-9.18a1.326,1.326,0,0,1,.88-1.249L0-22.1Z" fill="#dff6fd"/>
            </g>
            <g id="g7873" transform="translate(17.889 -27.127)">
              <path id="path7875" d="M0,0A21.13,21.13,0,0,1-8.556,5.324L5.029,10.175V-7.683A21.532,21.532,0,0,1,0,0" fill="#c8effe"/>
            </g>
            <g id="g7877" transform="translate(7.45 -23.581)">
              <path id="path7879" d="M0,0H-4.42a2.21,2.21,0,0,1-2.21-2.21v-4.42a2.21,2.21,0,0,1,2.21-2.21H0Z" fill="#fe93bb"/>
            </g>
            <g id="g7881" transform="translate(26.232 -32.419)">
              <path id="path7883" d="M0,0H1.1a2.21,2.21,0,0,1,2.21,2.21v4.42A2.21,2.21,0,0,1,1.1,8.839H0Z" fill="#528fd8"/>
            </g>
            <path id="path7885" d="M4.8-23.58H7.45v-8.839H4.8Z" fill="#fe76a8"/>
            <g id="g7887" transform="translate(25.348 -14.742)">
              <path id="path7889" d="M0,0H-1.547a.884.884,0,0,1-.884-.884V-25.633a.884.884,0,0,1,.884-.884H0a.884.884,0,0,1,.884.884V-.884A.884.884,0,0,1,0,0" fill="#fe93bb"/>
            </g>
            <g id="g7891" transform="translate(45.236 -46.77)">
              <path id="path7893" d="M0,0A8.41,8.41,0,0,1-8.41,8.41,8.41,8.41,0,0,1-16.819,0,8.41,8.41,0,0,1-8.41-8.41,8.41,8.41,0,0,1,0,0" fill="#dff6fd"/>
            </g>
            <g id="g7895" transform="translate(39.158 -49.468)">
              <path id="path7897" d="M0,0A2.331,2.331,0,0,1-2.331,2.331,2.331,2.331,0,0,1-4.663,0,2.331,2.331,0,0,1-2.331-2.331,2.331,2.331,0,0,1,0,0" fill="#fed2a4"/>
            </g>
            <g id="g7899" transform="translate(40.105 -43.202)">
              <path id="path7901" d="M0,0H-6.557a.729.729,0,0,1-.729-.729V-1.6A2.332,2.332,0,0,1-4.954-3.934H-1.6A2.331,2.331,0,0,1,.729-1.6v.874A.729.729,0,0,1,0,0" fill="#bbec6c"/>
            </g>
            <g id="g7903" transform="translate(38.502 -47.136)">
              <path id="path7905" d="M0,0H-2.652A2.331,2.331,0,0,1-.32,2.331v.874a.729.729,0,0,1-.729.729H1.6a.729.729,0,0,0,.729-.729V2.331A2.331,2.331,0,0,0,0,0" fill="#a2e62e"/>
            </g>
            <g id="g7907" transform="translate(55.18 -28)">
              <path id="path7909" d="M0,0A8.41,8.41,0,0,1-8.41,8.41,8.41,8.41,0,0,1-16.819,0,8.41,8.41,0,0,1-8.41-8.41,8.41,8.41,0,0,1,0,0" fill="#dff6fd"/>
            </g>
            <g id="g7911" transform="translate(49.101 -30.698)">
              <path id="path7913" d="M0,0A2.331,2.331,0,0,1-2.331,2.331,2.331,2.331,0,0,1-4.663,0,2.331,2.331,0,0,1-2.331-2.331,2.331,2.331,0,0,1,0,0" fill="#fed2a4"/>
            </g>
            <g id="g7915" transform="translate(50.049 -24.432)">
              <path id="path7917" d="M0,0H-6.557a.729.729,0,0,1-.729-.729V-1.6A2.332,2.332,0,0,1-4.954-3.934H-1.6A2.331,2.331,0,0,1,.729-1.6v.874A.729.729,0,0,1,0,0" fill="#ffe177"/>
            </g>
            <g id="g7919" transform="translate(48.446 -28.366)">
              <path id="path7921" d="M0,0H-2.652A2.331,2.331,0,0,1-.32,2.331v.874a.729.729,0,0,1-.729.729H1.6a.729.729,0,0,0,.729-.729V2.331A2.331,2.331,0,0,0,0,0" fill="#ffd15b"/>
            </g>
            <g id="g7923" transform="translate(45.236 -9.23)">
              <path id="path7925" d="M0,0A8.41,8.41,0,0,1-8.41,8.41,8.41,8.41,0,0,1-16.819,0,8.41,8.41,0,0,1-8.41-8.41,8.41,8.41,0,0,1,0,0" fill="#dff6fd"/>
            </g>
            <g id="g7927" transform="translate(39.158 -11.928)">
              <path id="path7929" d="M0,0A2.331,2.331,0,0,1-2.331,2.331,2.331,2.331,0,0,1-4.663,0,2.331,2.331,0,0,1-2.331-2.331,2.331,2.331,0,0,1,0,0" fill="#fed2a4"/>
            </g>
            <g id="g7931" transform="translate(40.105 -5.662)">
              <path id="path7933" d="M0,0H-6.557a.729.729,0,0,1-.729-.729V-1.6A2.332,2.332,0,0,1-4.954-3.934H-1.6A2.331,2.331,0,0,1,.729-1.6v.874A.729.729,0,0,1,0,0" fill="#fe93bb"/>
            </g>
            <g id="g7935" transform="translate(38.502 -9.596)">
              <path id="path7937" d="M0,0H-2.652A2.331,2.331,0,0,1-.32,2.331v.874a.729.729,0,0,1-.729.729H1.6a.729.729,0,0,0,.729-.729V2.331A2.331,2.331,0,0,0,0,0" fill="#fe76a8"/>
            </g>
            <g id="g7939" transform="translate(11.979 -20.747)">
              <path id="path7941" d="M0,0V1.807a1.1,1.1,0,0,1-1.1,1.1h-2.21" fill="none" stroke="#000" stroke-linecap="round" stroke-linejoin="round" stroke-miterlimit="10" stroke-width="1.641"/>
            </g>
            <g id="g7943" transform="translate(8.665 -21.992)">
              <path id="path7945" d="M0,0V6.367a.884.884,0,0,1-.884.884H-2.535a.884.884,0,0,1-.877-.775L-4.419-1.588" fill="none" stroke="#000" stroke-linecap="round" stroke-linejoin="round" stroke-miterlimit="10" stroke-width="1.641"/>
            </g>
            <g id="g7947" transform="translate(26.232 -32.419)">
              <path id="path7949" d="M0,0H1.1a2.21,2.21,0,0,1,2.21,2.21v4.42A2.21,2.21,0,0,1,1.1,8.839H0" fill="none" stroke="#000" stroke-linecap="round" stroke-linejoin="round" stroke-miterlimit="10" stroke-width="1.641"/>
            </g>
            <g id="g7951" transform="translate(7.45 -23.581)">
              <path id="path7953" d="M0,0H-4.42a2.21,2.21,0,0,1-2.21-2.21v-4.42a2.21,2.21,0,0,1,2.21-2.21H0" fill="none" stroke="#000" stroke-linecap="round" stroke-linejoin="round" stroke-miterlimit="10" stroke-width="1.641"/>
            </g>
            <g id="g7955" transform="translate(2.588 -26.343)">
              <path id="path7957" d="M0,0H-1.768" fill="none" stroke="#000" stroke-linecap="round" stroke-linejoin="round" stroke-miterlimit="10" stroke-width="1.641"/>
            </g>
            <g id="g7959" transform="translate(0.82 -29.657)">
              <path id="path7961" d="M0,0H1.768" fill="none" stroke="#000" stroke-linecap="round" stroke-linejoin="round" stroke-miterlimit="10" stroke-width="1.641"/>
            </g>
            <g id="g7963" transform="translate(22.918 -16.951)">
              <path id="path7965" d="M0,0-14.588-5.21a1.326,1.326,0,0,1-.88-1.249v-9.18a1.326,1.326,0,0,1,.88-1.249L0-22.1" fill="none" stroke="#000" stroke-linecap="round" stroke-linejoin="round" stroke-miterlimit="10" stroke-width="1.641"/>
            </g>
            <g id="g7967" transform="translate(22.917 -32.067)">
              <path id="path7969" d="M0,0V16.441a.884.884,0,0,0,.884.884H2.431a.884.884,0,0,0,.884-.884V-8.308a.884.884,0,0,0-.884-.884H.884A.884.884,0,0,0,0-8.308v4.48" fill="none" stroke="#000" stroke-linecap="round" stroke-linejoin="round" stroke-miterlimit="10" stroke-width="1.641"/>
            </g>
            <g id="g7971" transform="translate(44.196 -50.824)">
              <path id="path7973" d="M0,0A8.373,8.373,0,0,1,1.04,4.055a8.411,8.411,0,0,1-8.41,8.41,8.41,8.41,0,0,1-8.41-8.41,8.409,8.409,0,0,1,8.41-8.41A8.367,8.367,0,0,1-2.54-2.831" fill="none" stroke="#000" stroke-linecap="round" stroke-linejoin="round" stroke-miterlimit="10" stroke-width="1.641"/>
            </g>
            <g id="g7975" transform="translate(39.158 -49.468)">
              <path id="path7977" d="M0,0A2.331,2.331,0,0,1-2.331,2.331,2.331,2.331,0,0,1-4.663,0,2.331,2.331,0,0,1-2.331-2.331,2.331,2.331,0,0,1,0,0Z" fill="none" stroke="#000" stroke-linecap="round" stroke-linejoin="round" stroke-miterlimit="10" stroke-width="1.641"/>
            </g>
            <g id="g7979" transform="translate(40.105 -43.202)">
              <path id="path7981" d="M0,0H-6.557a.729.729,0,0,1-.729-.729V-1.6A2.332,2.332,0,0,1-4.954-3.934H-1.6A2.331,2.331,0,0,1,.729-1.6v.874A.729.729,0,0,1,0,0Z" fill="none" stroke="#000" stroke-linecap="round" stroke-linejoin="round" stroke-miterlimit="10" stroke-width="1.641"/>
            </g>
            <g id="g7983" transform="translate(55.18 -28)">
              <path id="path7985" d="M0,0A8.41,8.41,0,0,1-8.41,8.41,8.41,8.41,0,0,1-16.819,0,8.41,8.41,0,0,1-8.41-8.41,8.41,8.41,0,0,1,0,0Z" fill="none" stroke="#000" stroke-linecap="round" stroke-linejoin="round" stroke-miterlimit="10" stroke-width="1.641"/>
            </g>
            <g id="g7987" transform="translate(49.101 -30.698)">
              <path id="path7989" d="M0,0A2.331,2.331,0,0,1-2.331,2.331,2.331,2.331,0,0,1-4.663,0,2.331,2.331,0,0,1-2.331-2.331,2.331,2.331,0,0,1,0,0Z" fill="none" stroke="#000" stroke-linecap="round" stroke-linejoin="round" stroke-miterlimit="10" stroke-width="1.641"/>
            </g>
            <g id="g7991" transform="translate(50.049 -24.432)">
              <path id="path7993" d="M0,0H-6.557a.729.729,0,0,1-.729-.729V-1.6A2.332,2.332,0,0,1-4.954-3.934H-1.6A2.331,2.331,0,0,1,.729-1.6v.874A.729.729,0,0,1,0,0Z" fill="none" stroke="#000" stroke-linecap="round" stroke-linejoin="round" stroke-miterlimit="10" stroke-width="1.641"/>
            </g>
            <g id="g7995" transform="translate(44.196 -5.176)">
              <path id="path7997" d="M0,0A8.373,8.373,0,0,0,1.04-4.055a8.411,8.411,0,0,0-8.41-8.41,8.41,8.41,0,0,0-8.41,8.41,8.409,8.409,0,0,0,8.41,8.41A8.367,8.367,0,0,0-2.54,2.831" fill="none" stroke="#000" stroke-linecap="round" stroke-linejoin="round" stroke-miterlimit="10" stroke-width="1.641"/>
            </g>
            <g id="g7999" transform="translate(39.158 -11.928)">
              <path id="path8001" d="M0,0A2.331,2.331,0,0,1-2.331,2.331,2.331,2.331,0,0,1-4.663,0,2.331,2.331,0,0,1-2.331-2.331,2.331,2.331,0,0,1,0,0Z" fill="none" stroke="#000" stroke-linecap="round" stroke-linejoin="round" stroke-miterlimit="10" stroke-width="1.641"/>
            </g>
            <g id="g8003" transform="translate(40.105 -5.662)">
              <path id="path8005" d="M0,0H-6.557a.729.729,0,0,1-.729-.729V-1.6A2.332,2.332,0,0,1-4.954-3.934H-1.6A2.331,2.331,0,0,1,.729-1.6v.874A.729.729,0,0,1,0,0Z" fill="none" stroke="#000" stroke-linecap="round" stroke-linejoin="round" stroke-miterlimit="10" stroke-width="1.641"/>
            </g>
            <g id="g8007" transform="translate(30.88 -40.823)">
              <path id="path8009" d="M0,0-1.48,1.48" fill="none" stroke="#000" stroke-linecap="round" stroke-linejoin="round" stroke-miterlimit="10" stroke-width="1.641"/>
            </g>
            <g id="g8011" transform="translate(30.88 -15.177)">
              <path id="path8013" d="M0,0-1.48-1.48" fill="none" stroke="#000" stroke-linecap="round" stroke-linejoin="round" stroke-miterlimit="10" stroke-width="1.641"/>
            </g>
            <g id="g8015" transform="translate(38.36 -28)">
              <path id="path8017" d="M0,0H-5.478" fill="none" stroke="#000" stroke-linecap="round" stroke-linejoin="round" stroke-miterlimit="10" stroke-width="1.641"/>
            </g>
          </g>
        </g>
      </g>
    </g>
  </g>
</svg>
