<svg xmlns="http://www.w3.org/2000/svg" xmlns:xlink="http://www.w3.org/1999/xlink" width="70" height="70" viewBox="0 0 70 70">
  <defs>
    <clipPath id="clip-path">
      <rect id="Rectángulo_373664" data-name="Rectángulo 373664" width="56" height="56" transform="translate(835 2280)" fill="#fff"/>
    </clipPath>
  </defs>
  <g id="Grupo_1064841" data-name="Grupo 1064841" transform="translate(-1514 9427)">
    <circle id="Elipse_4779" data-name="Elipse 4779" cx="35" cy="35" r="35" transform="translate(1514 -9427)" fill="#94e435"/>
    <g id="Enmascarar_grupo_1059029" data-name="Enmascarar grupo 1059029" transform="translate(686 -11700)" clip-path="url(#clip-path)">
      <g id="subasta" transform="translate(835 2280)">
        <g id="Grupo_1064215" data-name="Grupo 1064215">
          <g id="Grupo_1064214" data-name="Grupo 1064214">
            <path id="Trazado_797798" data-name="Trazado 797798" d="M48.344,45.5H45.5V42.94a6.567,6.567,0,0,0,4.375-6.19V34.562A6.562,6.562,0,0,0,43.312,28L41.125,38.937V54.906H54.906V52.062A6.562,6.562,0,0,0,48.344,45.5Z" fill="#6d92ac"/>
            <path id="Trazado_797799" data-name="Trazado 797799" d="M12.687,28a6.562,6.562,0,0,0-6.562,6.562v2.189A6.566,6.566,0,0,0,10.5,42.94V45.5H7.656a6.562,6.562,0,0,0-6.562,6.563v2.844H14.875l4.364-17.779c.008-.125.011-2.565.011-2.565A6.562,6.562,0,0,0,12.687,28Z" fill="#6d92ac"/>
            <path id="Trazado_797800" data-name="Trazado 797800" d="M38.937,19.25V28l-4.375,8.75H21.437a6.562,6.562,0,0,0-6.562,6.562V54.906h26.25V38.937l2.187-8.75V19.25Z" fill="#ffda8f"/>
            <path id="Trazado_797801" data-name="Trazado 797801" d="M30.187,21.437l-8.75,4.375V28a6.566,6.566,0,0,0,4.375,6.188v2.56L28,38.937l2.188-2.187V34.19A6.567,6.567,0,0,0,34.562,28V25.813Z" fill="#e9baa1"/>
            <path id="Trazado_797802" data-name="Trazado 797802" d="M49.875,1.094V7.656h-17.5V1.094Z" fill="#eefaff"/>
            <path id="Trazado_797803" data-name="Trazado 797803" d="M43.312,17.062V19.25H38.937V17.062a2.187,2.187,0,1,1,4.375,0Z" fill="#fce8d0"/>
            <path id="Trazado_797804" data-name="Trazado 797804" d="M34.562,23.625v2.188a4.375,4.375,0,0,1-4.375-4.375,7.915,7.915,0,0,1-7.079,4.375H21.437V23.625a6.563,6.563,0,0,1,13.125,0Z" fill="#da8b63"/>
          </g>
          <path id="Trazado_797805" data-name="Trazado 797805" d="M23.625,36.75,28,54.906,32.375,36.75Z" fill="#eefaff"/>
        </g>
        <g id="Grupo_1064216" data-name="Grupo 1064216">
          <path id="Trazado_797806" data-name="Trazado 797806" d="M1.094,56H54.906A1.094,1.094,0,0,0,56,54.906V52.062a7.665,7.665,0,0,0-7.656-7.656h-1.75V43.67a7.673,7.673,0,0,0,4.375-6.92V34.562a7.667,7.667,0,0,0-6.562-7.577V17.062a3.287,3.287,0,0,0-2.187-3.093V8.75h7.656a1.094,1.094,0,0,0,1.094-1.094V1.094A1.094,1.094,0,0,0,49.875,0H46.047a1.094,1.094,0,1,0,0,2.187h2.734V6.562H33.469V2.187H36.2A1.094,1.094,0,1,0,36.2,0H32.375a1.094,1.094,0,0,0-1.094,1.094V7.656A1.094,1.094,0,0,0,32.375,8.75h7.656v5.219a3.286,3.286,0,0,0-2.187,3.093V27.742l-3.957,7.914H31.281V34.92A7.673,7.673,0,0,0,35.656,28V23.625a7.656,7.656,0,0,0-15.312,0V28a7.672,7.672,0,0,0,4.375,6.919v.737H21.437a7.7,7.7,0,0,0-1.1.08c0-.316,0-.7,0-1.173a7.656,7.656,0,1,0-15.312,0v2.189A7.672,7.672,0,0,0,9.406,43.67v.737H7.656A7.665,7.665,0,0,0,0,52.063v2.844A1.094,1.094,0,0,0,1.094,56ZM28,50.237,25.014,37.844h.346l1.867,1.867a1.094,1.094,0,0,0,1.547,0l1.867-1.867h.346ZM44.374,30.453a1.1,1.1,0,0,0,.033-.265V29.2a5.478,5.478,0,0,1,4.375,5.359V36.75a5.48,5.48,0,0,1-3.646,5.158,1.094,1.094,0,0,0-.729,1.031V45.5A1.094,1.094,0,0,0,45.5,46.594h2.844a5.475,5.475,0,0,1,5.469,5.469v1.75H42.219V39.072Zm-4.342-13.39a1.094,1.094,0,1,1,2.187,0v1.094H40.031ZM33.237,37.844h1.326a1.094,1.094,0,0,0,.978-.6l4.375-8.75A1.094,1.094,0,0,0,40.031,28V20.344h2.187v9.709l-2.155,8.619a1.1,1.1,0,0,0-.033.265V53.812H29.389ZM22.531,23.625a5.469,5.469,0,0,1,10.937,0v.906a3.286,3.286,0,0,1-2.187-3.093,1.094,1.094,0,0,0-2.072-.489,6.785,6.785,0,0,1-6.1,3.77h-.578Zm0,4.376V26.906h.577a8.956,8.956,0,0,0,6.627-2.9A5.488,5.488,0,0,0,33.469,26.8V28a5.48,5.48,0,0,1-3.646,5.158,1.094,1.094,0,0,0-.729,1.031V36.3L28,37.391,26.906,36.3V34.19a1.094,1.094,0,0,0-.729-1.031A5.479,5.479,0,0,1,22.531,28Zm-1.094,9.843h1.326l3.848,15.969H20.344v-10.5a1.094,1.094,0,1,0-2.187,0v10.5H15.969v-10.5A5.468,5.468,0,0,1,21.437,37.844ZM2.188,52.062a5.475,5.475,0,0,1,5.469-5.469H10.5A1.094,1.094,0,0,0,11.594,45.5V42.94a1.094,1.094,0,0,0-.729-1.031,5.479,5.479,0,0,1-3.646-5.157V34.562a5.471,5.471,0,0,1,10.942,0c0,.54,0,1.292,0,1.836a7.677,7.677,0,0,0-4.375,6.916v10.5H2.188Z"/>
          <path id="Trazado_797807" data-name="Trazado 797807" d="M34.562,46.594H36.75a1.094,1.094,0,1,0,0-2.187H34.562a1.094,1.094,0,0,0,0,2.188Z"/>
          <circle id="Elipse_4781" data-name="Elipse 4781" cx="1.094" cy="1.094" r="1.094" transform="translate(40.031)"/>
        </g>
      </g>
    </g>
  </g>
</svg>
