<svg xmlns="http://www.w3.org/2000/svg" xmlns:xlink="http://www.w3.org/1999/xlink" width="70" height="70" viewBox="0 0 70 70">
  <defs>
    <clipPath id="clip-path">
      <rect id="Rectángulo_373665" data-name="Rectángulo 373665" width="56" height="56" transform="translate(1150 2280)" fill="#fff"/>
    </clipPath>
  </defs>
  <g id="Grupo_1064842" data-name="Grupo 1064842" transform="translate(-1829 9427)">
    <circle id="Elipse_4780" data-name="Elipse 4780" cx="35" cy="35" r="35" transform="translate(1829 -9427)" fill="#94e435"/>
    <g id="Enmascarar_grupo_1059030" data-name="Enmascarar grupo 1059030" transform="translate(686 -11700)" clip-path="url(#clip-path)">
      <g id="Online_Shopping-Shopping-Smartphone-Shopping_Bag-Commerce" data-name="Online Shopping-Shopping-Smartphone-Shopping Bag-Commerce" transform="translate(1148.134 2278.137)">
        <path id="Trazado_797808" data-name="Trazado 797808" d="M39.2,8.4V42a5.6,5.6,0,0,1-5.6,5.6H14.932a5.612,5.612,0,0,1-4.853-2.8v-.009A5.543,5.543,0,0,1,9.332,42V8.4a5.6,5.6,0,0,1,5.6-5.6H33.6a5.6,5.6,0,0,1,5.581,5.18C39.187,8.119,39.2,8.259,39.2,8.4Z" fill="#5aaae7"/>
        <path id="Trazado_797809" data-name="Trazado 797809" d="M39.2,10.5V36.154a13.923,13.923,0,0,1-4.06-2.688l-6.561,1.223,3.4-5.749A14,14,0,0,1,39.2,10.5Z" fill="#3d9ae2"/>
        <path id="Trazado_797810" data-name="Trazado 797810" d="M56.713,23.891A14,14,0,0,1,40.5,35.249a12.069,12.069,0,0,1-1.307-.3A13.931,13.931,0,0,1,33.27,31.6L26.71,32.822l3.4-5.749a14,14,0,1,1,26.607-3.182Z" fill="#ffd422"/>
        <path id="Trazado_797811" data-name="Trazado 797811" d="M38.263,18.665v11.2A1.872,1.872,0,0,0,40.13,31.73h9.332a1.872,1.872,0,0,0,1.866-1.866v-11.2Z" fill="#ebbf00"/>
        <path id="Trazado_797812" data-name="Trazado 797812" d="M49.462,26.131V28A1.872,1.872,0,0,1,47.6,29.864H38.263A1.872,1.872,0,0,1,36.4,28V26.131Z" fill="#d1d3d4"/>
        <path id="Trazado_797813" data-name="Trazado 797813" d="M36.4,16.8H49.462v9.332H36.4Z" fill="#3d9ae2"/>
        <path id="Trazado_797814" data-name="Trazado 797814" d="M26.131,40.13a1.866,1.866,0,0,1,0,3.733H22.4a1.866,1.866,0,0,1,0-3.733Z" fill="#e6e7e8"/>
        <path id="Trazado_797815" data-name="Trazado 797815" d="M21.371,40.792a2.811,2.811,0,0,1-.373,1.4l-.308.541A1.773,1.773,0,0,1,20.531,42a1.824,1.824,0,0,1,.551-1.316,2.107,2.107,0,0,1,.271-.233c.009.112.019.233.019.345Z" fill="#e6e7e8"/>
        <path id="Trazado_797816" data-name="Trazado 797816" d="M21.306,18.824a3.74,3.74,0,1,1-2.641-1.092A3.74,3.74,0,0,1,21.306,18.824Z" fill="#3d9ae2"/>
        <path id="Trazado_797817" data-name="Trazado 797817" d="M19.44,16.957A3.74,3.74,0,1,1,16.8,15.865a3.74,3.74,0,0,1,2.641,1.092Z" fill="#ffd422"/>
        <path id="Trazado_797818" data-name="Trazado 797818" d="M19.5,38.926a2.8,2.8,0,0,0-5.226-1.4l-4.2,7.261A5.543,5.543,0,0,1,9.332,42V27.083A1.866,1.866,0,0,0,7.9,28.147L3.658,37.339a9.247,9.247,0,0,0-.859,3.9V57.861l14.932-.009V53.8a5.622,5.622,0,0,0-.8-2.884l-2-3.322,4.2-7.27a2.811,2.811,0,0,0,.373-1.4Z" fill="#ffc477"/>
        <path id="Trazado_797819" data-name="Trazado 797819" d="M16.8,5.6h1.866V7.466H16.8Z"/>
        <path id="Trazado_797820" data-name="Trazado 797820" d="M20.531,5.6H28V7.466H20.531Z"/>
        <path id="Trazado_797821" data-name="Trazado 797821" d="M38.263,42A4.672,4.672,0,0,1,33.6,46.662H16.548l3.208-5.557A2.76,2.76,0,0,0,19.6,42a2.8,2.8,0,0,0,2.8,2.8h3.733a2.8,2.8,0,1,0,0-5.6H22.4a2.792,2.792,0,0,0-2.27,1.173,3.724,3.724,0,0,0-6.654-3.314l-3.173,5.5A4.641,4.641,0,0,1,10.266,42V8.4a4.672,4.672,0,0,1,4.666-4.666H33.6a4.685,4.685,0,0,1,4.041,2.333l1.615-.933A6.559,6.559,0,0,0,33.6,1.866H14.932A6.54,6.54,0,0,0,8.4,8.4V26.411a2.8,2.8,0,0,0-1.351,1.345l-4.236,9.19a10.132,10.132,0,0,0-.945,4.3V57.861H3.733V41.249a8.271,8.271,0,0,1,.773-3.519L8.4,29.282V42a6.508,6.508,0,0,0,.83,3.183.933.933,0,0,0,1.662.083l4.2-7.274a1.866,1.866,0,1,1,3.233,1.867l-4.2,7.274a.933.933,0,0,0,.008.948l2,3.322a4.683,4.683,0,0,1,.667,2.406v4.047h1.866V53.805a6.543,6.543,0,0,0-.933-3.366l-1.149-1.91H33.6A6.54,6.54,0,0,0,40.13,42V37.33H38.263ZM22.4,41.063h3.733a.933.933,0,0,1,0,1.866H22.4a.933.933,0,0,1,0-1.866Z"/>
        <path id="Trazado_797822" data-name="Trazado 797822" d="M55.164,12.9A14.932,14.932,0,0,0,29.061,27l-3.154,5.347a.933.933,0,0,0,.037,1.008.951.951,0,0,0,.943.383L32.981,32.6a14.875,14.875,0,0,0,7.354,3.574,15.492,15.492,0,0,0,2.6.224A14.932,14.932,0,0,0,55.164,12.9ZM55.8,23.732a13.065,13.065,0,0,1-21.885,7.186.944.944,0,0,0-.644-.252,1.014,1.014,0,0,0-.168.009l-4.545.849,2.352-3.976a.972.972,0,0,0,.056-.849A13.064,13.064,0,1,1,55.8,23.732Z"/>
        <path id="Trazado_797823" data-name="Trazado 797823" d="M49.462,15.865h-2.8v-.933a3.733,3.733,0,1,0-7.466,0v.933H36.4a.933.933,0,0,0-.933.933V28a2.808,2.808,0,0,0,2.8,2.8H47.6A2.808,2.808,0,0,0,50.4,28V16.8A.933.933,0,0,0,49.462,15.865Zm-8.4-.933a1.866,1.866,0,1,1,3.733,0v.933H41.063ZM48.529,28a.933.933,0,0,1-.933.933H38.263A.933.933,0,0,1,37.33,28v-.933h11.2Zm0-2.8H37.33V17.732H39.2V19.6h1.866V17.732H44.8V19.6h1.866V17.732h1.866Z"/>
        <path id="Trazado_797824" data-name="Trazado 797824" d="M20.8,14.272l-1.437,1.437a4.68,4.68,0,1,0,1.32,1.32l1.437-1.437ZM19.6,19.6a2.8,2.8,0,1,1-2.8-2.8,2.754,2.754,0,0,1,1.2.28l-2.792,2.792,1.32,1.32L19.318,18.4A2.754,2.754,0,0,1,19.6,19.6Z"/>
        <path id="Trazado_797825" data-name="Trazado 797825" d="M23.331,16.8h3.733v1.866H23.331Z"/>
        <path id="Trazado_797826" data-name="Trazado 797826" d="M23.331,20.531h3.733V22.4H23.331Z"/>
      </g>
    </g>
  </g>
</svg>
