<svg xmlns="http://www.w3.org/2000/svg" xmlns:xlink="http://www.w3.org/1999/xlink" width="89" height="89" viewBox="0 0 89 89">
  <defs>
    <clipPath id="clip-path">
      <rect id="Rectángulo_373556" data-name="Rectángulo 373556" width="63" height="63" transform="translate(229 4607)" fill="#0050db"/>
    </clipPath>
  </defs>
  <g id="Grupo_1064839" data-name="Grupo 1064839" transform="translate(-216 -4594)">
    <circle id="Elipse_4750" data-name="Elipse 4750" cx="44.5" cy="44.5" r="44.5" transform="translate(216 4594)" fill="#94e435"/>
    <g id="Enmascarar_grupo_1059009" data-name="Enmascarar grupo 1059009" clip-path="url(#clip-path)">
      <g id="identificacion-de-rostro" transform="translate(227.984 4605.984)">
        <path id="Trazado_797449" data-name="Trazado 797449" d="M47.352,44.82l-8.739-1.94V41.175A13.247,13.247,0,0,0,45.36,32.5a4.556,4.556,0,0,0,1.007-8.967l1.925-3.369A11.477,11.477,0,0,0,46.428,6.378a11.293,11.293,0,0,0-8.039-3.33H26.643a11.455,11.455,0,0,0-9.889,17.143l1.911,3.344A4.555,4.555,0,0,0,19.672,32.5a13.247,13.247,0,0,0,6.747,8.673v1.706l-8.739,1.942a12.122,12.122,0,0,0-9.552,11.9V63a1.016,1.016,0,0,0,1.016,1.016H55.887A1.016,1.016,0,0,0,56.9,63V56.724A12.122,12.122,0,0,0,47.352,44.82Zm-7.75.361a7.1,7.1,0,0,1-14.179,0l1-.224a6.09,6.09,0,0,0,12.169,0Zm8.156-17.238a2.54,2.54,0,0,1-2.081,2.494c.023-.321.049-.642.049-.969V25.455a2.54,2.54,0,0,1,2.032,2.489ZM17.274,14.5a9.386,9.386,0,0,1,2.767-6.68,9.276,9.276,0,0,1,6.6-2.734H38.389a9.276,9.276,0,0,1,6.6,2.734,9.45,9.45,0,0,1,1.536,11.342L45.2,21.482a.988.988,0,0,0-.493-.143,7.168,7.168,0,0,1-6.444-3.982L37.5,15.8a1.016,1.016,0,0,0-1.873.133l-.16.476a7.193,7.193,0,0,1-6.84,4.926h-8.3a.985.985,0,0,0-.49.143l-1.314-2.3A9.467,9.467,0,0,1,17.274,14.5Zm0,13.448a2.54,2.54,0,0,1,2.032-2.488v4.013c0,.327.025.648.049.969A2.54,2.54,0,0,1,17.274,27.944Zm4.065,1.524v-6.1h7.285a9.222,9.222,0,0,0,8.044-4.694,9.176,9.176,0,0,0,7.027,4.639v6.152a11.177,11.177,0,0,1-22.355,0Zm11.177,13.21a13.149,13.149,0,0,0,4.065-.646V44.71a4.065,4.065,0,0,1-8.129,0V42.031A13.149,13.149,0,0,0,32.516,42.677ZM54.871,61.984h-6.1v-6.1H46.742v6.1H18.29v-6.1H16.258v6.1h-6.1V56.724A10.1,10.1,0,0,1,18.118,46.8l5.3-1.181a9.145,9.145,0,0,0,18.2,0l5.3,1.178a10.1,10.1,0,0,1,7.956,9.923Z" fill="#0050db"/>
        <rect id="Rectángulo_373559" data-name="Rectángulo 373559" width="6.097" height="2.032" transform="translate(38.613 54.871)" fill="#0050db"/>
        <rect id="Rectángulo_373560" data-name="Rectángulo 373560" width="2.032" height="4.065" transform="translate(25.403 25.403)" fill="#0050db"/>
        <rect id="Rectángulo_373561" data-name="Rectángulo 373561" width="2.032" height="4.065" transform="translate(37.597 25.403)" fill="#0050db"/>
        <path id="Trazado_797450" data-name="Trazado 797450" d="M37.6,33.532H35.565a3.048,3.048,0,0,1-6.1,0H27.435a5.081,5.081,0,1,0,10.161,0Z" fill="#0050db"/>
        <path id="Trazado_797451" data-name="Trazado 797451" d="M51.823,10.161h2.032V2.032a1.016,1.016,0,0,0-1.016-1.016H44.71V3.048h7.113Z" fill="#0050db"/>
        <path id="Trazado_797452" data-name="Trazado 797452" d="M13.21,3.048h7.113V1.016H12.194a1.016,1.016,0,0,0-1.016,1.016v8.129H13.21Z" fill="#0050db"/>
        <path id="Trazado_797453" data-name="Trazado 797453" d="M51.823,41.661H44.71v2.032h8.129a1.016,1.016,0,0,0,1.016-1.016V34.548H51.823Z" fill="#0050db"/>
        <path id="Trazado_797454" data-name="Trazado 797454" d="M12.194,43.694h8.129V41.661H13.21V34.548H11.177v8.129A1.016,1.016,0,0,0,12.194,43.694Z" fill="#0050db"/>
      </g>
    </g>
  </g>
</svg>
