<svg xmlns="http://www.w3.org/2000/svg" xmlns:xlink="http://www.w3.org/1999/xlink" width="89" height="89" viewBox="0 0 89 89">
  <defs>
    <clipPath id="clip-path">
      <rect id="Rectángulo_373558" data-name="Rectángulo 373558" width="63" height="63" transform="translate(1069 4607)" fill="#0050db"/>
    </clipPath>
  </defs>
  <g id="Grupo_1064841" data-name="Grupo 1064841" transform="translate(-1056 -4594)">
    <circle id="Elipse_4752" data-name="Elipse 4752" cx="44.5" cy="44.5" r="44.5" transform="translate(1056 4594)" fill="#94e435"/>
    <g id="Enmascarar_grupo_1059011" data-name="Enmascarar grupo 1059011" clip-path="url(#clip-path)">
      <g id="interpretacion" transform="translate(1067.984 4605.984)">
        <path id="Trazado_797457" data-name="Trazado 797457" d="M64.016,1.016H13.21V11.177A7.105,7.105,0,0,0,8.836,23.888a11.2,11.2,0,0,0-7.82,10.66v7.113a4.069,4.069,0,0,0,4.065,4.065H6.1V59.952a4.048,4.048,0,0,0,7.113,2.66,4.048,4.048,0,0,0,7.113-2.66V41.661H25.4V56.9a3.052,3.052,0,0,0,3.048,3.048H52.839A3.052,3.052,0,0,0,55.887,56.9V41.661h8.129ZM61.984,3.048v6.1H15.242v-6.1ZM8.129,18.29a5.081,5.081,0,1,1,5.081,5.081A5.086,5.086,0,0,1,8.129,18.29ZM14.19,33.147l-.981.981-.981-.981.645-7.744h.671Zm4.1,1.669V59.952a2.032,2.032,0,1,1-4.065,0V41.661H12.194v18.29a2.032,2.032,0,1,1-4.065,0V32.516H6.1V43.694H5.081a2.034,2.034,0,0,1-2.032-2.032V34.548a9.151,9.151,0,0,1,7.777-9.031l-.7,8.4L13.21,37l3.084-3.084L15.584,25.4H18.6a7.1,7.1,0,0,0,3.727-1.056l11.167-6.872a1.361,1.361,0,0,1,2.073,1.158v.4a1.357,1.357,0,0,1-.621,1.142l-13.4,8.674A7.083,7.083,0,0,0,18.29,34.817ZM53.855,56.9a1.018,1.018,0,0,1-1.016,1.016H28.452A1.018,1.018,0,0,1,27.435,56.9V38.613A1.018,1.018,0,0,1,28.452,37.6H52.839a1.018,1.018,0,0,1,1.016,1.016Zm2.032-17.274V38.613a3.052,3.052,0,0,0-3.048-3.048H28.452A3.052,3.052,0,0,0,25.4,38.613v1.016H20.323V34.817a5.064,5.064,0,0,1,2.321-4.266l13.4-8.673A3.375,3.375,0,0,0,37.2,20.619l1.85,2.22a3.02,3.02,0,0,0-.436,1.548,3.052,3.052,0,0,0,3.048,3.048,3.021,3.021,0,0,0,1.928-.706l5.246,3.148a3.051,3.051,0,1,0,4.906-1.743l3.153-8.829H56.9a3.087,3.087,0,1,0-1.918-.7l-3.153,8.829h-.009a3.021,3.021,0,0,0-1.928.706l-5.246-3.148a3.028,3.028,0,0,0-4.04-3.457l-3.137-3.764a3.378,3.378,0,0,0-5.044-2.028L21.26,22.617a5.074,5.074,0,0,1-2.663.754h-.419a7.1,7.1,0,0,0-2.937-11.894v-.3H61.984V39.629ZM41.661,23.371a1.016,1.016,0,1,1-1.016,1.016A1.018,1.018,0,0,1,41.661,23.371Zm10.161,6.1a1.016,1.016,0,1,1-1.016,1.016A1.018,1.018,0,0,1,51.823,29.468Zm4.065-13.21A1.016,1.016,0,1,1,56.9,17.274,1.018,1.018,0,0,1,55.887,16.258Z" fill="#0050db"/>
        <path id="Trazado_797458" data-name="Trazado 797458" d="M17.274,5.081h2.032V7.113H17.274Z" fill="#0050db"/>
        <path id="Trazado_797459" data-name="Trazado 797459" d="M21.339,5.081h2.032V7.113H21.339Z" fill="#0050db"/>
        <path id="Trazado_797460" data-name="Trazado 797460" d="M25.4,5.081h2.032V7.113H25.4Z" fill="#0050db"/>
        <path id="Trazado_797461" data-name="Trazado 797461" d="M45.726,53.855H43.694V45.726H37.6v8.129H35.565V43.694h-6.1V55.887H51.823V39.629h-6.1Zm-12.194,0H31.5V45.726h2.032Zm6.1-6.1h2.032v6.1H39.629Zm8.129-6.1H49.79V53.855H47.758Z" fill="#0050db"/>
        <path id="Trazado_797462" data-name="Trazado 797462" d="M57.919,35.565h2.032V37.6H57.919Z" fill="#0050db"/>
        <path id="Trazado_797463" data-name="Trazado 797463" d="M57.919,31.5h2.032v2.032H57.919Z" fill="#0050db"/>
        <path id="Trazado_797464" data-name="Trazado 797464" d="M57.919,27.435h2.032v2.032H57.919Z" fill="#0050db"/>
      </g>
    </g>
  </g>
</svg>
