<svg xmlns="http://www.w3.org/2000/svg" xmlns:xlink="http://www.w3.org/1999/xlink" width="292.772" height="293.206" viewBox="0 0 292.772 293.206">
  <defs>
    <clipPath id="clip-path">
      <path id="Trazado_797524" data-name="Trazado 797524" d="M255.093,304.789l1.114,9.625c0,25.908-.91,27.833-3.079,36.831-.758,3.138-1.688,6.632-2.769,9.763a16.342,16.342,0,0,0-.732,3.065v.046a17.526,17.526,0,0,0-.2,2.558,33.976,33.976,0,0,1-1.5,9.8c-1.154,3.955-2.637,8.451-4.292,13.218a144.838,144.838,0,0,1-47.946,4.8l15.426-28.466a14.813,14.813,0,0,0,1.556-9.691,307.5,307.5,0,0,1-4.957-43.687c-.738-25.216.943-20.654,1.7-32.546a10.548,10.548,0,0,1,3.744-7.43l.923-.765,9.348-19.381a9.968,9.968,0,0,1,14.213-4.153l9.328,5.755a1.576,1.576,0,0,1,.738,1.16L248.962,266s6.79,10.218,7.252,14.173c.145,1.318-1.253,5.056-1.253,5.056Z" transform="translate(-195.69 -246.887)" fill="#fff"/>
    </clipPath>
    <clipPath id="clip-path-2">
      <path id="Trazado_797581" data-name="Trazado 797581" d="M243.619,389.7c1.661-4.766,3.138-9.282,4.292-13.218a33.977,33.977,0,0,0,1.5-9.8,17.524,17.524,0,0,1,.2-2.558v-.046a16.343,16.343,0,0,1,.732-3.065c1.081-3.131,2.011-6.625,2.769-9.763,2.169-9,3.072-10.923,3.079-36.831l-1.114-9.625-.138-19.533s1.4-3.764,1.253-5.056c-.455-3.955-7.252-14.173-7.252-14.173l-1.253-10.712a1.575,1.575,0,0,0-.738-1.16l-9.328-5.755a9.961,9.961,0,0,0-14.213,4.153l-9.348,19.381-.923.765a10.547,10.547,0,0,0-3.751,7.4c-.758,11.866-2.439,7.331-1.7,32.546a305.576,305.576,0,0,0,4.957,43.687,14.813,14.813,0,0,1-1.556,9.691L195.66,394.5" transform="translate(-195.66 -246.923)" fill="none" stroke="#263238" stroke-linecap="round" stroke-linejoin="round" stroke-width="1"/>
    </clipPath>
  </defs>
  <g id="Analyze-bro" transform="translate(-27.348 -27.049)">
    <g id="freepik--background-simple--inject-2" transform="translate(27.348 27.049)">
      <path id="Trazado_797473" data-name="Trazado 797473" d="M67.872,66.8A120.778,120.778,0,0,0,27.5,149.785c-1.417,25.387,6.935,53.127,28.083,67.242C66.132,224.054,79.976,228.2,85.2,239.744c5.03,11.161-.508,24.134.455,36.337s8.57,23.119,18.538,30.16,22.012,10.548,34.069,12.295c45.546,6.632,92.866-10.956,126.843-42.006,27.266-24.912,46.805-58.592,52.963-95.008s-1.543-75.337-22.7-105.609c-14.885-21.293-51.051-43.147-76.833-46.377C130.314,18.486,90.787,46.668,67.872,66.8Z" transform="translate(-27.348 -27.049)" fill="#00a9ff"/>
      <path id="Trazado_797474" data-name="Trazado 797474" d="M318.063,181.52c-6.157,36.416-25.7,70.1-52.963,95.008a168.606,168.606,0,0,1-69.292,38.235,144.838,144.838,0,0,1-47.946,4.8q-4.806-.349-9.605-1.042c-12.057-1.76-24.121-5.274-34.069-12.295s-17.575-18.01-18.538-30.16,4.568-25.176-.455-36.337c-5.2-11.543-19.085-15.69-29.613-22.717C34.436,202.9,26.084,175.159,27.5,149.772A120.778,120.778,0,0,1,67.872,66.8c22.915-20.133,62.442-48.315,150.661-37.266,25.783,3.23,61.968,25.084,76.833,46.377C316.521,106.184,324.221,145.111,318.063,181.52Z" transform="translate(-27.348 -27.049)" fill="#fff" opacity="0.7"/>
    </g>
    <g id="freepik--Charts--inject-2" transform="translate(37.389 176.708)">
      <path id="Trazado_797475" data-name="Trazado 797475" d="M380.931,336.4a25.2,25.2,0,0,1-33.753-11.444,25.781,25.781,0,0,1-1.47-3.692s0,0,0-.033A25.2,25.2,0,0,1,358.636,291.2l11.148,22.6,12.525-21.88a25.2,25.2,0,0,1-1.318,44.478Z" transform="translate(-145.494 -266.723)" fill="none" stroke="#263238" stroke-linecap="round" stroke-linejoin="round" stroke-width="1"/>
      <path id="Trazado_797476" data-name="Trazado 797476" d="M366.34,272.225a25.2,25.2,0,0,1,23.653.719l-12.525,21.873Z" transform="translate(-152.908 -259.37)" fill="none" stroke="#263238" stroke-linecap="round" stroke-linejoin="round" stroke-width="1"/>
      <path id="Trazado_797477" data-name="Trazado 797477" d="M366.34,273.57v5.472l11.148,22.592,12.506-21.873v-5.472l-12.506,21.88Z" transform="translate(-152.908 -260.715)" fill="none" stroke="#263238" stroke-linecap="round" stroke-linejoin="round" stroke-width="1"/>
      <path id="Trazado_797478" data-name="Trazado 797478" d="M117.277,254.07h-68.4a6.3,6.3,0,0,0-6.3,6.3v25.848a6.3,6.3,0,0,0,6.3,6.3h68.4a6.3,6.3,0,0,0,6.3-6.3V260.366A6.3,6.3,0,0,0,117.277,254.07ZM76.405,287.2a.613.613,0,0,1-.606.613H70.083a.613.613,0,0,1-.613-.613V273.9a.613.613,0,0,1,.613-.607h5.689a.607.607,0,0,1,.606.607Zm11.359.613H82.075a.613.613,0,0,1-.613-.613V269.311a.613.613,0,0,1,.613-.606h5.689a.606.606,0,0,1,.606.607V287.2a.613.613,0,0,1-.633.613ZM99.63,287.2a.613.613,0,0,1-.606.613h-5.7a.613.613,0,0,1-.606-.613V285.06a.606.606,0,0,1,.606-.607h5.7a.606.606,0,0,1,.606.607Zm11.253,0a.613.613,0,0,1-.606.613h-5.716a.613.613,0,0,1-.613-.613V267.6l-5.781,14.075a.613.613,0,0,1-1.088.079L86.821,264.512a.6.6,0,0,0-.857-.191l-10.146,6.843a.606.606,0,0,1-.659,0L64.2,265.125V287.21a.613.613,0,0,1-.607.613H57.914a.613.613,0,0,1-.613-.613V259.917a.613.613,0,0,1,.613-.606H63.6a.606.606,0,0,1,.606.607v3.731l10.91,6.006a.606.606,0,0,0,.659,0l10.548-7.093a.607.607,0,0,1,.864.191l9.724,16.263A.613.613,0,0,0,98,278.936l5.973-14.543v-4.483a.613.613,0,0,1,.613-.606h1.483l.659-1.536a.607.607,0,0,1,1.121.468l-.435,1.068H110.3a.606.606,0,0,1,.606.606Z" transform="translate(-42.58 -254.07)" fill="none" stroke="#263238" stroke-linecap="round" stroke-linejoin="round" stroke-width="1"/>
      <rect id="Rectángulo_373574" data-name="Rectángulo 373574" width="6.909" height="14.523" rx="0.92" transform="translate(26.89 19.223)" fill="none" stroke="#263238" stroke-linecap="round" stroke-linejoin="round" stroke-width="1"/>
      <rect id="Rectángulo_373575" data-name="Rectángulo 373575" width="6.909" height="19.111" rx="0.92" transform="translate(38.855 14.635)" fill="none" stroke="#263238" stroke-linecap="round" stroke-linejoin="round" stroke-width="1"/>
      <rect id="Rectángulo_373576" data-name="Rectángulo 373576" width="6.909" height="3.362" rx="0.92" transform="translate(50.115 30.384)" fill="none" stroke="#263238" stroke-linecap="round" stroke-linejoin="round" stroke-width="1"/>
      <path id="Trazado_797479" data-name="Trazado 797479" d="M65.147,263.506v-.073a.613.613,0,0,1,.85-.277l5.795,3.191v-3.731a.606.606,0,0,0-.606-.606H65.523a.613.613,0,0,0-.613.607v27.292a.613.613,0,0,0,.613.613h5.689a.613.613,0,0,0,.606-.613V267.824L65.4,264.291a.606.606,0,0,1-.257-.784Z" transform="translate(-50.189 -256.776)" fill="none" stroke="#263238" stroke-linecap="round" stroke-linejoin="round" stroke-width="1"/>
      <path id="Trazado_797480" data-name="Trazado 797480" d="M141.972,262h-2.887l-3.415,8.293V289.9a.613.613,0,0,0,.613.613h5.689a.613.613,0,0,0,.607-.613V262.606a.607.607,0,0,0-.607-.607Z" transform="translate(-74.302 -256.772)" fill="none" stroke="#263238" stroke-linecap="round" stroke-linejoin="round" stroke-width="1"/>
      <path id="Trazado_797481" data-name="Trazado 797481" d="M136.283,262a.613.613,0,0,0-.613.607v4.483l2.1-5.089Z" transform="translate(-74.302 -256.772)" fill="none" stroke="#263238" stroke-linecap="round" stroke-linejoin="round" stroke-width="1"/>
      <rect id="Rectángulo_373577" data-name="Rectángulo 373577" width="6.909" height="19.111" rx="0.92" transform="translate(38.855 14.635)" fill="none" stroke="#263238" stroke-linecap="round" stroke-linejoin="round" stroke-width="1"/>
      <rect id="Rectángulo_373578" data-name="Rectángulo 373578" width="6.909" height="14.523" rx="0.92" transform="translate(26.89 19.223)" fill="none" stroke="#263238" stroke-linecap="round" stroke-linejoin="round" stroke-width="1"/>
      <rect id="Rectángulo_373579" data-name="Rectángulo 373579" width="6.909" height="3.362" rx="0.92" transform="translate(50.115 30.384)" fill="none" stroke="#263238" stroke-linecap="round" stroke-linejoin="round" stroke-width="1"/>
      <path id="Trazado_797482" data-name="Trazado 797482" d="M310.927,290,300.59,300.35a43.509,43.509,0,0,1,10.271,24.787h14.609A58.078,58.078,0,0,0,310.927,290Z" transform="translate(-130.502 -266.314)" fill="#00a9ff"/>
      <path id="Trazado_797483" data-name="Trazado 797483" d="M310.927,290,300.59,300.35a43.509,43.509,0,0,1,10.271,24.787h14.609A58.078,58.078,0,0,0,310.927,290Z" transform="translate(-130.502 -266.314)" fill="#fff" opacity="0.2"/>
      <path id="Trazado_797484" data-name="Trazado 797484" d="M186.655,356.971a43.707,43.707,0,0,1,0-56.621L176.325,290a58.289,58.289,0,0,0,0,77.295Z" transform="translate(-83.162 -266.314)" fill="#00a9ff"/>
      <g id="Grupo_1064138" data-name="Grupo 1064138" transform="translate(78.508 23.686)" opacity="0.4">
        <path id="Trazado_797485" data-name="Trazado 797485" d="M186.655,356.971a43.707,43.707,0,0,1,0-56.621L176.325,290a58.289,58.289,0,0,0,0,77.295Z" transform="translate(-161.671 -290)" fill="#fff"/>
      </g>
      <path id="Trazado_797486" data-name="Trazado 797486" d="M201.794,285.217a43.72,43.72,0,0,1,56.628,0l10.33-10.33a58.283,58.283,0,0,0-77.282,0Z" transform="translate(-93.317 -256.171)" fill="#00a9ff"/>
      <path id="Trazado_797487" data-name="Trazado 797487" d="M201.794,285.217a43.72,43.72,0,0,1,56.628,0l10.33-10.33a58.283,58.283,0,0,0-77.282,0Z" transform="translate(-93.317 -256.171)" opacity="0.2"/>
      <path id="Trazado_797488" data-name="Trazado 797488" d="M288.291,354H273.683a43.694,43.694,0,0,1-71.856,29.777l-10.337,10.33A58.276,58.276,0,0,0,288.291,354Z" transform="translate(-93.324 -288.123)" fill="#00a9ff"/>
    </g>
    <g id="freepik--Metrics--inject-2" transform="translate(88.862 41.019)">
      <path id="Trazado_797489" data-name="Trazado 797489" d="M296.477,178.013h-169a6.816,6.816,0,0,1-6.816-6.816V61.58a6.81,6.81,0,0,1,6.816-6.81h169a6.81,6.81,0,0,1,6.816,6.81V171.2A6.816,6.816,0,0,1,296.477,178.013Z" transform="translate(-120.66 -50.465)" fill="#263238"/>
      <path id="Trazado_797490" data-name="Trazado 797490" d="M296.477,172.033h-169a6.816,6.816,0,0,1-6.816-6.816V55.6a6.816,6.816,0,0,1,6.816-6.81h169a6.816,6.816,0,0,1,6.816,6.81V165.217A6.816,6.816,0,0,1,296.477,172.033Z" transform="translate(-120.66 -48.427)" fill="#00a9ff"/>
      <path id="Trazado_797491" data-name="Trazado 797491" d="M303.7,59.005V55.05a6.81,6.81,0,0,0-6.816-6.81H127.866a6.81,6.81,0,0,0-6.816,6.81V164.68h0v3.955a6.816,6.816,0,0,0,6.816,6.816h169.02a6.816,6.816,0,0,0,6.816-6.816Z" transform="translate(-120.793 -48.24)" fill="none" stroke="#263238" stroke-miterlimit="10" stroke-width="1"/>
      <path id="Trazado_797492" data-name="Trazado 797492" d="M137.14,65.29V166.073H297.333V65.29ZM295.553,85.067h-18.03V67.077h18.03Zm-117.04,21.6h18.03V124.7h-18.03ZM176.74,124.7H158.717V106.67H176.74Zm59.41-19.777H218.133V86.853h18.023Zm1.76-18.07h18.023v18.03H237.91ZM218.133,106.63h18.03v18.03h-18.03Zm-1.773,18.03H198.317V106.67h18.03Zm0-19.777H198.317V86.853h18.03Zm-19.777,0h-18.07V86.853h18.03Zm0,21.577v18.023h-18.07v-18.01Zm1.773,0h18.03v18.023h-18.07Zm19.777,0h18.03v18.023h-18.03Zm19.777,0h18.023v18.023H237.91Zm0-1.773V106.67h18.023V124.7Zm19.777-18.03H275.75v18.03H257.72Zm0-1.773V86.853H275.75v18.03Zm0-19.777V67.077H275.75V85.093Zm-1.773,0h-18V67.077h18.023Zm-19.777,0h-18V67.077h18.023Zm-19.777,0H198.317V67.077h18.03Zm-19.777,0h-18.07V67.077h18.03Zm-19.777,0H158.717V67.077H176.74Zm0,1.773v18.03H158.717V86.853Zm-19.777,18.03H138.913V86.853h18.03Zm0,1.773v18.03H138.913V106.67Zm0,19.777v18.023H138.913v-18.01Zm1.773,0h18.023v18.023H158.717Zm18.023,19.777v18.03H158.717v-18Zm1.773,0h18.03v18.03H178.513Zm19.777,0h18.03v18.03H198.317Zm19.777,0h18.03v18.03h-18.05Zm19.777,0h18.023v18.03H237.91Zm19.777,0H275.75v18.03H257.72Zm0-1.773v-17.99H275.75V144.5Zm19.777-18.023h18.03v18.023h-17.99Zm0-1.773v-18h18.03V124.7Zm0-19.777V86.853h18.03v18.03ZM156.943,67.077V85.093h-18.03V67.077Zm-18.03,79.193h18.03V164.3h-18.03Zm138.61,18.03V146.27h18.03V164.3Z" transform="translate(-126.276 -54.05)" fill="#fff"/>
      <path id="Trazado_797493" data-name="Trazado 797493" d="M137.14,65.29V166.073H297.333V65.29ZM295.553,85.067h-18.03V67.077h18.03Zm-117.04,21.6h18.03V124.7h-18.03ZM176.74,124.7H158.717V106.67H176.74Zm59.41-19.777H218.133V86.853h18.023Zm1.76-18.07h18.023v18.03H237.91ZM218.133,106.63h18.03v18.03h-18.03Zm-1.773,18.03H198.317V106.67h18.03Zm0-19.777H198.317V86.853h18.03Zm-19.777,0h-18.07V86.853h18.03Zm0,21.577v18.023h-18.07v-18.01Zm1.773,0h18.03v18.023h-18.07Zm19.777,0h18.03v18.023h-18.03Zm19.777,0h18.023v18.023H237.91Zm0-1.773V106.67h18.023V124.7Zm19.777-18.03H275.75v18.03H257.72Zm0-1.773V86.853H275.75v18.03Zm0-19.777V67.077H275.75V85.093Zm-1.773,0h-18V67.077h18.023Zm-19.777,0h-18V67.077h18.023Zm-19.777,0H198.317V67.077h18.03Zm-19.777,0h-18.07V67.077h18.03Zm-19.777,0H158.717V67.077H176.74Zm0,1.773v18.03H158.717V86.853Zm-19.777,18.03H138.913V86.853h18.03Zm0,1.773v18.03H138.913V106.67Zm0,19.777v18.023H138.913v-18.01Zm1.773,0h18.023v18.023H158.717Zm18.023,19.777v18.03H158.717v-18Zm1.773,0h18.03v18.03H178.513Zm19.777,0h18.03v18.03H198.317Zm19.777,0h18.03v18.03h-18.05Zm19.777,0h18.023v18.03H237.91Zm19.777,0H275.75v18.03H257.72Zm0-1.773v-17.99H275.75V144.5Zm19.777-18.023h18.03v18.023h-17.99Zm0-1.773v-18h18.03V124.7Zm0-19.777V86.853h18.03v18.03ZM156.943,67.077V85.093h-18.03V67.077Zm-18.03,79.193h18.03V164.3h-18.03Zm138.61,18.03V146.27h18.03V164.3Z" transform="translate(-126.276 -54.05)" fill="#fff" opacity="0.8"/>
      <path id="Trazado_797494" data-name="Trazado 797494" d="M259.111,156.405l-1.431-1.253,1.431-1.253,1.431,1.253Z" transform="translate(-167.352 -84.246)" fill="#263238"/>
      <path id="Trazado_797495" data-name="Trazado 797495" d="M265.611,124.531l-1.431-1.253,2.861-2.505,1.424,1.253Zm5.716-5.01-1.431-1.259,2.854-2.505,1.431,1.253Zm5.709-5.017-1.431-1.253,2.861-2.505,1.417,1.259Zm5.716-5.01-1.431-1.253,1.259-1.108,2.314-1.015.9,1.589-2.017.883Zm6.658-3.375-.9-1.582,3.613-1.589.9,1.589Zm7.252-3.164-.956-1.589,3.613-1.589.9,1.589Zm7.252-3.171-.956-1.589,2.2-.962.89-.778,1.431,1.253-1.121.982Zm6.467-4.582-1.431-1.253,2.861-2.512,1.424,1.259Zm5.716-5.017-1.483-1.253,2.848-2.505,1.431,1.253Zm5.709-5.01-1.431-1.253,2.861-2.505,1.424,1.253Zm5.716-5.01-1.49-1.253,2.854-2.505,1.431,1.253Zm5.709-5.01L331.8,73.9l2.861-2.505,1.431,1.253Z" transform="translate(-169.567 -56.129)" fill="#263238"/>
      <path id="Trazado_797496" data-name="Trazado 797496" d="M375.772,72.7h-2.024v-5.63H367.34V65.3h8.432Z" transform="translate(-204.721 -54.054)" fill="#263238"/>
      <g id="Grupo_1064140" data-name="Grupo 1064140" transform="translate(90.954 31.043)" opacity="0.5">
        <path id="Trazado_797497" data-name="Trazado 797497" d="M339.683,124.852,338.43,123.6l2.472-2.472,1.253,1.253Zm4.944-4.944-1.253-1.253,2.472-2.472,1.253,1.253Zm4.944-4.944-1.253-1.253,2.472-2.472,1.253,1.253Zm4.944-4.944-1.253-1.253,2.472-2.472,1.253,1.253Zm4.944-4.944-1.253-1.253,2.472-2.472,1.253,1.253Z" transform="translate(-285.823 -97.381)"/>
        <path id="Trazado_797498" data-name="Trazado 797498" d="M333.176,141.649H331.04v-1.773h1.4l1-1,1.253,1.253Z" transform="translate(-283.305 -110.171)"/>
        <path id="Trazado_797499" data-name="Trazado 797499" d="M281.443,152.065h-1.714v-1.773h.976l1.154-1.154,1.253,1.253Zm-5.05,0h-3.336v-1.773h3.336Zm-6.671,0H266.38v-1.773h3.342Zm15.749-4.021-1.253-1.253,2.347-2.373,1.253,1.253Zm4.72-4.714-1.253-1.259,1.668-1.668h1.707v1.773h-.969Zm15.492-1.167h-3.336V140.39h3.336Zm-6.671,0h-3.336V140.39h3.336Z" transform="translate(-261.271 -110.685)"/>
        <rect id="Rectángulo_373580" data-name="Rectángulo 373580" width="1.773" height="1.773" transform="translate(0 39.607)"/>
        <path id="Trazado_797500" data-name="Trazado 797500" d="M376.3,102.727H374.53V97.1H368.9l.007-1.773h7.4Z" transform="translate(-296.207 -95.33)"/>
        <g id="Grupo_1064139" data-name="Grupo 1064139" opacity="0.2">
          <path id="Trazado_797501" data-name="Trazado 797501" d="M339.683,124.852,338.43,123.6l2.472-2.472,1.253,1.253Zm4.944-4.944-1.253-1.253,2.472-2.472,1.253,1.253Zm4.944-4.944-1.253-1.253,2.472-2.472,1.253,1.253Zm4.944-4.944-1.253-1.253,2.472-2.472,1.253,1.253Zm4.944-4.944-1.253-1.253,2.472-2.472,1.253,1.253Z" transform="translate(-285.823 -97.381)"/>
          <path id="Trazado_797502" data-name="Trazado 797502" d="M333.176,141.649H331.04v-1.773h1.4l1-1,1.253,1.253Z" transform="translate(-283.305 -110.171)"/>
          <path id="Trazado_797503" data-name="Trazado 797503" d="M281.443,152.065h-1.714v-1.773h.976l1.154-1.154,1.253,1.253Zm-5.05,0h-3.336v-1.773h3.336Zm-6.671,0H266.38v-1.773h3.342Zm15.749-4.021-1.253-1.253,2.347-2.373,1.253,1.253Zm4.72-4.714-1.253-1.259,1.668-1.668h1.707v1.773h-.969Zm15.492-1.167h-3.336V140.39h3.336Zm-6.671,0h-3.336V140.39h3.336Z" transform="translate(-261.271 -110.685)"/>
          <rect id="Rectángulo_373581" data-name="Rectángulo 373581" width="1.773" height="1.773" transform="translate(0 39.607)"/>
          <path id="Trazado_797504" data-name="Trazado 797504" d="M376.3,102.727H374.53V97.1H368.9l.007-1.773h7.4Z" transform="translate(-296.207 -95.33)"/>
        </g>
      </g>
      <g id="Grupo_1064142" data-name="Grupo 1064142" transform="translate(90.333 50.846)" opacity="0.3">
        <rect id="Rectángulo_373582" data-name="Rectángulo 373582" width="1.773" height="1.773" transform="translate(0 21.319) rotate(-45)"/>
        <path id="Trazado_797505" data-name="Trazado 797505" d="M287.417,158.988h-3.685v-1.773h3.678Zm-7.364,0h-3.7v-1.773h3.685Zm-7.364,0h-2.874l-1.094-1.1,1.259-1.253.574.58h2.136ZM291.4,157.94l-1.253-1.253,2.6-2.6L294,155.336ZM266.117,155.3l-2.637-2.6,1.259-1.259,2.6,2.6Zm30.489-2.551-1.253-1.253,2.6-2.637,1.253,1.259Zm23.449-3.646h-3.6v-1.773h2.868l.059-.066.059.066h.244v.244l.949.949Zm-7.252,0h-3.685v-1.773H312.8Zm-7.364,0h-3.711v-1.773h3.685Zm17.8-3.184-1.253-1.259,2.6-2.6,1.253,1.253Zm5.208-5.208-1.253-1.253,2.6-2.6,1.253,1.253Zm5.208-5.208-1.253-1.253,2.637-2.6,1.253,1.253Z" transform="translate(-259.662 -127.51)"/>
        <path id="Trazado_797506" data-name="Trazado 797506" d="M376.3,132.767H374.53v-5.623H368.9V125.37h7.4Z" transform="translate(-295.586 -125.37)"/>
        <g id="Grupo_1064141" data-name="Grupo 1064141" transform="translate(0 0)" opacity="0.3">
          <rect id="Rectángulo_373583" data-name="Rectángulo 373583" width="1.773" height="1.773" transform="translate(0 21.319) rotate(-45)"/>
          <path id="Trazado_797507" data-name="Trazado 797507" d="M287.417,158.988h-3.685v-1.773h3.678Zm-7.364,0h-3.7v-1.773h3.685Zm-7.364,0h-2.874l-1.094-1.1,1.259-1.253.574.58h2.136ZM291.4,157.94l-1.253-1.253,2.6-2.6L294,155.336ZM266.117,155.3l-2.637-2.6,1.259-1.259,2.6,2.6Zm30.489-2.551-1.253-1.253,2.6-2.637,1.253,1.259Zm23.449-3.646h-3.6v-1.773h2.868l.059-.066.059.066h.244v.244l.949.949Zm-7.252,0h-3.685v-1.773H312.8Zm-7.364,0h-3.711v-1.773h3.685Zm17.8-3.184-1.253-1.259,2.6-2.6,1.253,1.253Zm5.208-5.208-1.253-1.253,2.6-2.6,1.253,1.253Zm5.208-5.208-1.253-1.253,2.637-2.6,1.253,1.253Z" transform="translate(-259.662 -127.51)"/>
          <path id="Trazado_797508" data-name="Trazado 797508" d="M376.3,132.767H374.53v-5.623H368.9V125.37h7.4Z" transform="translate(-295.586 -125.37)"/>
        </g>
      </g>
      <path id="Trazado_797509" data-name="Trazado 797509" d="M148.939,196.783H138.49V195.01h9.348l9.724-19.441,10.258-10.258h19.8l9.9-9.9H217.69v1.773H198.256l-9.9,9.9h-19.8l-9.539,9.539Z" transform="translate(-126.736 -84.76)" fill="#00a9ff"/>
      <g id="Grupo_1064143" data-name="Grupo 1064143" transform="translate(11.754 70.65)" opacity="0.3">
        <path id="Trazado_797510" data-name="Trazado 797510" d="M148.939,196.783H138.49V195.01h9.348l9.724-19.441,10.258-10.258h19.8l9.9-9.9H217.69v1.773H198.256l-9.9,9.9h-19.8l-9.539,9.539Z" transform="translate(-138.49 -155.41)" fill="#263238"/>
      </g>
      <rect id="Rectángulo_373584" data-name="Rectángulo 373584" width="16.777" height="16.777" rx="4.75" transform="translate(34.741 95.74)" fill="#00a9ff"/>
      <rect id="Rectángulo_373585" data-name="Rectángulo 373585" width="16.777" height="16.777" rx="4.75" transform="translate(34.741 95.74)" opacity="0.3"/>
      <rect id="Rectángulo_373586" data-name="Rectángulo 373586" width="16.777" height="16.777" rx="4.75" transform="translate(34.741 94.567)" fill="#00a9ff"/>
      <rect id="Rectángulo_373587" data-name="Rectángulo 373587" width="16.777" height="16.777" rx="4.75" transform="translate(34.741 94.567)" fill="#fff" opacity="0.8"/>
      <path id="Trazado_797511" data-name="Trazado 797511" d="M179.337,199.424a2.314,2.314,0,0,1,.554-1.668,2.426,2.426,0,0,1,3.164,0,2.314,2.314,0,0,1,.554,1.668v4.615a2.636,2.636,0,0,1-.27,1.253.25.25,0,0,0,.132.158.857.857,0,0,0,.264.033h.125v1.253h-.191a1.635,1.635,0,0,1-.771-.158.982.982,0,0,1-.442-.455,2.493,2.493,0,0,1-.461.119,2.6,2.6,0,0,1-.521.046,2.057,2.057,0,0,1-1.582-.58,2.327,2.327,0,0,1-.554-1.668Zm1.4,4.74a.936.936,0,0,0,.2.659.811.811,0,0,0,1.061,0,.936.936,0,0,0,.2-.659v-4.832a.956.956,0,0,0-.2-.659.811.811,0,0,0-1.061,0,.956.956,0,0,0-.2.659Z" transform="translate(-140.654 -98.991)"/>
      <path id="Trazado_797512" data-name="Trazado 797512" d="M188.5,198.421a2.168,2.168,0,0,0,.659-.086,1.18,1.18,0,0,0,.429-.244,1.319,1.319,0,0,0,.264-.356,3.193,3.193,0,0,0,.185-.435h.943v8.966h-1.4v-6.823H188.49Z" transform="translate(-143.774 -99.035)"/>
      <rect id="Rectángulo_373588" data-name="Rectángulo 373588" width="16.777" height="16.777" rx="4.75" transform="translate(94.25 96.399)" fill="#00a9ff"/>
      <rect id="Rectángulo_373589" data-name="Rectángulo 373589" width="16.777" height="16.777" rx="4.75" transform="translate(94.25 96.399)" opacity="0.3"/>
      <rect id="Rectángulo_373590" data-name="Rectángulo 373590" width="16.777" height="16.777" rx="4.75" transform="translate(94.25 95.226)" fill="#00a9ff"/>
      <rect id="Rectángulo_373591" data-name="Rectángulo 373591" width="16.777" height="16.777" rx="4.75" transform="translate(94.25 95.226)" fill="#fff" opacity="0.8"/>
      <path id="Trazado_797513" data-name="Trazado 797513" d="M269.887,200.608a2.327,2.327,0,0,1,.547-1.668,2.459,2.459,0,0,1,3.171,0,2.354,2.354,0,0,1,.547,1.668v4.615a2.638,2.638,0,0,1-.27,1.253.27.27,0,0,0,.138.165.817.817,0,0,0,.257,0h.132v1.253h-.191a1.635,1.635,0,0,1-.771-.158.956.956,0,0,1-.442-.455,3.382,3.382,0,0,1-.461.125,3.3,3.3,0,0,1-.527.046,2.077,2.077,0,0,1-1.582-.587,2.314,2.314,0,0,1-.547-1.668Zm1.391,4.766a.956.956,0,0,0,.2.659.811.811,0,0,0,1.061,0,.956.956,0,0,0,.2-.659v-4.832a.936.936,0,0,0-.2-.659.811.811,0,0,0-1.061,0,.936.936,0,0,0-.2.659Z" transform="translate(-171.51 -99.397)"/>
      <path id="Trazado_797514" data-name="Trazado 797514" d="M280.524,200.65a1.206,1.206,0,0,0-.2-.811.659.659,0,0,0-.527-.211.719.719,0,0,0-.534.2.936.936,0,0,0-.2.659v.962h-1.318v-.87a2.109,2.109,0,1,1,4.186,0,3.711,3.711,0,0,1-.217,1.318,5.13,5.13,0,0,1-.56,1.068,7.394,7.394,0,0,1-.712.89c-.257.27-.488.527-.692.765a3.783,3.783,0,0,0-.547.745,1.187,1.187,0,0,0-.112.752h2.637v1.279H277.67v-1.1a2.947,2.947,0,0,1,.2-1.147,4.146,4.146,0,0,1,.514-.916,8.5,8.5,0,0,1,.659-.778,9.387,9.387,0,0,0,.659-.771,3.914,3.914,0,0,0,.514-.9A2.889,2.889,0,0,0,280.524,200.65Z" transform="translate(-174.164 -99.386)"/>
      <rect id="Rectángulo_373592" data-name="Rectángulo 373592" width="16.777" height="16.777" rx="4.75" transform="translate(153.963 95.74)" fill="#00a9ff"/>
      <rect id="Rectángulo_373593" data-name="Rectángulo 373593" width="16.777" height="16.777" rx="4.75" transform="translate(153.963 95.74)" opacity="0.3"/>
      <rect id="Rectángulo_373594" data-name="Rectángulo 373594" width="16.777" height="16.777" rx="4.75" transform="translate(153.963 94.567)" fill="#00a9ff"/>
      <rect id="Rectángulo_373595" data-name="Rectángulo 373595" width="16.777" height="16.777" rx="4.75" transform="translate(153.963 94.567)" fill="#fff" opacity="0.8"/>
      <path id="Trazado_797515" data-name="Trazado 797515" d="M360.477,199.608a2.354,2.354,0,0,1,.547-1.668,2.459,2.459,0,0,1,3.171,0,2.353,2.353,0,0,1,.547,1.668v4.615a2.538,2.538,0,0,1-.27,1.253.3.3,0,0,0,.138.165.844.844,0,0,0,.264,0H365v1.253h-.191a1.635,1.635,0,0,1-.771-.158.956.956,0,0,1-.442-.455,3.382,3.382,0,0,1-.461.125,3.3,3.3,0,0,1-.527.046,2.077,2.077,0,0,1-1.582-.587,2.341,2.341,0,0,1-.547-1.668Zm1.4,4.74a.956.956,0,0,0,.2.659.811.811,0,0,0,1.061,0,.956.956,0,0,0,.2-.659v-4.832a.936.936,0,0,0-.2-.659.811.811,0,0,0-1.061,0,.936.936,0,0,0-.2.659Z" transform="translate(-202.381 -99.056)"/>
      <path id="Trazado_797516" data-name="Trazado 797516" d="M371,199.65a1.207,1.207,0,0,0-.2-.811.659.659,0,0,0-.534-.211.719.719,0,0,0-.527.2.936.936,0,0,0-.2.659v.58h-1.318v-.488a2.111,2.111,0,1,1,4.193,0v.231a1.772,1.772,0,0,1-.982,1.839,1.424,1.424,0,0,1,.758.705,2.743,2.743,0,0,1,.224,1.173v.7a2.111,2.111,0,1,1-4.193,0v-.719h1.318v.857a.956.956,0,0,0,.2.659.8.8,0,0,0,1.061-.007,1.2,1.2,0,0,0,.2-.8v-.705a1.385,1.385,0,0,0-.218-.883.877.877,0,0,0-.732-.237h-.475v-1.318h.554a.91.91,0,0,0,.62-.2,1,1,0,0,0,.224-.745Z" transform="translate(-205.021 -99.045)"/>
    </g>
    <g id="freepik--Hand--inject-2" transform="translate(128.59 54.223)">
      <path id="Trazado_797517" data-name="Trazado 797517" d="M255.093,304.789l1.114,9.625c0,25.908-.91,27.833-3.079,36.831-.758,3.138-1.688,6.632-2.769,9.763a16.342,16.342,0,0,0-.732,3.065v.046a17.526,17.526,0,0,0-.2,2.558,33.976,33.976,0,0,1-1.5,9.8c-1.154,3.955-2.637,8.451-4.292,13.218a144.838,144.838,0,0,1-47.946,4.8l15.426-28.466a14.813,14.813,0,0,0,1.556-9.691,307.5,307.5,0,0,1-4.957-43.687c-.738-25.216.943-20.654,1.7-32.546a10.548,10.548,0,0,1,3.744-7.43l.923-.765,9.348-19.381a9.968,9.968,0,0,1,14.213-4.153l9.328,5.755a1.576,1.576,0,0,1,.738,1.16L248.962,266s6.79,10.218,7.252,14.173c.145,1.318-1.253,5.056-1.253,5.056Z" transform="translate(-185.956 -129.137)" fill="#fff"/>
      <g id="Grupo_1064146" data-name="Grupo 1064146" transform="translate(9.734 117.75)" clip-path="url(#clip-path)">
        <path id="Trazado_797518" data-name="Trazado 797518" d="M216.348,384.648c14.965-13.323,11.352-27.642,5.5-35.994-4.681-6.678-1.852-14.932-1.912-22.374a100.474,100.474,0,0,0-1.655-16.2c-.461-2.676-.989-5.346-1.523-8.01-.211-1.035-.191-2.05-.376-3.059s-.844-1.905-.712-2.934c0,0-1.978,15.452-1.978,16.784-.053,3.3,0,7.542,0,10.851.059,7.008.468,11.761.91,18.749.8,12.565,3.632,26.277,4.45,32.124C219.446,377.35,217.436,382.235,216.348,384.648Z" transform="translate(-201.819 -263.65)" fill="#00a9ff"/>
        <g id="Grupo_1064144" data-name="Grupo 1064144" transform="translate(11.856 32.429)" opacity="0.2">
          <path id="Trazado_797519" data-name="Trazado 797519" d="M216.348,384.648c14.965-13.323,11.352-27.642,5.5-35.994-4.681-6.678-1.852-14.932-1.912-22.374a100.474,100.474,0,0,0-1.655-16.2c-.461-2.676-.989-5.346-1.523-8.01-.211-1.035-.191-2.05-.376-3.059s-.844-1.905-.712-2.934c0,0-1.978,15.452-1.978,16.784-.053,3.3,0,7.542,0,10.851.059,7.008.468,11.761.91,18.749.8,12.565,3.632,26.277,4.45,32.124C219.446,377.35,217.436,382.235,216.348,384.648Z" transform="translate(-213.674 -296.08)" fill="#fff"/>
        </g>
        <path id="Trazado_797520" data-name="Trazado 797520" d="M247.338,256.344c-.712-1.641-3.355-1.431-4.456,0s-1.114,3.355-1.055,5.142.1,3.731-.956,5.182a24,24,0,0,0-2.182,2.472c-1.905,3.547,3.87,8.273,1.318,11.4-1.187,1.463-3.8,1.681-4.252,3.514-.514,2.03,2.07,3.25,3.646,4.615a6.262,6.262,0,0,1-.145,9.17c4.18,1.879,4.99,8.946,4.278,18.089,2.815-3.955,3.514-15.6,3.2-20.436s-1.457-9.6-1.872-14.431a47.676,47.676,0,0,1,3.481-22.289Z" transform="translate(-209.32 -249.717)" fill="#00a9ff"/>
        <g id="Grupo_1064145" data-name="Grupo 1064145" transform="translate(26.369 5.474)" opacity="0.2">
          <path id="Trazado_797521" data-name="Trazado 797521" d="M247.338,256.344c-.712-1.641-3.355-1.431-4.456,0s-1.114,3.355-1.055,5.142.1,3.731-.956,5.182a24,24,0,0,0-2.182,2.472c-1.905,3.547,3.87,8.273,1.318,11.4-1.187,1.463-3.8,1.681-4.252,3.514-.514,2.03,2.07,3.25,3.646,4.615a6.262,6.262,0,0,1-.145,9.17c4.18,1.879,4.99,8.946,4.278,18.089,2.815-3.955,3.514-15.6,3.2-20.436s-1.457-9.6-1.872-14.431a47.676,47.676,0,0,1,3.481-22.289Z" transform="translate(-235.689 -255.19)" fill="#fff"/>
        </g>
        <path id="Trazado_797522" data-name="Trazado 797522" d="M276.01,308.728a13.018,13.018,0,0,0,.982,5.933q3.006,9.018,6,18.043c.105-7.654.323-15.314.323-22.961,0-2.044.593-5.663-2.037-6.25C278.851,302.953,276.3,306.856,276.01,308.728Z" transform="translate(-223.034 -266.16)" fill="#00a9ff"/>
        <path id="Trazado_797523" data-name="Trazado 797523" d="M276.01,308.728a13.018,13.018,0,0,0,.982,5.933q3.006,9.018,6,18.043c.105-7.654.323-15.314.323-22.961,0-2.044.593-5.663-2.037-6.25C278.851,302.953,276.3,306.856,276.01,308.728Z" transform="translate(-223.034 -266.16)" fill="#fff" opacity="0.2"/>
      </g>
      <path id="Trazado_797525" data-name="Trazado 797525" d="M284.117,124.094v1.45a45.776,45.776,0,0,1-1.668,12.288,45.3,45.3,0,0,1-4.681,11.029h.152c-.468.8-.962,1.589-1.477,2.36h-.158a46.074,46.074,0,0,1-26.626,18.841l-.9.218-.514.119a45.572,45.572,0,0,1-10.106,1.121,46.037,46.037,0,0,1-7.113-.547,44.291,44.291,0,0,1-4.41-.91c-1.114-.29-2.208-.613-3.3-.982v.1q-1.266-.422-2.492-.93a46.08,46.08,0,0,1-19.289-14.839c-.6-.778-1.16-1.576-1.694-2.393-.356-.534-.7-1.081-1.028-1.635-.527-.87-1.028-1.754-1.5-2.637-.244-.468-.475-.936-.7-1.411-.125-.244-.237-.494-.349-.745-.165-.363-.323-.725-.481-1.094a46.008,46.008,0,0,1-3.566-17.8c0-.883,0-1.76.073-2.637.059-1,.145-1.978.27-2.986h0a46.153,46.153,0,0,1,27.859-36.818c1-.415,2.011-.8,3.039-1.147a46.146,46.146,0,0,1,30.325.283q1.49.534,2.94,1.173a45.529,45.529,0,0,1,4.569,2.314h.079c.448.257.9.527,1.318.817s.89.567,1.318.864l.086.145q1.391.949,2.709,1.978a46.462,46.462,0,0,1,8,8.168c.448.587.877,1.187,1.318,1.793l.218.323c.356.534.712,1.061,1.048,1.609.415.659.817,1.365,1.2,2.063l.033.066h0a7.4,7.4,0,0,1,.349.659c.059.119.119.244.185.363.185.363.363.732.534,1.1a.2.2,0,0,1,0,.053v.04l.04.079.033.066.046.105a.2.2,0,0,1,0,.053l.191.415a45.342,45.342,0,0,1,3.7,12.756l.119,1.4c.046.468.086.943.125,1.411s.053.857.072,1.318h0v.119A.772.772,0,0,1,284.117,124.094Z" transform="translate(-184.773 -72.16)" fill="#263238"/>
      <path id="Trazado_797526" data-name="Trazado 797526" d="M284.117,124.094v1.45a45.776,45.776,0,0,1-1.668,12.288,45.3,45.3,0,0,1-4.681,11.029h.152c-.468.8-.962,1.589-1.477,2.36h-.158a46.074,46.074,0,0,1-26.626,18.841l-.9.218-.514.119a45.572,45.572,0,0,1-10.106,1.121,46.037,46.037,0,0,1-7.113-.547,44.291,44.291,0,0,1-4.41-.91c-1.114-.29-2.208-.613-3.3-.982v.1q-1.266-.422-2.492-.93a46.08,46.08,0,0,1-19.289-14.839c-.6-.778-1.16-1.576-1.694-2.393-.356-.534-.7-1.081-1.028-1.635-.527-.87-1.028-1.754-1.5-2.637-.244-.468-.475-.936-.7-1.411-.125-.244-.237-.494-.349-.745-.165-.363-.323-.725-.481-1.094a46.008,46.008,0,0,1-3.566-17.8c0-.883,0-1.76.073-2.637.059-1,.145-1.978.27-2.986h0a46.153,46.153,0,0,1,27.859-36.818c1-.415,2.011-.8,3.039-1.147a46.146,46.146,0,0,1,30.325.283q1.49.534,2.94,1.173a45.529,45.529,0,0,1,4.569,2.314h.079c.448.257.9.527,1.318.817s.89.567,1.318.864l.086.145q1.391.949,2.709,1.978a46.462,46.462,0,0,1,8,8.168c.448.587.877,1.187,1.318,1.793l.218.323c.356.534.712,1.061,1.048,1.609.415.659.817,1.365,1.2,2.063l.033.066,1.075,2.123a.2.2,0,0,1,0,.053v.04l.04.079.033.066.046.105a.2.2,0,0,1,0,.053l.191.415a45.345,45.345,0,0,1,3.7,12.756l.119,1.4c.046.468.086.943.125,1.411s.053.857.073,1.318h0v.119A.821.821,0,0,1,284.117,124.094Z" transform="translate(-184.773 -72.16)" fill="#00a9ff"/>
      <path id="Trazado_797527" data-name="Trazado 797527" d="M245.221,121.377H225.094v1.134h0v1.279h0l.178.171c-.059.066-.119.119-.178.178h0v.257h11.543l5.7-.046,5.636-.066,5.557-.079c.033-1,.066-1.978.092-2.993h.752Zm38.941,3.474c0,.185-.033.369-.046.554-.369,4.72-.9,9.315-1.582,13.666a45.779,45.779,0,0,0,1.668-12.288v-1.45A3.947,3.947,0,0,1,284.161,124.852Zm-38.941-3.474H225.094v1.134h0v1.279h0l.178.171c-.059.066-.119.119-.178.178h0v.257h11.543l5.7-.046,5.636-.066,5.557-.079c.033-1,.066-1.978.092-2.993h.752Zm0,0H225.094v1.134h0v1.279h0l.178.171c-.059.066-.119.119-.178.178h0v.257h11.543l5.7-.046,5.636-.066,5.557-.079c.033-1,.066-1.978.092-2.993h.752Zm0,0H225.094v1.134h0v1.279h0l.178.171c-.059.066-.119.119-.178.178h0v.257h11.543l5.7-.046,5.636-.066,5.557-.079c.033-1,.066-1.978.092-2.993h.752Zm0,0H225.094v1.134h0v1.279h0l.178.171c-.059.066-.119.119-.178.178h0v.257h11.543l5.7-.046,5.636-.066,5.557-.079c.033-1,.066-1.978.092-2.993h.752Zm0,0H225.094v1.134h0v1.279h0l.178.171c-.059.066-.119.119-.178.178h0v.257h11.543l5.7-.046,5.636-.066,5.557-.079c.033-1,.066-1.978.092-2.993h.752Zm0,0H225.094v1.134h0v1.279h0l.178.171c-.059.066-.119.119-.178.178h0v.257h11.543l5.7-.046,5.636-.066,5.557-.079c.033-1,.066-1.978.092-2.993h.752Zm0,0H225.094v1.134h0v1.279h0l.178.171c-.059.066-.119.119-.178.178h0v.257h11.543l5.7-.046,5.636-.066,5.557-.079c.033-1,.066-1.978.092-2.993h.752Zm0,0H225.094v1.134h0v1.279h0l.178.171h0l-.185.178v.264h11.543l5.7-.046,5.636-.066,5.557-.079c.033-1,.066-1.978.092-2.993h.752Zm0,0H225.094v1.134h0v1.279h0l.178.171h0l-.185.178v.264h11.543l5.7-.046,5.636-.066,5.557-.079c.033-1,.066-1.978.092-2.993h.752Zm8.385-.092h.752l-9.137.105H225.094v1.134h0V123.8h0l.178.171h0l-.185.178v.264h-1.536v1.246c0,9.8,0,19.085-.053,26.9,9.691,0,19.375-.231,28.617-.659.475-3.632.89-7.575,1.226-11.741.073-.91.145-1.826.211-2.756.31-4.252.547-8.7.712-13.244h-.752C253.547,123.283,253.58,122.287,253.606,121.285Zm.791-24.609c0-.448,0-.9-.033-1.318-.053-1.609-.105-3.2-.171-4.773-9.888-.211-20.252-.323-30.648-.33v31.261h.277a3.452,3.452,0,0,0,.369,0h20.126l9.137-.105A152.152,152.152,0,0,0,254.4,96.676Zm-9.176,24.7H225.094v1.134h0v1.279h0l.178.171h0l-.185.178v.264h11.543l5.7-.046,5.636-.066,5.557-.079c.033-1,.066-1.978.092-2.993h.752Zm0,0H225.094v1.134h0v1.279h0l.178.171h0l-.185.178v.264h11.543l5.7-.046,5.636-.066,5.557-.079c.033-1,.066-1.978.092-2.993h.752Zm0,0H225.094v1.134h0v1.279h0l.178.171h0l-.185.178v.264h11.543l5.7-.046,5.636-.066,5.557-.079c.033-1,.066-1.978.092-2.993h.752Zm0,0H225.094v1.134h0v1.279h0l.178.171c-.059.066-.119.119-.178.178h0v.257h11.543l5.7-.046,5.636-.066,5.557-.079c.033-1,.066-1.978.092-2.993h.752Zm0,0H225.094v1.134h0v1.279h0l.178.171c-.059.066-.119.119-.178.178h0v.257h11.543l5.7-.046,5.636-.066,5.557-.079c.033-1,.066-1.978.092-2.993h.752Zm0,0H225.094v1.134h0v1.279h0l.178.171c-.059.066-.119.119-.178.178h0v.257h11.543l5.7-.046,5.636-.066,5.557-.079c.033-1,.066-1.978.092-2.993h.752Zm0,0H225.094v1.134h0v1.279h0l.178.171c-.059.066-.119.119-.178.178h0v.257h11.543l5.7-.046,5.636-.066,5.557-.079c.033-1,.066-1.978.092-2.993h.752Zm0,0H225.094v1.134h0v1.279h0l.178.171c-.059.066-.119.119-.178.178h0v.257h11.543l5.7-.046,5.636-.066,5.557-.079c.033-1,.066-1.978.092-2.993h.752Zm0,0H225.094v1.134h0v1.279h0l.178.171c-.059.066-.119.119-.178.178h0v.257h11.543l5.7-.046,5.636-.066,5.557-.079c.033-1,.066-1.978.092-2.993h.752Zm0,0H225.094v1.134h0v1.279h0l.178.171c-.059.066-.119.119-.178.178h0v.257h11.543l5.7-.046,5.636-.066,5.557-.079c.033-1,.066-1.978.092-2.993h.752Zm38.736.659-.119-1.4h-.073c-7.5.251-15.907.448-24.813.587h-1.707c0-.587.04-1.18.053-1.773.264-9.6.185-19.487-.237-28.828h1.114l2.736.073,5.933.178q-1.318-1.048-2.709-1.978l-.086-.145c-.442-.3-.883-.587-1.318-.864H262.6L259.7,87.8l-2.756-.073c-.053-.982-.105-1.978-.165-2.92q-1.444-.659-2.94-1.173.119,1.978.218,4.021c-9.829-.244-20.166-.369-30.516-.376V83.32c-1.028.343-2.044.732-3.039,1.147v2.782h-5.564a45.074,45.074,0,0,0-4.443,2.986c3.3,0,6.658-.04,10-.046-.033,10.106-.04,20.878,0,31.234-9.15,0-18.261-.066-27.028-.178h-.811c-.125.982-.211,1.978-.27,2.986h1.18c4.977.079,10.073.138,15.235.171H220.48c0,10.264.086,20,.165,28.143-6.968,0-13.923-.158-20.693-.4h0c.534.817,1.094,1.615,1.694,2.393h0c6.236.224,12.618.343,19.006.363.066,5.933.152,10.871.251,14.371v.2q1.226.508,2.492.93v-.1c.04-3.527.066-8.827.086-15.3,9.579,0,19.151-.237,28.294-.659q-.349,2.393-.752,4.555h0c-.079.461-.165.91-.251,1.351a43.67,43.67,0,0,1-3.454,11.392c-5.313.29-10.752.488-16.224.574a46.039,46.039,0,0,0,7.113.547,45.571,45.571,0,0,0,10.106-1.121l.514-.119.9-.218c1.938-3.494,3.52-9.519,4.733-17.107,7.726-.422,15.11-1,21.893-1.734h.158c.514-.771,1.009-1.556,1.477-2.36h-.152c-7.093.758-14.866,1.318-23.027,1.773a276.953,276.953,0,0,0,2.34-27.688c9.1-.171,17.694-.409,25.387-.719h.58l.949-.04c-.026-.468-.066-.943-.112-1.424Z" transform="translate(-184.831 -73.399)" fill="#00a9ff"/>
      <path id="Trazado_797528" data-name="Trazado 797528" d="M245.221,121.377H225.094v1.134h0v1.279h0l.178.171c-.059.066-.119.119-.178.178h0v.257h11.543l5.7-.046,5.636-.066,5.557-.079c.033-1,.066-1.978.092-2.993h.752Zm38.954,3.955v-.481c0,.185-.033.369-.046.554-.369,4.72-.9,9.315-1.582,13.666a45.779,45.779,0,0,0,1.668-12.288C284.2,126.3,284.194,125.814,284.175,125.333Zm-38.954-3.955H225.094v1.134h0v1.279h0l.178.171c-.059.066-.119.119-.178.178h0v.257h11.543l5.7-.046,5.636-.066,5.557-.079c.033-1,.066-1.978.092-2.993h.752Zm0,0H225.094v1.134h0v1.279h0l.178.171c-.059.066-.119.119-.178.178h0v.257h11.543l5.7-.046,5.636-.066,5.557-.079c.033-1,.066-1.978.092-2.993h.752Zm0,0H225.094v1.134h0v1.279h0l.178.171c-.059.066-.119.119-.178.178h0v.257h11.543l5.7-.046,5.636-.066,5.557-.079c.033-1,.066-1.978.092-2.993h.752Zm0,0H225.094v1.134h0v1.279h0l.178.171c-.059.066-.119.119-.178.178h0v.257h11.543l5.7-.046,5.636-.066,5.557-.079c.033-1,.066-1.978.092-2.993h.752Zm0,0H225.094v1.134h0v1.279h0l.178.171c-.059.066-.119.119-.178.178h0v.257h11.543l5.7-.046,5.636-.066,5.557-.079c.033-1,.066-1.978.092-2.993h.752Zm0,0H225.094v1.134h0v1.279h0l.178.171c-.059.066-.119.119-.178.178h0v.257h11.543l5.7-.046,5.636-.066,5.557-.079c.033-1,.066-1.978.092-2.993h.752Zm0,0H225.094v1.134h0v1.279h0l.178.171c-.059.066-.119.119-.178.178h0v.257h11.543l5.7-.046,5.636-.066,5.557-.079c.033-1,.066-1.978.092-2.993h.752Zm0,0H225.094v1.134h0v1.279h0l.178.171h0l-.185.178v.264h11.543l5.7-.046,5.636-.066,5.557-.079c.033-1,.066-1.978.092-2.993h.752Zm0,0H225.094v1.134h0v1.279h0l.178.171h0l-.185.178v.264h11.543l5.7-.046,5.636-.066,5.557-.079c.033-1,.066-1.978.092-2.993h.752Zm0,0H225.094v1.134h0v1.279h0l.178.171h0l-.185.178v.264h11.543l5.7-.046,5.636-.066,5.557-.079c.033-1,.066-1.978.092-2.993h.752Zm0,0H225.094v1.134h0v1.279h0l.178.171h0l-.185.178v.264h11.543l5.7-.046,5.636-.066,5.557-.079c.033-1,.066-1.978.092-2.993h.752Zm0,0H225.094v1.134h0v1.279h0l.178.171h0l-.185.178v.264h11.543l5.7-.046,5.636-.066,5.557-.079c.033-1,.066-1.978.092-2.993h.752Zm0,0H225.094v1.134h0v1.279h0l.178.171h0l-.185.178v.264h11.543l5.7-.046,5.636-.066,5.557-.079c.033-1,.066-1.978.092-2.993h.752Zm0,0H225.094v1.134h0v1.279h0l.178.171c-.059.066-.119.119-.178.178h0v.257h11.543l5.7-.046,5.636-.066,5.557-.079c.033-1,.066-1.978.092-2.993h.752Zm0,0H225.094v1.134h0v1.279h0l.178.171c-.059.066-.119.119-.178.178h0v.257h11.543l5.7-.046,5.636-.066,5.557-.079c.033-1,.066-1.978.092-2.993h.752Zm0,0H225.094v1.134h0v1.279h0l.178.171c-.059.066-.119.119-.178.178h0v.257h11.543l5.7-.046,5.636-.066,5.557-.079c.033-1,.066-1.978.092-2.993h.752Zm0,0H225.094v1.134h0v1.279h0l.178.171c-.059.066-.119.119-.178.178h0v.257h11.543l5.7-.046,5.636-.066,5.557-.079c.033-1,.066-1.978.092-2.993h.752Zm0,0H225.094v1.134h0v1.279h0l.178.171c-.059.066-.119.119-.178.178h0v.257h11.543l5.7-.046,5.636-.066,5.557-.079c.033-1,.066-1.978.092-2.993h.752Zm0,0H225.094v1.134h0v1.279h0l.178.171c-.059.066-.119.119-.178.178h0v.257h11.543l5.7-.046,5.636-.066,5.557-.079c.033-1,.066-1.978.092-2.993h.752Zm0,0H225.094v1.134h0v1.279h0l.178.171c-.059.066-.119.119-.178.178h0v.257h11.543l5.7-.046,5.636-.066,5.557-.079c.033-1,.066-1.978.092-2.993h.752Zm38.736.659-.119-1.4h-.073c-7.5.251-15.907.448-24.813.587h-1.707c0-.587.04-1.18.053-1.773.264-9.6.185-19.487-.237-28.828h1.114l2.736.073,5.933.178q-1.318-1.048-2.709-1.978l-.086-.145c-.442-.3-.883-.587-1.318-.864H262.6L259.7,87.8l-2.756-.073c-.053-.982-.105-1.978-.165-2.92q-1.444-.659-2.94-1.173.119,1.978.218,4.021c-9.829-.244-20.166-.369-30.516-.376V83.32c-1.028.343-2.044.732-3.039,1.147v2.782h-5.564a45.074,45.074,0,0,0-4.443,2.986c3.3,0,6.658-.04,10-.046-.033,10.106-.04,20.878,0,31.234-9.15,0-18.261-.066-27.028-.178h-.811c-.125.982-.211,1.978-.27,2.986h1.18c4.977.079,10.073.138,15.235.171H220.48c0,10.264.086,20,.165,28.143-6.968,0-13.923-.158-20.693-.4h0c.534.817,1.094,1.615,1.694,2.393h0c6.236.224,12.618.343,19.006.363.066,5.933.152,10.871.251,14.371v.2q1.226.508,2.492.93v-.1c.04-3.527.066-8.827.086-15.3,9.579,0,19.151-.237,28.294-.659q-.349,2.393-.752,4.555h0c-.079.461-.165.91-.251,1.351a43.67,43.67,0,0,1-3.454,11.392c-5.313.29-10.752.488-16.224.574a46.039,46.039,0,0,0,7.113.547,45.571,45.571,0,0,0,10.106-1.121l.514-.119.9-.218c1.938-3.494,3.52-9.519,4.733-17.107,7.726-.422,15.11-1,21.893-1.734h.158c.514-.771,1.009-1.556,1.477-2.36h-.152c-7.093.758-14.866,1.318-23.027,1.773a276.953,276.953,0,0,0,2.34-27.688c9.1-.171,17.694-.409,25.387-.719h.58l.949-.04c-.026-.468-.066-.943-.112-1.424Zm-30.4,15.492c-.066.93-.138,1.846-.211,2.756-.336,4.166-.752,8.109-1.226,11.741-9.229.435-18.927.659-28.617.659,0-7.818.04-17.1.053-26.9v-1.246h13.086l5.7-.046,5.636-.066,5.557-.079h.752c-.185,4.47-.422,8.913-.732,13.165Zm.8-16.237-9.137.105H225.094a3.456,3.456,0,0,1-.369,0h-.29V90.136c10.4,0,20.779.119,30.648.33.066,1.576.119,3.164.171,4.773,0,.442,0,.89.033,1.318-.679,8.221-.692,16.593-.93,24.715Z" transform="translate(-184.831 -73.399)" fill="#fff" opacity="0.8"/>
      <path id="Trazado_797529" data-name="Trazado 797529" d="M270.346,145.43c-.165,4.549-.4,8.992-.712,13.244-.066.93-.138,1.846-.211,2.756-.336,4.166-.752,8.109-1.226,11.741-9.229.435-18.927.659-28.617.659,0-7.818.04-17.1.053-26.9V145.68h13.086l5.7-.046,5.636-.066,5.557-.079Z" transform="translate(-200.912 -94.564)" fill="#00a9ff"/>
      <path id="Trazado_797530" data-name="Trazado 797530" d="M270.922,124.785l-9.137.105H241.659a3.452,3.452,0,0,1-.369,0H241V93.63c10.4,0,20.779.119,30.648.33.066,1.576.119,3.164.171,4.773,0,.442,0,.89.033,1.318C271.173,108.291,271.16,116.664,270.922,124.785Z" transform="translate(-201.396 -76.912)" fill="#00a9ff"/>
      <path id="Trazado_797531" data-name="Trazado 797531" d="M238.145,142.911l-2.485-2.149,2.485-2.162,2.485,2.162Z" transform="translate(-199.576 -92.236)" fill="#263238"/>
      <path id="Trazado_797532" data-name="Trazado 797532" d="M282.79,90.856l-.086-.145c-.442-.3-.883-.587-1.318-.864s-.89-.56-1.318-.817h-.079l-1.609.659-.567.244-1.945,1.754.976.857,1.43,1.266,1.319-1.193.277-.251,3.1-1.318Zm-9.816,6.427-1.661-1.47q-2.294,2.07-4.674,4.18l2.446,2.2,3.922-3.54.732-.659Zm-11.134,6.981-4.892,4.338,2.466,2.182q2.466-2.175,4.885-4.338Zm-9.849,8.708L247,117.357l2.479,2.175,4.984-4.371Z" transform="translate(-203.441 -75.344)" fill="#263238"/>
      <g id="Grupo_1064148" data-name="Grupo 1064148" transform="translate(37.184 31.076)" opacity="0.5">
        <path id="Trazado_797533" data-name="Trazado 797533" d="M293.666,115.41h-2.591l-2.571,2.756,1.932,2.11c.593-.659,1.18-1.318,1.76-1.925h1.47C293.686,117.375,293.68,116.392,293.666,115.41Zm-8.853,6.737q-1.885,1.978-3.83,4.028,1,1.055,1.978,2.1,1.938-2.017,3.817-4.021C286.118,123.558,285.472,122.853,284.813,122.147ZM250.79,132.4v3.039h5.768c0-1,0-2.017.04-3.032Zm14.332-.086H262.28c0,1.015-.04,2.017-.059,3.019l5.636-.066c.033-1,.059-1.978.079-3.006Zm13.758-.171-1.655-1.747-.165-.171c-.659.659-1.318,1.318-1.945,1.978h-1.609c0,1-.059,1.978-.092,2.993h.752l2.05-.033,2.822-2.854Z" transform="translate(-241.917 -115.41)"/>
        <path id="Trazado_797534" data-name="Trazado 797534" d="M240.409,144.246H237.33V141.2h3.079Z" transform="translate(-237.33 -124.198)"/>
        <g id="Grupo_1064147" data-name="Grupo 1064147" opacity="0.2">
          <path id="Trazado_797535" data-name="Trazado 797535" d="M293.666,115.41h-2.591l-2.571,2.756,1.932,2.11c.593-.659,1.18-1.318,1.76-1.925h1.47C293.686,117.375,293.68,116.392,293.666,115.41Zm-8.853,6.737q-1.885,1.978-3.83,4.028,1,1.055,1.978,2.1,1.938-2.017,3.817-4.021C286.118,123.558,285.472,122.853,284.813,122.147ZM250.79,132.4v3.039h5.768c0-1,0-2.017.04-3.032Zm14.332-.086H262.28c0,1.015-.04,2.017-.059,3.019l5.636-.066c.033-1,.059-1.978.079-3.006Zm13.758-.171-1.655-1.747-.165-.171c-.659.659-1.318,1.318-1.945,1.978h-1.609c0,1-.059,1.978-.092,2.993h.752l2.05-.033,2.822-2.854Z" transform="translate(-241.917 -115.41)"/>
          <path id="Trazado_797536" data-name="Trazado 797536" d="M240.409,144.246H237.33V141.2h3.079Z" transform="translate(-237.33 -124.198)"/>
        </g>
      </g>
      <g id="Grupo_1064150" data-name="Grupo 1064150" transform="translate(36.11 48.526)" opacity="0.3">
        <path id="Trazado_797537" data-name="Trazado 797537" d="M237.875,146.172l-2.175-2.142,2.175-2.149,2.175,2.149Z" transform="translate(-235.7 -141.88)"/>
        <path id="Trazado_797538" data-name="Trazado 797538" d="M302.348,145.437v-.119h0l-1.055-1.266c-.086-.105-.171-.218-.264-.323l-.316.349c-1.18,1.318-2.393,2.637-3.619,3.955.541.659,1.068,1.259,1.589,1.885,1.22-1.318,2.426-2.637,3.593-3.955a.29.29,0,0,0,.059-.073A2.052,2.052,0,0,0,302.348,145.437Zm-54.413,3.626-2.175,2.11q2.215,2.156,4.391,4.259l2.175-2.063Q250.15,151.245,247.935,149.063Zm45.091,3.25q-2.083,2.142-4.259,4.252c.554.606,1.094,1.213,1.628,1.813q2.136-2.1,4.213-4.212Zm-35.493,6.1-.93-.9-2.169,2.024,1.76,1.681,4.753-.086c.046-.916.092-1.846.138-2.782Zm14.206-.343q-2.274.079-4.615.138c-.059.93-.119,1.852-.185,2.762q2.3-.059,4.562-.145l1.358-.046c.079-.91.152-1.826.224-2.749-.428.04-.883.059-1.345.066Zm7.2-.257q-.119,1.384-.257,2.729c1.905-.079,3.791-.171,5.643-.27.1-.9.2-1.8.29-2.709-1.866.119-3.758.191-5.676.277Z" transform="translate(-239.128 -142.51)"/>
        <g id="Grupo_1064149" data-name="Grupo 1064149" opacity="0.3">
          <path id="Trazado_797539" data-name="Trazado 797539" d="M237.875,146.172l-2.175-2.142,2.175-2.149,2.175,2.149Z" transform="translate(-235.7 -141.88)"/>
          <path id="Trazado_797540" data-name="Trazado 797540" d="M302.348,145.437v-.119h0l-1.055-1.266c-.086-.105-.171-.218-.264-.323l-.316.349c-1.18,1.318-2.393,2.637-3.619,3.955.541.659,1.068,1.259,1.589,1.885,1.22-1.318,2.426-2.637,3.593-3.955a.29.29,0,0,0,.059-.073A2.052,2.052,0,0,0,302.348,145.437Zm-54.413,3.626-2.175,2.11q2.215,2.156,4.391,4.259l2.175-2.063Q250.15,151.245,247.935,149.063Zm45.091,3.25q-2.083,2.142-4.259,4.252c.554.606,1.094,1.213,1.628,1.813q2.136-2.1,4.213-4.212Zm-35.493,6.1-.93-.9-2.169,2.024,1.76,1.681,4.753-.086c.046-.916.092-1.846.138-2.782Zm14.206-.343q-2.274.079-4.615.138c-.059.93-.119,1.852-.185,2.762q2.3-.059,4.562-.145l1.358-.046c.079-.91.152-1.826.224-2.749-.428.04-.883.059-1.345.066Zm7.2-.257q-.119,1.384-.257,2.729c1.905-.079,3.791-.171,5.643-.27.1-.9.2-1.8.29-2.709-1.866.119-3.758.191-5.676.277Z" transform="translate(-239.128 -142.51)"/>
        </g>
      </g>
      <path id="Trazado_797541" data-name="Trazado 797541" d="M269.649,202.185c-.145.626-.3,1.22-.461,1.8v.125l-.158.574c-.2.7-.4,1.365-.607,1.978-.04.092-.066.185-.1.277l-.119.343c-.033.112-.079.224-.119.336a5.047,5.047,0,0,1-.178.475,19.727,19.727,0,0,1-.857,1.978c-.119.251-.244.488-.369.719l-.059.086-.514.119A45.572,45.572,0,0,1,256,212.113a46.033,46.033,0,0,1-7.113-.547,44.291,44.291,0,0,1-4.41-.91,3.66,3.66,0,0,1,.046-.7,9.484,9.484,0,0,0,.059-.949c.02-.33.04-.659.059-1.028s.04-.725.053-1.107v-.58c.046-1.028.092-2.143.138-3.336.053-1.806,2.268-3.474,4.944-3.514,5.4-.092,10.745-.257,15.98-.5a4.615,4.615,0,0,1,2.782.659,2.294,2.294,0,0,1,1.107,2.584Z" transform="translate(-202.582 -112.794)" fill="#00a9ff"/>
      <g id="Grupo_1064151" data-name="Grupo 1064151" transform="translate(41.898 86.133)" opacity="0.3">
        <path id="Trazado_797542" data-name="Trazado 797542" d="M269.649,202.185c-.145.626-.3,1.22-.461,1.8v.125l-.158.574c-.2.7-.4,1.365-.607,1.978-.04.092-.066.185-.1.277l-.119.343c-.033.112-.079.224-.119.336a5.047,5.047,0,0,1-.178.475,19.727,19.727,0,0,1-.857,1.978c-.119.251-.244.488-.369.719l-.059.086-.514.119A45.572,45.572,0,0,1,256,212.113a46.033,46.033,0,0,1-7.113-.547,44.291,44.291,0,0,1-4.41-.91,3.66,3.66,0,0,1,.046-.7,9.484,9.484,0,0,0,.059-.949c.02-.33.04-.659.059-1.028s.04-.725.053-1.107v-.58c.046-1.028.092-2.143.138-3.336.053-1.806,2.268-3.474,4.944-3.514,5.4-.092,10.745-.257,15.98-.5a4.615,4.615,0,0,1,2.782.659,2.294,2.294,0,0,1,1.107,2.584Z" transform="translate(-244.48 -198.926)"/>
      </g>
      <path id="Trazado_797543" data-name="Trazado 797543" d="M269.939,200.244c-.092.422-.191.837-.29,1.239-.145.626-.3,1.22-.461,1.8v.125l-.158.574c-.2.7-.4,1.365-.607,1.978-.073.211-.138.415-.218.62s-.079.224-.119.336a5.064,5.064,0,0,1-.178.475,19.727,19.727,0,0,1-.857,1.978,2.44,2.44,0,0,1-.943.923A45.573,45.573,0,0,1,256,211.411a46.035,46.035,0,0,1-7.113-.547,44.293,44.293,0,0,1-4.41-.91,3.658,3.658,0,0,1,.046-.7,9.484,9.484,0,0,0,.059-.949c.02-.33.04-.659.059-1.028s.04-.725.053-1.107v-.58c.046-1.028.092-2.143.138-3.336q0-.613.04-1.246c.053-1.879,2.288-3.606,4.99-3.646,5.439-.092,10.838-.257,16.118-.5a4.687,4.687,0,0,1,2.808.659h0a2.452,2.452,0,0,1,1.147,2.723Z" transform="translate(-202.582 -112.085)" fill="#00a9ff"/>
      <g id="Grupo_1064152" data-name="Grupo 1064152" transform="translate(41.898 84.761)" opacity="0.8">
        <path id="Trazado_797544" data-name="Trazado 797544" d="M269.939,200.244c-.092.422-.191.837-.29,1.239-.145.626-.3,1.22-.461,1.8v.125l-.158.574c-.2.7-.4,1.365-.607,1.978-.073.211-.138.415-.218.62s-.079.224-.119.336a5.064,5.064,0,0,1-.178.475,19.727,19.727,0,0,1-.857,1.978,2.44,2.44,0,0,1-.943.923A45.573,45.573,0,0,1,256,211.411a46.035,46.035,0,0,1-7.113-.547,44.293,44.293,0,0,1-4.41-.91,3.658,3.658,0,0,1,.046-.7,9.484,9.484,0,0,0,.059-.949c.02-.33.04-.659.059-1.028s.04-.725.053-1.107v-.58c.046-1.028.092-2.143.138-3.336q0-.613.04-1.246c.053-1.879,2.288-3.606,4.99-3.646,5.439-.092,10.838-.257,16.118-.5a4.687,4.687,0,0,1,2.808.659h0a2.452,2.452,0,0,1,1.147,2.723Z" transform="translate(-244.48 -196.846)" fill="#fff"/>
      </g>
      <path id="Trazado_797545" data-name="Trazado 797545" d="M259.423,210.215c.264-1.2.521-2.564.758-4.074a1.628,1.628,0,0,0-.567-1.655,3.507,3.507,0,0,0-2.288-.547,4.351,4.351,0,0,0-2.433.659,2.274,2.274,0,0,0-.982,1.7q-.224,2.268-.475,4.067a1.081,1.081,0,0,0,.574,1.2,4.179,4.179,0,0,0,2.1.343,3.662,3.662,0,0,0,.725-.046c.224-.046.442-.059.659-.1a.93.93,0,0,0,.527.277,3.8,3.8,0,0,0,1.022.073h.257c.079-.27.158-.554.231-.85h-.171a2.738,2.738,0,0,1-.356,0,.218.218,0,0,1-.158-.112A1.668,1.668,0,0,0,259.423,210.215Zm-1.286-4.1c-.217,1.576-.448,2.993-.692,4.232a.692.692,0,0,1-.382.521,1.747,1.747,0,0,1-.765.165,1.351,1.351,0,0,1-.712-.125.435.435,0,0,1-.185-.508c.211-1.233.409-2.637.593-4.226a.877.877,0,0,1,.369-.659,1.509,1.509,0,0,1,.811-.218,1.167,1.167,0,0,1,.758.178A.659.659,0,0,1,258.137,206.115Z" transform="translate(-205.626 -114.495)"/>
      <path id="Trazado_797546" data-name="Trazado 797546" d="M270.709,204.052a3.131,3.131,0,0,0-2.189-.508,4.312,4.312,0,0,0-2.413.705,2.558,2.558,0,0,0-1.055,1.707c-.046.283-.1.56-.145.831l1.918-.073c.059-.3.119-.606.178-.923a1,1,0,0,1,.409-.659,1.569,1.569,0,0,1,.817-.231,1.081,1.081,0,0,1,.732.178c.165.132.2.4.125.791a2.433,2.433,0,0,1-.527,1.088,4.932,4.932,0,0,1-.923.844,11.826,11.826,0,0,1-1.107.719,12.873,12.873,0,0,0-1.094.692,5.172,5.172,0,0,0-.9.758,1.977,1.977,0,0,0-.508.87c-.066.27-.138.527-.211.771q2.769-.1,5.5-.237c.112-.283.218-.587.323-.9-1.206.059-2.419.119-3.639.165a.8.8,0,0,1,.316-.574,5.933,5.933,0,0,1,.831-.593q.5-.316,1.127-.659a11.025,11.025,0,0,0,1.206-.811,6.092,6.092,0,0,0,1.022-1,2.947,2.947,0,0,0,.613-1.266A1.569,1.569,0,0,0,270.709,204.052Z" transform="translate(-209.172 -114.357)"/>
      <path id="Trazado_797547" data-name="Trazado 797547" d="M222.009,141.142v3.046H208.8c-5.162-.033-10.258-.092-15.235-.171h-1.18c.059-1,.145-1.978.27-2.986h.791c8.741.112,17.852.165,27.028.178Z" transform="translate(-184.831 -93.064)" fill="#263238"/>
      <circle id="Elipse_4758" data-name="Elipse 4758" cx="3.237" cy="3.237" r="3.237" transform="translate(33.941 46.423)" fill="#263238"/>
      <path id="Trazado_797548" data-name="Trazado 797548" d="M284.332,125.6a45.863,45.863,0,1,1-5.307-21.458A45.863,45.863,0,0,1,284.332,125.6Z" transform="translate(-184.903 -72.159)" fill="#fff" opacity="0.2"/>
      <path id="Trazado_797549" data-name="Trazado 797549" d="M307.981,149.33A45.981,45.981,0,0,1,262,195.311Z" transform="translate(-208.552 -95.893)" fill="#fff" opacity="0.2"/>
      <path id="Trazado_797550" data-name="Trazado 797550" d="M193.534,136.339A46.027,46.027,0,0,1,251.1,81.4Z" transform="translate(-184.788 -72.124)" fill="#fff" opacity="0.2"/>
      <path id="Trazado_797551" data-name="Trazado 797551" d="M285.592,111.164l-63.365,61.453a46.061,46.061,0,0,1-10.357-8.043L277.615,100.3A45.824,45.824,0,0,1,285.592,111.164Z" transform="translate(-191.47 -79.185)" fill="#fff" opacity="0.2"/>
      <path id="Trazado_797552" data-name="Trazado 797552" d="M274.764,219.81,256.22,233.39H240.478L221.94,219.81Z" transform="translate(-194.901 -119.91)" fill="#c9cccd" stroke="#263238" stroke-linecap="round" stroke-linejoin="round" stroke-width="1"/>
      <path id="Trazado_797553" data-name="Trazado 797553" d="M234.372,68.27a53.444,53.444,0,0,0-26.409,99.906h0A53.444,53.444,0,1,0,234.372,68.27Zm0,99.419a46.2,46.2,0,1,0-.007,0Z" transform="translate(-180.924 -68.27)" fill="#c9cccd" stroke="#263238" stroke-linecap="round" stroke-linejoin="round" stroke-width="1"/>
      <rect id="Rectángulo_373596" data-name="Rectángulo 373596" width="15.037" height="93.65" transform="translate(45.576 113.48)" fill="#263238"/>
      <path id="Trazado_797554" data-name="Trazado 797554" d="M246.68,88.737a41.182,41.182,0,0,1,9.691-1.147" transform="translate(-203.332 -74.854)" fill="none" stroke="#263238" stroke-miterlimit="10" stroke-width="1"/>
      <path id="Trazado_797555" data-name="Trazado 797555" d="M199.09,130.534A41.065,41.065,0,0,1,223.2,93.127" transform="translate(-187.114 -76.74)" fill="none" stroke="#263238" stroke-miterlimit="10" stroke-width="1"/>
      <path id="Trazado_797556" data-name="Trazado 797556" d="M272,310.567c-7.034-19.395-7-22.539-7.41-34.28-.132-3.665-.059-7.377-.93-10.943s-3.052-8.234-6.685-8.774c-2.67-.4-5.307,1.318-6.731,3.619a17.73,17.73,0,0,0-2.116,7.746,74.328,74.328,0,0,0,1.945,25.618c-2.591,5.966-1.6,10.429-3.23,19.52v38.235h23.423S276.538,323.172,272,310.567Z" transform="translate(-203.386 -132.417)" fill="#fff"/>
      <path id="Trazado_797557" data-name="Trazado 797557" d="M271.36,351.262s5.162-28.09.587-40.694c-7.034-19.395-7-22.539-7.41-34.28-.132-3.665-.059-7.377-.93-10.943s-3.052-8.234-6.685-8.774c-2.67-.4-5.307,1.318-6.731,3.619a17.731,17.731,0,0,0-2.116,7.746,74.328,74.328,0,0,0,1.945,25.618c-2.591,5.966-1.6,10.429-3.23,19.52" transform="translate(-203.369 -132.417)" fill="none" stroke="#263238" stroke-linecap="round" stroke-linejoin="round" stroke-width="1"/>
      <path id="Trazado_797558" data-name="Trazado 797558" d="M275.587,276a6.355,6.355,0,0,1-1.767,6.118" transform="translate(-212.58 -139.058)" fill="#fff" stroke="#263238" stroke-linecap="round" stroke-linejoin="round" stroke-width="1"/>
      <path id="Trazado_797559" data-name="Trazado 797559" d="M262.068,262.49a21.357,21.357,0,0,1,0,5.617,15.347,15.347,0,0,1-8.867.31,10.218,10.218,0,0,1-.185-5.1" transform="translate(-205.41 -134.454)" fill="#fff" stroke="#263238" stroke-linecap="round" stroke-linejoin="round" stroke-width="1"/>
      <path id="Trazado_797560" data-name="Trazado 797560" d="M254.36,323.25c.277,1.1.448,1.78.659,2.571" transform="translate(-205.949 -155.159)" fill="#fff" stroke="#263238" stroke-linecap="round" stroke-linejoin="round" stroke-width="1"/>
      <path id="Trazado_797561" data-name="Trazado 797561" d="M251,310c.218.89,1.121,4.456,1.912,7.627" transform="translate(-204.804 -150.644)" fill="#fff" stroke="#263238" stroke-linecap="round" stroke-linejoin="round" stroke-width="1"/>
      <path id="Trazado_797562" data-name="Trazado 797562" d="M274.7,323.05c0,1.391.072,2.637.165,3.725" transform="translate(-212.88 -155.091)" fill="#fff" stroke="#263238" stroke-linecap="round" stroke-linejoin="round" stroke-width="1"/>
      <path id="Trazado_797563" data-name="Trazado 797563" d="M274.2,296.56c.389,4.845.224,10.139.29,15.235" transform="translate(-212.71 -146.064)" fill="#fff" stroke="#263238" stroke-linecap="round" stroke-linejoin="round" stroke-width="1"/>
      <path id="Trazado_797564" data-name="Trazado 797564" d="M282.758,303.6a80.65,80.65,0,0,1-5.828,6.889" transform="translate(-213.64 -148.463)" fill="#fff" stroke="#263238" stroke-linecap="round" stroke-linejoin="round" stroke-width="1"/>
      <path id="Trazado_797565" data-name="Trazado 797565" d="M280.67,324.011a11.866,11.866,0,0,0,3.079-3.171" transform="translate(-214.914 -154.338)" fill="#fff" stroke="#263238" stroke-linecap="round" stroke-linejoin="round" stroke-width="1"/>
      <path id="Trazado_797566" data-name="Trazado 797566" d="M217.506,321.18c1.173,4.615-1.51,9.473-.982,14.233" transform="translate(-193.032 -154.454)" fill="none" stroke="#263238" stroke-linecap="round" stroke-linejoin="round" stroke-width="1"/>
      <path id="Trazado_797567" data-name="Trazado 797567" d="M216,305c.283,2.736.494,4.826.778,7.561" transform="translate(-192.877 -148.94)" fill="none" stroke="#263238" stroke-linecap="round" stroke-linejoin="round" stroke-width="1"/>
      <path id="Trazado_797568" data-name="Trazado 797568" d="M232,385.55c.514.778,1.028,1.536,1.549,2.268" transform="translate(-198.329 -176.389)" fill="none" stroke="#263238" stroke-linecap="round" stroke-linejoin="round" stroke-width="1"/>
      <path id="Trazado_797569" data-name="Trazado 797569" d="M217.34,351c.158,5.313,3.771,13.27,8.135,20.35" transform="translate(-193.334 -164.616)" fill="none" stroke="#263238" stroke-linecap="round" stroke-linejoin="round" stroke-width="1"/>
      <path id="Trazado_797570" data-name="Trazado 797570" d="M254.92,277.06l7.337-.56" transform="translate(-206.14 -139.228)" fill="none" stroke="#263238" stroke-linecap="round" stroke-linejoin="round" stroke-width="1"/>
      <path id="Trazado_797571" data-name="Trazado 797571" d="M250.97,282.076c-2.024,1.048,7.977-2.426,8.425-2.466" transform="translate(-204.702 -140.288)" fill="none" stroke="#263238" stroke-linecap="round" stroke-linejoin="round" stroke-width="1"/>
      <path id="Trazado_797572" data-name="Trazado 797572" d="M253.975,286.9c-.738.389,7.212-1.417,8.873-.962" transform="translate(-205.801 -142.421)" fill="none" stroke="#263238" stroke-linecap="round" stroke-linejoin="round" stroke-width="1"/>
      <path id="Trazado_797573" data-name="Trazado 797573" d="M253.64,295.522a16.48,16.48,0,0,0,9.4-1.872" transform="translate(-205.703 -145.073)" fill="none" stroke="#263238" stroke-linecap="round" stroke-linejoin="round" stroke-width="1"/>
      <path id="Trazado_797574" data-name="Trazado 797574" d="M248,254.22c1.015,1.793,2.393,3.032,2.433,5.089" transform="translate(-203.782 -131.636)" fill="none" stroke="#263238" stroke-linecap="round" stroke-linejoin="round" stroke-width="1"/>
      <path id="Trazado_797575" data-name="Trazado 797575" d="M241.92,270.87a36.622,36.622,0,0,1,3.916,3.6" transform="translate(-201.71 -137.31)" fill="none" stroke="#263238" stroke-linecap="round" stroke-linejoin="round" stroke-width="1"/>
      <path id="Trazado_797576" data-name="Trazado 797576" d="M274.2,295.072a5.274,5.274,0,0,1,4.826.178" transform="translate(-212.71 -145.387)" fill="#fff" stroke="#263238" stroke-linecap="round" stroke-linejoin="round" stroke-width="1"/>
      <path id="Trazado_797577" data-name="Trazado 797577" d="M238.55,296.56c1.978.659,4.351,2.182,7.159,3.164" transform="translate(-200.561 -146.064)" fill="none" stroke="#263238" stroke-linecap="round" stroke-linejoin="round" stroke-width="1"/>
      <path id="Trazado_797578" data-name="Trazado 797578" d="M246.452,309.71,241.89,313.2" transform="translate(-201.699 -150.545)" fill="none" stroke="#263238" stroke-linecap="round" stroke-linejoin="round" stroke-width="1"/>
      <path id="Trazado_797579" data-name="Trazado 797579" d="M262.66,451.257a127.957,127.957,0,0,0,9.79-26.587" transform="translate(-208.777 -189.72)" fill="#fff" stroke="#263238" stroke-linecap="round" stroke-linejoin="round" stroke-width="1"/>
      <g id="Grupo_1064153" data-name="Grupo 1064153" transform="translate(9.714 117.773)" clip-path="url(#clip-path-2)">
        <path id="Trazado_797580" data-name="Trazado 797580" d="M278.414,402.234c-1.009,3.21-3.678,13.633-4.034,14.121a109.518,109.518,0,0,1,1.088-13.185,31.446,31.446,0,0,1,2.09-7.693c1.351-3.3,3.56-8.853,5.63-15.037A158.141,158.141,0,0,1,278.414,402.234Z" transform="translate(-222.485 -292.421)" fill="#263238"/>
      </g>
      <path id="Trazado_797582" data-name="Trazado 797582" d="M243.619,389.7c1.661-4.766,3.138-9.282,4.292-13.218a33.977,33.977,0,0,0,1.5-9.8,17.524,17.524,0,0,1,.2-2.558v-.046a16.343,16.343,0,0,1,.732-3.065c1.081-3.131,2.011-6.625,2.769-9.763,2.169-9,3.072-10.923,3.079-36.831l-1.114-9.625-.138-19.533s1.4-3.764,1.253-5.056c-.455-3.955-7.252-14.173-7.252-14.173l-1.253-10.712a1.575,1.575,0,0,0-.738-1.16l-9.328-5.755a9.961,9.961,0,0,0-14.213,4.153l-9.348,19.381-.923.765a10.547,10.547,0,0,0-3.751,7.4c-.758,11.866-2.439,7.331-1.7,32.546a305.576,305.576,0,0,0,4.957,43.687,14.813,14.813,0,0,1-1.556,9.691L195.66,394.5" transform="translate(-185.946 -129.149)" fill="none" stroke="#263238" stroke-linecap="round" stroke-linejoin="round" stroke-width="1"/>
    </g>
  </g>
</svg>
