<svg xmlns="http://www.w3.org/2000/svg" xmlns:xlink="http://www.w3.org/1999/xlink" width="85" height="85" viewBox="0 0 85 85">
  <defs>
    <clipPath id="clip-path">
      <rect id="Rect치ngulo_373602" data-name="Rect치ngulo 373602" width="85" height="85" transform="translate(390 932)" fill="#fff"/>
    </clipPath>
  </defs>
  <g id="Enmascarar_grupo_1059017" data-name="Enmascarar grupo 1059017" transform="translate(-390 -932)" clip-path="url(#clip-path)">
    <g id="publicidad-digital" transform="translate(390 932)">
      <path id="Trazado_797648" data-name="Trazado 797648" d="M52.119,18.6V6.524a4.857,4.857,0,0,0-4.857-4.857H6.517A4.857,4.857,0,0,0,1.66,6.524V78.475a4.857,4.857,0,0,0,4.857,4.857H47.263a4.857,4.857,0,0,0,4.857-4.857V18.6Z" fill="#70ddd6"/>
      <rect id="Rect치ngulo_373603" data-name="Rect치ngulo 373603" width="50.282" height="58.745" transform="translate(1.837 12.291)" fill="#edf2fa"/>
      <path id="Trazado_797649" data-name="Trazado 797649" d="M66.034,41.748a5.821,5.821,0,0,0-5.821-10.083Z" fill="#ff5d5d"/>
      <path id="Trazado_797650" data-name="Trazado 797650" d="M42.035,57.98l-8.257,4.767a7.873,7.873,0,0,1-10.755-2.882h0A7.873,7.873,0,0,1,25.9,49.11l8.257-4.767Z" fill="#ffb954"/>
      <path id="Trazado_797651" data-name="Trazado 797651" d="M42.036,57.984l5.579,9.663-5.868,3.388-5.581-9.667Z" fill="#6a80ff"/>
      <path id="Trazado_797652" data-name="Trazado 797652" d="M42.036,57.984,34.161,44.343,53.37,19.813,72.876,53.6Z" fill="#fff"/>
      <path id="Trazado_797653" data-name="Trazado 797653" d="M64.962,54.725,72.876,53.6,53.37,19.813l-4.93,6.3Z" fill="#70ddd6"/>
      <path id="Trazado_797654" data-name="Trazado 797654" d="M20.914,8.639H32.865a1.66,1.66,0,0,0,0-3.32H20.914a1.66,1.66,0,0,0,0,3.32Z"/>
      <path id="Trazado_797655" data-name="Trazado 797655" d="M26.89,75.325a1.66,1.66,0,1,0,1.173.486A1.673,1.673,0,0,0,26.89,75.325Z"/>
      <path id="Trazado_797656" data-name="Trazado 797656" d="M68.207,42.193a7.481,7.481,0,0,0-7.294-12.634L54.807,18.984a1.66,1.66,0,0,0-2.744-.193L33.053,43.066l-7.978,4.606a9.533,9.533,0,1,0,9.533,16.512l.95-.549,3.314,5.74H3.32V13.95h47.14v.5a1.66,1.66,0,1,0,3.32,0V6.524A6.524,6.524,0,0,0,47.262.008H6.517A6.524,6.524,0,0,0,0,6.524V78.476a6.524,6.524,0,0,0,6.517,6.517H47.263a6.524,6.524,0,0,0,6.517-6.517V57.991L73.11,55.244a1.66,1.66,0,0,0,1.2-2.473ZM64.2,32.687a4.161,4.161,0,0,1,2.268,6.494l-3.816-6.61A4.155,4.155,0,0,1,64.2,32.687Zm-21.286,23.5-6.755-11.7L48.232,29.067,62.3,53.428ZM32.948,61.31a6.214,6.214,0,0,1-6.214-10.762l6.819-3.937,6.213,10.763Zm8.478-1.062,3.921,6.792-2.993,1.728-3.921-6.792ZM6.517,3.327H47.263a3.2,3.2,0,0,1,3.2,3.2v4.106H3.32V6.524A3.2,3.2,0,0,1,6.517,3.327ZM47.263,81.672H6.517a3.2,3.2,0,0,1-3.2-3.2V72.7H50.46v5.78A3.2,3.2,0,0,1,47.263,81.672Zm3.2-12.3H47.942l.5-.291a1.66,1.66,0,0,0,.607-2.267L44.7,59.281l5.758-.818ZM65.839,52.924l-15.4-26.675,2.723-3.477L70.211,52.3Z"/>
      <path id="Trazado_797657" data-name="Trazado 797657" d="M84.777,24.262a1.66,1.66,0,0,0-2.267-.607l-8.139,4.7a1.66,1.66,0,1,0,1.66,2.875l8.139-4.7A1.66,1.66,0,0,0,84.777,24.262Z"/>
      <path id="Trazado_797658" data-name="Trazado 797658" d="M67.708,24.609a1.658,1.658,0,0,0,2.033-1.174l1.187-4.428a1.66,1.66,0,1,0-3.207-.859l-1.187,4.428A1.66,1.66,0,0,0,67.708,24.609Z"/>
      <path id="Trazado_797659" data-name="Trazado 797659" d="M82.431,38.688l-4.576-1.226A1.66,1.66,0,0,0,77,40.668l4.576,1.226a1.66,1.66,0,0,0,.859-3.207Z"/>
      <path id="Trazado_797660" data-name="Trazado 797660" d="M33.142,20.452a1.66,1.66,0,0,0-1.66-1.66H8.578a1.66,1.66,0,0,0,0,3.32h22.9A1.66,1.66,0,0,0,33.142,20.452Z"/>
      <path id="Trazado_797661" data-name="Trazado 797661" d="M31.482,30.079a1.66,1.66,0,1,0-1.174-.486A1.673,1.673,0,0,0,31.482,30.079Z"/>
      <path id="Trazado_797662" data-name="Trazado 797662" d="M26.281,28.419a1.66,1.66,0,0,0-1.66-1.66H8.578a1.66,1.66,0,0,0,0,3.32H24.621A1.66,1.66,0,0,0,26.281,28.419Z"/>
      <path id="Trazado_797663" data-name="Trazado 797663" d="M14.954,38.046H27.538a1.66,1.66,0,0,0,0-3.32H14.954a1.66,1.66,0,0,0,0,3.32Z"/>
      <path id="Trazado_797664" data-name="Trazado 797664" d="M8.564,34.726a1.66,1.66,0,0,0,0,3.32h.077a1.66,1.66,0,0,0,0-3.32Z"/>
    </g>
  </g>
</svg>
