<svg xmlns="http://www.w3.org/2000/svg" xmlns:xlink="http://www.w3.org/1999/xlink" width="79" height="79" viewBox="0 0 79 79">
  <defs>
    <clipPath id="clip-path">
      <rect id="Rectángulo_373631" data-name="Rectángulo 373631" width="79" height="79" transform="translate(235 1545)" fill="#0050db"/>
    </clipPath>
  </defs>
  <g id="Enmascarar_grupo_1059032" data-name="Enmascarar grupo 1059032" transform="translate(-235 -1545)" clip-path="url(#clip-path)">
    <g id="seo" transform="translate(235 1545)">
      <g id="Grupo_1064217" data-name="Grupo 1064217">
        <path id="Trazado_797827" data-name="Trazado 797827" d="M43.449,2.65V6.6a3.949,3.949,0,1,1-7.9,0V2.65Zm0,0" fill="#fdd834"/>
        <path id="Trazado_797828" data-name="Trazado 797828" d="M41.32,18.447H37.68L39.5,14.807Zm0,0" fill="#fdd834"/>
        <path id="Trazado_797829" data-name="Trazado 797829" d="M3.955,72.412h71.09a2.638,2.638,0,1,1,0,5.276H3.955a2.638,2.638,0,0,1,0-5.276Zm0,0" fill="#fdd834"/>
      </g>
      <path id="Trazado_797830" data-name="Trazado 797830" d="M32.912,19.759h13.16A2.637,2.637,0,0,1,48.71,22.4V72.428H30.29V22.4a2.624,2.624,0,0,1,2.623-2.638Zm0,0" fill="#6a1b9a"/>
      <path id="Trazado_797831" data-name="Trazado 797831" d="M48.71,22.4V72.428H39.5V19.759h6.587A2.634,2.634,0,0,1,48.71,22.4Zm0,0" fill="#9d27b0"/>
      <path id="Trazado_797832" data-name="Trazado 797832" d="M56.609,32.918h13.16a2.637,2.637,0,0,1,2.638,2.638V72.412H53.986V35.557a2.634,2.634,0,0,1,2.623-2.638Zm0,0" fill="#0377bc"/>
      <path id="Trazado_797833" data-name="Trazado 797833" d="M72.406,35.557V72.412H63.2V32.918h6.587a2.644,2.644,0,0,1,2.623,2.638Zm0,0" fill="#02a9f4"/>
      <path id="Trazado_797834" data-name="Trazado 797834" d="M9.216,46.093h13.16a2.637,2.637,0,0,1,2.638,2.638v23.7H6.593V48.716a2.62,2.62,0,0,1,2.623-2.623Zm0,0" fill="#e91e63"/>
      <path id="Trazado_797835" data-name="Trazado 797835" d="M25.014,48.716v23.7H15.8V46.093h6.587A2.62,2.62,0,0,1,25.014,48.716Zm0,0" fill="#ad1457"/>
      <path id="Trazado_797836" data-name="Trazado 797836" d="M39.5,26.346a1.31,1.31,0,0,1,1.311,1.311,1.311,1.311,0,0,0,2.623,0,3.957,3.957,0,0,0-3.95-3.949,4.061,4.061,0,0,0-3.95,3.949c0,2.129,1.944,3.1,3.363,3.811,1.111.555,1.9.987,1.9,1.45a1.4,1.4,0,0,1-1.311,1.311,1.31,1.31,0,0,1-1.311-1.311,1.311,1.311,0,0,0-2.623,0,3.957,3.957,0,0,0,3.95,3.95,4.061,4.061,0,0,0,3.949-3.95c0-2.129-1.943-3.1-3.363-3.81-1.111-.556-1.9-.988-1.9-1.451A1.4,1.4,0,0,1,39.5,26.346Zm0,0"/>
      <path id="Trazado_797837" data-name="Trazado 797837" d="M42.138,42.144a1.311,1.311,0,1,0,0-2.623H38.189a2.637,2.637,0,0,0-2.638,2.638v7.9A2.637,2.637,0,0,0,38.189,52.7h3.949a1.311,1.311,0,0,0,0-2.623H38.189V47.436h3.949a1.311,1.311,0,0,0,0-2.623H38.189V42.175h3.949Zm0,0"/>
      <path id="Trazado_797838" data-name="Trazado 797838" d="M39.5,55.3a3.957,3.957,0,0,0-3.95,3.949v5.261a3.949,3.949,0,0,0,7.9,0V59.253A3.957,3.957,0,0,0,39.5,55.3Zm1.311,9.21a1.311,1.311,0,1,1-2.623,0V59.253a1.311,1.311,0,0,1,2.623,0Zm0,0"/>
      <path id="Trazado_797839" data-name="Trazado 797839" d="M75.045,71.1H73.733V35.557a3.957,3.957,0,0,0-3.95-3.95H56.625a3.957,3.957,0,0,0-3.95,3.95V71.1H50.037V22.4a3.957,3.957,0,0,0-3.949-3.95H44.267l-2.793-5.6a6.623,6.623,0,0,0,4.088-3.656,8.362,8.362,0,0,0,6.295-2.916A3.58,3.58,0,0,0,52.32,2.4,4.438,4.438,0,0,0,48.309.011H30.691a4.4,4.4,0,0,0-4,2.391,3.618,3.618,0,0,0,.463,3.873,8.361,8.361,0,0,0,6.294,2.916,6.585,6.585,0,0,0,4.088,3.656l-2.792,5.6H32.928a3.957,3.957,0,0,0-3.95,3.95V71.1H26.341V48.716a3.957,3.957,0,0,0-3.95-3.949H9.216a3.957,3.957,0,0,0-3.95,3.949V71.1H3.955a3.949,3.949,0,0,0,0,7.9h71.09a3.949,3.949,0,1,0,0-7.9ZM55.3,35.557a1.31,1.31,0,0,1,1.311-1.311h13.16a1.31,1.31,0,0,1,1.311,1.311V71.1H55.3ZM49.929,3.545a.96.96,0,0,1-.139,1.08,5.545,5.545,0,0,1-3.7,1.882V2.65h2.221a1.724,1.724,0,0,1,1.62.895Zm-20.858,0a1.753,1.753,0,0,1,1.62-.895h2.221V6.491a5.462,5.462,0,0,1-3.7-1.866.96.96,0,0,1-.139-1.08ZM35.551,6.6V2.65h7.9V6.6a3.949,3.949,0,1,1-7.9,0Zm3.95,8.208,1.82,3.641H37.68ZM31.6,22.4a1.31,1.31,0,0,1,1.311-1.311h13.16A1.31,1.31,0,0,1,47.383,22.4V71.1H31.6ZM7.9,48.716A1.31,1.31,0,0,1,9.216,47.4h13.16a1.31,1.31,0,0,1,1.311,1.311V71.1H7.9Zm67.14,27.646H3.955a1.311,1.311,0,1,1,0-2.623h71.09a1.311,1.311,0,0,1,0,2.623Zm0,0"/>
      <path id="Trazado_797840" data-name="Trazado 797840" d="M64.508,4.5l.386.386A1.32,1.32,0,0,0,66.76,3.02L64.122.4A1.421,1.421,0,0,0,63.69.1a1.256,1.256,0,0,0-1,0A1.327,1.327,0,0,0,62.256.4L59.617,3.035A1.32,1.32,0,0,0,61.484,4.9l.386-.386v6.032a1.311,1.311,0,0,0,2.623,0V4.5Zm0,0"/>
      <path id="Trazado_797841" data-name="Trazado 797841" d="M63.2,14.5a1.31,1.31,0,0,0-1.311,1.311v2.638a1.311,1.311,0,0,0,2.623,0V15.809A1.31,1.31,0,0,0,63.2,14.5Zm0,0"/>
      <path id="Trazado_797842" data-name="Trazado 797842" d="M16.313,22.489a1.261,1.261,0,0,0-1,0,1.348,1.348,0,0,0-.432.293L12.239,25.42a1.32,1.32,0,0,0,1.867,1.867l.386-.386v2.083a1.311,1.311,0,0,0,2.623,0V26.9l.386.386a1.32,1.32,0,0,0,1.867-1.867l-2.638-2.638a1.286,1.286,0,0,0-.416-.293Zm0,0"/>
      <path id="Trazado_797843" data-name="Trazado 797843" d="M15.8,32.918a1.31,1.31,0,0,0-1.311,1.311v6.587a1.311,1.311,0,0,0,2.623,0V34.23A1.32,1.32,0,0,0,15.8,32.918Zm0,0"/>
    </g>
  </g>
</svg>
