<svg xmlns="http://www.w3.org/2000/svg" width="394" height="499" viewBox="0 0 394 499">
  <g id="Grupo_1064838" data-name="Grupo 1064838" transform="translate(-1026 -3536)">
    <path id="Rectángulo_374442" data-name="Rectángulo 374442" d="M267,0h28a0,0,0,0,1,0,0V499a0,0,0,0,1,0,0H0a0,0,0,0,1,0,0V267A267,267,0,0,1,267,0Z" transform="translate(1125 3536)" fill="#94e435"/>
    <g id="User_research-bro" data-name="User research-bro" transform="translate(1013.86 3575.652)">
      <g id="freepik--background-simple--inject-2" transform="translate(12.946 40.934)">
        <path id="Trazado_797968" data-name="Trazado 797968" d="M274.141,51.225S208.39,25.393,145.506,61.849,52.414,173.314,26.35,233.347,17.9,355.676,67.439,385.237s81.605-11.088,150-11.2,87.067,10.55,142.782-27.978,63.439-132.97,16.757-204.316S274.141,51.225,274.141,51.225Z" transform="translate(-14.352 -42.346)" fill="#00a9ff"/>
        <path id="Trazado_797969" data-name="Trazado 797969" d="M274.141,51.225S208.39,25.393,145.506,61.849,52.414,173.314,26.35,233.347,17.9,355.676,67.439,385.237s81.605-11.088,150-11.2,87.067,10.55,142.782-27.978,63.439-132.97,16.757-204.316S274.141,51.225,274.141,51.225Z" transform="translate(-14.352 -42.346)" fill="#fff" opacity="0.7"/>
      </g>
      <g id="freepik--Information--inject-2" transform="translate(323.884 68.923)">
        <path id="Trazado_797976" data-name="Trazado 797976" d="M447.941,95.587H389.59V90.88h58.351Zm-57.547-.829h56.718v-3.05H390.419Z" transform="translate(-389.557 -78.648)" fill="#263238"/>
        <path id="Trazado_797977" data-name="Trazado 797977" d="M418.935,104.937H389.59V100.23h29.345Zm-28.483-.829h27.655v-3.05H390.419Z" transform="translate(-389.557 -80.249)" fill="#263238"/>
        <path id="Trazado_797978" data-name="Trazado 797978" d="M429.329,114.279H389.55v-4.7h39.779Zm-38.95-.829H428.5v-3.041H390.379Z" transform="translate(-389.55 -81.851)" fill="#263238"/>
        <path id="Trazado_797979" data-name="Trazado 797979" d="M414.422,123.629H389.56v-4.7h24.862Zm-24.033-.829h23.2v-3.041h-23.2Z" transform="translate(-389.552 -83.452)" fill="#263238"/>
        <path id="Trazado_797980" data-name="Trazado 797980" d="M434.5,133.029H389.59v-4.7H434.5Zm-44.08-.829H433.67v-3.041H390.419Z" transform="translate(-389.557 -85.062)" fill="#263238"/>
        <path id="Trazado_797981" data-name="Trazado 797981" d="M421.016,142.327H389.59V137.62h31.426Zm-30.6-.829h29.768v-3.05H390.419Z" transform="translate(-389.557 -86.653)" fill="#263238"/>
        <path id="Trazado_797982" data-name="Trazado 797982" d="M424.737,151.682H389.59V147h35.147Zm-34.326-.829h33.5v-3.025H390.419Z" transform="translate(-389.557 -88.26)" fill="#263238"/>
        <rect id="Rectángulo_373670" data-name="Rectángulo 373670" width="28.956" height="0.829" transform="translate(0.953 4.873)" fill="#263238"/>
        <rect id="Rectángulo_373671" data-name="Rectángulo 373671" width="28.956" height="0.829" transform="translate(0.953)" fill="#263238"/>
      </g>
      <g id="freepik--avatar-icons--inject-2" transform="translate(22.698 95.94)">
        <path id="Trazado_797983" data-name="Trazado 797983" d="M39.993,136.449A13.865,13.865,0,1,1,53.849,122.59,13.865,13.865,0,0,1,39.993,136.449Zm0-26.892A13.036,13.036,0,1,0,53.021,122.59a13.036,13.036,0,0,0-13.028-13.033Z" transform="translate(-26.12 -108.72)" fill="#263238"/>
        <path id="Trazado_797984" data-name="Trazado 797984" d="M41.79,127.719a5.18,5.18,0,1,1,5.18-5.18,5.18,5.18,0,0,1-5.18,5.18Zm0-9.53a4.351,4.351,0,1,0,4.351,4.351A4.351,4.351,0,0,0,41.79,118.189Z" transform="translate(-27.917 -110.2)" fill="#263238"/>
        <path id="Trazado_797985" data-name="Trazado 797985" d="M41.1,140.029a13.7,13.7,0,0,1-8.337-2.809l-.2-.149v-.249a8.611,8.611,0,0,1,16.989,0v.249l-.2.149a13.724,13.724,0,0,1-8.254,2.809Zm-7.633-3.315a12.961,12.961,0,0,0,15.265,0,7.782,7.782,0,0,0-15.265,0Z" transform="translate(-27.223 -112.299)" fill="#263238"/>
        <path id="Trazado_797986" data-name="Trazado 797986" d="M39.993,177.179A13.865,13.865,0,1,1,53.849,163.32,13.865,13.865,0,0,1,39.993,177.179Zm0-26.892A13.036,13.036,0,1,0,53.021,163.32a13.036,13.036,0,0,0-13.028-13.033Z" transform="translate(-26.12 -115.696)" fill="#263238"/>
        <path id="Trazado_797987" data-name="Trazado 797987" d="M41.79,168.449a5.18,5.18,0,1,1,5.18-5.18A5.18,5.18,0,0,1,41.79,168.449Zm0-9.53a4.351,4.351,0,1,0,4.351,4.351A4.351,4.351,0,0,0,41.79,158.919Z" transform="translate(-27.917 -117.176)" fill="#263238"/>
        <path id="Trazado_797988" data-name="Trazado 797988" d="M41.1,180.759a13.748,13.748,0,0,1-8.337-2.8l-.2-.157v-.249a8.611,8.611,0,0,1,16.989,0v.249l-.2.157A13.782,13.782,0,0,1,41.1,180.759Zm-7.633-3.315a12.961,12.961,0,0,0,15.265,0,7.782,7.782,0,0,0-15.265,0Z" transform="translate(-27.223 -119.275)" fill="#263238"/>
        <path id="Trazado_797989" data-name="Trazado 797989" d="M39.993,217.909A13.865,13.865,0,1,1,53.849,204.05,13.865,13.865,0,0,1,39.993,217.909Zm0-26.892A13.036,13.036,0,1,0,53.021,204.05a13.036,13.036,0,0,0-13.028-13.033Z" transform="translate(-26.12 -122.672)" fill="#263238"/>
        <path id="Trazado_797990" data-name="Trazado 797990" d="M41.79,209.179a5.18,5.18,0,1,1,5.18-5.18,5.18,5.18,0,0,1-5.18,5.18Zm0-9.53A4.351,4.351,0,1,0,46.14,204a4.351,4.351,0,0,0-4.351-4.351Z" transform="translate(-27.917 -124.151)" fill="#263238"/>
        <path id="Trazado_797991" data-name="Trazado 797991" d="M41.1,221.491a13.749,13.749,0,0,1-8.337-2.8l-.2-.149v-.249a8.611,8.611,0,0,1,16.989,0v.249l-.2.149a13.765,13.765,0,0,1-8.254,2.8Zm-7.633-3.315a12.961,12.961,0,0,0,15.265,0,7.782,7.782,0,0,0-15.265,0Z" transform="translate(-27.223 -126.253)" fill="#263238"/>
        <path id="Trazado_797992" data-name="Trazado 797992" d="M40,258.643a13.856,13.856,0,1,1,13.856-13.856A13.856,13.856,0,0,1,40,258.643Zm0-26.884a13.028,13.028,0,1,0,13.028,13.028A13.028,13.028,0,0,0,40,231.759Z" transform="translate(-26.123 -129.651)" fill="#263238"/>
        <path id="Trazado_797993" data-name="Trazado 797993" d="M41.79,249.909a5.18,5.18,0,1,1,5.18-5.18,5.18,5.18,0,0,1-5.18,5.18Zm0-9.53a4.351,4.351,0,1,0,4.351,4.351,4.351,4.351,0,0,0-4.351-4.351Z" transform="translate(-27.917 -131.127)" fill="#263238"/>
        <path id="Trazado_797994" data-name="Trazado 797994" d="M41.1,262.222a13.749,13.749,0,0,1-8.337-2.793l-.2-.149v-.249a8.611,8.611,0,0,1,16.989,0v.249l-.2.149A13.766,13.766,0,0,1,41.1,262.222Zm-7.633-3.315a12.961,12.961,0,0,0,15.265,0,7.782,7.782,0,0,0-15.265,0Z" transform="translate(-27.223 -133.23)" fill="#263238"/>
      </g>
      <g id="freepik--character-2--inject-2" transform="translate(288.942 169.253)">
        <path id="Trazado_797995" data-name="Trazado 797995" d="M396.634,202.427s-8.287,1.541-9.945,5.934.829,5.577.829,5.577-6.762,3.68-5.453,7.956,6.05,6.406,6.05,6.406,1.9,1.309,1.541,2.138-1.541.6-1.541.6a14.088,14.088,0,0,0,5.934,3.083c3.564.829,9.257,1.9,14.246.829a30.6,30.6,0,0,0,8.785-3.439s-3.315.24-1.906-2.022,7.243-3.2,6.53-9.845-2.727-5.8-4.268-8.669.472-4.865-4.276-8.188-13.053-5.8-15.671-4.865S396.634,202.427,396.634,202.427Z" transform="translate(-353.298 -197.275)" fill="#263238"/>
        <path id="Trazado_797996" data-name="Trazado 797996" d="M403.6,235.717a43.335,43.335,0,0,1-9.754-1.285,14.528,14.528,0,0,1-6.133-3.191l-1.036-.986,1.409.282s.829.157,1.077-.356c.124-.29-.646-1.111-1.392-1.657-.141-.05-4.873-2.221-6.215-6.63-1.177-3.829,3.456-7.094,5.1-8.113-.729-.688-1.74-2.329-.472-5.685,1.5-3.961,7.906-5.669,9.779-6.083a4.732,4.732,0,0,1-.224-3.207,2.4,2.4,0,0,1,1.492-1.392c2.834-1.028,11.229,1.541,16.053,4.914,3.265,2.287,3.481,4.044,3.7,5.751a6.7,6.7,0,0,0,.7,2.577,7.351,7.351,0,0,0,1.508,1.881c1.135,1.119,2.32,2.279,2.818,6.936.522,4.914-2.412,6.928-4.558,8.387a7.368,7.368,0,0,0-2.03,1.732c-.157.249-.4.7-.24.953a2.783,2.783,0,0,0,1.757.431l1.657-.116-1.409.878a30.473,30.473,0,0,1-8.917,3.5A22.168,22.168,0,0,1,403.6,235.717Zm-14.519-4.434a13.749,13.749,0,0,0,4.972,2.337c5.8,1.351,10.384,1.657,14.088.829a30.788,30.788,0,0,0,7.459-2.735,1.765,1.765,0,0,1-1.119-.721,1.658,1.658,0,0,1,.249-1.815A7.666,7.666,0,0,1,417,227.206c2.188-1.5,4.674-3.191,4.193-7.616s-1.492-5.37-2.569-6.439a7.931,7.931,0,0,1-1.658-2.072,7.293,7.293,0,0,1-.829-2.876c-.2-1.591-.389-3.1-3.356-5.171-4.84-3.389-12.97-5.66-15.29-4.815a1.6,1.6,0,0,0-1,.912,4.6,4.6,0,0,0,.406,3.025l.24.489-.539.1c-.075,0-8.1,1.558-9.655,5.677-1.508,3.986.6,5.047.622,5.055l.729.348-.713.389c-.066,0-6.448,3.572-5.262,7.459,1.235,4.036,5.8,6.133,5.8,6.157.431.282,2.221,1.583,1.757,2.677a1.376,1.376,0,0,1-.8.779Z" transform="translate(-353.206 -197.184)" fill="#263238"/>
        <path id="Trazado_797997" data-name="Trazado 797997" d="M379.17,294.082a53.867,53.867,0,0,0-9.779,26.652c-1.21,15.746,9.945,49.3,10.21,50.644s1.475,13.169,5.8,22.972,7.119,24.721,7.119,24.721-.671,3.083-.671,3.489-5.511,5.644-7.392,6.721-5.909,1.475-5.8,3.356,9.116,2.146,12.091,2.014,9.671-1.077,10.616-1.077,5.238.273,5.105-2.412-3.787-14.088-3.787-14.088-2.528-17.47-2.528-22.972-.273-18.539-.273-18.539,9.945,21.224,12.091,27,4.3,14.088,4.566,15.042.945,11.287,3.9,14.776,4.848,3.182,6.63,3.24c1.981.066,4.633-1.757,3.025-6.63s-5.644-8.2-6.448-13.028-1.21-16.931-1.21-29.287-4.84-24.713-4.84-24.713,3.63-20.959,1.881-37.077a85.012,85.012,0,0,0-8.163-28.094l-.431-1.732-30.663-2.95Z" transform="translate(-351.14 -213.441)" fill="#00a9ff"/>
        <path id="Trazado_797998" data-name="Trazado 797998" d="M427.119,435.925h-.613c-1.715,0-3.663-.058-6.472-3.373-2.486-2.9-3.315-10.036-3.771-13.467-.083-.7-.157-1.309-.207-1.467s-.108-.406-.215-.829c-.613-2.287-2.486-9.257-4.343-14.221-1.749-4.715-8.809-19.964-11.246-25.193.075,3.862.232,12.431.232,16.575,0,5.412,2.486,22.732,2.528,22.906.133.406,3.646,11.436,3.787,14.146a2.221,2.221,0,0,1-.613,1.715c-1.16,1.193-3.622,1.16-4.674,1.144h-.224c-.373,0-1.807.174-3.472.365-2.4.282-5.387.63-7.127.713-.116,0-12.323.381-12.522-2.4-.108-1.583,1.856-2.238,3.754-2.867a13.13,13.13,0,0,0,2.238-.878,46.829,46.829,0,0,0,7.185-6.448c.05-.58.489-2.635.655-3.406-.232-1.21-3.008-15.265-7.077-24.547-3.721-8.478-5.163-18.605-5.635-21.928-.075-.555-.133-.945-.166-1.127s-.282-.961-.622-2.08c-7.069-23.2-10.293-39.58-9.6-48.68a54.812,54.812,0,0,1,9.845-26.851l1.218-2.163,31.193,3.008.489,1.964a86.476,86.476,0,0,1,8.188,28.177c1.657,15.39-1.583,35.4-1.865,37.086.472,1.251,4.823,13.069,4.823,24.754,0,13.566.456,24.763,1.2,29.221.431,2.586,1.815,4.74,3.315,7.011a26.793,26.793,0,0,1,3.149,5.95c.994,2.983.373,4.724-.315,5.652a3.721,3.721,0,0,1-3.025,1.541Zm-27.771-62.42.829,1.773c.1.207,9.945,21.307,12.1,27.025,1.865,4.972,3.746,12,4.367,14.3.1.389.174.655.207.787a12.833,12.833,0,0,1,.24,1.583c.381,3.091,1.285,10.326,3.58,13.036,2.561,3.033,4.235,3.058,5.851,3.083h.5a2.942,2.942,0,0,0,2.412-1.16c.58-.771,1.077-2.246.2-4.89a25.925,25.925,0,0,0-3.058-5.8c-1.45-2.246-2.942-4.566-3.406-7.326-.746-4.492-1.21-15.746-1.21-29.354,0-12.141-4.765-24.439-4.815-24.564l-.041-.108v-.116c0-.207,3.6-21.083,1.873-36.961a85.152,85.152,0,0,0-8.089-27.912l-.041-.091-.356-1.45-30.075-2.9-1,1.773a53.917,53.917,0,0,0-9.688,26.428c-.7,8.992,2.486,25.268,9.564,48.365.414,1.367.6,1.972.638,2.171s.091.588.174,1.168c.472,3.315,1.9,13.334,5.577,21.713,4.268,9.738,7.119,24.655,7.144,24.8v.166c-.323,1.492-.663,3.174-.663,3.406,0,.829-6.157,6.257-7.6,7.077a13.807,13.807,0,0,1-2.378.945c-1.6.53-3.257,1.077-3.191,2.022.083,1.169,7.218,1.831,11.66,1.657,1.657-.075,4.674-.423,7.061-.7,1.757-.207,3.149-.373,3.572-.373h.249c.829,0,3.149.05,4.061-.9a1.434,1.434,0,0,0,.381-1.094c-.133-2.6-3.729-13.89-3.771-14-.116-.787-2.544-17.627-2.544-23.1s-.265-18.4-.273-18.53Z" transform="translate(-351.056 -213.347)" fill="#263238"/>
        <path id="Trazado_797999" data-name="Trazado 797999" d="M402.649,371.4c-1.21-5.171-2.685-12.141-2.9-15.961-.34-6.174-.149-23.254-.149-23.428h.829c0,.174-.191,17.229.149,23.37.207,3.762,1.657,10.682,2.876,15.82Z" transform="translate(-356.32 -220.275)" fill="#263238"/>
        <path id="Trazado_798000" data-name="Trazado 798000" d="M404.664,385.208s-.282-1.119-.7-2.867l.829-.191c.423,1.74.7,2.851.7,2.851Z" transform="translate(-357.076 -228.862)" fill="#263238"/>
        <path id="Trazado_798001" data-name="Trazado 798001" d="M395.3,329.906c-2.486-1.044-5.221-4.459-7.061-7.144l.688-.472c1.765,2.594,4.367,5.884,6.688,6.854Z" transform="translate(-354.384 -218.61)" fill="#263238"/>
        <path id="Trazado_798002" data-name="Trazado 798002" d="M386.638,320.274c-.622-.978-.978-1.657-.978-1.657l.721-.406s.356.638.953,1.591Z" transform="translate(-353.942 -217.912)" fill="#263238"/>
        <rect id="Rectángulo_373672" data-name="Rectángulo 373672" width="11.809" height="0.829" transform="matrix(0.605, -0.796, 0.796, 0.605, 45.708, 109.016)" fill="#263238"/>
        <path id="Trazado_798003" data-name="Trazado 798003" d="M407.187,453.1a19.409,19.409,0,0,1-3.713.141c-4.657-.182-9.721-3.721-9.721-3.721,0,.406-5.511,5.644-7.392,6.721s-5.909,1.475-5.8,3.356,9.116,2.146,12.091,2.014,9.671-1.077,10.616-1.077,5.238.273,5.1-2.412A14.444,14.444,0,0,0,407.187,453.1Z" transform="translate(-353.068 -240.401)" fill="#fff"/>
        <path id="Trazado_798004" data-name="Trazado 798004" d="M391.053,461.878c-3.315,0-10.774-.24-10.964-2.42-.108-1.583,1.856-2.238,3.754-2.867a13.128,13.128,0,0,0,2.238-.878,46.574,46.574,0,0,0,7.177-6.439v-.713l.646.456c.05,0,5.03,3.472,9.506,3.646a18.231,18.231,0,0,0,3.638-.141h.273l.141.232a14.737,14.737,0,0,1,1.268,5.213,2.221,2.221,0,0,1-.613,1.715c-1.16,1.193-3.622,1.16-4.674,1.144h-.224c-.373,0-1.807.174-3.472.365-2.4.282-5.387.63-7.127.713A12.01,12.01,0,0,0,391.053,461.878Zm2.718-11.959a47.928,47.928,0,0,1-7.285,6.514,13.812,13.812,0,0,1-2.378.945c-1.6.53-3.257,1.077-3.191,2.022.083,1.169,7.218,1.832,11.66,1.657,1.657-.075,4.674-.423,7.061-.7,1.757-.207,3.149-.373,3.572-.373h.249c.829,0,3.149.05,4.061-.9a1.434,1.434,0,0,0,.381-1.094,14.919,14.919,0,0,0-1.028-4.591,20.555,20.555,0,0,1-3.5.108C399.291,453.334,394.99,450.715,393.772,449.919Z" transform="translate(-352.987 -240.236)" fill="#263238"/>
        <path id="Trazado_798005" data-name="Trazado 798005" d="M434.407,445.06c-.829,1.417-1.972,3.207-3.613,3.315-2.014.141-3.448-1.467-4.094-2.378.439,3.472,1.376,9.945,3.588,12.564,2.959,3.5,4.848,3.182,6.63,3.24,1.981.066,4.633-1.757,3.025-6.63C438.667,451.392,435.891,448.491,434.407,445.06Z" transform="translate(-360.971 -239.637)" fill="#fff"/>
        <path id="Trazado_798006" data-name="Trazado 798006" d="M436.9,462.026h-.613c-1.715,0-3.663-.058-6.472-3.373-2.171-2.569-3.141-8.528-3.68-12.787l-.215-1.657.961,1.351c.622.878,1.931,2.337,3.729,2.2,1.376-.091,2.42-1.657,3.315-3.116l.414-.688.323.738a31.2,31.2,0,0,0,2.42,4.227,26.791,26.791,0,0,1,3.149,5.95c.994,2.983.373,4.724-.315,5.652A3.721,3.721,0,0,1,436.9,462.026Zm-9.762-14.917c.555,3.97,1.5,8.826,3.315,10.964,2.561,3.033,4.235,3.058,5.851,3.083h.5a2.942,2.942,0,0,0,2.412-1.16c.58-.771,1.077-2.246.2-4.89a25.925,25.925,0,0,0-3.058-5.8,36.972,36.972,0,0,1-2.146-3.63c-.779,1.235-1.923,2.743-3.547,2.851a4.616,4.616,0,0,1-3.522-1.384Z" transform="translate(-360.837 -239.449)" fill="#263238"/>
        <path id="Trazado_798007" data-name="Trazado 798007" d="M388.885,228.891s.472,6.878.116,8.072-4.508,1.3-5.221,1.069-5.577-1.193-7.947,0-5.461,6.406-6.058,7.459a13.774,13.774,0,0,1-2.37,2.611s-4.276-16.5-4.276-17.8a17.18,17.18,0,0,0-1.9-10.326c-2.727-5.1-4.865-8.428-6.887-9.945s-4.036-1.657-4.144-.472.829,1.9,1.541,2.735a38.874,38.874,0,0,1,2.486,4.508s-4.392,7.243-4.508,8.9-.356,2.014.829,3.315,5.221,3.315,5.221,3.315a58.918,58.918,0,0,0,.6,10.566c.829,4.972-1.309,12.108,1.782,18.274s7.459,7.6,8.188,7,8.428-5.934,8.428-5.934.945,11.867,1.069,12.348-.6,3.912,0,5.221,2.61,3.92,13.525,4.508,18.042-.829,18.638-1.782.356-2.611.356-3.439,1.782-13.533,1.782-13.533,3.912,9.381,4.392,10.682,1.425,4.873,1.425,4.873-.356,9.116,1.185,13.26,3.315,8.188,3.315,8.188l2.113,13.583a8.717,8.717,0,0,0-.945,4.036c.24,1.666.671,5.586.671,6.174s0,2.378.953,2.611,1.782-2.254,1.782-2.254a53.336,53.336,0,0,1,.472,5.345c-.116.713,1.111,2.942,2.138.588.381-.87.713-2.37.945-2.843a23.826,23.826,0,0,0,1.782-4.749c.356-1.782.514-3.7-.829-7.84-.315-1.011-1.3-3.091-1.3-3.448s.613-16.309-.1-22.483a56.349,56.349,0,0,0-2.735-11.6s-2.843-18.638-2.843-19.351.472-9.373-2.619-13.533-8.544-4.972-11.867-5.8a47.478,47.478,0,0,1-7.459-2.486c-.6-.356-.713-8.188-.713-8.188Z" transform="translate(-347.769 -199.167)" fill="#fff"/>
        <path id="Trazado_798008" data-name="Trazado 798008" d="M426.486,334.063a.977.977,0,0,1-.29-.041,2.18,2.18,0,0,1-1.235-2.08,31.346,31.346,0,0,0-.3-3.738c-.4.688-.97,1.293-1.658,1.119-1.268-.315-1.268-2.279-1.268-3.017,0-.522-.414-4.359-.671-6.116a8.564,8.564,0,0,1,.936-4.144l-2.1-13.4c-.207-.481-1.873-4.293-3.315-8.163-1.508-4.052-1.243-12.506-1.218-13.392-.124-.472-.961-3.588-1.392-4.774-.356-.97-2.693-6.63-3.8-9.265-.7,4.972-1.566,11.445-1.566,11.975v.564a5.553,5.553,0,0,1-.439,3.1c-.754,1.218-8.354,2.552-19,1.972-8.1-.439-12.638-2-13.89-4.749-.448-.986-.249-2.851-.108-4.218a9.043,9.043,0,0,0,.083-1.086c-.108-.431-.779-8.7-1.019-11.685-2.776,1.923-7.293,5.072-7.807,5.5a1.575,1.575,0,0,1-1.318.149c-1.6-.332-4.972-2.246-7.508-7.285-2.03-4.061-1.856-8.528-1.7-12.431a30.115,30.115,0,0,0-.124-5.934,60.179,60.179,0,0,1-.6-10.384c-.9-.464-4.036-2.122-5.1-3.315a3.066,3.066,0,0,1-.986-3.033,2.66,2.66,0,0,1,.05-.6c.116-1.608,3.655-7.566,4.45-8.892a34.459,34.459,0,0,0-2.337-4.218c-.124-.149-.265-.3-.406-.439a3.315,3.315,0,0,1-1.235-2.6,1.218,1.218,0,0,1,.754-1.028c.945-.406,2.577.083,4.069,1.218,1.914,1.459,3.936,4.392,6.995,10.1a16.84,16.84,0,0,1,1.989,9.8c0,.3-.041.539-.041.729,0,.887,2.387,10.425,4.086,17.03a10.592,10.592,0,0,0,1.782-2.039c.149-.257,3.522-6.29,6.232-7.649,2.486-1.235,7.4-.315,8.287,0a9.215,9.215,0,0,0,4.326-.472.746.746,0,0,0,.373-.323c.24-.829.05-5.188-.141-7.923v-.506l11.892,1.541v.356c.05,3.439.273,7.26.564,7.873a49.675,49.675,0,0,0,7.309,2.412l1.21.29c3.406.787,8.072,1.881,10.9,5.685,1.931,2.594,2.859,7.268,2.693,13.517v.207c0,.58,1.7,11.809,2.834,19.243a57.561,57.561,0,0,1,2.735,11.685c.423,3.655.464,11.262.124,21.995v.539a14.962,14.962,0,0,0,.58,1.517c.273.655.555,1.326.7,1.807,1.367,4.318,1.16,6.265.829,8.047a24.124,24.124,0,0,1-1.815,4.848,10.517,10.517,0,0,0-.365,1.1,14.486,14.486,0,0,1-.572,1.724C427.423,333.823,426.9,334.063,426.486,334.063Zm-1.409-9.249.224,1.8a44.036,44.036,0,0,1,.472,5.461c-.041.249.3,1.044.655,1.152.182.066.456-.249.7-.829a14.335,14.335,0,0,0,.539-1.657,8.72,8.72,0,0,1,.423-1.243,23.468,23.468,0,0,0,1.74-4.641c.331-1.657.522-3.5-.779-7.633-.141-.439-.414-1.1-.68-1.74a6.961,6.961,0,0,1-.646-1.831v-.564c.34-10.541.3-18.307-.116-21.87a55.938,55.938,0,0,0-2.71-11.536V279.6c-.29-1.906-2.851-18.688-2.851-19.409v-.282c.158-5.967-.738-10.591-2.536-13-2.644-3.555-7.135-4.608-10.417-5.37-.431-.1-.829-.191-1.218-.29a46.873,46.873,0,0,1-7.591-2.536c-.191-.116-.771-.464-.9-8.18l-10.185-1.318c.108,1.657.389,6.63.066,7.715a1.425,1.425,0,0,1-.779.829,9.887,9.887,0,0,1-4.972.522c-.779-.257-5.428-1.127-7.633,0-2.064,1.036-4.972,5.627-5.876,7.309a13.946,13.946,0,0,1-2.486,2.727l-.5.439-.174-.655c-.439-1.657-4.285-16.575-4.285-17.9a6.642,6.642,0,0,1,.041-.829,15.829,15.829,0,0,0-1.89-9.348c-2.959-5.528-4.972-8.47-6.771-9.837-1.376-1.053-2.669-1.351-3.232-1.11a.381.381,0,0,0-.257.348c-.083.779.431,1.318,1.019,1.948.141.157.29.315.423.472a38.771,38.771,0,0,1,2.552,4.6l.1.207-.116.191c-1.749,2.876-4.376,7.566-4.45,8.718,0,.224-.041.431-.058.613a2.3,2.3,0,0,0,.779,2.4c1.119,1.235,5.064,3.215,5.1,3.232l.24.124v.265a59.933,59.933,0,0,0,.588,10.483,30.554,30.554,0,0,1,.133,6.1c-.149,3.837-.323,8.188,1.608,12.058,2.088,4.144,4.9,6.265,6.671,6.779a1.451,1.451,0,0,0,.887.083c.721-.588,8.138-5.727,8.453-5.95l.6-.406.058.713c.373,4.7.961,11.843,1.052,12.282a4.971,4.971,0,0,1-.066,1.367c-.116,1.119-.315,3,.041,3.779,1.367,3.017,7.923,3.986,13.177,4.268,10.873.588,17.727-.829,18.232-1.583a5.072,5.072,0,0,0,.307-2.619c0-.232,0-.431,0-.6,0-.829,1.6-12.282,1.782-13.591l.207-1.492.588,1.392c.157.381,3.928,9.4,4.4,10.7s1.392,4.757,1.434,4.906v.116c0,.091-.34,9.116,1.16,13.135s3.315,8.13,3.315,8.171v.1l2.138,13.716-.058.116a8.459,8.459,0,0,0-.912,3.8c.215,1.517.68,5.569.68,6.232,0,1.79.4,2.155.638,2.213s.928-.912,1.285-1.989ZM400.788,238.129Z" transform="translate(-347.663 -199.082)" fill="#263238"/>
        <path id="Trazado_798009" data-name="Trazado 798009" d="M372.746,270.343l5.66-3.945s.945,11.867,1.069,12.348-.6,3.912,0,5.221,2.61,3.92,13.525,4.508,18.042-.829,18.638-1.782.356-2.61.356-3.439,1.782-13.533,1.782-13.533,3.166,7.583,4.144,10.061a26.2,26.2,0,0,0,10.053-3.315c-.829-5.3-1.732-11.6-1.732-11.992,0-.713.472-9.373-2.619-13.533s-8.544-4.972-11.867-5.8a47.475,47.475,0,0,1-7.459-2.486c-.6-.356-.713-8.188-.713-8.188l-11.022-1.417s.472,6.878.116,8.072-4.508,1.3-5.221,1.069-5.577-1.193-7.948,0-5.461,6.406-6.058,7.459a13.774,13.774,0,0,1-2.37,2.611s3.555,4.749,3.439,9.854A20.966,20.966,0,0,1,372.746,270.343Z" transform="translate(-351.445 -203.326)" fill="#fff"/>
        <path id="Trazado_798010" data-name="Trazado 798010" d="M397.882,288.938c-1.583,0-3.265-.041-5.022-.141-8.1-.439-12.638-2-13.89-4.749-.448-.986-.249-2.851-.108-4.218a9.036,9.036,0,0,0,.083-1.086c-.108-.431-.779-8.7-1.019-11.685-1.036.721-3.249,2.254-5.064,3.53l-1.309.92.7-1.442a20.055,20.055,0,0,0,1.7-8.047c.116-4.889-3.315-9.547-3.356-9.588l-.232-.307.29-.257a13.732,13.732,0,0,0,2.279-2.486c.149-.257,3.522-6.29,6.232-7.649,2.486-1.235,7.4-.315,8.287,0a9.215,9.215,0,0,0,4.326-.472.746.746,0,0,0,.373-.323c.24-.829.05-5.188-.141-7.923v-.506l11.892,1.541v.356c.05,3.439.273,7.26.564,7.873a49.677,49.677,0,0,0,7.309,2.412l1.21.29c3.406.787,8.072,1.881,10.9,5.685,1.931,2.594,2.859,7.268,2.693,13.517v.224c0,.2.232,2.014,1.724,11.925v.282l-.24.141a26.519,26.519,0,0,1-10.21,3.315l-.315.041-.116-.3c-.713-1.8-2.6-6.34-3.564-8.652-.7,4.972-1.566,11.445-1.566,11.975v.564a5.553,5.553,0,0,1-.439,3.1C411.233,287.836,405.838,288.938,397.882,288.938ZM378.639,265.56l.058.713c.373,4.7.961,11.843,1.052,12.282a4.969,4.969,0,0,1-.066,1.367c-.116,1.119-.315,3,.041,3.779,1.367,3.017,7.923,3.986,13.177,4.268,10.873.588,17.727-.829,18.232-1.583a5.072,5.072,0,0,0,.307-2.619v-.6c0-.829,1.6-12.282,1.782-13.591l.207-1.492.588,1.392c0,.075,2.942,7.052,4.028,9.762a25.591,25.591,0,0,0,9.332-3.05c-1.657-11.262-1.657-11.6-1.657-11.776v-.282c.157-5.967-.738-10.591-2.536-13-2.644-3.555-7.135-4.608-10.417-5.37-.431-.1-.829-.191-1.218-.29a46.872,46.872,0,0,1-7.591-2.536c-.191-.116-.771-.464-.9-8.18l-10.185-1.318c.108,1.657.389,6.63.066,7.715a1.426,1.426,0,0,1-.779.829,9.887,9.887,0,0,1-4.972.522c-.779-.265-5.428-1.127-7.633,0-2.064,1.036-4.972,5.627-5.876,7.309a12.241,12.241,0,0,1-2.188,2.486c.829,1.16,3.414,5.3,3.315,9.8a22.832,22.832,0,0,1-1.235,7.053l4.5-3.133Z" transform="translate(-351.322 -203.234)" fill="#263238"/>
        <path id="Trazado_798011" data-name="Trazado 798011" d="M414.042,244.851a43.429,43.429,0,0,1-6.315-2.188c-.6-.356-.713-8.188-.713-8.188l-11.006-1.425s.472,6.878.116,8.072-3.729,1.268-4.914,1.119c.041,2.635.92,8.652,8.006,10.036C405.274,253.462,410.926,248.373,414.042,244.851Z" transform="translate(-354.893 -203.326)" fill="#fff"/>
        <path id="Trazado_798012" data-name="Trazado 798012" d="M400.887,252.807a9.857,9.857,0,0,1-1.889-.182c-7.409-1.442-8.287-7.773-8.337-10.434v-.472l.464.058c1.434.174,4.276-.191,4.475-.829.24-.829.05-5.188-.141-7.923v-.506l11.892,1.541v.356c.05,3.439.273,7.26.564,7.873a46.665,46.665,0,0,0,6.166,2.1l.638.182-.439.5C411.6,248.059,406.539,252.807,400.887,252.807Zm-9.381-10.177c.133,2.652,1.227,7.931,7.649,9.182,5.685,1.111,11.08-3.572,14.039-6.8a40.218,40.218,0,0,1-5.8-2.047c-.191-.116-.771-.464-.9-8.18L396.3,233.465c.108,1.657.389,6.63.066,7.715-.365,1.268-3.448,1.467-4.856,1.417Z" transform="translate(-354.799 -203.236)" fill="#263238"/>
        <path id="Trazado_798013" data-name="Trazado 798013" d="M402.181,237.558l-4.7.323-.522-4.832Z" transform="translate(-355.878 -203.326)" fill="#263238"/>
        <path id="Trazado_798014" data-name="Trazado 798014" d="M397,238.114l-.671-6.273,6.779,5.859Zm.373-4.276.373,3.4,3.315-.232Z" transform="translate(-355.77 -203.119)" fill="#263238"/>
        <path id="Trazado_798015" data-name="Trazado 798015" d="M397.743,268.743c-.356-2.652,2.047-12.207,2.146-12.613l.829.2c0,.1-2.486,9.8-2.13,12.307Z" transform="translate(-356.005 -207.279)" fill="#263238"/>
        <path id="Trazado_798016" data-name="Trazado 798016" d="M380.972,258.144l-.762-.331a19.4,19.4,0,0,1,1.309-2.552l.7.447A19.259,19.259,0,0,0,380.972,258.144Z" transform="translate(-353.009 -207.13)" fill="#263238"/>
        <path id="Trazado_798017" data-name="Trazado 798017" d="M379.28,271.224a15.551,15.551,0,0,1-.829-6.729,15.829,15.829,0,0,1,.9-4.334l.779.265a15.6,15.6,0,0,0-.829,4.144c-.224,4.144.787,6.307.829,6.332Z" transform="translate(-352.7 -207.969)" fill="#263238"/>
        <rect id="Rectángulo_373673" data-name="Rectángulo 373673" width="8.047" height="0.829" transform="matrix(0.172, -0.985, 0.985, 0.172, 61.897, 66.305)" fill="#263238"/>
        <path id="Trazado_798018" data-name="Trazado 798018" d="M400.585,204.83l-7.6,5.221s-.232,3.091-.232,6.414-.953,6.174.713,9.257,5.221,7,7.948,7a15.164,15.164,0,0,0,8.287-3.207,12.047,12.047,0,0,0,3.2-4.865s2.975-1.185,2.735-3.083-.6-3.207-1.069-3.315-1.541-.356-1.541-.356l-1.541-6.414S402.724,207.8,400.585,204.83Z" transform="translate(-355.111 -198.493)" fill="#fff"/>
        <path id="Trazado_798019" data-name="Trazado 798019" d="M401.333,233.031c-3.05,0-6.7-4.227-8.287-7.218-1.268-2.354-1.094-4.541-.9-6.862.066-.829.141-1.707.141-2.594,0-3.315.232-6.414.24-6.439v-.2l8.1-5.569.24.331c2.039,2.843,10.649,6.472,10.773,6.506l.191.083,1.533,6.365,1.3.3c.472.116,1,.646,1.384,3.671.232,1.923-2.13,3.141-2.818,3.448a11.768,11.768,0,0,1-3.315,4.89C407.864,231.316,404.308,233.031,401.333,233.031Zm-8.022-22.856c-.058.729-.224,3.39-.224,6.182,0,.92-.075,1.807-.141,2.66-.182,2.2-.348,4.268.829,6.4,1.765,3.315,5.229,6.787,7.583,6.787,2.785,0,6.124-1.657,8.055-3.116s3.058-4.641,3.066-4.674l.058-.182.182-.066c.738-.3,2.635-1.359,2.486-2.652-.331-2.685-.754-2.967-.771-2.983l-1.517-.34-.257-.058-1.55-6.464c-1.293-.547-8.287-3.638-10.649-6.381Z" transform="translate(-355.03 -198.377)" fill="#263238"/>
        <path id="Trazado_798020" data-name="Trazado 798020" d="M402.29,220.065a2.287,2.287,0,0,1-1.425-.564,1.036,1.036,0,0,1-.414-.829c0-.994,1.285-2.213,1.8-2.66V214.43h.829V216.4l-.149.124c-.688.564-1.657,1.6-1.657,2.138a.207.207,0,0,0,.091.182,1.284,1.284,0,0,0,1.483.265l.3-.1.207.829a1.186,1.186,0,0,0-.224.075,2.486,2.486,0,0,1-.837.149Z" transform="translate(-356.475 -200.137)" fill="#263238"/>
        <path id="Trazado_798021" data-name="Trazado 798021" d="M402.569,226.769a5.138,5.138,0,0,1-3.539-1.434l.6-.564c.108.116,2.652,2.76,6.564-.282l.514.655A6.762,6.762,0,0,1,402.569,226.769Z" transform="translate(-356.232 -201.86)" fill="#263238"/>
        <path id="Trazado_798022" data-name="Trazado 798022" d="M396.188,213.137l-.588-.58a5.355,5.355,0,0,1,4.906-.945l-.2.829C397.589,211.769,396.246,213.087,396.188,213.137Z" transform="translate(-355.645 -199.623)" fill="#263238"/>
        <path id="Trazado_798023" data-name="Trazado 798023" d="M410.24,213.086a4.144,4.144,0,0,0-4.409-.829l-.332-.754a4.923,4.923,0,0,1,5.32,1.036Z" transform="translate(-357.34 -199.573)" fill="#263238"/>
        <path id="Trazado_798024" data-name="Trazado 798024" d="M399.527,215.721c0,.555-.315,1.011-.7,1.011s-.713-.456-.713-1.011.315-1.011.713-1.011S399.527,215.166,399.527,215.721Z" transform="translate(-356.074 -200.185)" fill="#263238"/>
        <path id="Trazado_798025" data-name="Trazado 798025" d="M409.267,215.721c0,.555-.315,1.011-.713,1.011s-.7-.456-.7-1.011.315-1.011.7-1.011S409.267,215.166,409.267,215.721Z" transform="translate(-357.743 -200.185)" fill="#263238"/>
        <path id="Trazado_798026" data-name="Trazado 798026" d="M392.145,220.656s-2.37-1.309-2.486,1.069a5.738,5.738,0,0,0,2.014,4.144Z" transform="translate(-354.626 -201.142)" fill="#fff"/>
        <path id="Trazado_798027" data-name="Trazado 798027" d="M391.927,226.59l-.6-.506a6.157,6.157,0,0,1-2.163-4.5,1.823,1.823,0,0,1,.829-1.657,2.71,2.71,0,0,1,2.3.215l.232.133Zm-1.152-5.992a.878.878,0,0,0-.4.083c-.24.133-.365.456-.389.945a4.748,4.748,0,0,0,1.268,3.207l.365-4.044a2.487,2.487,0,0,0-.845-.166Z" transform="translate(-354.54 -201.051)" fill="#263238"/>
        <path id="Trazado_798028" data-name="Trazado 798028" d="M354.393,218.416s-2.329-.7-3.315,1.318.671,4.144,1.9,4.923,2.238.564,2.354-.9-1.343-3.315-1.343-3.315Z" transform="translate(-347.968 -200.8)" fill="#fff"/>
        <path id="Trazado_798029" data-name="Trazado 798029" d="M354.128,225.417a2.776,2.776,0,0,1-1.475-.514c-1.508-.953-3.141-3.315-2.055-5.453a3.2,3.2,0,0,1,3.82-1.533l.365.108-.456,2.188a6.4,6.4,0,0,1,1.309,3.481,1.74,1.74,0,0,1-.829,1.575A1.426,1.426,0,0,1,354.128,225.417Zm-.771-6.8a2.155,2.155,0,0,0-2.047,1.21c-.928,1.856.829,3.787,1.749,4.384.547.348,1.019.464,1.309.323s.381-.572.406-.9a5.752,5.752,0,0,0-1.26-3.066l-.116-.157.381-1.765A3.221,3.221,0,0,0,353.357,218.621Z" transform="translate(-347.877 -200.707)" fill="#263238"/>
        <path id="Trazado_798030" data-name="Trazado 798030" d="M350.183,221.65s-2.13,1.657-1.906,3.025,2.8,3.133,4.144,3.017.9-1.9.9-1.9S350.738,223.332,350.183,221.65Z" transform="translate(-347.537 -201.374)" fill="#fff"/>
        <path id="Trazado_798031" data-name="Trazado 798031" d="M352.218,227.972c-1.533,0-4.144-1.8-4.434-3.373s1.815-3.224,2.055-3.414l.464-.365.182.555c.522,1.566,3,3.953,3.033,3.978l.083.083v.116a2.486,2.486,0,0,1-.224,1.856,1.351,1.351,0,0,1-1.036.555Zm-2.279-5.8c-.6.58-1.45,1.558-1.334,2.271.174,1.069,2.486,2.751,3.7,2.669a.514.514,0,0,0,.431-.207,1.658,1.658,0,0,0,.116-1.069,17.09,17.09,0,0,1-2.909-3.638Z" transform="translate(-347.451 -201.232)" fill="#263238"/>
        <path id="Trazado_798032" data-name="Trazado 798032" d="M348.876,227.05s-1.657,1.235-.779,2.8,3.24,2.014,4.028,1.119a2.572,2.572,0,0,0,.224-2.354S348.992,227.837,348.876,227.05Z" transform="translate(-347.465 -202.299)" fill="#fff"/>
        <path id="Trazado_798033" data-name="Trazado 798033" d="M350.812,231.7h-.331a3.771,3.771,0,0,1-2.826-1.765,2.594,2.594,0,0,1,.9-3.315l.555-.406.1.663a8.039,8.039,0,0,0,3.149,1.243l.215.05.083.2a3.063,3.063,0,0,1-.3,2.776A2.039,2.039,0,0,1,350.812,231.7Zm-2.072-4.144a1.658,1.658,0,0,0-.365,1.981,2.925,2.925,0,0,0,2.188,1.351,1.392,1.392,0,0,0,1.168-.3,1.989,1.989,0,0,0,.216-1.732,8.719,8.719,0,0,1-3.224-1.334Z" transform="translate(-347.387 -202.155)" fill="#263238"/>
        <path id="Trazado_798034" data-name="Trazado 798034" d="M360.814,229.855a7.459,7.459,0,0,1-.9-3.8c.116-2.13,2.014-4.815,2.014-4.815a11.337,11.337,0,0,1-.555-1.79c-.224-1-1.566-4.7-.34-6.265s2.238,1.011,3.025,3.356,1.343,3.58,1.343,3.58a11.014,11.014,0,0,1,.448,4.815c-.448,2.122-1.657,5.925-1.657,5.925" transform="translate(-349.533 -199.841)" fill="#fff"/>
        <path id="Trazado_798035" data-name="Trazado 798035" d="M364.45,230.9l-.787-.257c0-.041,1.227-3.812,1.657-5.892a10.608,10.608,0,0,0-.431-4.591,37.845,37.845,0,0,1-1.343-3.58c-.29-.829-1.144-3.431-1.84-3.547a.72.72,0,0,0-.464.315c-.912,1.152-.141,3.92.232,5.246.083.282.141.514.182.671a9.946,9.946,0,0,0,.539,1.724l.083.207-.133.191s-1.831,2.619-1.939,4.591a7.045,7.045,0,0,0,.829,3.572l-.7.431a7.641,7.641,0,0,1-.953-4.044,11.68,11.68,0,0,1,1.956-4.84,12.864,12.864,0,0,1-.5-1.657,3.107,3.107,0,0,0-.166-.63c-.439-1.575-1.26-4.492-.091-5.983a1.334,1.334,0,0,1,1.26-.622c.986.174,1.657,1.7,2.486,4.1s1.326,3.53,1.326,3.547a11.171,11.171,0,0,1,.481,5.064C365.693,227.051,364.5,230.747,364.45,230.9Z" transform="translate(-349.44 -199.756)" fill="#263238"/>
      </g>
      <g id="freepik--profile-3--inject-2" transform="translate(140.892 254.369)">
        <rect id="Rectángulo_373674" data-name="Rectángulo 373674" width="65.818" height="0.829" transform="translate(59.263 53.544)" fill="#263238"/>
        <rect id="Rectángulo_373675" data-name="Rectángulo 373675" width="4.409" height="4.409" transform="translate(51.24 51.149)" fill="#00a9ff"/>
        <rect id="Rectángulo_373676" data-name="Rectángulo 373676" width="65.818" height="0.829" transform="translate(59.263 63.174)" fill="#263238"/>
        <rect id="Rectángulo_373677" data-name="Rectángulo 373677" width="4.409" height="4.409" transform="translate(51.24 60.771)" fill="#00a9ff"/>
        <rect id="Rectángulo_373678" data-name="Rectángulo 373678" width="65.818" height="0.829" transform="translate(59.263 72.796)" fill="#263238"/>
        <rect id="Rectángulo_373679" data-name="Rectángulo 373679" width="4.409" height="4.409" transform="translate(51.24 70.392)" fill="#00a9ff"/>
        <rect id="Rectángulo_373680" data-name="Rectángulo 373680" width="65.818" height="0.829" transform="translate(59.263 82.417)" fill="#263238"/>
        <rect id="Rectángulo_373681" data-name="Rectángulo 373681" width="4.409" height="4.409" transform="translate(51.24 80.022)" fill="#00a9ff"/>
        <path id="Trazado_798036" data-name="Trazado 798036" d="M331.171,400.954H168.74V299.89H331.171Zm-161.6-.829H330.343V300.719H169.569Z" transform="translate(-168.74 -299.89)" fill="#263238"/>
        <path id="Trazado_798037" data-name="Trazado 798037" d="M331.171,308.774H168.74V299.89H331.171Zm-161.6-.829H330.343v-7.227H169.569Z" transform="translate(-168.74 -299.89)" fill="#263238"/>
        <rect id="Rectángulo_373682" data-name="Rectángulo 373682" width="0.829" height="90.763" transform="translate(42.34 9.033)" fill="#263238"/>
        <path id="Trazado_798038" data-name="Trazado 798038" d="M243.462,347.114a14.362,14.362,0,1,1,14.362-14.362,14.362,14.362,0,0,1-14.362,14.362Zm0-27.9A13.533,13.533,0,1,0,257,332.752,13.533,13.533,0,0,0,243.462,319.219Z" transform="translate(-179.078 -303.059)" fill="#263238"/>
        <path id="Trazado_798039" data-name="Trazado 798039" d="M245.322,338.054a5.362,5.362,0,1,1,5.362-5.362A5.362,5.362,0,0,1,245.322,338.054Zm0-9.9a4.533,4.533,0,1,0,4.533,4.533,4.533,4.533,0,0,0-4.533-4.533Z" transform="translate(-180.938 -304.59)" fill="#263238"/>
        <path id="Trazado_798040" data-name="Trazado 798040" d="M244.6,350.829a14.18,14.18,0,0,1-8.644-2.909l-.207-.149.041-.249a8.925,8.925,0,0,1,17.6,0l.041.249-.207.149a14.18,14.18,0,0,1-8.627,2.909Zm-7.931-3.414a13.467,13.467,0,0,0,15.87,0,8.088,8.088,0,0,0-15.87,0Z" transform="translate(-180.217 -306.773)" fill="#263238"/>
        <path id="Trazado_798041" data-name="Trazado 798041" d="M193.715,340.134a7.127,7.127,0,1,1,7.119-7.119A7.127,7.127,0,0,1,193.715,340.134Zm0-13.417a6.3,6.3,0,1,0,6.29,6.3,6.3,6.3,0,0,0-6.29-6.3Z" transform="translate(-171.795 -304.341)" fill="#263238"/>
        <path id="Trazado_798042" data-name="Trazado 798042" d="M194.613,335.786a2.793,2.793,0,1,1,2.793-2.793,2.793,2.793,0,0,1-2.793,2.793Zm0-4.757a1.964,1.964,0,1,0,1.964,1.964A1.964,1.964,0,0,0,194.613,331.029Z" transform="translate(-172.693 -305.081)" fill="#263238"/>
        <path id="Trazado_798043" data-name="Trazado 798043" d="M194.262,341.922a7.069,7.069,0,0,1-4.285-1.434l-.207-.157v-.249a4.508,4.508,0,0,1,8.892,0v.249l-.2.157a7.111,7.111,0,0,1-4.2,1.434Zm-3.58-1.948a6.365,6.365,0,0,0,7.152,0,3.68,3.68,0,0,0-7.152,0Z" transform="translate(-172.342 -306.129)" fill="#263238"/>
        <path id="Trazado_798044" data-name="Trazado 798044" d="M193.715,374.054a7.127,7.127,0,1,1,7.119-7.127,7.127,7.127,0,0,1-7.119,7.127Zm0-13.425a6.326,6.326,0,1,0,0-.008Z" transform="translate(-171.795 -310.151)" fill="#263238"/>
        <path id="Trazado_798045" data-name="Trazado 798045" d="M194.613,369.686a2.793,2.793,0,1,1,2.793-2.793A2.793,2.793,0,0,1,194.613,369.686Zm0-4.757a1.964,1.964,0,1,0,1.964,1.964A1.964,1.964,0,0,0,194.613,364.929Z" transform="translate(-172.693 -310.887)" fill="#263238"/>
        <path id="Trazado_798046" data-name="Trazado 798046" d="M194.262,375.842a7.077,7.077,0,0,1-4.285-1.442l-.207-.157V374a4.508,4.508,0,0,1,8.892,0v.24l-.2.157a7.119,7.119,0,0,1-4.2,1.442Zm-3.58-1.956a6.348,6.348,0,0,0,7.152,0,3.68,3.68,0,0,0-7.152,0Z" transform="translate(-172.342 -311.939)" fill="#263238"/>
        <path id="Trazado_798047" data-name="Trazado 798047" d="M193.715,407.944a7.127,7.127,0,1,1,7.119-7.127,7.127,7.127,0,0,1-7.119,7.127Zm0-13.425a6.3,6.3,0,1,0,6.29,6.3A6.3,6.3,0,0,0,193.715,394.519Z" transform="translate(-171.795 -315.955)" fill="#263238"/>
        <path id="Trazado_798048" data-name="Trazado 798048" d="M194.613,403.586a2.793,2.793,0,1,1,2.793-2.793A2.793,2.793,0,0,1,194.613,403.586Zm0-4.757a1.964,1.964,0,1,0,1.964,1.964A1.964,1.964,0,0,0,194.613,398.829Z" transform="translate(-172.693 -316.693)" fill="#263238"/>
        <path id="Trazado_798049" data-name="Trazado 798049" d="M194.262,409.732a7.028,7.028,0,0,1-4.285-1.442l-.207-.157v-.24a4.508,4.508,0,0,1,8.892,0v.24l-.2.157A7.061,7.061,0,0,1,194.262,409.732Zm-3.58-1.956a6.348,6.348,0,0,0,7.152,0,3.68,3.68,0,0,0-7.152,0Z" transform="translate(-172.342 -317.743)" fill="#263238"/>
        <rect id="Rectángulo_373683" data-name="Rectángulo 373683" width="35.312" height="0.829" transform="translate(85.84 21.332)" fill="#263238"/>
        <rect id="Rectángulo_373684" data-name="Rectángulo 373684" width="35.312" height="0.829" transform="translate(85.84 29.453)" fill="#263238"/>
        <rect id="Rectángulo_373685" data-name="Rectángulo 373685" width="35.312" height="0.829" transform="translate(85.84 37.575)" fill="#263238"/>
      </g>
      <g id="freepik--profile-2--inject-2" transform="translate(194.146 62.451)">
        <path id="Trazado_798050" data-name="Trazado 798050" d="M344.879,232.855H233V68.31H344.879Zm-111.05-.829H344.05V69.139H233.829Z" transform="translate(-233 -68.31)" fill="#263238"/>
        <circle id="Elipse_4789" data-name="Elipse 4789" cx="35.569" cy="35.569" r="35.569" transform="translate(17.536 16.251)" fill="#fff"/>
        <path id="Trazado_798051" data-name="Trazado 798051" d="M289.644,159.387A35.984,35.984,0,1,1,325.627,123.4,35.984,35.984,0,0,1,289.644,159.387Zm0-71.13A35.155,35.155,0,1,0,324.8,123.409,35.155,35.155,0,0,0,289.644,88.257Z" transform="translate(-236.538 -71.583)" fill="#263238"/>
        <rect id="Rectángulo_373686" data-name="Rectángulo 373686" width="74.942" height="0.829" transform="translate(16.268 98.445)" fill="#263238"/>
        <rect id="Rectángulo_373687" data-name="Rectángulo 373687" width="74.942" height="0.829" transform="translate(16.268 106.069)" fill="#263238"/>
        <rect id="Rectángulo_373688" data-name="Rectángulo 373688" width="65.818" height="0.829" transform="translate(25.392 118.898)" fill="#263238"/>
        <rect id="Rectángulo_373689" data-name="Rectángulo 373689" width="4.409" height="4.409" transform="translate(17.379 116.495)" fill="#00a9ff"/>
        <rect id="Rectángulo_373690" data-name="Rectángulo 373690" width="65.818" height="0.829" transform="translate(25.392 128.52)" fill="#263238"/>
        <rect id="Rectángulo_373691" data-name="Rectángulo 373691" width="4.409" height="4.409" transform="translate(17.379 126.125)" fill="#00a9ff"/>
        <rect id="Rectángulo_373692" data-name="Rectángulo 373692" width="65.818" height="0.829" transform="translate(25.392 138.141)" fill="#263238"/>
        <rect id="Rectángulo_373693" data-name="Rectángulo 373693" width="4.409" height="4.409" transform="translate(17.379 135.746)" fill="#00a9ff"/>
        <rect id="Rectángulo_373694" data-name="Rectángulo 373694" width="65.818" height="0.829" transform="translate(25.392 147.763)" fill="#263238"/>
        <rect id="Rectángulo_373695" data-name="Rectángulo 373695" width="4.409" height="4.409" transform="translate(17.379 145.368)" fill="#00a9ff"/>
        <path id="Trazado_798052" data-name="Trazado 798052" d="M284.387,100.788A17.064,17.064,0,0,1,299.3,93.147c10.293.331,12.787,11.6,12.431,14.917a15.869,15.869,0,0,1-1.5,5.486l-4.483-3.82a30.8,30.8,0,0,1,7.011,10.823c2.486,6.63,1.293,15.24-1.865,17.238s-5.312,1.16-5.312,1.16l.331-4.483s-2.983,5.312-7.964,6.307-19.26,1.657-21.423-.829a12.3,12.3,0,0,1-2.652-5.312l-.332,4.318s-4.483-3.315-4.649-7.144,2.155-9.116,3.315-11.95,1.989-4.318,2.32-8.635-.166-6.63,2.826-9.464S284.387,100.788,284.387,100.788Z" transform="translate(-239.147 -72.561)" fill="#263238"/>
        <path id="Trazado_798053" data-name="Trazado 798053" d="M286.45,142.015c-4.649,0-9.041-.464-10.251-1.856a12.6,12.6,0,0,1-2.1-3.414l-.166,2.18a.423.423,0,0,1-.24.34.406.406,0,0,1-.423-.041c-.191-.141-4.641-3.481-4.815-7.459-.157-3.663,1.89-8.6,3.116-11.553l.232-.572.406-.961a20.27,20.27,0,0,0,1.889-7.55c.058-.754.091-1.442.124-2.088.141-3.017.24-5.2,2.826-7.641s6.033-1.6,7.094-1.21a17.693,17.693,0,0,1,15.124-7.541,11.826,11.826,0,0,1,8.834,4.144,17.207,17.207,0,0,1,4.011,11.271,16.069,16.069,0,0,1-1.541,5.635.389.389,0,0,1-.282.215.423.423,0,0,1-.348-.091l-.6-.522a31.293,31.293,0,0,1,3.787,7.061c2.486,6.63,1.442,15.539-2.03,17.735-3.315,2.08-5.586,1.235-5.685,1.193a.406.406,0,0,1-.257-.414l.215-2.909c-1.26,1.657-3.8,4.459-7.359,5.171a69.978,69.978,0,0,1-11.561.878Zm-12.572-7.856a.406.406,0,0,1,.406.34,12.108,12.108,0,0,0,2.561,5.113c1.906,2.2,15.439,1.815,21.025.7,4.732-.945,7.657-6.05,7.691-6.108a.414.414,0,0,1,.771.24l-.307,4.144a6.427,6.427,0,0,0,4.657-1.2c2.843-1.79,4.21-10.036,1.657-16.74a30.663,30.663,0,0,0-6.9-10.666.414.414,0,0,1,0-.572.406.406,0,0,1,.58,0l4.069,3.464a16.575,16.575,0,0,0,1.227-4.856A16.367,16.367,0,0,0,307.5,97.371a11.022,11.022,0,0,0-8.238-3.845,16.865,16.865,0,0,0-14.577,7.459.414.414,0,0,1-.53.166c-.149-.066-3.771-1.657-6.514.92-2.345,2.213-2.428,4.052-2.569,7.086,0,.655-.066,1.351-.124,2.113a20.859,20.859,0,0,1-1.956,7.807c-.124.3-.265.613-.4.953l-.24.58c-1.2,2.884-3.2,7.715-3.05,11.2.116,2.751,2.685,5.3,3.878,6.332l.273-3.522a.414.414,0,0,1,.389-.381Z" transform="translate(-239.071 -72.476)" fill="#263238"/>
        <path id="Trazado_798054" data-name="Trazado 798054" d="M277.107,154.272c-2.751,1.185-7.2,2.238-10.227,3.588a35.553,35.553,0,0,0,49.939.116,18.723,18.723,0,0,0-3.638-1.343c-5.32-1.475-12.879-5.8-13.765-7.276s-1.757-6.63-1.757-6.63l-12.29-1.657s.613,6.431.613,7.616S281.25,152.5,277.107,154.272Z" transform="translate(-238.803 -80.771)" fill="#fff"/>
        <path id="Trazado_798055" data-name="Trazado 798055" d="M291.822,168.484A35.735,35.735,0,0,1,266.5,158.067a.423.423,0,0,1-.116-.373.389.389,0,0,1,.232-.3,52.448,52.448,0,0,1,5.611-1.989c1.732-.547,3.356-1.061,4.633-1.608,5.337-2.287,8.619-4.591,8.619-5.238,0-1.152-.6-7.508-.6-7.575a.406.406,0,0,1,.124-.34.423.423,0,0,1,.34-.108l12.29,1.657a.414.414,0,0,1,.348.348c0,.05.87,5.113,1.707,6.514.754,1.26,7.981,5.552,13.517,7.086a20.087,20.087,0,0,1,3.721,1.367.423.423,0,0,1,.1.663,35.776,35.776,0,0,1-25.2,10.309Zm-24.3-10.575a35.146,35.146,0,0,0,48.5.083,21.461,21.461,0,0,0-3.033-1.044c-5.2-1.442-13.019-5.8-14.006-7.459-.829-1.334-1.558-5.354-1.765-6.506l-11.47-1.55c.141,1.566.564,6.133.564,7.135,0,2.064-8.751,5.843-9.116,6h0c-1.309.564-2.959,1.077-4.7,1.657S269.007,157.288,267.524,157.91ZM277.03,154.18Z" transform="translate(-238.717 -80.68)" fill="#263238"/>
        <path id="Trazado_798056" data-name="Trazado 798056" d="M284.268,120.874s.994-7.459,3.315-11.461,7.309-2.818,9.3-1.492,5.146,8.47,6.953,13.111,2.652,7.3,2.652,7.3-2.867,6.05-6.8,8.445c-4.144,2.586-8.718,2.486-12.29-1.657a18.886,18.886,0,0,1-2.983-4.807s-4.144-1.334-5.146-4.815-.166-5.32,1.492-5.8S284.268,120.874,284.268,120.874Z" transform="translate(-240.85 -74.879)" fill="#fff"/>
        <path id="Trazado_798057" data-name="Trazado 798057" d="M294.106,138.88a9.249,9.249,0,0,1-7.086-3.539,19.574,19.574,0,0,1-2.983-4.757c-.829-.307-4.3-1.757-5.229-5.03-1.376-4.807.779-6.025,1.773-6.323a4.086,4.086,0,0,1,3.315.829c.307-1.972,1.326-7.575,3.265-10.906a5.644,5.644,0,0,1,3.721-2.776,8.544,8.544,0,0,1,6.166,1.144c2.387,1.6,6.058,10.591,7.127,13.309,1.815,4.616,2.66,7.309,2.669,7.334a.4.4,0,0,1,0,.307c-.116.249-2.992,6.182-6.961,8.635a10.84,10.84,0,0,1-5.776,1.773Zm-12.729-18.928a2.014,2.014,0,0,0-.539.075c-1.616.489-2.047,2.37-1.21,5.3.92,3.232,4.831,4.517,4.873,4.533a.389.389,0,0,1,.257.24,18.9,18.9,0,0,0,2.917,4.7c3.207,3.721,7.384,4.285,11.76,1.575,3.431-2.122,6.108-7.218,6.572-8.146-.2-.638-1.044-3.166-2.594-7.119-2.155-5.486-5.08-11.768-6.812-12.92a7.716,7.716,0,0,0-5.528-1.028,4.815,4.815,0,0,0-3.182,2.378c-2.262,3.87-3.265,11.229-3.273,11.3a.4.4,0,0,1-.265.332.414.414,0,0,1-.423-.075,4.6,4.6,0,0,0-2.552-1.152Z" transform="translate(-240.769 -74.803)" fill="#263238"/>
        <path id="Trazado_798058" data-name="Trazado 798058" d="M300.419,128.839a3.242,3.242,0,0,1-.829-.091.423.423,0,0,1,.174-.829,1.823,1.823,0,0,0,2-.588,1.856,1.856,0,0,0-.265-2.088,7.824,7.824,0,0,1-1.243-4.583.415.415,0,1,1,.829.05,7.1,7.1,0,0,0,1.086,4.053,2.644,2.644,0,0,1,.29,3.025A2.4,2.4,0,0,1,300.419,128.839Z" transform="translate(-244.347 -77.209)" fill="#263238"/>
        <path id="Trazado_798059" data-name="Trazado 798059" d="M297.452,134.055a5.859,5.859,0,0,1-5.511-3.539.414.414,0,0,1,.182-.555.431.431,0,0,1,.564.182c2.436,4.881,7.533,2.569,7.749,2.486a.413.413,0,1,1,.356.746A8.759,8.759,0,0,1,297.452,134.055Z" transform="translate(-243.087 -78.862)" fill="#263238"/>
        <path id="Trazado_798060" data-name="Trazado 798060" d="M293.6,123.724c0,.729.3,1.326.663,1.326s.663-.6.663-1.326-.3-1.334-.663-1.334S293.6,122.995,293.6,123.724Z" transform="translate(-243.379 -77.572)" fill="#263238"/>
        <path id="Trazado_798061" data-name="Trazado 798061" d="M303.42,123.724c0,.729.3,1.326.663,1.326s.663-.6.663-1.326-.3-1.334-.663-1.334S303.42,122.995,303.42,123.724Z" transform="translate(-245.061 -77.572)" fill="#263238"/>
        <path id="Trazado_798062" data-name="Trazado 798062" d="M291.314,117.729a.414.414,0,0,1-.282-.721,3.423,3.423,0,0,1,4.343-.53.415.415,0,0,1-.489.671,2.594,2.594,0,0,0-3.315.464A.39.39,0,0,1,291.314,117.729Z" transform="translate(-242.916 -76.466)" fill="#263238"/>
        <path id="Trazado_798063" data-name="Trazado 798063" d="M301.729,117.534a.447.447,0,0,1-.273-.1.423.423,0,0,1,0-.588,3.182,3.182,0,0,1,3.638-.762.415.415,0,0,1-.348.754,2.362,2.362,0,0,0-2.669.564.423.423,0,0,1-.348.133Z" transform="translate(-244.704 -76.445)" fill="#263238"/>
        <path id="Trazado_798064" data-name="Trazado 798064" d="M305.317,155.816l-12.878,12.207L279.957,155.41c-.936.464-1.906.912-2.851,1.318-2.751,1.185-7.2,2.238-10.227,3.588a35.553,35.553,0,0,0,49.939.116,18.723,18.723,0,0,0-3.638-1.343,42.092,42.092,0,0,1-7.865-3.273Z" transform="translate(-238.803 -83.227)" fill="#00a9ff"/>
        <path id="Trazado_798065" data-name="Trazado 798065" d="M291.759,170.927a35.735,35.735,0,0,1-25.318-10.417l-.431-.431.547-.24a52.431,52.431,0,0,1,5.611-1.989c1.732-.547,3.356-1.061,4.633-1.608.92-.4,1.873-.829,2.818-1.309l.273-.133,12.431,12.539,12.8-12.133.265.141a41.434,41.434,0,0,0,7.782,3.24,20.09,20.09,0,0,1,3.721,1.367l.505.265-.406.4a35.776,35.776,0,0,1-25.227,10.309Zm-24.3-10.575a35.146,35.146,0,0,0,48.5.083,21.464,21.464,0,0,0-3.033-1.044,43.506,43.506,0,0,1-7.691-3.174L292.281,168.5l-12.555-12.7c-.878.431-1.749.829-2.6,1.193-1.309.564-2.959,1.077-4.7,1.657S268.944,159.731,267.46,160.353Z" transform="translate(-238.654 -83.123)" fill="#263238"/>
      </g>
      <g id="freepik--profile-1--inject-2" transform="translate(66.215 34.1)">
        <path id="Trazado_798066" data-name="Trazado 798066" d="M190.509,232.855H78.63V68.31H190.509Zm-111.05-.829H189.68V69.139H79.459Z" transform="translate(-78.63 -39.959)" fill="#263238"/>
        <rect id="Rectángulo_373696" data-name="Rectángulo 373696" width="74.942" height="0.829" transform="translate(16.285 126.796)" fill="#263238"/>
        <rect id="Rectángulo_373697" data-name="Rectángulo 373697" width="74.942" height="0.829" transform="translate(16.285 134.42)" fill="#263238"/>
        <rect id="Rectángulo_373698" data-name="Rectángulo 373698" width="65.818" height="0.829" transform="translate(25.417 147.249)" fill="#263238"/>
        <rect id="Rectángulo_373699" data-name="Rectángulo 373699" width="4.409" height="4.409" transform="translate(17.395 144.846)" fill="#00a9ff"/>
        <rect id="Rectángulo_373700" data-name="Rectángulo 373700" width="65.818" height="0.829" transform="translate(25.417 156.871)" fill="#263238"/>
        <rect id="Rectángulo_373701" data-name="Rectángulo 373701" width="4.409" height="4.409" transform="translate(17.395 154.476)" fill="#00a9ff"/>
        <rect id="Rectángulo_373702" data-name="Rectángulo 373702" width="65.818" height="0.829" transform="translate(25.417 166.492)" fill="#263238"/>
        <rect id="Rectángulo_373703" data-name="Rectángulo 373703" width="4.409" height="4.409" transform="translate(17.395 164.097)" fill="#00a9ff"/>
        <rect id="Rectángulo_373704" data-name="Rectángulo 373704" width="65.818" height="0.829" transform="translate(25.417 176.114)" fill="#263238"/>
        <rect id="Rectángulo_373705" data-name="Rectángulo 373705" width="4.409" height="4.409" transform="translate(17.395 173.719)" fill="#00a9ff"/>
        <circle id="Elipse_4790" data-name="Elipse 4790" cx="35.569" cy="35.569" r="35.569" transform="translate(17.561 44.602)" fill="#fff"/>
        <path id="Trazado_798067" data-name="Trazado 798067" d="M135.3,159.387a35.984,35.984,0,1,1,35.975-35.981A35.985,35.985,0,0,1,135.3,159.387Zm0-71.13a35.155,35.155,0,1,0,35.147,35.149A35.157,35.157,0,0,0,135.3,88.257Z" transform="translate(-82.172 -43.232)" fill="#263238"/>
        <path id="Trazado_798068" data-name="Trazado 798068" d="M118.567,149.437l-8.867,7.094a35.553,35.553,0,0,0,54.3.522l-13.442-8.793Z" transform="translate(-83.951 -53.652)" fill="#263238"/>
        <path id="Trazado_798069" data-name="Trazado 798069" d="M137,169.721a35.884,35.884,0,0,1-27.7-13.011.431.431,0,0,1-.1-.307.406.406,0,0,1,.157-.282l8.859-7.094a.4.4,0,0,1,.249-.091l31.956-1.177a.406.406,0,0,1,.24.066l13.483,8.793a.423.423,0,0,1,.182.29.406.406,0,0,1-.1.331A35.959,35.959,0,0,1,137,169.721ZM110.2,156.5a35.138,35.138,0,0,0,53.089.547l-12.97-8.453-31.691,1.16Z" transform="translate(-83.865 -53.566)" fill="#263238"/>
        <path id="Trazado_798070" data-name="Trazado 798070" d="M131.182,137.474s-7.815,1.011-9.995,4.193-3.762,6.232-2.171,8.113a57.44,57.44,0,0,0,8.693,7.674c2.6,1.74,6.671,7.682,6.671,7.682a71.2,71.2,0,0,0,.572-7.533c0-3.191-2.751-6.63-3.315-9.564s4.2-7.525,7.525-6.083,5.942,5.8,5.8,7.823.572,4.492,1.3,7.964,1.3,6.456,1.3,6.456,4.923-4.972,6.522-10.367.829-10.856-5.072-14.478S131.182,137.474,131.182,137.474Z" transform="translate(-85.436 -51.733)" fill="#00a9ff"/>
        <path id="Trazado_798071" data-name="Trazado 798071" d="M134.3,165.463a.423.423,0,0,1-.34-.174c-.041-.058-4.052-5.9-6.564-7.575a58.524,58.524,0,0,1-8.776-7.757c-1.815-2.138,0-5.4,2.146-8.611s9.945-4.326,10.276-4.376c.539-.075,12.108-1.707,18.091,1.939,6.787,4.144,6.63,10.417,5.254,14.917-1.608,5.4-6.423,10.326-6.63,10.533a.414.414,0,0,1-.7-.207s-.58-2.975-1.3-6.448c-.166-.787-.331-1.525-.481-2.213a21.713,21.713,0,0,1-.829-5.867c.133-1.873-2.354-6.025-5.544-7.417-1.285-.555-2.983-.124-4.566,1.152s-2.652,3.207-2.4,4.475a17.485,17.485,0,0,0,1.483,3.8c.912,1.914,1.856,3.9,1.856,5.8a74.37,74.37,0,0,1-.572,7.591.423.423,0,0,1-.315.348Zm3.257-28.077a49.837,49.837,0,0,0-6.39.406h0c-.075,0-7.666,1.028-9.7,4.028-1.906,2.793-3.663,5.884-2.2,7.608a57.557,57.557,0,0,0,8.611,7.6c2.047,1.367,4.906,5.163,6.157,6.9.166-1.483.439-4.243.439-6.414,0-1.757-.9-3.655-1.773-5.486a17.7,17.7,0,0,1-1.55-3.994c-.373-1.848,1.077-3.978,2.685-5.279,1.823-1.467,3.854-1.948,5.412-1.26,3.555,1.541,6.2,6.083,6.041,8.229a21.29,21.29,0,0,0,.829,5.627c.157.7.323,1.434.489,2.221.5,2.4.928,4.541,1.144,5.66,1.318-1.467,4.641-5.453,5.876-9.605s1.442-10.144-4.89-14.014C145.757,137.825,141.257,137.386,137.553,137.386Zm-6.456,0Z" transform="translate(-85.351 -51.645)" fill="#263238"/>
        <path id="Trazado_798072" data-name="Trazado 798072" d="M151.976,141.336a13.938,13.938,0,0,0-2.561-1.981c-5.942-3.622-17.818-1.881-17.818-1.881s-7.815,1.011-9.995,4.193c-.249.373-.5.746-.729,1.111a7.84,7.84,0,0,0,1.309,5.552c3.249,5.171,9.945,7.649,13.169,9.116-.1-3.133-2.751-6.53-3.315-9.373s4.2-7.525,7.525-6.083,5.942,5.8,5.8,7.823.572,4.492,1.3,7.964l.124.63c.249-.24.5-.489.746-.771a18.87,18.87,0,0,0,4.923-12.928,12.281,12.281,0,0,0-.481-3.373Z" transform="translate(-85.852 -51.733)" fill="#fff"/>
        <path id="Trazado_798073" data-name="Trazado 798073" d="M146.7,158.7a.331.331,0,0,1-.124,0,.389.389,0,0,1-.282-.315l-.124-.613c-.166-.787-.331-1.525-.481-2.213a21.714,21.714,0,0,1-.829-5.867c.133-1.873-2.354-6.025-5.544-7.417-1.285-.555-2.983-.124-4.566,1.152s-2.652,3.207-2.4,4.475a17.485,17.485,0,0,0,1.483,3.8,15.157,15.157,0,0,1,1.84,5.635.4.4,0,0,1-.182.365.423.423,0,0,1-.4,0l-1.127-.5c-3.464-1.5-9.257-4.019-12.224-8.743a8.287,8.287,0,0,1-1.367-5.843.514.514,0,0,1,.058-.157c.24-.373.481-.746.738-1.119,2.254-3.315,9.945-4.334,10.285-4.376.481-.075,12.083-1.715,18.083,1.939a14.437,14.437,0,0,1,2.635,2.047.473.473,0,0,1,.108.174,12.589,12.589,0,0,1,.5,3.489,19.169,19.169,0,0,1-5.03,13.169c-.257.29-.514.547-.762.829a.431.431,0,0,1-.29.091Zm-8.577-17.511a3.7,3.7,0,0,1,1.517.307c3.555,1.541,6.2,6.083,6.041,8.229a21.291,21.291,0,0,0,.829,5.627c.149.655.307,1.351.456,2.088l.191-.207a18.389,18.389,0,0,0,4.815-12.613,11.693,11.693,0,0,0-.439-3.149,13.823,13.823,0,0,0-2.4-1.856c-5.743-3.5-17.4-1.84-17.536-1.823s-7.674,1.028-9.713,4.028c-.24.34-.464.68-.68,1.019a7.5,7.5,0,0,0,1.268,5.188c2.826,4.508,8.478,6.961,11.851,8.42l.489.215a17.627,17.627,0,0,0-1.707-4.633,18.058,18.058,0,0,1-1.541-3.994c-.373-1.848,1.077-3.978,2.685-5.279a6.39,6.39,0,0,1,3.878-1.566Z" transform="translate(-85.767 -51.643)" fill="#263238"/>
        <path id="Trazado_798074" data-name="Trazado 798074" d="M132.26,130.74s.87,10.425,1.16,13.326,1.881,10.285,6.8,11.727,7.823-4.193,7.1-8.4-2.022-8.113-2.022-9.564a7.06,7.06,0,0,0-.149-1.881Z" transform="translate(-87.815 -50.651)" fill="#fff"/>
        <path id="Trazado_798075" data-name="Trazado 798075" d="M141.69,156.361a5.7,5.7,0,0,1-1.657-.257c-4.79-1.409-6.721-8.287-7.1-12.083-.29-2.867-1.152-13.26-1.16-13.334a.414.414,0,0,1,.166-.365.4.4,0,0,1,.406-.05l12.878,5.213a.4.4,0,0,1,.24.249,7.551,7.551,0,0,1,.166,2.014,22.518,22.518,0,0,0,.771,3.812c.4,1.616.9,3.63,1.251,5.677A8.826,8.826,0,0,1,145.162,155,5.113,5.113,0,0,1,141.69,156.361Zm-9.041-25.069c.191,2.354.829,10.21,1.1,12.646.356,3.622,2.138,10.086,6.506,11.378a4.376,4.376,0,0,0,4.334-.936,8.055,8.055,0,0,0,2.238-7c-.348-2.014-.829-3.928-1.235-5.619a21.762,21.762,0,0,1-.829-4.011,10.887,10.887,0,0,0-.091-1.575Z" transform="translate(-87.731 -50.566)" fill="#263238"/>
        <path id="Trazado_798076" data-name="Trazado 798076" d="M145.147,135.923,132.26,130.71s.663,7.931,1.019,11.884L145.3,137.58A6.631,6.631,0,0,0,145.147,135.923Z" transform="translate(-87.815 -50.646)" fill="#263238"/>
        <path id="Trazado_798077" data-name="Trazado 798077" d="M133.193,142.953a.373.373,0,0,1-.207-.058.406.406,0,0,1-.2-.323c-.365-3.945-1.028-11.884-1.028-11.884a.414.414,0,0,1,.166-.365.4.4,0,0,1,.406-.05l12.887,5.213a.389.389,0,0,1,.24.257,6.713,6.713,0,0,1,.158,1.724.406.406,0,0,1-.249.389l-12.008,5.064A.372.372,0,0,1,133.193,142.953Zm-.547-11.66c.157,1.881.613,7.309.912,10.641l11.229-4.732a9.377,9.377,0,0,0-.083-1.036Z" transform="translate(-87.729 -50.566)" fill="#263238"/>
        <path id="Trazado_798078" data-name="Trazado 798078" d="M146.443,106.264s2.312,12.729,2.312,15.05-2.122,9.066-3.083,10.608-5.8,2.486-7.715,1.732-7.334-5.8-8.494-7.906a16.193,16.193,0,0,1-1.541-4.053s-2.7,1.16-4.823-1.931-.961-5.975,1.16-6.166l1.931.572s-3.472-5.975-2.32-8.677,15.05-3.663,17.942-3.663S146.443,106.264,146.443,106.264Z" transform="translate(-86.053 -45.7)" fill="#fff"/>
        <path id="Trazado_798079" data-name="Trazado 798079" d="M139.662,134.247a5.487,5.487,0,0,1-1.948-.29c-2.047-.829-7.459-5.892-8.693-8.1a16.873,16.873,0,0,1-1.483-3.729,4.547,4.547,0,0,1-4.865-2.213,5.252,5.252,0,0,1-.829-5.146,2.809,2.809,0,0,1,2.3-1.657.331.331,0,0,1,.157,0l.97.29c-.936-1.815-2.809-5.925-1.856-8.163,1.45-3.373,18.158-3.912,18.323-3.912,3.141,0,4.972,4.508,5.014,4.7v.075c.091.522,2.32,12.8,2.32,15.124s-2.188,9.282-3.149,10.823C145.115,133.377,142.016,134.247,139.662,134.247Zm-11.826-13.053a.439.439,0,0,1,.2.05.423.423,0,0,1,.207.282,15.887,15.887,0,0,0,1.5,3.936c1.094,2.006,6.431,6.986,8.287,7.724s6.4-.273,7.21-1.575c.9-1.434,3.025-8.122,3.025-10.384s-2.155-14.088-2.3-14.917c-.166-.406-1.782-4.144-4.227-4.144-4.144,0-16.575,1.169-17.561,3.414-.878,2.055,1.359,6.7,2.3,8.287a.414.414,0,0,1,0,.464.406.406,0,0,1-.448.141l-1.848-.555a2.006,2.006,0,0,0-1.55,1.193,4.449,4.449,0,0,0,.779,4.326c1.89,2.751,4.218,1.823,4.318,1.782a.538.538,0,0,1,.116-.025Z" transform="translate(-85.969 -45.614)" fill="#263238"/>
        <path id="Trazado_798080" data-name="Trazado 798080" d="M138.03,110.985l-3.075,1.367a.829.829,0,0,0-.4,1.169l.116.207a.829.829,0,0,0,1.127.34l2.959-1.575a.829.829,0,0,0,.34-1.152h0A.829.829,0,0,0,138.03,110.985Z" transform="translate(-88.191 -47.255)" fill="#263238"/>
        <path id="Trazado_798081" data-name="Trazado 798081" d="M135.327,114.448a1.26,1.26,0,0,1-1.1-.646l-.108-.207a1.218,1.218,0,0,1-.091-1,1.235,1.235,0,0,1,.68-.746l3.075-1.359a1.25,1.25,0,0,1,1.094,2.246l-2.967,1.575A1.2,1.2,0,0,1,135.327,114.448Zm2.959-3.24a.431.431,0,0,0-.174,0h0l-3.075,1.367a.406.406,0,0,0-.232.249.439.439,0,0,0,0,.34l.116.207a.431.431,0,0,0,.572.166l2.959-1.566a.406.406,0,0,0,.207-.257.4.4,0,0,0,0-.323.431.431,0,0,0-.373-.182Zm-.34-.348Z" transform="translate(-88.106 -47.164)" fill="#263238"/>
        <path id="Trazado_798082" data-name="Trazado 798082" d="M145.666,110.044v.058a.68.68,0,0,0,.506.829l2.378.539a.68.68,0,0,0,.829-.663h0a.688.688,0,0,0-.514-.663l-2.362-.588a.68.68,0,0,0-.837.489Z" transform="translate(-90.108 -47.019)" fill="#263238"/>
        <path id="Trazado_798083" data-name="Trazado 798083" d="M148.593,111.835a1.126,1.126,0,0,1-.24,0l-2.378-.539a1.077,1.077,0,0,1-.7-.506,1.044,1.044,0,0,1-.116-.829V109.9a1.086,1.086,0,0,1,1.318-.771l2.362.588a1.094,1.094,0,0,1-.265,2.155Zm-2.619-1.757v.058a.265.265,0,0,0,0,.207.249.249,0,0,0,.166.124l2.378.53a.265.265,0,0,0,.224-.05.29.29,0,0,0,.1-.207.257.257,0,0,0-.207-.257l-2.354-.588a.265.265,0,0,0-.323.182Z" transform="translate(-90.018 -46.945)" fill="#263238"/>
        <path id="Trazado_798084" data-name="Trazado 798084" d="M150.1,129.2s-.373-4.4-1.251-5.03-7.459-.124-7.459-.124-6.63-1.881-6.787-.373c-.1,1.1.2,6.995.481,9.746a22.5,22.5,0,0,0,4.972,3.878c1.923.771,6.746-.191,7.715-1.732a32.666,32.666,0,0,0,2.279-6.34Zm-1.508.754c-.754,2.486-2.387,4.019-3.141,3.646s-1.384-2.768-2.014-3.017-1.127,1-1.881,2.138a2.811,2.811,0,0,1-3.646.754c-.878-.754-1.89-7.674-1.89-8.553s9.182.506,9.182.506a18.016,18.016,0,0,1,2.892-.124c.622.124,1.251,2.138.5,4.649Z" transform="translate(-88.214 -49.34)" fill="gray"/>
        <path id="Trazado_798085" data-name="Trazado 798085" d="M141.83,137.89a5.486,5.486,0,0,1-1.948-.29c-1.243-.5-3.539-2.486-5.122-3.97a.381.381,0,0,1-.124-.257c-.265-2.619-.58-8.627-.481-9.82a.887.887,0,0,1,.389-.663c1.227-.829,5.8.348,6.854.655,1.657-.124,6.7-.448,7.616.207s1.326,4.218,1.425,5.312h0a.365.365,0,0,1,0,.166,32.5,32.5,0,0,1-2.329,6.464C147.283,137.02,144.184,137.89,141.83,137.89Zm-6.39-4.749a22.136,22.136,0,0,0,4.749,3.688c1.815.729,6.4-.273,7.21-1.575a31.922,31.922,0,0,0,2.213-6.141c-.174-2.022-.638-4.376-1.077-4.691s-4.077-.29-7.144-.05a.431.431,0,0,1-.149,0c-2.171-.613-5.536-1.26-6.224-.829a96.051,96.051,0,0,0,.423,9.6Zm3.646,1.052a2.387,2.387,0,0,1-1.525-.489c-1.069-.92-2.03-8.113-2.03-8.867a.555.555,0,0,1,.2-.414c.787-.671,6.2,0,9.406.506a15.289,15.289,0,0,1,2.959-.116,1.077,1.077,0,0,1,.7.564,6.216,6.216,0,0,1,.124,4.608h0a6.079,6.079,0,0,1-2.718,3.87,1.144,1.144,0,0,1-1,0,3.97,3.97,0,0,1-1.276-1.807,4.451,4.451,0,0,0-.713-1.2c-.182,0-.6.721-.829,1.152-.157.265-.331.555-.522.829a3.464,3.464,0,0,1-2.735,1.334Zm-2.718-9.174c.083,1.558,1.094,7.508,1.74,8.055a1.774,1.774,0,0,0,1.343.265,2.42,2.42,0,0,0,1.657-.936,9.134,9.134,0,0,0,.5-.829c.555-.928,1.086-1.807,1.89-1.492.431.174.713.729,1.144,1.608a4.5,4.5,0,0,0,.9,1.425.4.4,0,0,0,.307,0A5.541,5.541,0,0,0,148.1,129.8h0c.7-2.3.124-3.994-.191-4.144a15.631,15.631,0,0,0-2.76.133h-.108c-3.663-.6-7.782-1-8.669-.771Z" transform="translate(-88.137 -49.257)" fill="#545454"/>
        <path id="Trazado_798086" data-name="Trazado 798086" d="M143.869,128.209a11.751,11.751,0,0,1-6.05-1.9.414.414,0,1,1,.472-.68s3.547,2.4,7.21,1.575a.413.413,0,1,1,.191.8A8.238,8.238,0,0,1,143.869,128.209Z" transform="translate(-88.734 -49.762)" fill="#263238"/>
        <path id="Trazado_798087" data-name="Trazado 798087" d="M144.274,113.32s1.757,7.666,1.881,8.287-1.251,2.644-2.76,1.508a4.434,4.434,0,0,1-1.765-2.262" transform="translate(-89.42 -47.668)" fill="#fff"/>
        <path id="Trazado_798088" data-name="Trazado 798088" d="M144.239,123.794a1.931,1.931,0,0,1-1.177-.423,4.765,4.765,0,0,1-1.914-2.486.424.424,0,0,1,.829-.182,4.144,4.144,0,0,0,1.608,2.022,1.036,1.036,0,0,0,1.235.1,1.84,1.84,0,0,0,.829-1.193c-.124-.613-1.865-8.213-1.881-8.287a.424.424,0,1,1,.829-.182c.066.315,1.757,7.682,1.881,8.287a2.4,2.4,0,0,1-1.193,2.03,2.014,2.014,0,0,1-1.044.315Z" transform="translate(-89.336 -47.584)" fill="#263238"/>
        <path id="Trazado_798089" data-name="Trazado 798089" d="M139.842,117.6c.2.663.124,1.276-.174,1.367s-.7-.373-.912-1.036-.124-1.276.174-1.367S139.635,116.924,139.842,117.6Z" transform="translate(-88.908 -48.222)" fill="#263238"/>
        <path id="Trazado_798090" data-name="Trazado 798090" d="M148.823,116.335c.083.688-.108,1.276-.414,1.309s-.63-.489-.713-1.177.108-1.285.423-1.318S148.773,115.647,148.823,116.335Z" transform="translate(-90.455 -47.981)" fill="#263238"/>
        <path id="Trazado_798091" data-name="Trazado 798091" d="M122.6,96.007s-4.972,4.972-3.083,9.265a138.36,138.36,0,0,0,6.754,12.141h.961l-.191-3.315s3.083-1.152,2.486-3.854a12.042,12.042,0,0,0-1.923-4.442,10.71,10.71,0,0,0,7.135,1.931c3.82-.555,5.594-5.2,6.945-3.663s3.472,2.486,7.517.381,6.63-9.307,2.2-12.2-8.569-.331-10.881.24-4.053-3.315-9.257-1.732a21.7,21.7,0,0,0-8.669,5.246Z" transform="translate(-85.56 -43.739)" fill="#263238"/>
        <path id="Trazado_798092" data-name="Trazado 798092" d="M127.147,117.764h-.961a.414.414,0,0,1-.356-.2c-.05-.083-4.856-7.981-6.779-12.2-2.014-4.425,2.909-9.456,3.174-9.721a21.854,21.854,0,0,1,8.859-5.312,7.939,7.939,0,0,1,6.862.994,3.524,3.524,0,0,0,2.412.738c.423-.108.92-.282,1.483-.489,2.378-.829,5.967-2.146,9.721.3a5.644,5.644,0,0,1,2.486,5.213,9.655,9.655,0,0,1-4.732,7.707c-3.514,1.84-6.141,1.657-8.03-.481-.149-.166-.24-.174-.273-.174-.348,0-.953.555-1.583,1.16a9,9,0,0,1-4.715,2.818A10.111,10.111,0,0,1,128.746,107a13.375,13.375,0,0,1,1.1,3.124c.481,2.229-1.276,3.663-2.486,4.218l.174,2.983a.389.389,0,0,1-.116.307.4.4,0,0,1-.273.133Zm-.729-.829h.29l-.166-2.843a.414.414,0,0,1,.265-.414c.116,0,2.743-1.069,2.246-3.381a11.486,11.486,0,0,0-1.848-4.268.414.414,0,0,1,0-.547.406.406,0,0,1,.547,0,10.189,10.189,0,0,0,6.82,1.848,8.142,8.142,0,0,0,4.268-2.594c.829-.829,1.492-1.409,2.188-1.392a1.193,1.193,0,0,1,.829.456c1.028,1.169,2.867,2.486,7.019.29a8.9,8.9,0,0,0,4.293-7.011,4.8,4.8,0,0,0-2.13-4.475c-3.406-2.221-6.63-1.061-8.983-.215a16.242,16.242,0,0,1-1.566.514,4.113,4.113,0,0,1-3.008-.829,7.147,7.147,0,0,0-6.232-.92,21.4,21.4,0,0,0-8.494,5.1h0c-.05,0-4.79,4.865-3.008,8.793,1.79,3.779,5.909,10.641,6.638,11.892Zm-3.9-21Z" transform="translate(-85.47 -43.667)" fill="#263238"/>
        <path id="Trazado_798093" data-name="Trazado 798093" d="M168.431,91.374l-.721-.414L200.561,34.1h8.213v.829h-7.732Z" transform="translate(-93.887 -34.1)" fill="#263238"/>
        <rect id="Rectángulo_373706" data-name="Rectángulo 373706" width="20.146" height="0.829" transform="translate(122.445 0.423)" fill="#263238"/>
        <rect id="Rectángulo_373707" data-name="Rectángulo 373707" width="20.146" height="0.829" transform="translate(122.445 5.461)" fill="#263238"/>
        <rect id="Rectángulo_373708" data-name="Rectángulo 373708" width="20.146" height="0.829" transform="translate(122.445 10.492)" fill="#263238"/>
      </g>
      <g id="freepik--character-1--inject-2" transform="translate(12.14 186.759)">
        <path id="Trazado_798094" data-name="Trazado 798094" d="M182.25,236.9a15.72,15.72,0,1,1,15.72-15.72A15.72,15.72,0,0,1,182.25,236.9Zm0-29.425a13.7,13.7,0,1,0,13.7,13.7,13.7,13.7,0,0,0-13.7-13.7Z" transform="translate(-46.902 -195.303)" fill="#263238"/>
        <rect id="Rectángulo_373709" data-name="Rectángulo 373709" width="3.023" height="26.482" transform="matrix(0.8, -0.6, 0.6, 0.8, 142.381, 39.733)" fill="#263238"/>
        <path id="Trazado_798095" data-name="Trazado 798095" d="M165.008,210.167a18.41,18.41,0,0,1,.826,5.935c-.171,2.973.161,7.255,1.008,7.921s3.134,2.308,2.469,3.628a4.827,4.827,0,0,1-2.136,2.015,31.512,31.512,0,0,1-2.479,7.417c-1.653,3.134-2.8,5.28-4.776,5.442a7.053,7.053,0,0,1-3.134-.322l-2.167,2.116-16.325-3.456.494-7.255s-4.948-8.414-4.948-16.99S142.577,203.1,147.7,202.77,162.368,204.564,165.008,210.167Z" transform="translate(-47.154 -195.324)" fill="#fff"/>
        <path id="Trazado_798096" data-name="Trazado 798096" d="M154.784,244.855l-17.02-3.557.514-7.538c-.655-1.169-4.938-8.989-4.938-17.131,0-8.938,9.18-14.017,14.329-14.35,4.787-.3,14.934,1.632,17.8,7.709v.06a18.743,18.743,0,0,1,.857,6.117c-.2,3.477.282,7.054.8,7.5l.222.171c1.108.867,3.174,2.489,2.388,4.031a5.28,5.28,0,0,1-2.146,2.1,31.149,31.149,0,0,1-2.479,7.316c-1.683,3.2-2.9,5.512-5.18,5.7a8.193,8.193,0,0,1-3.023-.252Zm-15.952-4.414,15.629,3.315,2.187-2.2.312.141a7.054,7.054,0,0,0,2.892.292c1.653-.141,2.691-1.965,4.383-5.18a31.007,31.007,0,0,0,2.418-7.276v-.262l.242-.111a4.323,4.323,0,0,0,1.895-1.743c.423-.836-1.411-2.277-2.106-2.822l-.222-.181c-1.179-.937-1.31-6.117-1.179-8.334a17.857,17.857,0,0,0-.8-5.724c-2.439-5.119-11.478-7.447-16.808-7.1-4.807.312-13.382,5.039-13.382,13.342s4.827,16.647,4.877,16.728l.081.141Z" transform="translate(-47.158 -195.328)" fill="#263238"/>
        <path id="Trazado_798097" data-name="Trazado 798097" d="M169.294,206.078a7.054,7.054,0,0,1-1.32,4.615c-1.643,2.479-6.1,3.305-6.1,3.305s-.161,3.628-1.159,5.109a10.157,10.157,0,0,1-3.3,2.64s-3.3.322-2.308,3.95,1.814,4.121.161,7.054-11.377,6.923-14.672,4.615-5.774-3.456-7.749-10.389-3.96-16.647,1.653-23.248,18.3-4.948,18.3-4.948-3.3-3.134,1.32-2.963a12.294,12.294,0,0,1,7.749,3.456s.494-3.3,2.963-2.469S168.981,204.285,169.294,206.078Z" transform="translate(-47.177 -195.378)" fill="#263238"/>
        <path id="Trazado_798098" data-name="Trazado 798098" d="M143.41,238.63a5.351,5.351,0,0,1-3.073-.786l-.846-.585c-2.922-2.015-5.24-3.587-7.054-10.077-2.156-7.548-3.91-17.06,1.753-23.711,4.736-5.573,14.108-5.472,17.514-5.24a2.015,2.015,0,0,1-.373-1.834c.312-.746,1.25-1.078,2.882-1.008a12.637,12.637,0,0,1,7.457,3.023,3.436,3.436,0,0,1,1.33-1.844,2.328,2.328,0,0,1,2.015-.161c3.154,1.008,4.776,9.533,4.787,9.613h0a7.608,7.608,0,0,1-1.4,4.968c-1.471,2.207-4.887,3.164-6.046,3.436-.071,1.008-.343,3.678-1.209,4.978a10.329,10.329,0,0,1-3.5,2.8l-.171.05a2.681,2.681,0,0,0-1.693,1.008,2.781,2.781,0,0,0-.181,2.358c.2.736.393,1.34.564,1.854.665,2.106,1.008,3.023-.443,5.613-1.068,1.925-5.22,4.252-9.261,5.18a14.163,14.163,0,0,1-3.053.363Zm5.976-39.451c-4.091,0-10.863.705-14.471,4.948-5.351,6.288-3.638,15.478-1.552,22.784,1.753,6.137,3.829,7.558,6.7,9.523l.857.584c1.008.715,2.912.8,5.341.242,3.668-.846,7.689-3.023,8.606-4.686,1.2-2.177,1.008-2.791.363-4.817-.171-.534-.373-1.149-.574-1.894a3.718,3.718,0,0,1,.322-3.2,3.567,3.567,0,0,1,2.318-1.381,9.372,9.372,0,0,0,3.023-2.429c.746-1.119,1.008-3.88,1.068-4.857V213.6l.393-.081s4.263-.816,5.774-3.023a6.741,6.741,0,0,0,1.239-4.263c-.453-2.5-2.116-8.172-4.111-8.838a1.431,1.431,0,0,0-1.229.071,3.235,3.235,0,0,0-1.088,2.015l-.151,1.008-.705-.736a11.9,11.9,0,0,0-7.407-3.305c-1.643-.06-1.884.322-1.915.4-.151.353.474,1.229.957,1.693l1.119,1.008-1.522-.191a28.867,28.867,0,0,0-3.356-.181Z" transform="translate(-47.181 -195.381)" fill="#263238"/>
        <path id="Trazado_798099" data-name="Trazado 798099" d="M158.594,224.029s-2.8-5.27-4.948-3.3,0,12.526,3.628,10.551" transform="translate(-47.008 -195.189)" fill="#fff"/>
        <path id="Trazado_798100" data-name="Trazado 798100" d="M156.381,232.094a2.811,2.811,0,0,1-2.227-1.391c-1.844-2.57-2.63-8.636-.846-10.289a2.015,2.015,0,0,1,1.743-.544c2.015.343,3.8,3.608,4.031,3.98l-.887.474c-.474-.887-2.015-3.245-3.275-3.466a1.008,1.008,0,0,0-.887.3c-1.29,1.179-.7,6.621,1.008,8.948,1.008,1.381,1.794.937,2.066.786l.484.887A2.338,2.338,0,0,1,156.381,232.094Z" transform="translate(-47.012 -195.193)" fill="#263238"/>
        <rect id="Rectángulo_373710" data-name="Rectángulo 373710" width="13.352" height="1.008" transform="translate(110.266 25.887)" fill="#263238"/>
        <path id="Trazado_798101" data-name="Trazado 798101" d="M169.475,225.955l-.6-.806a3.7,3.7,0,0,0,1.391-3.849,3.628,3.628,0,0,0-2.62-2.7,3.749,3.749,0,0,0-2.418.171l-.393-.937a4.817,4.817,0,0,1,3.023-.212,4.716,4.716,0,0,1,1.582,8.334Z" transform="translate(-46.915 -195.211)" fill="#263238"/>
        <path id="Trazado_798102" data-name="Trazado 798102" d="M158.394,248.856s0-3.678-4.837-6.439-14.511-6.449-18.894-6.046-6.9,6.681-6.9,6.681,17.272,1.612,21.414,2.529A57.551,57.551,0,0,1,158.394,248.856Z" transform="translate(-47.201 -195.066)" fill="#fff"/>
        <path id="Trazado_798103" data-name="Trazado 798103" d="M158.9,249.645l-.715-.322a56.709,56.709,0,0,0-9.069-3.194c-4.031-.9-21.162-2.509-21.353-2.519l-.675-.06.262-.635c.1-.262,2.691-6.5,7.316-6.983s14.208,3.2,19.146,6.046,5.1,6.721,5.1,6.883Zm-30.382-6.973c3.335.312,17.07,1.653,20.769,2.479a53.407,53.407,0,0,1,8.475,2.882c-.3-1.169-1.27-3.356-4.454-5.18-4.746-2.711-14.36-6.379-18.582-5.925C131.494,237.271,129.277,241.13,128.521,242.672Z" transform="translate(-47.206 -195.069)" fill="#263238"/>
        <path id="Trazado_798104" data-name="Trazado 798104" d="M86.683,272.53s-5.522,6.449-12.9,15.67-13.352,18.652-13.352,18.652-6.913,5.986-7.83,8.515-3.225,9.906-4.152,11.982,3.225-.7,3.92-2.308a24.1,24.1,0,0,1,1.381-2.761l5.986-2.761s-1.844,4.605,0,5.29,2.076-2.529,4.142-5.038,3.92-4.384,4.152-7.376a48.368,48.368,0,0,0,0-6.217l29.475-19.146Z" transform="translate(-47.812 -194.787)" fill="#fff"/>
        <path id="Trazado_798105" data-name="Trazado 798105" d="M48.6,328.594a.756.756,0,0,1-.635-.292,1.209,1.209,0,0,1,0-1.149c.574-1.28,1.693-4.656,2.67-7.618.584-1.763,1.119-3.386,1.471-4.333.917-2.529,7.205-8.062,7.91-8.676.544-.846,6.359-9.906,13.352-18.642,7.3-9.069,12.858-15.609,12.909-15.67l.413-.484L98.2,287.178,68.558,306.425a48.653,48.653,0,0,1,0,6c-.222,2.8-1.753,4.645-3.537,6.782l-.726.867a14.574,14.574,0,0,0-1.7,2.852c-.736,1.522-1.441,2.963-3.023,2.368a1.643,1.643,0,0,1-.917-.887c-.474-1.068-.1-2.781.242-3.93l-4.776,2.207a27.126,27.126,0,0,0-1.27,2.57,7.709,7.709,0,0,1-4.111,3.346Zm38.061-55.242c-1.37,1.673-6.318,7.477-12.455,15.166C66.936,297.588,60.94,307.03,60.88,307.13l-.1.111c-1.894,1.633-6.963,6.328-7.679,8.3-.343.947-.877,2.549-1.461,4.3-1.008,2.943-2.076,6.268-2.67,7.638a7.487,7.487,0,0,0,2.963-2.63,25.3,25.3,0,0,1,1.411-2.832l.081-.131,7.276-3.356-.474,1.169c-.333.846-1.1,3.245-.635,4.283a.625.625,0,0,0,.353.363c.625.232.927-.191,1.753-1.874a14.974,14.974,0,0,1,1.824-3.023l.726-.877c1.743-2.086,3.114-3.739,3.305-6.207a49.747,49.747,0,0,0,0-6.147v-.3l.252-.161,29.022-18.824Z" transform="translate(-47.816 -194.793)" fill="#263238"/>
        <path id="Trazado_798106" data-name="Trazado 798106" d="M54.126,322.247l-.836-.564,2.832-4.263h.191a14.534,14.534,0,0,0,3.537-1.592,9.282,9.282,0,0,0,2.529-2.288l.826.584a10.893,10.893,0,0,1-2.811,2.549,15.114,15.114,0,0,1-3.638,1.663Z" transform="translate(-47.774 -194.471)" fill="#263238"/>
        <path id="Trazado_798107" data-name="Trazado 798107" d="M185.72,263.788l7.467-15.69a62.752,62.752,0,0,1,1.794-6.953c.514-.9,3.608-5.784,4.766-5.915s2.318.383,2.449,1.411a2.923,2.923,0,0,1-.393,1.8,8.949,8.949,0,0,1,2.963,2.449,8.162,8.162,0,0,1,1.542,4.031c.262,1.008,1.159,1.159.131,3.346s-2.7,2.832-3.608,3.466a27.87,27.87,0,0,1-3.084,1.673s-.131,14.8-1.935,20.6-3.084,7.719-3.084,7.719-3.094-10.551-4.887-12.616S185.72,263.788,185.72,263.788Z" transform="translate(-46.755 -195.074)" fill="#fff"/>
        <path id="Trazado_798108" data-name="Trazado 798108" d="M194.552,282.858l-.3-1.008c-.857-2.9-3.366-10.8-4.787-12.425-1.794-2.015-4.122-5.28-4.152-5.311l-.171-.242,7.568-15.912a56.431,56.431,0,0,1,1.844-7.054c0-.05,3.517-5.986,5.139-6.167s2.852.625,3.023,1.854a3.335,3.335,0,0,1-.222,1.653,9.452,9.452,0,0,1,2.7,2.348,7.527,7.527,0,0,1,1.5,3.547,2.633,2.633,0,0,0,.131.635,2.075,2.075,0,0,0,.252.574c.393.726.635,1.411-.161,3.1a7.265,7.265,0,0,1-3.184,3.3c-.212.131-.413.252-.584.373a25.437,25.437,0,0,1-2.872,1.582c0,2.227-.272,15.025-1.955,20.426-1.8,5.784-3.094,7.769-3.154,7.85Zm-8.243-19.146c.574.786,2.429,3.305,3.91,5.038s3.779,8.8,4.645,11.629a48.665,48.665,0,0,0,2.479-6.56c1.753-5.653,1.9-20.3,1.9-20.446v-.312l.292-.141a28.359,28.359,0,0,0,3.023-1.622c.191-.131.4-.272.645-.413a6.4,6.4,0,0,0,2.8-2.872c.635-1.36.443-1.7.181-2.187a3.1,3.1,0,0,1-.343-.816c-.06-.222-.1-.443-.151-.685a6.389,6.389,0,0,0-1.31-3.124,8.556,8.556,0,0,0-2.771-2.3l-.534-.242.333-.494a2.4,2.4,0,0,0,.3-1.451c-.091-.736-1.008-1.078-1.895-1.008s-3.305,3.8-4.373,5.663a53.807,53.807,0,0,0-1.743,6.8v.111Z" transform="translate(-46.759 -195.078)" fill="#263238"/>
        <path id="Trazado_798109" data-name="Trazado 798109" d="M96.77,306.166S86.945,331.5,85.262,337.4s-5.663,17.887-7.356,33.1A96.67,96.67,0,0,0,78,389.11a154.608,154.608,0,0,0-7.054,16.284C67.295,415.219,54.9,463.952,54.9,463.952s2.247,3.376,7.306,2.529l5.038-.846a9.13,9.13,0,0,0,3.648-.282c2.015-.554,6.459-.272,6.742-2.237s-1.129-2.529-2.811-4.494-4.212-8.152-4.212-8.152S84.7,425.85,89.756,416.882s12.092-25.807,12.385-28.336,14.329-39.673,14.329-39.673h3.094l22.169,37.1s-.846,14.884,1.683,23.59,8.4,41.578,8.4,41.578l-.564,5.905a18.987,18.987,0,0,1,1.129,3.648v3.084s.836,2.015,6.459,2.015c2.519,0,10.954-.846,12.354-1.129s12.092-.564,12.354-1.965.564-2.529-1.119-3.094-13.765-6.177-13.765-6.177v-5.039a9.25,9.25,0,0,1-2.811-3.376c-.554-1.683.564-46.9,0-54.758s.282-7.86-1.965-14.884-11.145-56.31-11.145-56.31l-4.545-7.83-47.735-9.825Z" transform="translate(-47.761 -194.565)" fill="#263238"/>
        <path id="Trazado_798110" data-name="Trazado 798110" d="M60.638,467.11a7.376,7.376,0,0,1-6.117-2.862l-.131-.191.06-.212c.121-.494,12.435-48.873,16.053-58.608a162.785,162.785,0,0,1,6.973-16.214,98.562,98.562,0,0,1-.071-18.562A170.451,170.451,0,0,1,84.016,339.9c.282-1.008.544-1.844.766-2.62,1.673-5.855,11.417-31.017,11.518-31.239l.071-.121,3.87-5.038.312.06,47.956,9.875L153.235,319c.091.494,8.928,49.266,11.145,56.179a27.4,27.4,0,0,1,1.743,9.785c0,1.31.081,2.942.242,5.21.292,4.031.141,17.665,0,30.805-.121,11.276-.252,22.935,0,23.842a8.868,8.868,0,0,0,2.63,3.124l.2.151v4.978c1.854.867,11.921,5.532,13.412,6.046,2.015.685,1.753,2.207,1.491,3.547v.121c-.222,1.088-2.489,1.572-10.077,2.126-1.229.091-2.3.161-2.63.232-1.491.3-9.956,1.139-12.455,1.139-5.784,0-6.822-2.015-6.923-2.277v-3.285a17.373,17.373,0,0,0-1.088-3.466l-.05-.111.564-5.956c-.3-1.673-5.955-33.042-8.394-41.436s-1.8-21.907-1.713-23.6L119.255,349.37h-2.449c-4.031,10.551-13.936,37.214-14.108,39.209-.282,2.57-7.366,19.489-12.445,28.528-4.746,8.434-17.584,30.936-18.975,33.385.464,1.118,2.6,6.107,4.031,7.779.443.514.867.937,1.239,1.3,1.078,1.068,1.925,1.9,1.683,3.6s-2.751,2.015-4.968,2.318a13.4,13.4,0,0,0-2.126.342,9.934,9.934,0,0,1-3.789.3l-4.978.826A10.085,10.085,0,0,1,60.638,467.11Zm-5.149-3.275a6.812,6.812,0,0,0,6.671,2.146l5.129-.857h.091a8.8,8.8,0,0,0,3.426-.272,15.114,15.114,0,0,1,2.3-.363c1.753-.212,3.94-.464,4.081-1.471.171-1.179-.383-1.733-1.391-2.721-.393-.393-.836-.826-1.3-1.37-1.713-2.015-4.192-8.062-4.293-8.283l-.1-.222.131-.212c.141-.252,14.108-24.719,19.086-33.6s12.092-25.636,12.324-28.145,13.765-38.292,14.34-39.784l.131-.322h3.718l22.391,37.486V386c0,.141-.816,14.894,1.663,23.419s8.374,41.316,8.434,41.618v.111l-.554,5.845a16.5,16.5,0,0,1,1.119,3.728v2.953c.222.3,1.441,1.6,5.955,1.6,2.539,0,10.984-.867,12.254-1.119.4-.081,1.391-.151,2.761-.252,2.368-.171,8.646-.635,9.22-1.381v-.06c.292-1.471.333-2.015-.816-2.388-1.693-.564-13.322-5.966-13.816-6.2l-.292-.141v-5.129a9.069,9.069,0,0,1-2.781-3.456c-.282-.857-.2-9.734,0-24.185.141-12.516.3-26.694,0-30.725-.161-2.3-.2-3.93-.242-5.25a26.421,26.421,0,0,0-1.693-9.513c-2.207-6.893-10.621-53.206-11.165-56.209l-4.394-7.558-47.221-9.7-3.436,4.454c-.574,1.461-9.845,25.454-11.468,31.118l-.766,2.63a168.752,168.752,0,0,0-6.57,30.322,97.655,97.655,0,0,0,.081,18.491v.151l-.071.141a158.19,158.19,0,0,0-6.993,16.224C67.974,414.871,56.426,460.217,55.488,463.835Z" transform="translate(-47.765 -194.569)" fill="#263238"/>
        <path id="Trazado_798111" data-name="Trazado 798111" d="M183.08,264.1s.917-3.023,4.837-1.612,9.9,12.667,8.515,18.652-5.038,8.062-8.283,7.83-7.145-4.142-6.228-4.605S183.08,264.1,183.08,264.1Z" transform="translate(-46.785 -194.867)" fill="#fff"/>
        <path id="Trazado_798112" data-name="Trazado 798112" d="M188.616,289.493h-.5c-2.963-.212-6.54-3.335-6.8-4.666a.786.786,0,0,1,.282-.826c.5-1.149.887-11.034,1.008-19.892v-.141a3.547,3.547,0,0,1,1.7-1.945,4.706,4.706,0,0,1,3.779,0c4.343,1.532,10.268,13.1,8.848,19.237S191.81,289.493,188.616,289.493Zm-6.3-4.807c.272.836,3.285,3.6,5.865,3.779,2.872.222,6.429-1.643,7.769-7.437s-4.706-16.839-8.2-18.068a3.849,3.849,0,0,0-2.973-.071,2.519,2.519,0,0,0-1.189,1.3C183.376,281.492,182.7,284.172,182.318,284.686ZM181.7,283.91Z" transform="translate(-46.789 -194.871)" fill="#263238"/>
        <path id="Trazado_798113" data-name="Trazado 798113" d="M98.61,261.332s-1.612,0-3.91-.222-5.532,3.678-7.376,5.986-4.142,3.688-2.529,8.515S90.78,286.7,97.229,287.129a13.987,13.987,0,0,0,10.137-3.023Z" transform="translate(-47.536 -194.875)" fill="#fff"/>
        <path id="Trazado_798114" data-name="Trazado 798114" d="M98.422,287.677H97.2c-6.318-.453-11.024-6.278-12.878-11.861-1.461-4.363.181-6.207,1.763-7.991.282-.322.574-.655.846-1.008,2.549-3.184,5.482-6.429,7.82-6.177a33.546,33.546,0,0,0,3.859.222h.353l9,23.449-.252.232a14.189,14.189,0,0,1-9.291,3.134ZM94.5,261.608c-2.126,0-5.492,4.2-6.772,5.8a12.719,12.719,0,0,1-.9,1.008c-1.582,1.784-2.832,3.194-1.562,7.054s5.311,10.722,12,11.155a13.967,13.967,0,0,0,9.492-2.64l-8.495-22.169c-.595,0-1.915-.06-3.618-.232Z" transform="translate(-47.539 -194.879)" fill="#263238"/>
        <path id="Trazado_798115" data-name="Trazado 798115" d="M128.047,243.053s-3.688-.464-11.518,3.92-24.638,17.957-25.8,20.265,2.076,12.667,6.217,14.511a11.085,11.085,0,0,0,7.83.454L96.5,306.618s9.21-.464,24.638,2.308,31.339,10.591,31.339,10.591,1.159-.232,1.391-3.225a15.307,15.307,0,0,1,1.834-6.217c.7-1.381,9.442-31.1,9.442-31.1s17.282,7.608,21.887,7.608,6.217-8.293,4.373-14.511-5.754-8.062-5.754-8.062a30.876,30.876,0,0,1-9.674-5.3c-4.383-3.678-17.272-9.906-17.272-9.906S140.25,240.987,128.047,243.053Z" transform="translate(-47.488 -195.017)" fill="#00a9ff"/>
        <path id="Trazado_798116" data-name="Trazado 798116" d="M152.4,320.045l-.161-.071c-.151-.081-16-7.83-31.188-10.551s-24.437-2.3-24.527-2.3h-.736l8.223-24.185a11.82,11.82,0,0,1-7.255-.746c-3.023-1.33-5.038-6.318-5.532-7.82-.887-2.479-1.663-5.9-.927-7.366,1.229-2.469,18.249-16.123,26-20.486,7.346-4.111,11.085-4.031,11.74-3.98,12.2-2.015,30.09,5.482,30.846,5.794.554.272,13.03,6.3,17.4,9.986a30.664,30.664,0,0,0,9.493,5.2c.242.1,4.212,2.015,6.1,8.4,1.391,4.686.836,10.359-1.28,13.2a4.424,4.424,0,0,1-3.577,1.955c-4.263,0-18.572-6.117-21.565-7.417-1.229,4.182-8.656,29.314-9.311,30.624a15.015,15.015,0,0,0-1.794,6.046c-.242,3.215-1.522,3.628-1.784,3.678ZM98.062,306.1a135.5,135.5,0,0,1,23.177,2.328c14.329,2.57,29.223,9.573,31.239,10.53.222-.181.736-.8.887-2.7a15.569,15.569,0,0,1,1.894-6.4c.544-1.108,6.973-22.764,9.412-31.017l.161-.544.524.232c.171.071,17.222,7.558,21.676,7.558a3.406,3.406,0,0,0,2.771-1.552c1.945-2.61,2.429-7.9,1.119-12.314-1.753-5.935-5.452-7.729-5.492-7.749a30.935,30.935,0,0,1-9.775-5.341c-4.273-3.608-17.03-9.775-17.131-9.845s-18.4-7.739-30.332-5.714h-.141c-.071,0-3.708-.333-11.216,3.849-7.961,4.454-24.537,17.957-25.585,20.053-.393.786-.181,3.356,1.008,6.59,1.33,3.678,3.235,6.459,5.038,7.235a10.681,10.681,0,0,0,7.447.453l1.008-.373-8.4,24.729Z" transform="translate(-47.491 -195.02)" fill="#263238"/>
        <path id="Trazado_798117" data-name="Trazado 798117" d="M166.966,279.818l-11.216-2.66.242-.977,6.288,1.491-4.635-3.356.595-.816Z" transform="translate(-46.985 -194.78)" fill="#263238"/>
        <rect id="Rectángulo_373711" data-name="Rectángulo 373711" width="3.93" height="1.008" transform="translate(64.598 62.662) rotate(-72.26)" fill="#263238"/>
        <rect id="Rectángulo_373712" data-name="Rectángulo 373712" width="21.776" height="1.008" transform="translate(56.811 87.011) rotate(-72.26)" fill="#263238"/>
      </g>
    </g>
    <path id="Trazado_799331" data-name="Trazado 799331" d="M48.075,10.518H5.26A5.259,5.259,0,1,1,5.26,0H48.075a5.259,5.259,0,0,1,0,10.518" transform="translate(1283.333 3577.926) rotate(180)" fill="#ff3e72"/>
    <path id="Trazado_799334" data-name="Trazado 799334" d="M48.075,10.518H5.26A5.259,5.259,0,1,1,5.26,0H48.075a5.259,5.259,0,0,1,0,10.518" transform="translate(1156.408 4019.333) rotate(-90)" fill="#0050db"/>
    <path id="Trazado_799332" data-name="Trazado 799332" d="M317.363,27.785A21.984,21.984,0,1,1,295.38,5.8a21.984,21.984,0,0,1,21.983,21.984" transform="translate(1081.139 3977.548)" fill="#ffc401"/>
    <path id="Trazado_799333" data-name="Trazado 799333" d="M300.363,19.285A13.484,13.484,0,1,1,286.88,5.8a13.484,13.484,0,0,1,13.483,13.484" transform="translate(1076.155 3994.898)" fill="#00a9ff"/>
  </g>
</svg>
