<svg xmlns="http://www.w3.org/2000/svg" xmlns:xlink="http://www.w3.org/1999/xlink" width="79" height="79" viewBox="0 0 79 79">
  <defs>
    <clipPath id="clip-path">
      <rect id="Rect치ngulo_373634" data-name="Rect치ngulo 373634" width="79" height="79" transform="translate(865 1545)" fill="#0050db"/>
    </clipPath>
  </defs>
  <g id="Enmascarar_grupo_1059035" data-name="Enmascarar grupo 1059035" transform="translate(-865 -1545)" clip-path="url(#clip-path)">
    <g id="correo-electronico" transform="translate(865 1545)">
      <path id="Trazado_797892" data-name="Trazado 797892" d="M11.727,25.15,1.543,33.328v37.8a6.326,6.326,0,0,0,6.326,6.326H71.131a6.326,6.326,0,0,0,6.326-6.326v-37.8L67.273,25.4" fill="#72d8ff"/>
      <rect id="Rect치ngulo_373668" data-name="Rect치ngulo 373668" width="54.313" height="58.796" transform="translate(12.344 1.543)" fill="#edf2fa"/>
      <path id="Trazado_797893" data-name="Trazado 797893" d="M49.838,61.038H28.318L1.543,33.328v37.8a6.326,6.326,0,0,0,6.326,6.326H71.131a6.326,6.326,0,0,0,6.326-6.326v-37.8Z" fill="#feda9b"/>
      <path id="Trazado_797894" data-name="Trazado 797894" d="M6.8,76.377,29.168,56.055a15.365,15.365,0,0,1,20.663,0L72.2,76.377Z" fill="#ffb954"/>
      <g id="Grupo_1064220" data-name="Grupo 1064220">
        <path id="Trazado_797895" data-name="Trazado 797895" d="M55.194,20.072A5.015,5.015,0,0,0,48.1,12.98Z" fill="#ff5d5d"/>
        <path id="Trazado_797896" data-name="Trazado 797896" d="M38.841,38.932,33.033,44.74a6.783,6.783,0,0,1-9.593,0h0a6.783,6.783,0,0,1,0-9.593l5.808-5.808Z" fill="#ff5d5d"/>
      </g>
      <path id="Trazado_797897" data-name="Trazado 797897" d="M38.843,38.935l6.8,6.8-4.128,4.128-6.8-6.8Z" fill="#6a80ff"/>
      <path id="Trazado_797898" data-name="Trazado 797898" d="M38.843,38.935l-9.595-9.6,10.515-24.7L63.531,28.41Z" fill="#4dbaf6"/>
      <path id="Trazado_797899" data-name="Trazado 797899" d="M57.2,31.111l6.336-2.7L39.764,4.642l-2.7,6.338Z" fill="#fff"/>
      <path id="Trazado_797900" data-name="Trazado 797900" d="M29.46,9.093a1.542,1.542,0,1,0,1.091-.452A1.555,1.555,0,0,0,29.46,9.093Z"/>
      <path id="Trazado_797901" data-name="Trazado 797901" d="M18.651,11.727h6.2a1.543,1.543,0,0,0,0-3.086h-6.2a1.543,1.543,0,0,0,0,3.086Z"/>
      <path id="Trazado_797902" data-name="Trazado 797902" d="M18.651,20.367h7.436a1.543,1.543,0,0,0,0-3.086H18.651a1.543,1.543,0,0,0,0,3.086Z"/>
      <path id="Trazado_797903" data-name="Trazado 797903" d="M78.4,32.112h0L68.221,24.18l-.022-.016V22.527a1.543,1.543,0,0,0-3.086,0V43.46c0,.009,0,.019,0,.028L52.347,56.256l-1.478-1.343a16.87,16.87,0,0,0-8.143-4.083l4.006-4.006a1.543,1.543,0,0,0,0-2.182l-5.183-5.183,22.587-9.629a1.543,1.543,0,0,0,.486-2.511l-7.375-7.375a6.561,6.561,0,0,0-9.017-9.017L40.854,3.551a1.543,1.543,0,0,0-2.511.486l-10.4,24.421-5.6,5.6A8.326,8.326,0,1,0,34.124,45.83l.588-.588L40,50.527c-.166,0-.332-.008-.5-.008A16.874,16.874,0,0,0,28.13,54.912l-1.478,1.343L13.885,43.488c0-.009,0-.019,0-.028V3.086H31.166a1.543,1.543,0,0,0,0-3.086H12.344A1.543,1.543,0,0,0,10.8,1.543V23.918c-.013.01-.027.019-.04.029L.577,32.125h0A1.539,1.539,0,0,0,0,33.328v37.8A7.878,7.878,0,0,0,7.869,79H71.131A7.878,7.878,0,0,0,79,71.131v-37.8A1.539,1.539,0,0,0,78.4,32.112ZM37.589,13.687l16.9,16.9L39.2,37.106l-8.122-8.122Zm14.058-.633a3.468,3.468,0,0,1,3.289,4.58l-4.4-4.4A3.473,3.473,0,0,1,51.647,13.054Zm-11.359-5.7,6.72,6.72,0,0,0,0L54.1,21.163h0l6.722,6.722-3.276,1.4L38.893,10.626ZM28.237,45.184a5.24,5.24,0,0,1-3.706-8.946l4.717-4.717,7.411,7.411-4.717,4.717A5.206,5.206,0,0,1,28.237,45.184Zm10.6-4.069,4.618,4.618-1.946,1.946L36.895,43.06ZM68.2,28.074l6.932,5.4L68.2,40.4ZM30.206,57.2a13.769,13.769,0,0,1,18.588,0L69.4,75.914H9.6l5.1-4.629H26.023a1.543,1.543,0,0,0,0-3.086H18.094ZM10.8,27.873V40.4l-6.95-6.95ZM3.086,71.131V37.053l21.28,21.28L5.76,75.235a1.576,1.576,0,0,0-.122.125A4.787,4.787,0,0,1,3.086,71.131ZM73.362,75.36a1.551,1.551,0,0,0-.122-.125l-18.606-16.9,21.28-21.28V71.131A4.787,4.787,0,0,1,73.362,75.36Z"/>
      <path id="Trazado_797904" data-name="Trazado 797904" d="M60.484,9.38a1.538,1.538,0,0,0,1.091-.452L67.808,2.7A1.543,1.543,0,1,0,65.626.513L59.393,6.746A1.543,1.543,0,0,0,60.484,9.38Z"/>
      <path id="Trazado_797905" data-name="Trazado 797905" d="M54.685,6.185a1.543,1.543,0,0,0,1.543-1.543v-3.1a1.543,1.543,0,0,0-3.086,0v3.1A1.543,1.543,0,0,0,54.685,6.185Z"/>
      <path id="Trazado_797906" data-name="Trazado 797906" d="M66.762,11.961h-3.2a1.543,1.543,0,0,0,0,3.086h3.2a1.543,1.543,0,0,0,0-3.086Z"/>
      <path id="Trazado_797907" data-name="Trazado 797907" d="M32.35,71.285a1.541,1.541,0,1,0-1.092-.452A1.557,1.557,0,0,0,32.35,71.285Z"/>
    </g>
  </g>
</svg>
