<svg xmlns="http://www.w3.org/2000/svg" xmlns:xlink="http://www.w3.org/1999/xlink" width="79" height="79" viewBox="0 0 79 79">
  <defs>
    <clipPath id="clip-path">
      <rect id="Rectángulo_373636" data-name="Rectángulo 373636" width="79" height="79" transform="translate(1285 1545)" fill="#0050db"/>
    </clipPath>
  </defs>
  <g id="Enmascarar_grupo_1059037" data-name="Enmascarar grupo 1059037" transform="translate(-1285 -1545)" clip-path="url(#clip-path)">
    <g id="_07-Landing_Page" data-name="07-Landing Page" transform="translate(1285.002 1545.004)">
      <path id="Trazado_797922" data-name="Trazado 797922" d="M29.623,1.234c4.937,0,4.937,4.937,4.937,4.937v4.937H1.234V6.172A4.937,4.937,0,0,1,6.172,1.234Z" fill="#f2f2f2"/>
      <path id="Trazado_797923" data-name="Trazado 797923" d="M72.824,1.234a4.937,4.937,0,0,1,4.937,4.937v4.937h-43.2V6.172s0-4.937-4.937-4.937Z" fill="#1c99eb"/>
      <path id="Trazado_797924" data-name="Trazado 797924" d="M77.761,11.109V72.824a4.937,4.937,0,0,1-4.937,4.937H6.172a4.937,4.937,0,0,1-4.937-4.937V11.109Z" fill="#dedede"/>
      <path id="Trazado_797925" data-name="Trazado 797925" d="M39.5,4.32a3.086,3.086,0,0,0,3.086,3.086H77.761V6.172a4.937,4.937,0,0,0-4.937-4.937H36.412A3.086,3.086,0,0,1,39.5,4.32Z" fill="#5acafa"/>
      <path id="Trazado_797926" data-name="Trazado 797926" d="M72.824,75.293H6.172A2.469,2.469,0,0,1,3.7,72.824V11.109h71.59V72.824A2.469,2.469,0,0,1,72.824,75.293Z" fill="#f2f2f2"/>
      <path id="Trazado_797927" data-name="Trazado 797927" d="M71.59,70.356h3.7V11.109H12.343A59.247,59.247,0,0,0,71.59,70.356Z" fill="#fff"/>
      <path id="Trazado_797928" data-name="Trazado 797928" d="M34.561,6.172s0-4.937-4.937-4.937H6.172A4.937,4.937,0,0,0,1.234,6.172v4.937H3.7V6.172A2.469,2.469,0,0,1,6.172,3.7H29.623a2.469,2.469,0,0,1,2.469,2.469v4.937h2.469Z" fill="#dedede"/>
      <path id="Trazado_797929" data-name="Trazado 797929" d="M50.607,43.2H72.824V72.824H50.607Z" fill="#3db6fd"/>
      <g id="Grupo_1064239" data-name="Grupo 1064239">
        <path id="Trazado_797930" data-name="Trazado 797930" d="M14.812,66.653l-8.64,6.172V60.481Z" fill="#f2f2f2"/>
        <path id="Trazado_797931" data-name="Trazado 797931" d="M23.452,60.481V72.824l-8.64-6.172Z" fill="#f2f2f2"/>
        <path id="Trazado_797932" data-name="Trazado 797932" d="M37.029,66.653l-8.64,6.172V60.481Z" fill="#f2f2f2"/>
        <path id="Trazado_797933" data-name="Trazado 797933" d="M45.669,60.481V72.824l-8.64-6.172Z" fill="#f2f2f2"/>
      </g>
      <path id="Trazado_797934" data-name="Trazado 797934" d="M45.669,72.824H28.389l8.64-6.172Z" fill="#fff"/>
      <path id="Trazado_797935" data-name="Trazado 797935" d="M23.452,72.824H6.172l8.64-6.172Z" fill="#fff"/>
      <path id="Trazado_797936" data-name="Trazado 797936" d="M23.452,60.481l-8.64,6.172-8.64-6.172Z" fill="#fff"/>
      <path id="Trazado_797937" data-name="Trazado 797937" d="M45.669,60.481l-8.64,6.172-8.64-6.172Z" fill="#fff"/>
      <path id="Trazado_797938" data-name="Trazado 797938" d="M6.172,43.2h39.5V55.544H6.172Z" fill="#0af"/>
      <circle id="Elipse_4788" data-name="Elipse 4788" cx="3.703" cy="3.703" r="3.703" transform="translate(7.406 16.046)" fill="#ffdf64"/>
      <path id="Trazado_797939" data-name="Trazado 797939" d="M35.795,30.858,50.607,16.046,72.824,38.264H6.172L24.686,19.749Z" fill="#12a32c"/>
      <path id="Trazado_797940" data-name="Trazado 797940" d="M77.761,11.109V38.264H72.824L50.607,16.046,35.795,30.858,24.686,19.749,6.172,38.264H1.234V11.109Zm-62.95,8.64a3.7,3.7,0,1,0-3.7,3.7A3.7,3.7,0,0,0,14.812,19.749Z" fill="#3db6fd"/>
      <path id="Trazado_797941" data-name="Trazado 797941" d="M50.607,43.2V66.519A59.082,59.082,0,0,0,71.59,70.356h1.234V43.2Z" fill="#5acafa"/>
      <path id="Trazado_797942" data-name="Trazado 797942" d="M32.423,55.544H45.669V43.2H21.8A59.516,59.516,0,0,0,32.423,55.544Z" fill="#5acafa"/>
      <path id="Trazado_797943" data-name="Trazado 797943" d="M14.812,19.749a3.7,3.7,0,0,0-2.222-3.393,59.081,59.081,0,0,0,.876,6.231A3.677,3.677,0,0,0,14.812,19.749Z" fill="#ffdf64"/>
      <path id="Trazado_797944" data-name="Trazado 797944" d="M50.607,16.046,35.795,30.858,24.686,19.749l-9.5,9.5a58.689,58.689,0,0,0,3.756,9.01H72.824Z" fill="#16cd37"/>
      <path id="Trazado_797945" data-name="Trazado 797945" d="M75.293,11.109H12.343c0,1.77.093,3.517.247,5.247a3.683,3.683,0,0,1,.876,6.231,58.987,58.987,0,0,0,1.716,6.667l9.5-9.5L35.795,30.858,50.607,16.046,72.824,38.264h4.937V11.109Z" fill="#5acafa"/>
      <path id="Trazado_797946" data-name="Trazado 797946" d="M45.669,41.966H6.172A1.234,1.234,0,0,0,4.937,43.2V55.544a1.234,1.234,0,0,0,1.234,1.234h39.5A1.234,1.234,0,0,0,46.9,55.544V43.2A1.234,1.234,0,0,0,45.669,41.966ZM44.435,54.31H7.406V44.435H44.435Z"/>
      <path id="Trazado_797947" data-name="Trazado 797947" d="M23.452,59.247H6.172a1.234,1.234,0,0,0-1.234,1.234V72.824a1.234,1.234,0,0,0,1.234,1.234h17.28a1.234,1.234,0,0,0,1.234-1.234V60.481A1.234,1.234,0,0,0,23.452,59.247ZM12.687,66.653,7.406,70.426V62.879Zm-2.664-4.937H19.6l-4.788,3.42Zm4.788,6.454L19.6,71.59H10.024Zm2.124-1.517,5.282-3.773v7.547Z"/>
      <path id="Trazado_797948" data-name="Trazado 797948" d="M45.669,59.247H28.389a1.234,1.234,0,0,0-1.234,1.234V72.824a1.234,1.234,0,0,0,1.234,1.234h17.28A1.234,1.234,0,0,0,46.9,72.824V60.481A1.234,1.234,0,0,0,45.669,59.247ZM34.905,66.653l-5.282,3.773V62.879Zm-2.664-4.937h9.576l-4.788,3.42Zm4.788,6.454,4.788,3.42H32.241Zm2.124-1.517,5.282-3.773v7.547Z"/>
      <path id="Trazado_797949" data-name="Trazado 797949" d="M72.824,41.966H50.607A1.234,1.234,0,0,0,49.372,43.2V72.824a1.234,1.234,0,0,0,1.234,1.234H72.824a1.234,1.234,0,0,0,1.234-1.234V43.2A1.234,1.234,0,0,0,72.824,41.966ZM71.59,71.59H51.841V44.435H71.59Z"/>
      <path id="Trazado_797950" data-name="Trazado 797950" d="M6.172,19.749a4.937,4.937,0,1,0,4.937-4.937A4.937,4.937,0,0,0,6.172,19.749Zm7.406,0a2.469,2.469,0,1,1-2.469-2.469A2.469,2.469,0,0,1,13.577,19.749Z"/>
      <path id="Trazado_797951" data-name="Trazado 797951" d="M27.155,14.812h2.469V17.28H27.155Z"/>
      <path id="Trazado_797952" data-name="Trazado 797952" d="M32.092,14.812H44.435V17.28H32.092Z"/>
      <path id="Trazado_797953" data-name="Trazado 797953" d="M58.012,14.812H74.059V17.28H58.012Z"/>
      <path id="Trazado_797954" data-name="Trazado 797954" d="M54.31,46.9h2.469v2.469H54.31Z"/>
      <path id="Trazado_797955" data-name="Trazado 797955" d="M59.247,46.9h9.874v2.469H59.247Z"/>
      <path id="Trazado_797956" data-name="Trazado 797956" d="M54.31,51.841H69.121V54.31H54.31Z"/>
      <path id="Trazado_797957" data-name="Trazado 797957" d="M56.778,56.778H69.121v2.469H56.778Z"/>
      <path id="Trazado_797958" data-name="Trazado 797958" d="M54.31,61.715H69.121v2.469H54.31Z"/>
      <path id="Trazado_797959" data-name="Trazado 797959" d="M54.31,66.653H69.121v2.469H54.31Z"/>
      <path id="Trazado_797960" data-name="Trazado 797960" d="M2.469,12.343H38.264V9.874H35.795v-3.7A5.951,5.951,0,0,0,29.623,0H6.172A6.179,6.179,0,0,0,0,6.172v8.64H2.469Zm3.7-9.874H29.623a3.52,3.52,0,0,1,3.7,3.7v3.7H2.469v-3.7a3.7,3.7,0,0,1,3.7-3.7Z"/>
      <path id="Trazado_797961" data-name="Trazado 797961" d="M72.824,0H43.2V2.469H72.824a3.7,3.7,0,0,1,3.7,3.7v3.7H40.732v2.469H76.527V37.029H73.335L51.479,15.173a1.234,1.234,0,0,0-1.745,0L35.795,29.112,25.559,18.876a1.234,1.234,0,0,0-1.745,0L5.661,37.029H2.469V17.28H0V72.824A6.179,6.179,0,0,0,6.172,79H72.824A6.179,6.179,0,0,0,79,72.824V6.172A6.179,6.179,0,0,0,72.824,0ZM24.686,21.494,38.625,35.433l1.745-1.745-2.83-2.83L50.607,17.791,69.845,37.029H9.151ZM72.824,76.527H6.172a3.7,3.7,0,0,1-3.7-3.7V39.5H76.527V72.824a3.7,3.7,0,0,1-3.7,3.7Z"/>
      <path id="Trazado_797962" data-name="Trazado 797962" d="M38.264,0h2.469V2.469H38.264Z"/>
      <path id="Trazado_797963" data-name="Trazado 797963" d="M4.937,4.937H25.92V7.406H4.937Z"/>
      <path id="Trazado_797964" data-name="Trazado 797964" d="M28.389,4.937h2.469V7.406H28.389Z"/>
      <path id="Trazado_797965" data-name="Trazado 797965" d="M71.59,4.937h2.469V7.406H71.59Z"/>
      <path id="Trazado_797966" data-name="Trazado 797966" d="M66.653,4.937h2.469V7.406H66.653Z"/>
      <path id="Trazado_797967" data-name="Trazado 797967" d="M61.715,4.937h2.469V7.406H61.715Z"/>
    </g>
  </g>
</svg>
