<svg id="Grupo_1064131" data-name="Grupo 1064131" xmlns="http://www.w3.org/2000/svg" xmlns:xlink="http://www.w3.org/1999/xlink" width="399.333" height="403.303" viewBox="0 0 399.333 403.303">
  <defs>
    <clipPath id="clip-path">
      <rect id="Rectángulo_373550" data-name="Rectángulo 373550" width="399.333" height="403.303" fill="none"/>
    </clipPath>
    <clipPath id="clip-path-3">
      <rect id="Rectángulo_373528" data-name="Rectángulo 373528" width="297.153" height="176.704" fill="none"/>
    </clipPath>
    <clipPath id="clip-path-4">
      <rect id="Rectángulo_373529" data-name="Rectángulo 373529" width="273.702" height="162.476" fill="none"/>
    </clipPath>
    <clipPath id="clip-path-5">
      <rect id="Rectángulo_373530" data-name="Rectángulo 373530" width="35.609" height="35.199" fill="none"/>
    </clipPath>
    <clipPath id="clip-path-6">
      <rect id="Rectángulo_373531" data-name="Rectángulo 373531" width="34.527" height="36.774" fill="none"/>
    </clipPath>
    <clipPath id="clip-path-7">
      <rect id="Rectángulo_373532" data-name="Rectángulo 373532" width="67.844" height="59.215" fill="none"/>
    </clipPath>
    <clipPath id="clip-path-8">
      <rect id="Rectángulo_373538" data-name="Rectángulo 373538" width="71.374" height="52.939" fill="none"/>
    </clipPath>
    <clipPath id="clip-path-9">
      <rect id="Rectángulo_373533" data-name="Rectángulo 373533" width="50.229" height="7.02" fill="none"/>
    </clipPath>
    <clipPath id="clip-path-10">
      <rect id="Rectángulo_373534" data-name="Rectángulo 373534" width="57.878" height="7.021" fill="none"/>
    </clipPath>
    <clipPath id="clip-path-11">
      <rect id="Rectángulo_373535" data-name="Rectángulo 373535" width="31.779" height="7.02" fill="none"/>
    </clipPath>
    <clipPath id="clip-path-13">
      <rect id="Rectángulo_373537" data-name="Rectángulo 373537" width="18.46" height="7.02" fill="none"/>
    </clipPath>
    <clipPath id="clip-path-15">
      <rect id="Rectángulo_373540" data-name="Rectángulo 373540" width="29.066" height="39.763" fill="none"/>
    </clipPath>
    <clipPath id="clip-path-16">
      <rect id="Rectángulo_373541" data-name="Rectángulo 373541" width="11.054" height="22.308" fill="none"/>
    </clipPath>
    <clipPath id="clip-path-17">
      <rect id="Rectángulo_373542" data-name="Rectángulo 373542" width="59.546" height="87.505" fill="none"/>
    </clipPath>
    <clipPath id="clip-path-18">
      <rect id="Rectángulo_373543" data-name="Rectángulo 373543" width="12.347" height="24.875" fill="none"/>
    </clipPath>
    <clipPath id="clip-path-19">
      <rect id="Rectángulo_373544" data-name="Rectángulo 373544" width="10.276" height="11.665" fill="none"/>
    </clipPath>
    <clipPath id="clip-path-20">
      <rect id="Rectángulo_373545" data-name="Rectángulo 373545" width="14.502" height="12.933" fill="none"/>
    </clipPath>
    <clipPath id="clip-path-21">
      <rect id="Rectángulo_373546" data-name="Rectángulo 373546" width="13.775" height="75.031" fill="none"/>
    </clipPath>
    <clipPath id="clip-path-22">
      <rect id="Rectángulo_373547" data-name="Rectángulo 373547" width="35.607" height="35.199" fill="none"/>
    </clipPath>
    <clipPath id="clip-path-23">
      <rect id="Rectángulo_373548" data-name="Rectángulo 373548" width="36.262" height="41.101" fill="none"/>
    </clipPath>
  </defs>
  <g id="Grupo_1064130" data-name="Grupo 1064130" clip-path="url(#clip-path)">
    <g id="Grupo_1064100" data-name="Grupo 1064100">
      <g id="Grupo_1064099" data-name="Grupo 1064099" clip-path="url(#clip-path)">
        <path id="Trazado_797363" data-name="Trazado 797363" d="M361.132,208.087H73.675a5.292,5.292,0,0,1-5.325-5.635L78.03,26.22a6.044,6.044,0,0,1,5.945-5.635H371.431a5.292,5.292,0,0,1,5.325,5.635l-9.681,176.233a6.041,6.041,0,0,1-5.943,5.635" transform="translate(22.568 6.798)" fill="#263238"/>
        <path id="Trazado_797364" data-name="Trazado 797364" d="M208.4,52.613H180.616a15.809,15.809,0,0,1-15.921-16.821l.282-5.141a17.493,17.493,0,0,1,17.217-16.3h27.77A15.826,15.826,0,0,1,225.9,31.191l-.281,5.124a17.494,17.494,0,0,1-17.218,16.3" transform="translate(54.377 4.74)" fill="#263238"/>
        <path id="Trazado_797365" data-name="Trazado 797365" d="M224.856,392.034h-8.9L191.444,17.3h8.9Z" transform="translate(63.219 5.714)" fill="#263238"/>
        <path id="Trazado_797366" data-name="Trazado 797366" d="M166.326,392.034h8.9L199.738,17.3h-8.9Z" transform="translate(54.924 5.714)" fill="#263238"/>
        <path id="Trazado_797367" data-name="Trazado 797367" d="M359.982,208.087H72.525a5.292,5.292,0,0,1-5.325-5.635L76.88,26.22a6.044,6.044,0,0,1,5.945-5.635H370.281a5.292,5.292,0,0,1,5.325,5.635l-9.68,176.233a6.044,6.044,0,0,1-5.945,5.635" transform="translate(22.188 6.798)" fill="#0050db"/>
        <g id="Grupo_1064068" data-name="Grupo 1064068" transform="translate(95.014 32.782)" opacity="0.4">
          <g id="Grupo_1064067" data-name="Grupo 1064067">
            <g id="Grupo_1064066" data-name="Grupo 1064066" clip-path="url(#clip-path-3)">
              <path id="Trazado_797368" data-name="Trazado 797368" d="M75.687,201.348a4.219,4.219,0,0,1-4.253-4.5l9.212-167.7a4.819,4.819,0,0,1,4.748-4.5H364.321a4.218,4.218,0,0,1,4.251,4.5l-9.212,167.7a4.816,4.816,0,0,1-4.746,4.5Z" transform="translate(-71.428 -24.644)" fill="#263238"/>
            </g>
          </g>
        </g>
        <g id="Grupo_1064071" data-name="Grupo 1064071" transform="translate(106.74 39.896)" opacity="0.1">
          <g id="Grupo_1064070" data-name="Grupo 1064070">
            <g id="Grupo_1064069" data-name="Grupo 1064069" clip-path="url(#clip-path-4)">
              <path id="Trazado_797369" data-name="Trazado 797369" d="M353.433,110.69H269.474a3.581,3.581,0,0,1-3.613-3.823l4.193-76.335a.5.5,0,0,0-.509-.54.576.576,0,0,0-.569.54l-4.194,76.335a4.087,4.087,0,0,1-4.032,3.823H173.5a3.581,3.581,0,0,1-3.613-3.823l4.193-76.335a.5.5,0,0,0-.509-.54.579.579,0,0,0-.571.54l-4.193,76.335a4.088,4.088,0,0,1-4.033,3.823H80.814a.578.578,0,0,0-.571.54.507.507,0,0,0,.511.54h83.96a3.581,3.581,0,0,1,3.613,3.823l-4.194,76.336a.507.507,0,0,0,.511.54.577.577,0,0,0,.569-.54l4.194-76.336a4.087,4.087,0,0,1,4.032-3.823h87.25a3.581,3.581,0,0,1,3.613,3.823l-4.193,76.336a.5.5,0,0,0,.509.54.576.576,0,0,0,.569-.54l4.194-76.336a4.087,4.087,0,0,1,4.032-3.823h83.96a.578.578,0,0,0,.571-.54.507.507,0,0,0-.511-.54" transform="translate(-80.242 -29.992)" fill="#fff"/>
            </g>
          </g>
        </g>
        <g id="Grupo_1064074" data-name="Grupo 1064074" transform="translate(207.43 53.73)" opacity="0.4">
          <g id="Grupo_1064073" data-name="Grupo 1064073">
            <g id="Grupo_1064072" data-name="Grupo 1064072" clip-path="url(#clip-path-5)">
              <path id="Trazado_797370" data-name="Trazado 797370" d="M191.546,40.392H157.822l-1.885,34.3,33.676.9Z" transform="translate(-155.937 -40.392)" fill="#263238"/>
            </g>
          </g>
        </g>
        <path id="Trazado_797371" data-name="Trazado 797371" d="M188.36,74.843l-33.849-1.649a296.569,296.569,0,0,0,3.521-35l34.047,1.649a296.659,296.659,0,0,1-3.719,35" transform="translate(51.023 12.612)" fill="#fff"/>
        <g id="Grupo_1064077" data-name="Grupo 1064077" transform="translate(249.927 76.643)" opacity="0.4">
          <g id="Grupo_1064076" data-name="Grupo 1064076">
            <g id="Grupo_1064075" data-name="Grupo 1064075" clip-path="url(#clip-path-6)">
              <path id="Trazado_797372" data-name="Trazado 797372" d="M221.651,57.617l-33.768,2.575.741,34.2,33.786-1.679Z" transform="translate(-187.884 -57.617)" fill="#263238"/>
            </g>
          </g>
        </g>
        <path id="Trazado_797373" data-name="Trazado 797373" d="M220.9,91.7l-34.018.946a292.883,292.883,0,0,0,.845-35.018l34.216-.963A292.849,292.849,0,0,1,220.9,91.7" transform="translate(61.713 18.711)" fill="#00a9ff"/>
        <g id="Grupo_1064080" data-name="Grupo 1064080" transform="translate(117.229 136.644)" opacity="0.4">
          <g id="Grupo_1064079" data-name="Grupo 1064079">
            <g id="Grupo_1064078" data-name="Grupo 1064078" clip-path="url(#clip-path-7)">
              <path id="Trazado_797374" data-name="Trazado 797374" d="M155.971,105.1l-62.257-2.378-5.587,55.384,62.111,3.832Z" transform="translate(-88.127 -102.723)" fill="#263238"/>
            </g>
          </g>
        </g>
        <path id="Trazado_797375" data-name="Trazado 797375" d="M147.982,160.61,85.6,155.552a422.746,422.746,0,0,0,8.65-56.4q31.381,2.534,62.752,5.069a423.673,423.673,0,0,1-9.018,56.389" transform="translate(28.266 32.742)" fill="#fff"/>
        <g id="Grupo_1064098" data-name="Grupo 1064098" transform="translate(115.151 54.461)" opacity="0.3" style="mix-blend-mode: multiply;isolation: isolate">
          <g id="Grupo_1064097" data-name="Grupo 1064097">
            <g id="Grupo_1064096" data-name="Grupo 1064096" clip-path="url(#clip-path-8)">
              <path id="Trazado_797376" data-name="Trazado 797376" d="M91.784,47.961h0a3.3,3.3,0,0,1-3.318-3.509,3.765,3.765,0,0,1,3.7-3.51,3.3,3.3,0,0,1,3.316,3.51,3.763,3.763,0,0,1-3.7,3.509" transform="translate(-85.939 -40.941)" fill="#263238"/>
              <g id="Grupo_1064083" data-name="Grupo 1064083" transform="translate(14.337)" opacity="0.8">
                <g id="Grupo_1064082" data-name="Grupo 1064082">
                  <g id="Grupo_1064081" data-name="Grupo 1064081" clip-path="url(#clip-path-9)">
                    <path id="Trazado_797377" data-name="Trazado 797377" d="M143.863,47.961h-43.2a3.3,3.3,0,0,1-3.318-3.509,3.764,3.764,0,0,1,3.7-3.51h43.2a3.3,3.3,0,0,1,3.318,3.51,3.765,3.765,0,0,1-3.7,3.509" transform="translate(-97.343 -40.941)" fill="#263238"/>
                  </g>
                </g>
              </g>
              <path id="Trazado_797378" data-name="Trazado 797378" d="M91.152,59.468h0a3.3,3.3,0,0,1-3.318-3.51,3.765,3.765,0,0,1,3.7-3.509,3.3,3.3,0,0,1,3.318,3.509,3.765,3.765,0,0,1-3.7,3.51" transform="translate(-86.148 -37.141)" fill="#263238"/>
              <g id="Grupo_1064086" data-name="Grupo 1064086" transform="translate(13.496 15.305)" opacity="0.8">
                <g id="Grupo_1064085" data-name="Grupo 1064085">
                  <g id="Grupo_1064084" data-name="Grupo 1064084" clip-path="url(#clip-path-10)">
                    <path id="Trazado_797379" data-name="Trazado 797379" d="M150.882,59.468H100.034a3.3,3.3,0,0,1-3.318-3.51,3.765,3.765,0,0,1,3.7-3.509h50.848a3.3,3.3,0,0,1,3.316,3.509,3.763,3.763,0,0,1-3.7,3.51" transform="translate(-96.711 -52.447)" fill="#263238"/>
                  </g>
                </g>
              </g>
              <path id="Trazado_797380" data-name="Trazado 797380" d="M90.52,70.974h0a3.3,3.3,0,0,1-3.318-3.51,3.765,3.765,0,0,1,3.7-3.509,3.3,3.3,0,0,1,3.318,3.509,3.765,3.765,0,0,1-3.7,3.51" transform="translate(-86.357 -33.342)" fill="#263238"/>
              <g id="Grupo_1064089" data-name="Grupo 1064089" transform="translate(12.655 30.612)" opacity="0.8">
                <g id="Grupo_1064088" data-name="Grupo 1064088">
                  <g id="Grupo_1064087" data-name="Grupo 1064087" clip-path="url(#clip-path-11)">
                    <path id="Trazado_797381" data-name="Trazado 797381" d="M124.151,70.974H99.4a3.3,3.3,0,0,1-3.318-3.51,3.765,3.765,0,0,1,3.7-3.509h24.749a3.3,3.3,0,0,1,3.316,3.509,3.763,3.763,0,0,1-3.7,3.51" transform="translate(-96.079 -63.954)" fill="#263238"/>
                  </g>
                </g>
              </g>
              <g id="Grupo_1064092" data-name="Grupo 1064092" transform="translate(35.574 45.919)" opacity="0.8">
                <g id="Grupo_1064091" data-name="Grupo 1064091">
                  <g id="Grupo_1064090" data-name="Grupo 1064090" clip-path="url(#clip-path-11)">
                    <path id="Trazado_797382" data-name="Trazado 797382" d="M141.379,82.481H116.63a3.3,3.3,0,0,1-3.318-3.509,3.765,3.765,0,0,1,3.7-3.51h24.749a3.3,3.3,0,0,1,3.318,3.51,3.765,3.765,0,0,1-3.7,3.509" transform="translate(-113.308 -75.461)" fill="#263238"/>
                  </g>
                </g>
              </g>
              <path id="Trazado_797383" data-name="Trazado 797383" d="M89.888,82.481h0a3.3,3.3,0,0,1-3.318-3.509,3.765,3.765,0,0,1,3.7-3.51,3.3,3.3,0,0,1,3.316,3.51,3.763,3.763,0,0,1-3.7,3.509" transform="translate(-86.566 -29.542)" fill="#263238"/>
              <g id="Grupo_1064095" data-name="Grupo 1064095" transform="translate(11.814 45.919)" opacity="0.8">
                <g id="Grupo_1064094" data-name="Grupo 1064094">
                  <g id="Grupo_1064093" data-name="Grupo 1064093" clip-path="url(#clip-path-13)">
                    <path id="Trazado_797384" data-name="Trazado 797384" d="M110.2,82.481H98.77a3.3,3.3,0,0,1-3.318-3.509,3.765,3.765,0,0,1,3.7-3.51h11.429a3.3,3.3,0,0,1,3.318,3.51,3.765,3.765,0,0,1-3.7,3.509" transform="translate(-95.447 -75.461)" fill="#263238"/>
                  </g>
                </g>
              </g>
            </g>
          </g>
        </g>
        <path id="Trazado_797385" data-name="Trazado 797385" d="M174.527,114.978H157.775l-2.3,41.913h16.75Z" transform="translate(51.341 37.968)" fill="#00a9ff"/>
        <path id="Trazado_797386" data-name="Trazado 797386" d="M193.509,121.473H176.758l-1.828,33.273h16.751Z" transform="translate(57.765 40.113)" fill="#00a9ff"/>
        <path id="Trazado_797387" data-name="Trazado 797387" d="M214.192,104.695H197.441l-3.053,55.593h16.75Z" transform="translate(64.191 34.572)" fill="#00a9ff"/>
        <path id="Trazado_797388" data-name="Trazado 797388" d="M163.929,141q-2.49,0-5.023-.13a28.447,28.447,0,0,1-10.135-2.055,1.08,1.08,0,0,1,.886-1.97,26.439,26.439,0,0,0,9.358,1.868c20.1,1.035,37.7-4.2,55.413-16.471,4.223-2.926,10.527-8.338,14.4-13.963a1.08,1.08,0,0,1,1.779,1.225c-4.035,5.86-10.369,11.339-14.95,14.513C199.019,135.538,182.46,141,163.929,141" transform="translate(48.917 35.6)" fill="#fff"/>
        <path id="Trazado_797389" data-name="Trazado 797389" d="M215.717,118.337a1.081,1.081,0,0,1-1-1.492,19,19,0,0,0,.93-11.634,72.941,72.941,0,0,1-13.382,7.1,1.08,1.08,0,0,1-.807-2,70.8,70.8,0,0,0,14.188-7.722,1.081,1.081,0,0,1,1.644.539,21.028,21.028,0,0,1-.576,14.541,1.08,1.08,0,0,1-1,.668" transform="translate(66.303 33.812)" fill="#fff"/>
        <path id="Trazado_797390" data-name="Trazado 797390" d="M294.723,98.35H232.412a3.728,3.728,0,0,1-3.755-3.972L231.55,41.7a4.19,4.19,0,0,1,4.129-3.912h62.313a3.728,3.728,0,0,1,3.754,3.972l-2.893,52.677a4.19,4.19,0,0,1-4.129,3.914M235.679,38.868a3.1,3.1,0,0,0-3.05,2.892l-2.893,52.677a2.646,2.646,0,0,0,2.676,2.833h62.312a3.1,3.1,0,0,0,3.05-2.892L300.668,41.7a2.648,2.648,0,0,0-2.676-2.832Z" transform="translate(75.505 12.478)" fill="#407bff"/>
        <path id="Trazado_797391" data-name="Trazado 797391" d="M300.047,49.418H230.93a.54.54,0,1,1,0-1.08h69.117a.54.54,0,1,1,0,1.08" transform="translate(76.079 15.962)" fill="#407bff"/>
        <path id="Trazado_797392" data-name="Trazado 797392" d="M241.322,94.866h-.031a.539.539,0,0,1-.509-.568l2.5-45.448a.534.534,0,0,1,.569-.509.54.54,0,0,1,.509.569l-2.5,45.447a.541.541,0,0,1-.539.511" transform="translate(79.511 15.962)" fill="#407bff"/>
        <path id="Trazado_797393" data-name="Trazado 797393" d="M286.253,53.477H248.729a.54.54,0,1,1,0-1.08h37.524a.54.54,0,0,1,0,1.08" transform="translate(81.957 17.303)" fill="#407bff"/>
        <path id="Trazado_797394" data-name="Trazado 797394" d="M280.69,58.459H248.455a.54.54,0,1,1,0-1.08H280.69a.54.54,0,1,1,0,1.08" transform="translate(81.866 18.948)" fill="#407bff"/>
        <path id="Trazado_797395" data-name="Trazado 797395" d="M266.936,63.6H248.173a.539.539,0,1,1,0-1.079h18.763a.539.539,0,1,1,0,1.079" transform="translate(81.773 20.645)" fill="#407bff"/>
        <path id="Trazado_797396" data-name="Trazado 797396" d="M270.526,73.633h-22.9a.54.54,0,1,1,0-1.08h22.9a.54.54,0,1,1,0,1.08" transform="translate(81.591 23.958)" fill="#407bff"/>
        <path id="Trazado_797397" data-name="Trazado 797397" d="M266.1,78.773H247.339a.54.54,0,0,1,0-1.08H266.1a.54.54,0,1,1,0,1.08" transform="translate(81.498 25.656)" fill="#407bff"/>
        <path id="Trazado_797398" data-name="Trazado 797398" d="M271.193,78.773h-6.013a.54.54,0,0,1,0-1.08h6.013a.54.54,0,0,1,0,1.08" transform="translate(87.39 25.656)" fill="#407bff"/>
        <path id="Trazado_797399" data-name="Trazado 797399" d="M283.035,68.581H247.9a.54.54,0,0,1,0-1.08h35.136a.54.54,0,1,1,0,1.08" transform="translate(81.683 22.29)" fill="#407bff"/>
        <path id="Trazado_797400" data-name="Trazado 797400" d="M255.6,153.781c-8.141,0-14.811-2.406-18.954-6.881-4.422-4.777-6.257-12.289-5.034-20.612a24.9,24.9,0,0,1,15.9-20.922,38.082,38.082,0,0,1,32.226.435c4.378,2.2,7.122,4.975,8.156,8.258a1.08,1.08,0,1,1-2.06.648c-.851-2.7-3.228-5.051-7.065-6.976a35.9,35.9,0,0,0-30.378-.391A22.761,22.761,0,0,0,233.751,126.6c-1.127,7.673.507,14.537,4.483,18.831,5.527,5.97,14.678,6.4,19.641,6.124,9.225-.511,17.162-3.734,22.349-9.073,6.067-6.247,7.767-15.59,3.956-21.734-.738-1.189-2.327-3.22-4.661-3.455a1.08,1.08,0,1,1,.215-2.148c2.413.241,4.644,1.826,6.281,4.466,4.318,6.961,2.494,17.441-4.242,24.376-5.566,5.731-14.011,9.184-23.78,9.725q-1.213.068-2.39.068" transform="translate(76.361 33.684)" fill="#fff"/>
      </g>
    </g>
    <g id="Grupo_1064129" data-name="Grupo 1064129">
      <g id="Grupo_1064128" data-name="Grupo 1064128" clip-path="url(#clip-path)">
        <path id="Trazado_797401" data-name="Trazado 797401" d="M49.684,58.217,45.848,64.9l-3.759,6.827c-2.476,4.561-4.841,9.16-7,13.781-1.075,2.319-2.1,4.624-3.032,6.942l-.173.42a.563.563,0,0,1-.056.1.911.911,0,0,0-.113.185,2.271,2.271,0,0,0-.181.382,2.631,2.631,0,0,0,.16,1.49,14.768,14.768,0,0,0,3.2,4.858,58.15,58.15,0,0,0,5.195,4.923l-3.118,6.642a32.807,32.807,0,0,1-4.3-1.519,33.2,33.2,0,0,1-4.061-2.083,23.029,23.029,0,0,1-7.5-6.953,15.465,15.465,0,0,1-2.345-6.068,13.859,13.859,0,0,1-.07-3.614,12.334,12.334,0,0,1,.3-1.773l.218-.866.164-.524c.855-2.72,1.74-5.413,2.779-8.007,2.022-5.222,4.3-10.267,6.784-15.179,1.241-2.457,2.529-4.885,3.884-7.275,1.365-2.41,2.691-4.736,4.251-7.166Z" transform="translate(6.147 16.651)" fill="#ffc3bd"/>
        <path id="Trazado_797402" data-name="Trazado 797402" d="M32.6,91.194l6.99-1.817.4,11.284s-5.467.813-8.815-2.531Z" transform="translate(10.296 29.514)" fill="#ffc3bd"/>
        <path id="Trazado_797403" data-name="Trazado 797403" d="M47.41,87.947l-1.576,9.907-7.927,3.279-.4-11.284Z" transform="translate(12.385 29.042)" fill="#ffc3bd"/>
        <path id="Trazado_797404" data-name="Trazado 797404" d="M66.7,16.7c.157.773.693,1.316,1.2,1.213s.786-.813.629-1.584-.693-1.316-1.2-1.213-.787.811-.631,1.584" transform="translate(22.01 4.988)" fill="#263238"/>
        <path id="Trazado_797405" data-name="Trazado 797405" d="M67.153,17.3s2.662,4.1,5.032,5.856c-1.107,1.554-3.549,1.443-3.549,1.443Z" transform="translate(22.175 5.714)" fill="#ed847e"/>
        <path id="Trazado_797406" data-name="Trazado 797406" d="M64.019,14.093a.462.462,0,0,1-.339-.777,4.593,4.593,0,0,1,3.937-1.532.463.463,0,0,1-.153.914,3.668,3.668,0,0,0-3.106,1.246.459.459,0,0,1-.339.149" transform="translate(20.988 3.881)" fill="#263238"/>
        <path id="Trazado_797407" data-name="Trazado 797407" d="M50.691,24.472c1.4,7.149,2.8,20.249-2.2,25.019,0,0,1.954,7.252,15.238,7.252,14.607,0,6.981-7.252,6.981-7.252-7.972-1.9-7.766-7.818-6.377-13.373Z" transform="translate(16.012 8.081)" fill="#ffc3bd"/>
        <path id="Trazado_797408" data-name="Trazado 797408" d="M46.632,45.858c-1.068-1.986-2.244-4.259.189-4.971,2.675-.784,19.867-2.237,24.918-.766-1.551,2.76,1.076,6.152,1.076,6.152Z" transform="translate(14.988 13.04)" fill="#263238"/>
        <path id="Trazado_797409" data-name="Trazado 797409" d="M14.426,295.341a3.142,3.142,0,0,0,2.432-.133.945.945,0,0,0,.225-1.076,1.078,1.078,0,0,0-.6-.681c-1.32-.629-4.351.607-4.482.66a.231.231,0,0,0-.012.422,12.236,12.236,0,0,0,2.433.809m1.59-1.562a1.3,1.3,0,0,1,.271.089.629.629,0,0,1,.353.4c.124.418-.031.548-.082.592-.525.447-2.476.035-3.851-.516a7.623,7.623,0,0,1,3.31-.56" transform="translate(3.917 96.845)" fill="#94e435"/>
        <path id="Trazado_797410" data-name="Trazado 797410" d="M12.046,295.211a.239.239,0,0,0,.114,0c1.1-.323,3.468-2,3.5-3.11a.754.754,0,0,0-.592-.749,1.259,1.259,0,0,0-1.026.082c-1.306.666-2.131,3.373-2.166,3.488a.234.234,0,0,0,.057.23.242.242,0,0,0,.116.063m2.766-3.455a.96.96,0,0,1,.1.028c.286.1.282.241.281.3-.016.656-1.576,1.973-2.72,2.506.286-.781.939-2.321,1.776-2.748a.819.819,0,0,1,.563-.086" transform="translate(3.918 96.185)" fill="#94e435"/>
        <path id="Trazado_797411" data-name="Trazado 797411" d="M68.819,296.646c1.254,0,2.465-.173,2.872-.737a.875.875,0,0,0-.02-1.011,1.153,1.153,0,0,0-.733-.541c-1.627-.443-5.042,1.5-5.187,1.587a.23.23,0,0,0-.113.238.236.236,0,0,0,.182.19,17.212,17.212,0,0,0,3,.274m1.55-1.9a1.668,1.668,0,0,1,.447.053.7.7,0,0,1,.454.323c.164.287.1.43.045.512-.455.632-2.925.647-4.742.39a10.463,10.463,0,0,1,3.8-1.278" transform="translate(21.674 97.181)" fill="#94e435"/>
        <path id="Trazado_797412" data-name="Trazado 797412" d="M65.868,296.956a.236.236,0,0,0,.094-.02c1.18-.529,3.516-2.643,3.338-3.749-.043-.258-.226-.581-.862-.646a1.69,1.69,0,0,0-1.284.4c-1.244,1.02-1.506,3.653-1.518,3.765a.233.233,0,0,0,.1.21.237.237,0,0,0,.136.043m2.384-3.961c.045,0,.092,0,.14.007.416.043.442.206.451.261.106.662-1.481,2.324-2.684,3.048a5.439,5.439,0,0,1,1.29-3.014,1.228,1.228,0,0,1,.8-.3" transform="translate(21.674 96.6)" fill="#94e435"/>
        <path id="Trazado_797413" data-name="Trazado 797413" d="M57.731,301.3H67.5l.974-22.63H58.705Z" transform="translate(19.064 92.023)" fill="#ffc3bd"/>
        <path id="Trazado_797414" data-name="Trazado 797414" d="M3.812,297.516l9.551,2.069,9.59-21.079L13.4,276.437Z" transform="translate(1.259 91.285)" fill="#ffc3bd"/>
        <path id="Trazado_797415" data-name="Trazado 797415" d="M15.54,293.7,4.81,291.376a.852.852,0,0,0-.955.476L.13,299.933a1.437,1.437,0,0,0,1.031,2c3.759.746,5.627.92,10.346,1.943,2.9.628,9.457,2.224,13.464,3.093,3.921.849,5.391-2.984,3.827-3.7-7.01-3.2-9.939-6.023-11.836-8.65a2.373,2.373,0,0,0-1.423-.923" transform="translate(0 96.212)" fill="#263238"/>
        <path id="Trazado_797416" data-name="Trazado 797416" d="M68.373,294.833H57.7a.852.852,0,0,0-.831.668l-1.93,8.686a1.42,1.42,0,0,0,1.406,1.737c3.85-.065,9.411-.29,14.251-.29,5.657,0,10.543.309,17.178.309,4.012,0,5.125-4.056,3.445-4.424-7.645-1.672-13.886-1.852-20.492-5.925a4.535,4.535,0,0,0-2.354-.761" transform="translate(18.13 97.36)" fill="#263238"/>
        <path id="Trazado_797417" data-name="Trazado 797417" d="M39.483,45.006c-9.159,2.1-16.71,25.482-16.71,25.482L41.165,84.506s6.751-6.364,9.756-18.06c3.147-12.254-2.072-23.586-11.437-21.439" transform="translate(7.52 14.775)" fill="#94e435"/>
        <g id="Grupo_1064103" data-name="Grupo 1064103" transform="translate(30.293 55.921)" opacity="0.2">
          <g id="Grupo_1064102" data-name="Grupo 1064102">
            <g id="Grupo_1064101" data-name="Grupo 1064101" clip-path="url(#clip-path-15)">
              <path id="Trazado_797418" data-name="Trazado 797418" d="M39.483,45.006c-9.159,2.1-16.71,25.482-16.71,25.482L41.165,84.506s6.751-6.364,9.756-18.06c3.147-12.254-2.072-23.586-11.437-21.439" transform="translate(-22.773 -40.743)" fill="#fafafa"/>
            </g>
          </g>
        </g>
        <g id="Grupo_1064106" data-name="Grupo 1064106" transform="translate(47.87 76.976)" opacity="0.2">
          <g id="Grupo_1064105" data-name="Grupo 1064105">
            <g id="Grupo_1064104" data-name="Grupo 1064104" clip-path="url(#clip-path-16)">
              <path id="Trazado_797419" data-name="Trazado 797419" d="M42.97,57.867c-4.975,4.922-6.6,13.887-6.984,21.683l.811.625A40.175,40.175,0,0,0,46.561,62.11c.186-.732.346-1.463.479-2.182Z" transform="translate(-35.987 -57.867)"/>
            </g>
          </g>
        </g>
        <path id="Trazado_797420" data-name="Trazado 797420" d="M90.083,46.073s10.4,11.749.579,84.465H38.393c-.36-8.023,4.681-47.163-3.058-84.969a136.54,136.54,0,0,1,17.5-2.209,192.1,192.1,0,0,1,22.219,0,98.089,98.089,0,0,1,15.031,2.712" transform="translate(11.668 14.211)" fill="#94e435"/>
        <g id="Grupo_1064109" data-name="Grupo 1064109" transform="translate(47.004 49.499)" opacity="0.2">
          <g id="Grupo_1064108" data-name="Grupo 1064108">
            <g id="Grupo_1064107" data-name="Grupo 1064107" clip-path="url(#clip-path-17)">
              <path id="Trazado_797421" data-name="Trazado 797421" d="M90.083,46.073s10.4,11.749.579,84.465H38.393c-.36-8.023,4.681-47.163-3.058-84.969a136.54,136.54,0,0,1,17.5-2.209,192.1,192.1,0,0,1,22.219,0,98.089,98.089,0,0,1,15.031,2.712" transform="translate(-35.336 -35.035)" fill="#fafafa"/>
            </g>
          </g>
        </g>
        <g id="Grupo_1064112" data-name="Grupo 1064112" transform="translate(94.202 82.337)" opacity="0.2">
          <g id="Grupo_1064111" data-name="Grupo 1064111">
            <g id="Grupo_1064110" data-name="Grupo 1064110" clip-path="url(#clip-path-18)">
              <path id="Trazado_797422" data-name="Trazado 797422" d="M82.934,62.07l-.2-.173L70.856,64.744c-.678,8.035,7.582,17.639,11.839,22.028a228.069,228.069,0,0,0,.239-24.7" transform="translate(-70.817 -61.897)"/>
            </g>
          </g>
        </g>
        <g id="Grupo_1064115" data-name="Grupo 1064115" transform="translate(77.262 370.7)" opacity="0.2">
          <g id="Grupo_1064114" data-name="Grupo 1064114">
            <g id="Grupo_1064113" data-name="Grupo 1064113" clip-path="url(#clip-path-19)">
              <path id="Trazado_797423" data-name="Trazado 797423" d="M68.359,278.676l-.5,11.665H58.083l.5-11.665Z" transform="translate(-58.082 -278.676)"/>
            </g>
          </g>
        </g>
        <g id="Grupo_1064118" data-name="Grupo 1064118" transform="translate(9.707 367.727)" opacity="0.2">
          <g id="Grupo_1064117" data-name="Grupo 1064117">
            <g id="Grupo_1064116" data-name="Grupo 1064116" clip-path="url(#clip-path-20)">
              <path id="Trazado_797424" data-name="Trazado 797424" d="M12.245,276.441l9.555,2.068-4.947,10.864L7.3,287.3Z" transform="translate(-7.297 -276.441)"/>
            </g>
          </g>
        </g>
        <path id="Trazado_797425" data-name="Trazado 797425" d="M47.184,23.183c2.51,9.367,3.5,14.978,9.285,18.874,8.7,5.858,19.522-.866,19.862-10.795.3-8.938-3.852-22.756-13.906-24.644a13.228,13.228,0,0,0-15.24,16.564" transform="translate(15.425 2.105)" fill="#ffc3bd"/>
        <path id="Trazado_797426" data-name="Trazado 797426" d="M54.122,40.391c3.983,2.28,18.5-5.338,15.522-16.884,0,0,5.532-6.652,4.907-13.994S68.887-.627,63.528.948C58.8,2.337,58.94,4.924,58.94,4.924S36.608,7.553,41.374,16.632c-9.091,9.91,7.776,20.915,12.747,23.759" transform="translate(12.789 0.173)" fill="#263238"/>
        <path id="Trazado_797427" data-name="Trazado 797427" d="M42.812,13.9s-2.66-4.6-6.541-2.026c1.829.027,4.822.339,6.541,2.026" transform="translate(11.977 3.661)" fill="#263238"/>
        <path id="Trazado_797428" data-name="Trazado 797428" d="M65.8,14.523S70.667,3.537,63.079,0A18.786,18.786,0,0,1,65.8,14.523" transform="translate(20.83)" fill="#263238"/>
        <path id="Trazado_797429" data-name="Trazado 797429" d="M59.092,20.452a10.96,10.96,0,0,0,3.944,5.832c2.542,1.892,4.442.029,4.261-2.849-.162-2.59-1.681-6.7-4.487-7.464-2.764-.756-4.447,1.669-3.718,4.482" transform="translate(19.457 5.228)" fill="#ffc3bd"/>
        <path id="Trazado_797430" data-name="Trazado 797430" d="M82.125,108.817S71.035,183.5,64.947,211.477C58.28,242.116,22.529,343.482,22.529,343.482L5.035,339.7s25-82.607,30.6-125.441c4.3-32.9,12.769-105.437,12.769-105.437Z" transform="translate(1.663 35.934)" fill="#263238"/>
        <path id="Trazado_797431" data-name="Trazado 797431" d="M27.03,281.794c.074.016-3.26,6.327-3.26,6.327L4.088,283.859l1.659-5.916Z" transform="translate(1.35 91.782)" fill="#94e435"/>
        <g id="Grupo_1064121" data-name="Grupo 1064121" transform="translate(65.89 171.259)" opacity="0.3">
          <g id="Grupo_1064120" data-name="Grupo 1064120">
            <g id="Grupo_1064119" data-name="Grupo 1064119" clip-path="url(#clip-path-21)">
              <path id="Trazado_797432" data-name="Trazado 797432" d="M60.422,128.845C47.6,131.359,48.956,179.18,50.5,203.776c3.7-17.386,9.112-50.841,12.81-74.585a4.381,4.381,0,0,0-2.887-.346" transform="translate(-49.534 -128.745)"/>
            </g>
          </g>
        </g>
        <path id="Trazado_797433" data-name="Trazado 797433" d="M85.456,108.817s1.346,73.065.283,102.866c-1.105,31-11.932,132.49-11.932,132.49H57.253s-.608-99.683-1.345-130.125c-.8-33.186-4.81-105.231-4.81-105.231Z" transform="translate(16.874 35.934)" fill="#263238"/>
        <g id="Grupo_1064124" data-name="Grupo 1064124" transform="translate(158.625 93.239)" opacity="0.4">
          <g id="Grupo_1064123" data-name="Grupo 1064123">
            <g id="Grupo_1064122" data-name="Grupo 1064122" clip-path="url(#clip-path-22)">
              <path id="Trazado_797434" data-name="Trazado 797434" d="M154.855,70.093H121.131l-1.885,34.3,33.675.9Z" transform="translate(-119.247 -70.093)" fill="#263238"/>
            </g>
          </g>
        </g>
        <path id="Trazado_797435" data-name="Trazado 797435" d="M141.074,96.28,107.3,92.112a292.534,292.534,0,0,0,6.088-34.5L147.36,61.8a293.053,293.053,0,0,1-6.287,34.482" transform="translate(35.432 19.026)" fill="#00a9ff"/>
        <path id="Trazado_797436" data-name="Trazado 797436" d="M75.93,280.79c.076,0-.934,6.873-.934,6.873H54.858l-.544-6.134Z" transform="translate(17.936 92.722)" fill="#94e435"/>
        <path id="Trazado_797437" data-name="Trazado 797437" d="M83.279,52.021c1.5,2.34,3.215,4.968,4.924,7.4,1.744,2.449,3.485,4.9,5.32,7.25a99.3,99.3,0,0,0,11.643,12.995c1.028.951,2.08,1.832,3.143,2.644l.8.6a2.558,2.558,0,0,0-.468-.161c-.347-.067-.516-.007-.423.041a4.449,4.449,0,0,0,2.191-.5,25.538,25.538,0,0,0,3.363-1.747A116.759,116.759,0,0,0,127.823,69.65l5.708,4.609a67.772,67.772,0,0,1-12.793,15.607,31.379,31.379,0,0,1-4.572,3.364,17.837,17.837,0,0,1-6.711,2.493,11.784,11.784,0,0,1-5.087-.431,11.452,11.452,0,0,1-2.585-1.193l-1.153-.73q-2.283-1.481-4.347-3.11A96.484,96.484,0,0,1,81.955,75.877c-2.084-2.578-4.105-5.187-5.978-7.895-1.9-2.738-3.677-5.357-5.439-8.406Z" transform="translate(23.293 17.178)" fill="#ffc3bd"/>
        <path id="Trazado_797438" data-name="Trazado 797438" d="M65.756,60.2C62.628,73.3,86.334,86.129,86.334,86.129l15.4-18.042A127.819,127.819,0,0,0,86,49.1c-10.772-10.34-17.868,1.127-20.246,11.1" transform="translate(21.62 14.869)" fill="#94e435"/>
        <g id="Grupo_1064127" data-name="Grupo 1064127" transform="translate(87.091 56.093)" opacity="0.2">
          <g id="Grupo_1064126" data-name="Grupo 1064126">
            <g id="Grupo_1064125" data-name="Grupo 1064125" clip-path="url(#clip-path-23)">
              <path id="Trazado_797439" data-name="Trazado 797439" d="M65.756,60.2C62.628,73.3,86.334,86.129,86.334,86.129l15.4-18.042A127.819,127.819,0,0,0,86,49.1c-10.772-10.34-17.868,1.127-20.246,11.1" transform="translate(-65.471 -41.028)" fill="#fafafa"/>
            </g>
          </g>
        </g>
        <path id="Trazado_797440" data-name="Trazado 797440" d="M112.436,70.219l3.634-11.67,9.563,4.768s-1.393,8.515-8.355,9.99Z" transform="translate(37.129 19.334)" fill="#ffc3bd"/>
        <path id="Trazado_797441" data-name="Trazado 797441" d="M119,56.118l8.625,2.374-2.9,5.627-9.564-4.766Z" transform="translate(38.03 18.531)" fill="#ffc3bd"/>
      </g>
    </g>
  </g>
</svg>
